<svg id="SvgjsSvg1006" width="1624.828125" height="830.5" xmlns="http://www.w3.org/2000/svg" version="1.1" xmlns:xlink="http://www.w3.org/1999/xlink" xmlns:svgjs="http://svgjs.com/svgjs"><defs id="SvgjsDefs1007"><marker id="SvgjsMarker1024" markerWidth="16" markerHeight="12" refX="16" refY="6" viewBox="0 0 16 12" orient="auto" markerUnits="userSpaceOnUse" stroke-dasharray="0,0"><path id="SvgjsPath1025" d="M0,2 L14,6 L0,11 L0,2" fill="#323232" stroke="#323232" stroke-width="2"></path></marker><marker id="SvgjsMarker1032" markerWidth="16" markerHeight="12" refX="16" refY="6" viewBox="0 0 16 12" orient="auto" markerUnits="userSpaceOnUse" stroke-dasharray="0,0"><path id="SvgjsPath1033" d="M0,2 L14,6 L0,11 L0,2" fill="#323232" stroke="#323232" stroke-width="2"></path></marker><marker id="SvgjsMarker1040" markerWidth="16" markerHeight="12" refX="16" refY="6" viewBox="0 0 16 12" orient="auto" markerUnits="userSpaceOnUse" stroke-dasharray="0,0"><path id="SvgjsPath1041" d="M0,2 L14,6 L0,11 L0,2" fill="#323232" stroke="#323232" stroke-width="2"></path></marker><marker id="SvgjsMarker1062" markerWidth="16" markerHeight="12" refX="16" refY="6" viewBox="0 0 16 12" orient="auto" markerUnits="userSpaceOnUse" stroke-dasharray="0,0"><path id="SvgjsPath1063" d="M0,2 L14,6 L0,11 L0,2" fill="#323232" stroke="#323232" stroke-width="2"></path></marker><marker id="SvgjsMarker1079" markerWidth="16" markerHeight="12" refX="16" refY="6" viewBox="0 0 16 12" orient="auto" markerUnits="userSpaceOnUse" stroke-dasharray="0,0"><path id="SvgjsPath1080" d="M0,2 L14,6 L0,11 L0,2" fill="#323232" stroke="#323232" stroke-width="2"></path></marker><marker id="SvgjsMarker1089" markerWidth="16" markerHeight="12" refX="16" refY="6" viewBox="0 0 16 12" orient="auto" markerUnits="userSpaceOnUse" stroke-dasharray="0,0"><path id="SvgjsPath1090" d="M0,2 L14,6 L0,11 L0,2" fill="#323232" stroke="#323232" stroke-width="2"></path></marker><marker id="SvgjsMarker1106" markerWidth="16" markerHeight="12" refX="16" refY="6" viewBox="0 0 16 12" orient="auto" markerUnits="userSpaceOnUse" stroke-dasharray="0,0"><path id="SvgjsPath1107" d="M0,2 L14,6 L0,11 L0,2" fill="#323232" stroke="#323232" stroke-width="2"></path></marker><marker id="SvgjsMarker1118" markerWidth="16" markerHeight="12" refX="16" refY="6" viewBox="0 0 16 12" orient="auto" markerUnits="userSpaceOnUse" stroke-dasharray="0,0"><path id="SvgjsPath1119" d="M0,2 L14,6 L0,11 L0,2" fill="#323232" stroke="#323232" stroke-width="2"></path></marker><marker id="SvgjsMarker1122" markerWidth="16" markerHeight="12" refX="16" refY="6" viewBox="0 0 16 12" orient="auto" markerUnits="userSpaceOnUse" stroke-dasharray="0,0"><path id="SvgjsPath1123" d="M0,2 L14,6 L0,11 L0,2" fill="#323232" stroke="#323232" stroke-width="2"></path></marker><marker id="SvgjsMarker1126" markerWidth="16" markerHeight="12" refX="16" refY="6" viewBox="0 0 16 12" orient="auto" markerUnits="userSpaceOnUse" stroke-dasharray="0,0"><path id="SvgjsPath1127" d="M0,2 L14,6 L0,11 L0,2" fill="#323232" stroke="#323232" stroke-width="2"></path></marker><marker id="SvgjsMarker1138" markerWidth="16" markerHeight="12" refX="16" refY="6" viewBox="0 0 16 12" orient="auto" markerUnits="userSpaceOnUse" stroke-dasharray="0,0"><path id="SvgjsPath1139" d="M0,2 L14,6 L0,11 L0,2" fill="#323232" stroke="#323232" stroke-width="2"></path></marker><marker id="SvgjsMarker1157" markerWidth="16" markerHeight="12" refX="16" refY="6" viewBox="0 0 16 12" orient="auto" markerUnits="userSpaceOnUse" stroke-dasharray="0,0"><path id="SvgjsPath1158" d="M0,2 L14,6 L0,11 L0,2" fill="#323232" stroke="#323232" stroke-width="2"></path></marker><marker id="SvgjsMarker1165" markerWidth="16" markerHeight="12" refX="16" refY="6" viewBox="0 0 16 12" orient="auto" markerUnits="userSpaceOnUse" stroke-dasharray="0,0"><path id="SvgjsPath1166" d="M0,2 L14,6 L0,11 L0,2" fill="#323232" stroke="#323232" stroke-width="2"></path></marker><marker id="SvgjsMarker1175" markerWidth="16" markerHeight="12" refX="16" refY="6" viewBox="0 0 16 12" orient="auto" markerUnits="userSpaceOnUse" stroke-dasharray="0,0"><path id="SvgjsPath1176" d="M0,2 L14,6 L0,11 L0,2" fill="#323232" stroke="#323232" stroke-width="2"></path></marker><marker id="SvgjsMarker1197" markerWidth="16" markerHeight="12" refX="16" refY="6" viewBox="0 0 16 12" orient="auto" markerUnits="userSpaceOnUse" stroke-dasharray="0,0"><path id="SvgjsPath1198" d="M0,2 L14,6 L0,11 L0,2" fill="#323232" stroke="#323232" stroke-width="2"></path></marker><marker id="SvgjsMarker1217" markerWidth="16" markerHeight="12" refX="16" refY="6" viewBox="0 0 16 12" orient="auto" markerUnits="userSpaceOnUse" stroke-dasharray="0,0"><path id="SvgjsPath1218" d="M0,2 L14,6 L0,11 L0,2" fill="#b8b8b8" stroke="#b8b8b8" stroke-width="2"></path></marker><marker id="SvgjsMarker1221" markerWidth="16" markerHeight="12" refX="16" refY="6" viewBox="0 0 16 12" orient="auto" markerUnits="userSpaceOnUse" stroke-dasharray="0,0"><path id="SvgjsPath1222" d="M0,2 L14,6 L0,11 L0,2" fill="#323232" stroke="#323232" stroke-width="2"></path></marker><marker id="SvgjsMarker1225" markerWidth="16" markerHeight="12" refX="16" refY="6" viewBox="0 0 16 12" orient="auto" markerUnits="userSpaceOnUse" stroke-dasharray="0,0"><path id="SvgjsPath1226" d="M0,2 L14,6 L0,11 L0,2" fill="#323232" stroke="#323232" stroke-width="2"></path></marker></defs><g id="SvgjsG1008" transform="translate(201.8334267944535,102.625)"><path id="SvgjsPath1009" d="M 76.79999542236322 30L 76.79999542236322 693.875" stroke-dasharray="3,4" stroke="rgba(50,50,50,1)" stroke-width="2" fill="none"></path><path id="SvgjsPath1010" d="M 0 0L 153.59999084472645 0L 153.59999084472645 30L 0 30Z" stroke="rgba(50,50,50,1)" stroke-width="2" fill-opacity="1" fill="#ffffff"></path><g id="SvgjsG1011"><text id="SvgjsText1012" font-family="Arial" text-anchor="middle" font-size="16px" width="134px" fill="#323232" font-weight="400" align="middle" anchor="middle" family="Arial" size="16px" weight="400" font-style="" opacity="1" y="2.6" transform="rotate(0)"><tspan id="SvgjsTspan1013" dy="20" x="77"><tspan id="SvgjsTspan1014" style="text-decoration:;">ServerProvider</tspan></tspan></text></g></g><g id="SvgjsG1015" transform="translate(25.000469525136594,102.625)"><path id="SvgjsPath1016" d="M 59.2888277374317 30L 59.2888277374317 693.875" stroke-dasharray="3,4" stroke="rgba(50,50,50,1)" stroke-width="2" fill="none"></path><path id="SvgjsPath1017" d="M 0 0L 118.5776554748634 0L 118.5776554748634 30L 0 30Z" stroke="rgba(50,50,50,1)" stroke-width="2" fill-opacity="1" fill="#ffffff"></path><g id="SvgjsG1018"><text id="SvgjsText1019" font-family="Arial" text-anchor="middle" font-size="16px" width="99px" fill="#323232" font-weight="400" align="middle" anchor="middle" family="Arial" size="16px" weight="400" font-style="" opacity="1" y="2.6" transform="rotate(0)"><tspan id="SvgjsTspan1020" dy="20" x="59.5"><tspan id="SvgjsTspan1021" style="text-decoration:;">ServerBuilder</tspan></tspan></text></g></g><g id="SvgjsG1022"><path id="SvgjsPath1023" d="M293.578125 182.68126888217523L381.8522985433578 182.68126888217523L381.8522985433578 185.53245814183924L470.1264720867156 185.53245814183924" stroke="#323232" stroke-width="2" fill="none" marker-end="url(#SvgjsMarker1024)"></path><rect id="SvgjsRect1026" width="68" height="20" x="347.8522985433578" y="174.10686351200724" fill="#ffffff"></rect><text id="SvgjsText1027" font-family="Arial" text-anchor="middle" font-size="16px" width="68px" fill="#323232" font-weight="400" align="top" anchor="middle" family="Arial" size="16px" weight="400" font-style="" opacity="1" y="171.70686351200723" transform="rotate(0)"><tspan id="SvgjsTspan1028" dy="20" x="381.8522985433578"><tspan id="SvgjsTspan1029" style="text-decoration:;">provider()</tspan></tspan></text></g><g id="SvgjsG1030"><path id="SvgjsPath1031" d="M98.578125 169.5L179.578125 169.5L179.578125 170.5L260.578125 170.5" stroke="#323232" stroke-width="2" fill="none" marker-end="url(#SvgjsMarker1032)"></path><rect id="SvgjsRect1034" width="59" height="20" x="129.828125" y="159.5" fill="#ffffff"></rect><text id="SvgjsText1035" font-family="Arial" text-anchor="middle" font-size="16px" width="59px" fill="#323232" font-weight="400" align="top" anchor="middle" family="Arial" size="16px" weight="400" font-style="" opacity="1" y="157.1" transform="rotate(0)"><tspan id="SvgjsTspan1036" dy="20" x="159.328125"><tspan id="SvgjsTspan1037" style="text-decoration:;">forPort()</tspan></tspan></text></g><g id="SvgjsG1038"><path id="SvgjsPath1039" d="M499.578125 199.64547413793102L600.5686117452294 199.64547413793102L600.5686117452294 200.9357787137383L701.5590984904587 200.9357787137383" stroke="#323232" stroke-width="2" fill="none" marker-end="url(#SvgjsMarker1040)"></path><rect id="SvgjsRect1042" width="142" height="20" x="529.5686117452294" y="190.2906264258346" fill="#ffffff"></rect><text id="SvgjsText1043" font-family="Arial" text-anchor="middle" font-size="16px" width="142px" fill="#323232" font-weight="400" align="top" anchor="middle" family="Arial" size="16px" weight="400" font-style="" opacity="1" y="187.8906264258346" transform="rotate(0)"><tspan id="SvgjsTspan1044" dy="20" x="600.5686117452294"><tspan id="SvgjsTspan1045" style="text-decoration:;">getDefaultRegistry()</tspan></tspan></text></g><g id="SvgjsG1046" transform="translate(408.45321329395836,102.625)"><path id="SvgjsPath1047" d="M 73.06245585302082 30L 73.06245585302082 693.875" stroke-dasharray="3,4" stroke="rgba(50,50,50,1)" stroke-width="2" fill="none"></path><path id="SvgjsPath1048" d="M 0 0L 146.12491170604164 0L 146.12491170604164 30L 0 30Z" stroke="rgba(50,50,50,1)" stroke-width="2" fill-opacity="1" fill="#ffffff"></path><g id="SvgjsG1049"><text id="SvgjsText1050" font-family="Arial" text-anchor="middle" font-size="16px" width="127px" fill="#323232" font-weight="400" align="middle" anchor="middle" family="Arial" size="16px" weight="400" font-style="" opacity="1" y="2.6" transform="rotate(0)"><tspan id="SvgjsTspan1051" dy="20" x="73.5"><tspan id="SvgjsTspan1052" style="text-decoration:;">ServerRegistry</tspan></tspan></text></g></g><g id="SvgjsG1053" transform="translate(639.4696942174351,102.625)"><path id="SvgjsPath1054" d="M 76.79999542236328 30L 76.79999542236328 693.875" stroke-dasharray="3,4" stroke="rgba(50,50,50,1)" stroke-width="2" fill="none"></path><path id="SvgjsPath1055" d="M 0 0L 153.59999084472656 0L 153.59999084472656 30L 0 30Z" stroke="rgba(50,50,50,1)" stroke-width="2" fill-opacity="1" fill="#ffffff"></path><g id="SvgjsG1056"><text id="SvgjsText1057" font-family="Arial" text-anchor="middle" font-size="16px" width="134px" fill="#323232" font-weight="400" align="middle" anchor="middle" family="Arial" size="16px" weight="400" font-style="" opacity="1" y="2.6" transform="rotate(0)"><tspan id="SvgjsTspan1058" dy="20" x="77"><tspan id="SvgjsTspan1059" style="text-decoration:;">ServiceProviders</tspan></tspan></text></g></g><g id="SvgjsG1060"><path id="SvgjsPath1061" d="M730.578125 280.45272078501335L872.5865682434562 280.45272078501335L872.5865682434562 278.85640641475567L1014.5950114869124 278.85640641475567" stroke="#323232" stroke-width="2" fill="none" marker-end="url(#SvgjsMarker1062)"></path><rect id="SvgjsRect1064" width="240" height="20" x="752.5865682434562" y="269.6545635998845" fill="#ffffff"></rect><text id="SvgjsText1065" font-family="Arial" text-anchor="middle" font-size="16px" width="240px" fill="#323232" font-weight="400" align="top" anchor="middle" family="Arial" size="16px" weight="400" font-style="" opacity="1" y="267.25456359988453" transform="rotate(0)"><tspan id="SvgjsTspan1066" dy="20" x="872.5865682434562"><tspan id="SvgjsTspan1067" style="text-decoration:;">getCandidatesViaServiceLoader()</tspan></tspan></text></g><g id="SvgjsG1068" transform="translate(952.5473496922987,102.625)"><path id="SvgjsPath1069" d="M 76.79999542236351 30L 76.79999542236351 693.875" stroke-dasharray="3,4" stroke="rgba(50,50,50,1)" stroke-width="2" fill="none"></path><path id="SvgjsPath1070" d="M 0 0L 153.59999084472702 0L 153.59999084472702 30L 0 30Z" stroke="rgba(50,50,50,1)" stroke-width="2" fill-opacity="1" fill="#ffffff"></path><g id="SvgjsG1071"><text id="SvgjsText1072" font-family="Arial" text-anchor="middle" font-size="16px" width="134px" fill="#323232" font-weight="400" align="middle" anchor="middle" family="Arial" size="16px" weight="400" font-style="" opacity="1" y="2.6" transform="rotate(0)"><tspan id="SvgjsTspan1073" dy="20" x="77"><tspan id="SvgjsTspan1074" style="text-decoration:;">ServiceLoader</tspan></tspan></text></g></g><g id="SvgjsG1075" transform="translate(1014.2249960118888,277.50000000000006)"><path id="SvgjsPath1076" d="M 0 4Q 0 0 4 0L 26.244698205546495 0Q 30.244698205546495 0 30.244698205546495 4L 30.244698205546495 48.499999999999886Q 30.244698205546495 52.499999999999886 26.244698205546495 52.499999999999886L 4 52.499999999999886Q 0 52.499999999999886 0 48.499999999999886L 0 4Z" stroke="rgba(50,50,50,1)" stroke-width="2" fill-opacity="1" fill="#ffffff"></path></g><g id="SvgjsG1077"><path id="SvgjsPath1078" d="M1043.578125 291.5L1073.578125 291.5L1073.8460741924314 325.5L1043.8460741924314 325.5" stroke="#323232" stroke-width="2" fill="none" marker-end="url(#SvgjsMarker1079)"></path><rect id="SvgjsRect1081" width="41" height="20" x="1053.2120995962157" y="298.5" fill="#ffffff"></rect><text id="SvgjsText1082" font-family="Arial" text-anchor="middle" font-size="16px" width="41px" fill="#323232" font-weight="400" align="top" anchor="middle" family="Arial" size="16px" weight="400" font-style="" opacity="1" y="296.1" transform="rotate(0)"><tspan id="SvgjsTspan1083" dy="20" x="1073.7120995962157"><tspan id="SvgjsTspan1084" style="text-decoration:;">next()</tspan></tspan></text></g><g id="SvgjsG1085" transform="translate(1014.2249960118888,362.50000000000006)"><path id="SvgjsPath1086" d="M 0 4Q 0 0 4 0L 26.244698205546495 0Q 30.244698205546495 0 30.244698205546495 4L 30.244698205546495 52.249999999999886Q 30.244698205546495 56.249999999999886 26.244698205546495 56.249999999999886L 4 56.249999999999886Q 0 56.249999999999886 0 52.249999999999886L 0 4Z" stroke="rgba(50,50,50,1)" stroke-width="2" fill-opacity="1" fill="#ffffff"></path></g><g id="SvgjsG1087"><path id="SvgjsPath1088" d="M1043.578125 372.14285714285717L1245.0627373461493 372.14285714285717L1245.0627373461493 399.5" stroke="#323232" stroke-width="2" fill="none" marker-end="url(#SvgjsMarker1089)"></path><rect id="SvgjsRect1091" width="88" height="20" x="1113.9990026016462" y="362.14285714285717" fill="#ffffff"></rect><text id="SvgjsText1092" font-family="Arial" text-anchor="middle" font-size="16px" width="88px" fill="#323232" font-weight="400" align="top" anchor="middle" family="Arial" size="16px" weight="400" font-style="" opacity="1" y="359.7428571428572" transform="rotate(0)"><tspan id="SvgjsTspan1093" dy="20" x="1157.9990026016462"><tspan id="SvgjsTspan1094" style="text-decoration:;">nextServer()</tspan></tspan></text></g><g id="SvgjsG1095" transform="translate(1157.5473496922987,99.5)"><path id="SvgjsPath1096" d="M 87.51538765385067 30L 87.51538765385067 697" stroke-dasharray="3,4" stroke="rgba(50,50,50,1)" stroke-width="2" fill="none"></path><path id="SvgjsPath1097" d="M 0 0L 175.03077530770133 0L 175.03077530770133 30L 0 30Z" stroke="rgba(50,50,50,1)" stroke-width="2" fill-opacity="1" fill="#ffffff"></path><g id="SvgjsG1098"><text id="SvgjsText1099" font-family="Arial" text-anchor="middle" font-size="16px" width="156px" fill="#323232" font-weight="400" align="middle" anchor="middle" family="Arial" size="16px" weight="400" font-style="" opacity="1" y="2.6" transform="rotate(0)"><tspan id="SvgjsTspan1100" dy="20" x="88"><tspan id="SvgjsTspan1101" style="text-decoration:;">NettyServerProvider</tspan></tspan></text></g></g><g id="SvgjsG1102" transform="translate(701.1473405370251,267.50000000000006)"><path id="SvgjsPath1103" d="M 0 4Q 0 0 4 0L 26.244698205546495 0Q 30.244698205546495 0 30.244698205546495 4L 30.244698205546495 147.2499999999999Q 30.244698205546495 151.2499999999999 26.244698205546495 151.2499999999999L 4 151.2499999999999Q 0 151.2499999999999 0 147.2499999999999L 0 4Z" stroke="rgba(50,50,50,1)" stroke-width="2" fill-opacity="1" fill="#ffffff"></path></g><g id="SvgjsG1104"><path id="SvgjsPath1105" d="M730.578125 213.5L760.578125 213.5L761.1206688671331 249.77927069094687L731.1206688671331 249.77927069094687" stroke="#323232" stroke-width="2" fill="none" marker-end="url(#SvgjsMarker1106)"></path><rect id="SvgjsRect1108" width="59" height="20" x="731.3493969335666" y="221.63963534547344" fill="#ffffff"></rect><text id="SvgjsText1109" font-family="Arial" text-anchor="middle" font-size="16px" width="59px" fill="#323232" font-weight="400" align="top" anchor="middle" family="Arial" size="16px" weight="400" font-style="" opacity="1" y="219.23963534547343" transform="rotate(0)"><tspan id="SvgjsTspan1110" dy="20" x="760.8493969335666"><tspan id="SvgjsTspan1111" style="text-decoration:;">loadAll()</tspan></tspan></text></g><g id="SvgjsG1112" transform="translate(470.1308596135484,184.50000000000006)"><path id="SvgjsPath1113" d="M 0 4Q 0 0 4 0L 26.244698205546495 0Q 30.244698205546495 0 30.244698205546495 4L 30.244698205546495 230.2499999999999Q 30.244698205546495 234.2499999999999 26.244698205546495 234.2499999999999L 4 234.2499999999999Q 0 234.2499999999999 0 230.2499999999999L 0 4Z" stroke="rgba(50,50,50,1)" stroke-width="2" fill-opacity="1" fill="#ffffff"></path></g><g id="SvgjsG1114" transform="translate(701.1473405370251,196.50000000000006)"><path id="SvgjsPath1115" d="M 0 4Q 0 0 4 0L 26.244698205546495 0Q 30.244698205546495 0 30.244698205546495 4L 30.244698205546495 52.249999999999886Q 30.244698205546495 56.249999999999886 26.244698205546495 56.249999999999886L 4 56.249999999999886Q 0 56.249999999999886 0 52.249999999999886L 0 4Z" stroke="rgba(50,50,50,1)" stroke-width="2" fill-opacity="1" fill="#ffffff"></path></g><g id="SvgjsG1116"><path id="SvgjsPath1117" d="M1160.4233858371208 414.5L1103.5007554185604 414.5L1103.5007554185604 414.63211781824475L1046.578125 414.63211781824475" stroke-dasharray="8,5" stroke="#323232" stroke-width="2" fill="none" marker-end="url(#SvgjsMarker1118)"></path></g><g id="SvgjsG1120"><path id="SvgjsPath1121" d="M1014.854733177156 411.2056942545958L872.776736467792 411.2056942545958L872.776736467792 411.81595971334866L730.6987397584281 411.81595971334866" stroke-dasharray="8,5" stroke="#323232" stroke-width="2" fill="none" marker-end="url(#SvgjsMarker1122)"></path></g><g id="SvgjsG1124"><path id="SvgjsPath1125" d="M701.8547331771559 412.2056942545958L600.7544097060475 412.2056942545958L600.7544097060475 412.63175911166536L499.654086234939 412.63175911166536" stroke-dasharray="8,5" stroke="#323232" stroke-width="2" fill="none" marker-end="url(#SvgjsMarker1126)"></path></g><g id="SvgjsG1128" transform="translate(911.4696942174354,25)"><path id="SvgjsPath1129" d="M 0 0L 213.1084307825647 0L 229.1084307825647 16L 229.1084307825647 36.5L 0 36.5L 0 0Z" stroke="none" fill-opacity="1" fill="#ffffaa"></path><path id="SvgjsPath1130" d="M 213.1084307825647 0L 213.1084307825647 16L 229.1084307825647 16Z" stroke="none" fill-opacity="1" fill="#cdcdcd"></path><path id="SvgjsPath1131" d="M 0 0L 213.1084307825647 0L 229.1084307825647 16L 229.1084307825647 36.5L 0 36.5L 0 0Z" stroke="none" fill="none"></path><g id="SvgjsG1132"><text id="SvgjsText1133" font-family="Arial" text-anchor="middle" font-size="16px" width="210px" fill="#323232" font-weight="400" align="middle" anchor="middle" family="Arial" size="16px" weight="400" font-style="" opacity="1" y="5.85" transform="rotate(0)"><tspan id="SvgjsTspan1134" dy="20" x="115"><tspan id="SvgjsTspan1135" style="text-decoration:;">ServiceLoader is an Iterator</tspan></tspan></text></g></g><g id="SvgjsG1136"><path id="SvgjsPath1137" d="M470.29704836110994 410.2321452147779L381.9451972843715 410.2321452147779L381.9451972843715 410.04746617739625L293.59334620763303 410.04746617739625" stroke-dasharray="8,5" stroke="#323232" stroke-width="2" fill="none" marker-end="url(#SvgjsMarker1138)"></path></g><g id="SvgjsG1140" transform="translate(263.5110731140435,167.5)"><path id="SvgjsPath1141" d="M 0 4Q 0 0 4 0L 26.244698205546495 0Q 30.244698205546495 0 30.244698205546495 4L 30.244698205546495 247.24999999999994Q 30.244698205546495 251.24999999999994 26.244698205546495 251.24999999999994L 4 251.24999999999994Q 0 251.24999999999994 0 247.24999999999994L 0 4Z" stroke="rgba(50,50,50,1)" stroke-width="2" fill-opacity="1" fill="#ffffff"></path></g><g id="SvgjsG1142" transform="translate(69.16694815979506,151.5)"><path id="SvgjsPath1143" d="M 0 4Q 0 0 4 0L 26.244698205546495 0Q 30.244698205546495 0 30.244698205546495 4L 30.244698205546495 641Q 30.244698205546495 645 26.244698205546495 645L 4 645Q 0 645 0 641L 0 4Z" stroke="rgba(50,50,50,1)" stroke-width="2" fill-opacity="1" fill="#ffffff"></path></g><g id="SvgjsG1144" transform="translate(263.5110731140435,446.49999999999994)"><path id="SvgjsPath1145" d="M 0 4Q 0 0 4 0L 26.244698205546495 0Q 30.244698205546495 0 30.244698205546495 4L 30.244698205546495 346.00000000000006Q 30.244698205546495 350.00000000000006 26.244698205546495 350.00000000000006L 4 350.00000000000006Q 0 350.00000000000006 0 346.00000000000006L 0 4Z" stroke="rgba(50,50,50,1)" stroke-width="2" fill-opacity="1" fill="#ffffff"></path></g><g id="SvgjsG1146" transform="translate(1376.2102686674446,99.5)"><path id="SvgjsPath1147" d="M 87.51538765385044 30L 87.51538765385044 706" stroke-dasharray="3,4" stroke="rgba(50,50,50,1)" stroke-width="2" fill="none"></path><path id="SvgjsPath1148" d="M 0 0L 175.03077530770088 0L 175.03077530770088 30L 0 30Z" stroke="rgba(50,50,50,1)" stroke-width="2" fill-opacity="1" fill="#ffffff"></path><g id="SvgjsG1149"><text id="SvgjsText1150" font-family="Arial" text-anchor="middle" font-size="16px" width="156px" fill="#323232" font-weight="400" align="middle" anchor="middle" family="Arial" size="16px" weight="400" font-style="" opacity="1" y="2.6" transform="rotate(0)"><tspan id="SvgjsTspan1151" dy="20" x="88"><tspan id="SvgjsTspan1152" style="text-decoration:;">NettyServerBuilder</tspan></tspan></text></g></g><g id="SvgjsG1153" transform="translate(1448.6033072185219,461.37500000000006)"><path id="SvgjsPath1154" d="M 0 4Q 0 0 4 0L 26.244698205546495 0Q 30.244698205546495 0 30.244698205546495 4L 30.244698205546495 46.374999999999886Q 30.244698205546495 50.374999999999886 26.244698205546495 50.374999999999886L 4 50.374999999999886Q 0 50.374999999999886 0 46.374999999999886L 0 4Z" stroke="rgba(50,50,50,1)" stroke-width="2" fill-opacity="1" fill="#ffffff"></path></g><g id="SvgjsG1155"><path id="SvgjsPath1156" d="M293.578125 463.6662125340599L871.6260051107225 463.6662125340599L871.6260051107225 463.36788218175525L1449.673885221445 463.36788218175525" stroke="#323232" stroke-width="2" fill="none" marker-end="url(#SvgjsMarker1157)"></path><rect id="SvgjsRect1159" width="112" height="20" x="815.6260051107225" y="453.5170473579076" fill="#ffffff"></rect><text id="SvgjsText1160" font-family="Arial" text-anchor="middle" font-size="16px" width="112px" fill="#323232" font-weight="400" align="top" anchor="middle" family="Arial" size="16px" weight="400" font-style="" opacity="1" y="451.1170473579076" transform="rotate(0)"><tspan id="SvgjsTspan1161" dy="20" x="871.6260051107225"><tspan id="SvgjsTspan1162" style="text-decoration:;">builderForPort()</tspan></tspan></text></g><g id="SvgjsG1163"><path id="SvgjsPath1164" d="M1478.578125 474.5L1508.578125 474.5L1508.7590471376423 506.47393957002305L1478.7590471376423 506.47393957002305" stroke="#323232" stroke-width="2" fill="none" marker-end="url(#SvgjsMarker1165)"></path><rect id="SvgjsRect1167" width="59" height="20" x="1479.1685860688212" y="480.4869697850115" fill="#ffffff"></rect><text id="SvgjsText1168" font-family="Arial" text-anchor="middle" font-size="16px" width="59px" fill="#323232" font-weight="400" align="top" anchor="middle" family="Arial" size="16px" weight="400" font-style="" opacity="1" y="478.08696978501155" transform="rotate(0)"><tspan id="SvgjsTspan1169" dy="20" x="1508.6685860688212"><tspan id="SvgjsTspan1170" style="text-decoration:;">forPort()</tspan></tspan></text></g><g id="SvgjsG1171" transform="translate(1448.6033072185219,537.375)"><path id="SvgjsPath1172" d="M 0 4Q 0 0 4 0L 26.244698205546495 0Q 30.244698205546495 0 30.244698205546495 4L 30.244698205546495 46.374999999999886Q 30.244698205546495 50.374999999999886 26.244698205546495 50.374999999999886L 4 50.374999999999886Q 0 50.374999999999886 0 46.374999999999886L 0 4Z" stroke="rgba(50,50,50,1)" stroke-width="2" fill-opacity="1" fill="#ffffff"></path></g><g id="SvgjsG1173"><path id="SvgjsPath1174" d="M1478.578125 548.5L1508.578125 548.5L1508.7590471376423 582.473939570023L1478.7590471376423 582.473939570023" stroke="#323232" stroke-width="2" fill="none" marker-end="url(#SvgjsMarker1175)"></path><rect id="SvgjsRect1177" width="88" height="20" x="1464.6685860688212" y="555.4869697850115" fill="#ffffff"></rect><text id="SvgjsText1178" font-family="Arial" text-anchor="middle" font-size="16px" width="88px" fill="#323232" font-weight="400" align="top" anchor="middle" family="Arial" size="16px" weight="400" font-style="" opacity="1" y="553.0869697850115" transform="rotate(0)"><tspan id="SvgjsTspan1179" dy="20" x="1508.6685860688212"><tspan id="SvgjsTspan1180" style="text-decoration:;">forAddress()</tspan></tspan></text></g><g id="SvgjsG1181" transform="translate(1160.4233858371208,399.5)"><path id="SvgjsPath1182" d="M 0 0L 169.27870301805706 0L 169.27870301805706 30L 0 30Z" stroke="rgba(255,0,0,1)" stroke-width="2" fill-opacity="1" fill="#00ff00"></path><g id="SvgjsG1183"><text id="SvgjsText1184" font-family="Arial" text-anchor="middle" font-size="16px" width="150px" fill="#323232" font-weight="400" align="middle" anchor="middle" family="Arial" size="16px" weight="400" font-style="" opacity="1" y="2.6" transform="rotate(0)"><tspan id="SvgjsTspan1185" dy="20" x="85"><tspan id="SvgjsTspan1186" style="text-decoration:;">NettyServerProvider</tspan></tspan></text></g></g><g id="SvgjsG1187" transform="translate(1379.0863048122667,609.5)"><path id="SvgjsPath1188" d="M 0 0L 169.27870301805706 0L 169.27870301805706 30L 0 30Z" stroke="rgba(255,0,0,1)" stroke-width="2" fill-opacity="1" fill="#00ff00"></path><g id="SvgjsG1189"><text id="SvgjsText1190" font-family="Arial" text-anchor="middle" font-size="16px" width="150px" fill="#323232" font-weight="400" align="middle" anchor="middle" family="Arial" size="16px" weight="400" font-style="" opacity="1" y="2.6" transform="rotate(0)"><tspan id="SvgjsTspan1191" dy="20" x="85"><tspan id="SvgjsTspan1192" style="text-decoration:;">NettyServerBuilder</tspan></tspan></text></g></g><g id="SvgjsG1193" transform="translate(1448.6033072185219,655.375)"><path id="SvgjsPath1194" d="M 0 4Q 0 0 4 0L 26.244698205546495 0Q 30.244698205546495 0 30.244698205546495 4L 30.244698205546495 46.374999999999886Q 30.244698205546495 50.374999999999886 26.244698205546495 50.374999999999886L 4 50.374999999999886Q 0 50.374999999999886 0 46.374999999999886L 0 4Z" stroke="rgba(50,50,50,1)" stroke-width="2" fill-opacity="1" fill="#ffffff"></path></g><g id="SvgjsG1195"><path id="SvgjsPath1196" d="M1478.578125 666.5L1508.578125 666.5L1508.7590471376423 700.473939570023L1478.7590471376423 700.473939570023" stroke="#323232" stroke-width="2" fill="none" marker-end="url(#SvgjsMarker1197)"></path><rect id="SvgjsRect1199" width="88" height="20" x="1464.6685860688212" y="673.4869697850115" fill="#ffffff"></rect><text id="SvgjsText1200" font-family="Arial" text-anchor="middle" font-size="16px" width="88px" fill="#323232" font-weight="400" align="top" anchor="middle" family="Arial" size="16px" weight="400" font-style="" opacity="1" y="671.0869697850115" transform="rotate(0)"><tspan id="SvgjsTspan1201" dy="20" x="1508.6685860688212"><tspan id="SvgjsTspan1202" style="text-decoration:;">forAddress()</tspan></tspan></text></g><g id="SvgjsG1203" transform="translate(1379.0863048122667,722.5)"><path id="SvgjsPath1204" d="M 0 0L 169.27870301805706 0L 169.27870301805706 30L 0 30Z" stroke="rgba(255,0,0,1)" stroke-width="2" fill-opacity="1" fill="#00ff00"></path><g id="SvgjsG1205"><text id="SvgjsText1206" font-family="Arial" text-anchor="middle" font-size="16px" width="150px" fill="#323232" font-weight="400" align="middle" anchor="middle" family="Arial" size="16px" weight="400" font-style="" opacity="1" y="2.6" transform="rotate(0)"><tspan id="SvgjsTspan1207" dy="20" x="85"><tspan id="SvgjsTspan1208" style="text-decoration:;">ServerImplBuilder</tspan></tspan></text></g></g><g id="SvgjsG1209" transform="translate(1327.8322149061332,775.5)"><path id="SvgjsPath1210" d="M 0 0L 271.78688283032375 0L 271.78688283032375 30L 0 30Z" stroke="rgba(255,0,0,1)" stroke-width="2" fill-opacity="1" fill="#00ff00"></path><g id="SvgjsG1211"><text id="SvgjsText1212" font-family="Arial" text-anchor="middle" font-size="16px" width="252px" fill="#323232" font-weight="400" align="middle" anchor="middle" family="Arial" size="16px" weight="400" font-style="" opacity="1" y="2.6" transform="rotate(0)"><tspan id="SvgjsTspan1213" dy="20" x="136"><tspan id="SvgjsTspan1214" style="text-decoration:;">NettyClientTransportServersBuilder</tspan></tspan></text></g></g><g id="SvgjsG1215"><path id="SvgjsPath1216" d="M1026.0239096087175 61.5L1026.0239096087175 80.5L1026.0239096087175 80.5L1026.0239096087175 99.5" stroke-dasharray="8,5" stroke="#b8b8b8" stroke-width="2" fill="none" marker-end="url(#SvgjsMarker1217)"></path></g><g id="SvgjsG1219"><path id="SvgjsPath1220" d="M1327.8322149061332 790.5L810.756281213633 790.5L810.756281213633 790.7235428646925L293.6803475211328 790.7235428646925" stroke-dasharray="8,5" stroke="#323232" stroke-width="2" fill="none" marker-end="url(#SvgjsMarker1221)"></path></g><g id="SvgjsG1223"><path id="SvgjsPath1224" d="M263.502163765061 787.6317591116654L181.0458523353929 787.6317591116654L181.0458523353929 787.238532771757L98.58954090572476 787.238532771757" stroke-dasharray="8,5" stroke="#323232" stroke-width="2" fill="none" marker-end="url(#SvgjsMarker1225)"></path></g></svg>