<svg id="SvgjsSvg1006" width="1931.0625" height="680.5" xmlns="http://www.w3.org/2000/svg" version="1.1" xmlns:xlink="http://www.w3.org/1999/xlink" xmlns:svgjs="http://svgjs.com/svgjs"><defs id="SvgjsDefs1007"><marker id="SvgjsMarker1024" markerWidth="16" markerHeight="12" refX="16" refY="6" viewBox="0 0 16 12" orient="auto" markerUnits="userSpaceOnUse" stroke-dasharray="0,0"><path id="SvgjsPath1025" d="M0,2 L14,6 L0,11 L0,2" fill="#323232" stroke="#323232" stroke-width="2"></path></marker><marker id="SvgjsMarker1032" markerWidth="16" markerHeight="12" refX="16" refY="6" viewBox="0 0 16 12" orient="auto" markerUnits="userSpaceOnUse" stroke-dasharray="0,0"><path id="SvgjsPath1033" d="M0,2 L14,6 L0,11 L0,2" fill="#323232" stroke="#323232" stroke-width="2"></path></marker><marker id="SvgjsMarker1040" markerWidth="16" markerHeight="12" refX="16" refY="6" viewBox="0 0 16 12" orient="auto" markerUnits="userSpaceOnUse" stroke-dasharray="0,0"><path id="SvgjsPath1041" d="M0,2 L14,6 L0,11 L0,2" fill="#323232" stroke="#323232" stroke-width="2"></path></marker><marker id="SvgjsMarker1064" markerWidth="16" markerHeight="12" refX="16" refY="6" viewBox="0 0 16 12" orient="auto" markerUnits="userSpaceOnUse" stroke-dasharray="0,0"><path id="SvgjsPath1065" d="M0,2 L14,6 L0,11 L0,2" fill="#323232" stroke="#323232" stroke-width="2"></path></marker><marker id="SvgjsMarker1081" markerWidth="16" markerHeight="12" refX="16" refY="6" viewBox="0 0 16 12" orient="auto" markerUnits="userSpaceOnUse" stroke-dasharray="0,0"><path id="SvgjsPath1082" d="M0,2 L14,6 L0,11 L0,2" fill="#323232" stroke="#323232" stroke-width="2"></path></marker><marker id="SvgjsMarker1091" markerWidth="16" markerHeight="12" refX="16" refY="6" viewBox="0 0 16 12" orient="auto" markerUnits="userSpaceOnUse" stroke-dasharray="0,0"><path id="SvgjsPath1092" d="M0,2 L14,6 L0,11 L0,2" fill="#323232" stroke="#323232" stroke-width="2"></path></marker><marker id="SvgjsMarker1108" markerWidth="16" markerHeight="12" refX="16" refY="6" viewBox="0 0 16 12" orient="auto" markerUnits="userSpaceOnUse" stroke-dasharray="0,0"><path id="SvgjsPath1109" d="M0,2 L14,6 L0,11 L0,2" fill="#323232" stroke="#323232" stroke-width="2"></path></marker><marker id="SvgjsMarker1120" markerWidth="16" markerHeight="12" refX="16" refY="6" viewBox="0 0 16 12" orient="auto" markerUnits="userSpaceOnUse" stroke-dasharray="0,0"><path id="SvgjsPath1121" d="M0,2 L14,6 L0,11 L0,2" fill="#323232" stroke="#323232" stroke-width="2"></path></marker><marker id="SvgjsMarker1124" markerWidth="16" markerHeight="12" refX="16" refY="6" viewBox="0 0 16 12" orient="auto" markerUnits="userSpaceOnUse" stroke-dasharray="0,0"><path id="SvgjsPath1125" d="M0,2 L14,6 L0,11 L0,2" fill="#323232" stroke="#323232" stroke-width="2"></path></marker><marker id="SvgjsMarker1128" markerWidth="16" markerHeight="12" refX="16" refY="6" viewBox="0 0 16 12" orient="auto" markerUnits="userSpaceOnUse" stroke-dasharray="0,0"><path id="SvgjsPath1129" d="M0,2 L14,6 L0,11 L0,2" fill="#323232" stroke="#323232" stroke-width="2"></path></marker><marker id="SvgjsMarker1140" markerWidth="16" markerHeight="12" refX="16" refY="6" viewBox="0 0 16 12" orient="auto" markerUnits="userSpaceOnUse" stroke-dasharray="0,0"><path id="SvgjsPath1141" d="M0,2 L14,6 L0,11 L0,2" fill="#323232" stroke="#323232" stroke-width="2"></path></marker><marker id="SvgjsMarker1159" markerWidth="16" markerHeight="12" refX="16" refY="6" viewBox="0 0 16 12" orient="auto" markerUnits="userSpaceOnUse" stroke-dasharray="0,0"><path id="SvgjsPath1160" d="M0,2 L14,6 L0,11 L0,2" fill="#323232" stroke="#323232" stroke-width="2"></path></marker><marker id="SvgjsMarker1167" markerWidth="16" markerHeight="12" refX="16" refY="6" viewBox="0 0 16 12" orient="auto" markerUnits="userSpaceOnUse" stroke-dasharray="0,0"><path id="SvgjsPath1168" d="M0,2 L14,6 L0,11 L0,2" fill="#323232" stroke="#323232" stroke-width="2"></path></marker><marker id="SvgjsMarker1187" markerWidth="16" markerHeight="12" refX="16" refY="6" viewBox="0 0 16 12" orient="auto" markerUnits="userSpaceOnUse" stroke-dasharray="0,0"><path id="SvgjsPath1188" d="M0,2 L14,6 L0,11 L0,2" fill="#b8b8b8" stroke="#b8b8b8" stroke-width="2"></path></marker><marker id="SvgjsMarker1191" markerWidth="16" markerHeight="12" refX="16" refY="6" viewBox="0 0 16 12" orient="auto" markerUnits="userSpaceOnUse" stroke-dasharray="0,0"><path id="SvgjsPath1192" d="M0,2 L14,6 L0,11 L0,2" fill="#323232" stroke="#323232" stroke-width="2"></path></marker><marker id="SvgjsMarker1195" markerWidth="16" markerHeight="12" refX="16" refY="6" viewBox="0 0 16 12" orient="auto" markerUnits="userSpaceOnUse" stroke-dasharray="0,0"><path id="SvgjsPath1196" d="M0,2 L14,6 L0,11 L0,2" fill="#323232" stroke="#323232" stroke-width="2"></path></marker></defs><g id="SvgjsG1008" transform="translate(274.2610731140435,99.5)"><path id="SvgjsPath1009" d="M 103.87234910277323 30L 103.87234910277323 541" stroke-dasharray="3,4" stroke="rgba(50,50,50,1)" stroke-width="2" fill="none"></path><path id="SvgjsPath1010" d="M 0 0L 207.74469820554646 0L 207.74469820554646 30L 0 30Z" stroke="rgba(50,50,50,1)" stroke-width="2" fill-opacity="1" fill="#ffffff"></path><g id="SvgjsG1011"><text id="SvgjsText1012" font-family="Arial" text-anchor="middle" font-size="16px" width="188px" fill="#323232" font-weight="400" align="middle" anchor="middle" family="Arial" size="16px" weight="400" font-style="" opacity="1" y="2.6" transform="rotate(0)"><tspan id="SvgjsTspan1013" dy="20" x="104"><tspan id="SvgjsTspan1014" style="text-decoration:;">ManagedChannelProvider</tspan></tspan></text></g></g><g id="SvgjsG1015" transform="translate(25.00046952513661,99.5)"><path id="SvgjsPath1016" d="M 98.7888277374317 30L 98.7888277374317 541" stroke-dasharray="3,4" stroke="rgba(50,50,50,1)" stroke-width="2" fill="none"></path><path id="SvgjsPath1017" d="M 0 0L 197.5776554748634 0L 197.5776554748634 30L 0 30Z" stroke="rgba(50,50,50,1)" stroke-width="2" fill-opacity="1" fill="#ffffff"></path><g id="SvgjsG1018"><text id="SvgjsText1019" font-family="Arial" text-anchor="middle" font-size="16px" width="178px" fill="#323232" font-weight="400" align="middle" anchor="middle" family="Arial" size="16px" weight="400" font-style="" opacity="1" y="2.6" transform="rotate(0)"><tspan id="SvgjsTspan1020" dy="20" x="99"><tspan id="SvgjsTspan1021" style="text-decoration:;">ManagedChannelBuilder</tspan></tspan></text></g></g><g id="SvgjsG1022"><path id="SvgjsPath1023" d="M392.078125 186.5L521.3972028623577 186.5L521.3972028623577 186.55212085995402L650.7162807247155 186.55212085995402" stroke="#323232" stroke-width="2" fill="none" marker-end="url(#SvgjsMarker1024)"></path><rect id="SvgjsRect1026" width="68" height="20" x="487.39720286235774" y="176.526060429977" fill="#ffffff"></rect><text id="SvgjsText1027" font-family="Arial" text-anchor="middle" font-size="16px" width="68px" fill="#323232" font-weight="400" align="top" anchor="middle" family="Arial" size="16px" weight="400" font-style="" opacity="1" y="174.126060429977" transform="rotate(0)"><tspan id="SvgjsTspan1028" dy="20" x="521.3972028623577"><tspan id="SvgjsTspan1029" style="text-decoration:;">provider()</tspan></tspan></text></g><g id="SvgjsG1030"><path id="SvgjsPath1031" d="M138.078125 170.5L251.03254825903662 170.5L251.03254825903662 170.54188906600157L363.98697151807323 170.54188906600157" stroke="#323232" stroke-width="2" fill="none" marker-end="url(#SvgjsMarker1032)"></path><rect id="SvgjsRect1034" width="74" height="20" x="185.7939424442775" y="160.5" fill="#ffffff"></rect><text id="SvgjsText1035" font-family="Arial" text-anchor="middle" font-size="16px" width="74px" fill="#323232" font-weight="400" align="top" anchor="middle" family="Arial" size="16px" weight="400" font-style="" opacity="1" y="158.1" transform="rotate(0)"><tspan id="SvgjsTspan1036" dy="20" x="222.7939424442775"><tspan id="SvgjsTspan1037" style="text-decoration:;">forTarget()</tspan></tspan></text></g><g id="SvgjsG1038"><path id="SvgjsPath1039" d="M679.078125 199.64547413793102L810.0686117452294 199.64547413793102L810.0686117452294 200.9357787137383L941.0590984904587 200.9357787137383" stroke="#323232" stroke-width="2" fill="none" marker-end="url(#SvgjsMarker1040)"></path><rect id="SvgjsRect1042" width="142" height="20" x="739.0686117452294" y="190.2906264258346" fill="#ffffff"></rect><text id="SvgjsText1043" font-family="Arial" text-anchor="middle" font-size="16px" width="142px" fill="#323232" font-weight="400" align="top" anchor="middle" family="Arial" size="16px" weight="400" font-style="" opacity="1" y="187.8906264258346" transform="rotate(0)"><tspan id="SvgjsTspan1044" dy="20" x="810.0686117452294"><tspan id="SvgjsTspan1045" style="text-decoration:;">getDefaultRegistry()</tspan></tspan></text></g><g id="SvgjsG1046" transform="translate(562.2532087163216,99.5)"><path id="SvgjsPath1047" d="M 102.5 30L 102.5 541" stroke-dasharray="3,4" stroke="rgba(50,50,50,1)" stroke-width="2" fill="none"></path><path id="SvgjsPath1048" d="M 0 0L 205 0L 205 30L 0 30Z" stroke="rgba(50,50,50,1)" stroke-width="2" fill-opacity="1" fill="#ffffff"></path><g id="SvgjsG1049"><text id="SvgjsText1050" font-family="Arial" text-anchor="middle" font-size="16px" width="185px" fill="#323232" font-weight="400" align="middle" anchor="middle" family="Arial" size="16px" weight="400" font-style="" opacity="1" y="2.6" transform="rotate(0)"><tspan id="SvgjsTspan1051" dy="20" x="102.5"><tspan id="SvgjsTspan1052" style="text-decoration:;">ManagedChannelRegistr</tspan></tspan><tspan id="SvgjsTspan1053" dy="20" x="102.5"><tspan id="SvgjsTspan1054" style="text-decoration:;">y</tspan></tspan></text></g></g><g id="SvgjsG1055" transform="translate(878.9696942174351,99.5)"><path id="SvgjsPath1056" d="M 76.79999542236328 30L 76.79999542236328 541" stroke-dasharray="3,4" stroke="rgba(50,50,50,1)" stroke-width="2" fill="none"></path><path id="SvgjsPath1057" d="M 0 0L 153.59999084472656 0L 153.59999084472656 30L 0 30Z" stroke="rgba(50,50,50,1)" stroke-width="2" fill-opacity="1" fill="#ffffff"></path><g id="SvgjsG1058"><text id="SvgjsText1059" font-family="Arial" text-anchor="middle" font-size="16px" width="134px" fill="#323232" font-weight="400" align="middle" anchor="middle" family="Arial" size="16px" weight="400" font-style="" opacity="1" y="2.6" transform="rotate(0)"><tspan id="SvgjsTspan1060" dy="20" x="77"><tspan id="SvgjsTspan1061" style="text-decoration:;">ServiceProviders</tspan></tspan></text></g></g><g id="SvgjsG1062"><path id="SvgjsPath1063" d="M970.078125 280.45272078501335L1112.0865682434562 280.45272078501335L1112.0865682434562 278.85640641475567L1254.0950114869124 278.85640641475567" stroke="#323232" stroke-width="2" fill="none" marker-end="url(#SvgjsMarker1064)"></path><rect id="SvgjsRect1066" width="240" height="20" x="992.0865682434562" y="269.6545635998845" fill="#ffffff"></rect><text id="SvgjsText1067" font-family="Arial" text-anchor="middle" font-size="16px" width="240px" fill="#323232" font-weight="400" align="top" anchor="middle" family="Arial" size="16px" weight="400" font-style="" opacity="1" y="267.25456359988453" transform="rotate(0)"><tspan id="SvgjsTspan1068" dy="20" x="1112.0865682434562"><tspan id="SvgjsTspan1069" style="text-decoration:;">getCandidatesViaServiceLoader()</tspan></tspan></text></g><g id="SvgjsG1070" transform="translate(1192.047349692299,99.5)"><path id="SvgjsPath1071" d="M 76.79999542236351 30L 76.79999542236351 541" stroke-dasharray="3,4" stroke="rgba(50,50,50,1)" stroke-width="2" fill="none"></path><path id="SvgjsPath1072" d="M 0 0L 153.59999084472702 0L 153.59999084472702 30L 0 30Z" stroke="rgba(50,50,50,1)" stroke-width="2" fill-opacity="1" fill="#ffffff"></path><g id="SvgjsG1073"><text id="SvgjsText1074" font-family="Arial" text-anchor="middle" font-size="16px" width="134px" fill="#323232" font-weight="400" align="middle" anchor="middle" family="Arial" size="16px" weight="400" font-style="" opacity="1" y="2.6" transform="rotate(0)"><tspan id="SvgjsTspan1075" dy="20" x="77"><tspan id="SvgjsTspan1076" style="text-decoration:;">ServiceLoader</tspan></tspan></text></g></g><g id="SvgjsG1077" transform="translate(1253.7249960118888,277.50000000000006)"><path id="SvgjsPath1078" d="M 0 4Q 0 0 4 0L 26.244698205546495 0Q 30.244698205546495 0 30.244698205546495 4L 30.244698205546495 48.499999999999886Q 30.244698205546495 52.499999999999886 26.244698205546495 52.499999999999886L 4 52.499999999999886Q 0 52.499999999999886 0 48.499999999999886L 0 4Z" stroke="rgba(50,50,50,1)" stroke-width="2" fill-opacity="1" fill="#ffffff"></path></g><g id="SvgjsG1079"><path id="SvgjsPath1080" d="M1283.078125 291.5L1313.078125 291.5L1313.3460741924314 325.5L1283.3460741924314 325.5" stroke="#323232" stroke-width="2" fill="none" marker-end="url(#SvgjsMarker1081)"></path><rect id="SvgjsRect1083" width="41" height="20" x="1292.7120995962157" y="298.5" fill="#ffffff"></rect><text id="SvgjsText1084" font-family="Arial" text-anchor="middle" font-size="16px" width="41px" fill="#323232" font-weight="400" align="top" anchor="middle" family="Arial" size="16px" weight="400" font-style="" opacity="1" y="296.1" transform="rotate(0)"><tspan id="SvgjsTspan1085" dy="20" x="1313.2120995962157"><tspan id="SvgjsTspan1086" style="text-decoration:;">next()</tspan></tspan></text></g><g id="SvgjsG1087" transform="translate(1253.7249960118888,362.50000000000006)"><path id="SvgjsPath1088" d="M 0 4Q 0 0 4 0L 26.244698205546495 0Q 30.244698205546495 0 30.244698205546495 4L 30.244698205546495 52.249999999999886Q 30.244698205546495 56.249999999999886 26.244698205546495 56.249999999999886L 4 56.249999999999886Q 0 56.249999999999886 0 52.249999999999886L 0 4Z" stroke="rgba(50,50,50,1)" stroke-width="2" fill-opacity="1" fill="#ffffff"></path></g><g id="SvgjsG1089"><path id="SvgjsPath1090" d="M1283.078125 372.14285714285717L1484.5627373461493 372.14285714285717L1484.5627373461493 399.5" stroke="#323232" stroke-width="2" fill="none" marker-end="url(#SvgjsMarker1091)"></path><rect id="SvgjsRect1093" width="88" height="20" x="1353.499002601646" y="362.14285714285717" fill="#ffffff"></rect><text id="SvgjsText1094" font-family="Arial" text-anchor="middle" font-size="16px" width="88px" fill="#323232" font-weight="400" align="top" anchor="middle" family="Arial" size="16px" weight="400" font-style="" opacity="1" y="359.7428571428572" transform="rotate(0)"><tspan id="SvgjsTspan1095" dy="20" x="1397.499002601646"><tspan id="SvgjsTspan1096" style="text-decoration:;">nextServer()</tspan></tspan></text></g><g id="SvgjsG1097" transform="translate(1388.0473496922987,99.5)"><path id="SvgjsPath1098" d="M 96.51538765385067 30L 96.51538765385067 541" stroke-dasharray="3,4" stroke="rgba(50,50,50,1)" stroke-width="2" fill="none"></path><path id="SvgjsPath1099" d="M 0 0L 193.03077530770133 0L 193.03077530770133 30L 0 30Z" stroke="rgba(50,50,50,1)" stroke-width="2" fill-opacity="1" fill="#ffffff"></path><g id="SvgjsG1100"><text id="SvgjsText1101" font-family="Arial" text-anchor="middle" font-size="16px" width="174px" fill="#323232" font-weight="400" align="middle" anchor="middle" family="Arial" size="16px" weight="400" font-style="" opacity="1" y="2.6" transform="rotate(0)"><tspan id="SvgjsTspan1102" dy="20" x="97"><tspan id="SvgjsTspan1103" style="text-decoration:;">NettyChannelProvider</tspan></tspan></text></g></g><g id="SvgjsG1104" transform="translate(940.6473405370251,267.50000000000006)"><path id="SvgjsPath1105" d="M 0 4Q 0 0 4 0L 26.244698205546495 0Q 30.244698205546495 0 30.244698205546495 4L 30.244698205546495 147.2499999999999Q 30.244698205546495 151.2499999999999 26.244698205546495 151.2499999999999L 4 151.2499999999999Q 0 151.2499999999999 0 147.2499999999999L 0 4Z" stroke="rgba(50,50,50,1)" stroke-width="2" fill-opacity="1" fill="#ffffff"></path></g><g id="SvgjsG1106"><path id="SvgjsPath1107" d="M970.078125 213.5L1000.078125 213.5L1000.6206688671331 249.77927069094687L970.6206688671331 249.77927069094687" stroke="#323232" stroke-width="2" fill="none" marker-end="url(#SvgjsMarker1108)"></path><rect id="SvgjsRect1110" width="59" height="20" x="970.8493969335666" y="221.63963534547344" fill="#ffffff"></rect><text id="SvgjsText1111" font-family="Arial" text-anchor="middle" font-size="16px" width="59px" fill="#323232" font-weight="400" align="top" anchor="middle" family="Arial" size="16px" weight="400" font-style="" opacity="1" y="219.23963534547343" transform="rotate(0)"><tspan id="SvgjsTspan1112" dy="20" x="1000.3493969335666"><tspan id="SvgjsTspan1113" style="text-decoration:;">loadAll()</tspan></tspan></text></g><g id="SvgjsG1114" transform="translate(649.6308596135484,184.50000000000006)"><path id="SvgjsPath1115" d="M 0 4Q 0 0 4 0L 26.244698205546495 0Q 30.244698205546495 0 30.244698205546495 4L 30.244698205546495 230.2499999999999Q 30.244698205546495 234.2499999999999 26.244698205546495 234.2499999999999L 4 234.2499999999999Q 0 234.2499999999999 0 230.2499999999999L 0 4Z" stroke="rgba(50,50,50,1)" stroke-width="2" fill-opacity="1" fill="#ffffff"></path></g><g id="SvgjsG1116" transform="translate(940.6473405370251,196.50000000000006)"><path id="SvgjsPath1117" d="M 0 4Q 0 0 4 0L 26.244698205546495 0Q 30.244698205546495 0 30.244698205546495 4L 30.244698205546495 52.249999999999886Q 30.244698205546495 56.249999999999886 26.244698205546495 56.249999999999886L 4 56.249999999999886Q 0 56.249999999999886 0 52.249999999999886L 0 4Z" stroke="rgba(50,50,50,1)" stroke-width="2" fill-opacity="1" fill="#ffffff"></path></g><g id="SvgjsG1118"><path id="SvgjsPath1119" d="M1390.078125 415L1338.078125 415L1338.078125 414.63211781824475L1286.078125 414.63211781824475" stroke-dasharray="8,5" stroke="#323232" stroke-width="2" fill="none" marker-end="url(#SvgjsMarker1120)"></path></g><g id="SvgjsG1122"><path id="SvgjsPath1123" d="M1254.354733177156 411.2056942545958L1112.276736467792 411.2056942545958L1112.276736467792 411.81595971334866L970.1987397584281 411.81595971334866" stroke-dasharray="8,5" stroke="#323232" stroke-width="2" fill="none" marker-end="url(#SvgjsMarker1124)"></path></g><g id="SvgjsG1126"><path id="SvgjsPath1127" d="M941.3547331771559 412.2056942545958L810.2544097060475 412.2056942545958L810.2544097060475 412.63175911166536L679.154086234939 412.63175911166536" stroke-dasharray="8,5" stroke="#323232" stroke-width="2" fill="none" marker-end="url(#SvgjsMarker1128)"></path></g><g id="SvgjsG1130" transform="translate(1154.29312972338,25)"><path id="SvgjsPath1131" d="M 0 0L 213.1084307825647 0L 229.1084307825647 16L 229.1084307825647 36.5L 0 36.5L 0 0Z" stroke="none" fill-opacity="1" fill="#ffffaa"></path><path id="SvgjsPath1132" d="M 213.1084307825647 0L 213.1084307825647 16L 229.1084307825647 16Z" stroke="none" fill-opacity="1" fill="#cdcdcd"></path><path id="SvgjsPath1133" d="M 0 0L 213.1084307825647 0L 229.1084307825647 16L 229.1084307825647 36.5L 0 36.5L 0 0Z" stroke="none" fill="none"></path><g id="SvgjsG1134"><text id="SvgjsText1135" font-family="Arial" text-anchor="middle" font-size="16px" width="210px" fill="#323232" font-weight="400" align="middle" anchor="middle" family="Arial" size="16px" weight="400" font-style="" opacity="1" y="5.85" transform="rotate(0)"><tspan id="SvgjsTspan1136" dy="20" x="115"><tspan id="SvgjsTspan1137" style="text-decoration:;">ServiceLoader is an Iterator</tspan></tspan></text></g></g><g id="SvgjsG1138"><path id="SvgjsPath1139" d="M649.79704836111 410.2321452147779L521.4451972843715 410.2321452147779L521.4451972843715 410.04746617739625L393.09334620763303 410.04746617739625" stroke-dasharray="8,5" stroke="#323232" stroke-width="2" fill="none" marker-end="url(#SvgjsMarker1140)"></path></g><g id="SvgjsG1142" transform="translate(363.0110731140435,167.5)"><path id="SvgjsPath1143" d="M 0 4Q 0 0 4 0L 26.244698205546495 0Q 30.244698205546495 0 30.244698205546495 4L 30.244698205546495 247.24999999999994Q 30.244698205546495 251.24999999999994 26.244698205546495 251.24999999999994L 4 251.24999999999994Q 0 251.24999999999994 0 247.24999999999994L 0 4Z" stroke="rgba(50,50,50,1)" stroke-width="2" fill-opacity="1" fill="#ffffff"></path></g><g id="SvgjsG1144" transform="translate(108.66694815979506,151.5)"><path id="SvgjsPath1145" d="M 0 4Q 0 0 4 0L 26.244698205546495 0Q 30.244698205546495 0 30.244698205546495 4L 30.244698205546495 491Q 30.244698205546495 495 26.244698205546495 495L 4 495Q 0 495 0 491L 0 4Z" stroke="rgba(50,50,50,1)" stroke-width="2" fill-opacity="1" fill="#ffffff"></path></g><g id="SvgjsG1146" transform="translate(363.0110731140435,446.49999999999994)"><path id="SvgjsPath1147" d="M 0 4Q 0 0 4 0L 26.244698205546495 0Q 30.244698205546495 0 30.244698205546495 4L 30.244698205546495 196.0000000000001Q 30.244698205546495 200.0000000000001 26.244698205546495 200.0000000000001L 4 200.0000000000001Q 0 200.0000000000001 0 196.0000000000001L 0 4Z" stroke="rgba(50,50,50,1)" stroke-width="2" fill-opacity="1" fill="#ffffff"></path></g><g id="SvgjsG1148" transform="translate(1672.8531258103014,99.5)"><path id="SvgjsPath1149" d="M 87.51538765385044 30L 87.51538765385044 556" stroke-dasharray="3,4" stroke="rgba(50,50,50,1)" stroke-width="2" fill="none"></path><path id="SvgjsPath1150" d="M 0 0L 175.03077530770088 0L 175.03077530770088 30L 0 30Z" stroke="rgba(50,50,50,1)" stroke-width="2" fill-opacity="1" fill="#ffffff"></path><g id="SvgjsG1151"><text id="SvgjsText1152" font-family="Arial" text-anchor="middle" font-size="16px" width="156px" fill="#323232" font-weight="400" align="middle" anchor="middle" family="Arial" size="16px" weight="400" font-style="" opacity="1" y="2.6" transform="rotate(0)"><tspan id="SvgjsTspan1153" dy="20" x="88"><tspan id="SvgjsTspan1154" style="text-decoration:;">NettyChannelBuilder</tspan></tspan></text></g></g><g id="SvgjsG1155" transform="translate(1745.2461643613788,461.37500000000006)"><path id="SvgjsPath1156" d="M 0 4Q 0 0 4 0L 26.244698205546495 0Q 30.244698205546495 0 30.244698205546495 4L 30.244698205546495 46.374999999999886Q 30.244698205546495 50.374999999999886 26.244698205546495 50.374999999999886L 4 50.374999999999886Q 0 50.374999999999886 0 46.374999999999886L 0 4Z" stroke="rgba(50,50,50,1)" stroke-width="2" fill-opacity="1" fill="#ffffff"></path></g><g id="SvgjsG1157"><path id="SvgjsPath1158" d="M393.078125 462.5L1069.6974336821509 462.5L1069.6974336821509 463.36788218175525L1746.316742364302 463.36788218175525" stroke="#323232" stroke-width="2" fill="none" marker-end="url(#SvgjsMarker1159)"></path><rect id="SvgjsRect1161" width="127" height="20" x="1006.1974336821509" y="452.93394109087774" fill="#ffffff"></rect><text id="SvgjsText1162" font-family="Arial" text-anchor="middle" font-size="16px" width="127px" fill="#323232" font-weight="400" align="top" anchor="middle" family="Arial" size="16px" weight="400" font-style="" opacity="1" y="450.53394109087776" transform="rotate(0)"><tspan id="SvgjsTspan1163" dy="20" x="1069.6974336821509"><tspan id="SvgjsTspan1164" style="text-decoration:;">builderForTarget()</tspan></tspan></text></g><g id="SvgjsG1165"><path id="SvgjsPath1166" d="M1775.2209821428569 474.5L1805.2209821428569 474.5L1805.4019042804991 506.47393957002305L1775.4019042804991 506.47393957002305" stroke="#323232" stroke-width="2" fill="none" marker-end="url(#SvgjsMarker1167)"></path><rect id="SvgjsRect1169" width="74" height="20" x="1768.3114432116781" y="480.4869697850115" fill="#ffffff"></rect><text id="SvgjsText1170" font-family="Arial" text-anchor="middle" font-size="16px" width="74px" fill="#323232" font-weight="400" align="top" anchor="middle" family="Arial" size="16px" weight="400" font-style="" opacity="1" y="478.08696978501155" transform="rotate(0)"><tspan id="SvgjsTspan1171" dy="20" x="1805.3114432116781"><tspan id="SvgjsTspan1172" style="text-decoration:;">forTarget()</tspan></tspan></text></g><g id="SvgjsG1173" transform="translate(1390.078125,399.5)"><path id="SvgjsPath1174" d="M 0 0L 188.96922469229867 0L 188.96922469229867 31L 0 31Z" stroke="rgba(255,0,0,1)" stroke-width="2" fill-opacity="1" fill="#00ff00"></path><g id="SvgjsG1175"><text id="SvgjsText1176" font-family="Arial" text-anchor="middle" font-size="16px" width="169px" fill="#323232" font-weight="400" align="middle" anchor="middle" family="Arial" size="16px" weight="400" font-style="" opacity="1" y="3.1" transform="rotate(0)"><tspan id="SvgjsTspan1177" dy="20" x="94.5"><tspan id="SvgjsTspan1178" style="text-decoration:;">NettyChannelProvider</tspan></tspan></text></g></g><g id="SvgjsG1179" transform="translate(1615.066986988647,626.5)"><path id="SvgjsPath1180" d="M 0 0L 290.6030529510099 0L 290.6030529510099 29L 0 29Z" stroke="rgba(255,0,0,1)" stroke-width="2" fill-opacity="1" fill="#00ff00"></path><g id="SvgjsG1181"><text id="SvgjsText1182" font-family="Arial" text-anchor="middle" font-size="16px" width="271px" fill="#323232" font-weight="400" align="middle" anchor="middle" family="Arial" size="16px" weight="400" font-style="" opacity="1" y="2.1" transform="rotate(0)"><tspan id="SvgjsTspan1183" dy="20" x="145.5"><tspan id="SvgjsTspan1184" style="text-decoration:;">ManagedChannelImplBuilder</tspan></tspan></text></g></g><g id="SvgjsG1185"><path id="SvgjsPath1186" d="M1268.847345114662 61.5L1268.847345114662 80.5L1268.847345114662 80.5L1268.847345114662 99.5" stroke-dasharray="8,5" stroke="#b8b8b8" stroke-width="2" fill="none" marker-end="url(#SvgjsMarker1187)"></path></g><g id="SvgjsG1189"><path id="SvgjsPath1190" d="M1615.066986988647 641L1007.0725559943235 641L1007.0725559943235 641L399.078125 641" stroke-dasharray="8,5" stroke="#323232" stroke-width="2" fill="none" marker-end="url(#SvgjsMarker1191)"></path></g><g id="SvgjsG1193"><path id="SvgjsPath1194" d="M363.002163765061 641.4324337780945L253.5401443825305 641.4324337780945L253.5401443825305 641.4324337780945L144.078125 641.4324337780945" stroke-dasharray="8,5" stroke="#323232" stroke-width="2" fill="none" marker-end="url(#SvgjsMarker1195)"></path></g><g id="SvgjsG1197" transform="translate(1615.066986988647,531.5)"><path id="SvgjsPath1198" d="M 0 0L 290.6030529510099 0L 290.6030529510099 30L 0 30Z" stroke="rgba(255,0,0,1)" stroke-width="2" fill-opacity="1" fill="#00ff00"></path><g id="SvgjsG1199"><text id="SvgjsText1200" font-family="Arial" text-anchor="middle" font-size="16px" width="271px" fill="#323232" font-weight="400" align="middle" anchor="middle" family="Arial" size="16px" weight="400" font-style="" opacity="1" y="2.6" transform="rotate(0)"><tspan id="SvgjsTspan1201" dy="20" x="145.5"><tspan id="SvgjsTspan1202" style="text-decoration:;">NettyChannelTransportFactoryBuilder</tspan></tspan></text></g></g><g id="SvgjsG1203" transform="translate(1615.066986988647,579.5)"><path id="SvgjsPath1204" d="M 0 0L 290.6030529510099 0L 290.6030529510099 27L 0 27Z" stroke="rgba(255,0,0,1)" stroke-width="2" fill-opacity="1" fill="#00ff00"></path><g id="SvgjsG1205"><text id="SvgjsText1206" font-family="Arial" text-anchor="middle" font-size="16px" width="271px" fill="#323232" font-weight="400" align="middle" anchor="middle" family="Arial" size="16px" weight="400" font-style="" opacity="1" y="1.1" transform="rotate(0)"><tspan id="SvgjsTspan1207" dy="20" x="145.5"><tspan id="SvgjsTspan1208" style="text-decoration:;">NettyChannelDefaultPortProvider</tspan></tspan></text></g></g></svg>