<svg id="SvgjsSvg1177" width="1541.09375" height="440.125" xmlns="http://www.w3.org/2000/svg" version="1.1" xmlns:xlink="http://www.w3.org/1999/xlink" xmlns:svgjs="http://svgjs.com/svgjs"><defs id="SvgjsDefs1178"><marker id="SvgjsMarker1195" markerWidth="16" markerHeight="12" refX="16" refY="6" viewBox="0 0 16 12" orient="auto" markerUnits="userSpaceOnUse" stroke-dasharray="0,0"><path id="SvgjsPath1196" d="M0,2 L14,6 L0,11 L0,2" fill="#323232" stroke="#323232" stroke-width="2"></path></marker><marker id="SvgjsMarker1203" markerWidth="16" markerHeight="12" refX="16" refY="6" viewBox="0 0 16 12" orient="auto" markerUnits="userSpaceOnUse" stroke-dasharray="0,0"><path id="SvgjsPath1204" d="M0,2 L14,6 L0,11 L0,2" fill="#323232" stroke="#323232" stroke-width="2"></path></marker><marker id="SvgjsMarker1225" markerWidth="16" markerHeight="12" refX="16" refY="6" viewBox="0 0 16 12" orient="auto" markerUnits="userSpaceOnUse" stroke-dasharray="0,0"><path id="SvgjsPath1226" d="M0,2 L14,6 L0,11 L0,2" fill="#323232" stroke="#323232" stroke-width="2"></path></marker><marker id="SvgjsMarker1233" markerWidth="16" markerHeight="12" refX="16" refY="6" viewBox="0 0 16 12" orient="auto" markerUnits="userSpaceOnUse" stroke-dasharray="0,0"><path id="SvgjsPath1234" d="M0,2 L14,6 L0,11 L0,2" fill="#323232" stroke="#323232" stroke-width="2"></path></marker><marker id="SvgjsMarker1241" markerWidth="16" markerHeight="12" refX="16" refY="6" viewBox="0 0 16 12" orient="auto" markerUnits="userSpaceOnUse" stroke-dasharray="0,0"><path id="SvgjsPath1242" d="M0,2 L14,6 L0,11 L0,2" fill="#323232" stroke="#323232" stroke-width="2"></path></marker><marker id="SvgjsMarker1258" markerWidth="16" markerHeight="12" refX="16" refY="6" viewBox="0 0 16 12" orient="auto" markerUnits="userSpaceOnUse" stroke-dasharray="0,0"><path id="SvgjsPath1259" d="M0,2 L14,6 L0,11 L0,2" fill="#323232" stroke="#323232" stroke-width="2"></path></marker><marker id="SvgjsMarker1273" markerWidth="16" markerHeight="12" refX="16" refY="6" viewBox="0 0 16 12" orient="auto" markerUnits="userSpaceOnUse" stroke-dasharray="0,0"><path id="SvgjsPath1274" d="M0,2 L14,6 L0,11 L0,2" fill="#323232" stroke="#323232" stroke-width="2"></path></marker><marker id="SvgjsMarker1296" markerWidth="16" markerHeight="12" refX="16" refY="6" viewBox="0 0 16 12" orient="auto" markerUnits="userSpaceOnUse" stroke-dasharray="0,0"><path id="SvgjsPath1297" d="M0,2 L14,6 L0,11 L0,2" fill="#323232" stroke="#323232" stroke-width="2"></path></marker><marker id="SvgjsMarker1302" markerWidth="16" markerHeight="12" refX="16" refY="6" viewBox="0 0 16 12" orient="auto" markerUnits="userSpaceOnUse" stroke-dasharray="0,0"><path id="SvgjsPath1303" d="M0,2 L14,6 L0,11 L0,2" fill="#323232" stroke="#323232" stroke-width="2"></path></marker><marker id="SvgjsMarker1330" markerWidth="16" markerHeight="12" refX="16" refY="6" viewBox="0 0 16 12" orient="auto" markerUnits="userSpaceOnUse" stroke-dasharray="0,0"><path id="SvgjsPath1331" d="M0,2 L14,6 L0,11 L0,2" fill="#b8b8b8" stroke="#b8b8b8" stroke-width="2"></path></marker><marker id="SvgjsMarker1334" markerWidth="16" markerHeight="12" refX="16" refY="6" viewBox="0 0 16 12" orient="auto" markerUnits="userSpaceOnUse" stroke-dasharray="0,0"><path id="SvgjsPath1335" d="M0,2 L14,6 L0,11 L0,2" fill="#323232" stroke="#323232" stroke-width="2"></path></marker><marker id="SvgjsMarker1338" markerWidth="16" markerHeight="12" refX="16" refY="6" viewBox="0 0 16 12" orient="auto" markerUnits="userSpaceOnUse" stroke-dasharray="0,0"><path id="SvgjsPath1339" d="M0,2 L14,6 L0,11 L0,2" fill="#323232" stroke="#323232" stroke-width="2"></path></marker><marker id="SvgjsMarker1342" markerWidth="16" markerHeight="12" refX="16" refY="6" viewBox="0 0 16 12" orient="auto" markerUnits="userSpaceOnUse" stroke-dasharray="0,0"><path id="SvgjsPath1343" d="M0,2 L14,6 L0,11 L0,2" fill="#323232" stroke="#323232" stroke-width="2"></path></marker></defs><g id="SvgjsG1179" transform="translate(175.32352896706425,26.375)"><path id="SvgjsPath1180" d="M 103.30989324975246 30L 103.30989324975246 355.5" stroke-dasharray="3,4" stroke="rgba(50,50,50,1)" stroke-width="2" fill="none"></path><path id="SvgjsPath1181" d="M 0 0L 206.61978649950493 0L 206.61978649950493 30L 0 30Z" stroke="rgba(50,50,50,1)" stroke-width="2" fill-opacity="1" fill="#ffffff"></path><g id="SvgjsG1182"><text id="SvgjsText1183" font-family="Arial" text-anchor="middle" font-size="16px" width="187px" fill="#323232" font-weight="400" align="middle" anchor="middle" family="Arial" size="16px" weight="400" font-style="" opacity="1" y="2.6" transform="rotate(0)"><tspan id="SvgjsTspan1184" dy="20" x="103.5"><tspan id="SvgjsTspan1185" style="text-decoration:;">AbstractServerImplBuilder</tspan></tspan></text></g></g><g id="SvgjsG1186" transform="translate(25.000469525136594,27.9375)"><path id="SvgjsPath1187" d="M 59.2888277374317 30L 59.2888277374317 353.9375" stroke-dasharray="3,4" stroke="rgba(50,50,50,1)" stroke-width="2" fill="none"></path><path id="SvgjsPath1188" d="M 0 0L 118.5776554748634 0L 118.5776554748634 30L 0 30Z" stroke="rgba(50,50,50,1)" stroke-width="2" fill-opacity="1" fill="#ffffff"></path><g id="SvgjsG1189"><text id="SvgjsText1190" font-family="Arial" text-anchor="middle" font-size="16px" width="99px" fill="#323232" font-weight="400" align="middle" anchor="middle" family="Arial" size="16px" weight="400" font-style="" opacity="1" y="2.6" transform="rotate(0)"><tspan id="SvgjsTspan1191" dy="20" x="59.5"><tspan id="SvgjsTspan1192" style="text-decoration:;">ServerBuilder</tspan></tspan></text></g></g><g id="SvgjsG1193"><path id="SvgjsPath1194" d="M293.578125 122.875L383.4929395657227 122.875L383.4929395657227 124.16909522551259L473.40775413144536 124.16909522551259" stroke="#323232" stroke-width="2" fill="none" marker-end="url(#SvgjsMarker1195)"></path><rect id="SvgjsRect1197" width="72" height="20" x="347.4929395657227" y="113.5220476127563" fill="#ffffff"></rect><text id="SvgjsText1198" font-family="Arial" text-anchor="middle" font-size="16px" width="72px" fill="#323232" font-weight="400" align="top" anchor="middle" family="Arial" size="16px" weight="400" font-style="" opacity="1" y="111.12204761275629" transform="rotate(0)"><tspan id="SvgjsTspan1199" dy="20" x="383.4929395657227"><tspan id="SvgjsTspan1200" style="text-decoration:;">delegate()</tspan></tspan></text></g><g id="SvgjsG1201"><path id="SvgjsPath1202" d="M98.578125 100.875L181.49293956572268 100.875L181.49293956572268 101.21615372873421L264.40775413144536 101.21615372873421" stroke="#323232" stroke-width="2" fill="none" marker-end="url(#SvgjsMarker1203)"></path><rect id="SvgjsRect1205" width="91" height="20" x="115.264235924292" y="90.875" fill="#ffffff"></rect><text id="SvgjsText1206" font-family="Arial" text-anchor="middle" font-size="16px" width="91px" fill="#323232" font-weight="400" align="top" anchor="middle" family="Arial" size="16px" weight="400" font-style="" opacity="1" y="88.475" transform="rotate(0)"><tspan id="SvgjsTspan1207" dy="20" x="160.764235924292"><tspan id="SvgjsTspan1208" style="text-decoration:;">addService()</tspan></tspan></text></g><g id="SvgjsG1209" transform="translate(408.45321329395836,26.375)"><path id="SvgjsPath1210" d="M 79.06245585302082 30L 79.06245585302082 355.5" stroke-dasharray="3,4" stroke="rgba(50,50,50,1)" stroke-width="2" fill="none"></path><path id="SvgjsPath1211" d="M 0 0L 158.12491170604164 0L 158.12491170604164 30L 0 30Z" stroke="rgba(50,50,50,1)" stroke-width="2" fill-opacity="1" fill="#ffffff"></path><g id="SvgjsG1212"><text id="SvgjsText1213" font-family="Arial" text-anchor="middle" font-size="16px" width="139px" fill="#323232" font-weight="400" align="middle" anchor="middle" family="Arial" size="16px" weight="400" font-style="" opacity="1" y="2.6" transform="rotate(0)"><tspan id="SvgjsTspan1214" dy="20" x="79.5"><tspan id="SvgjsTspan1215" style="text-decoration:;">NettyServerBuilder</tspan></tspan></text></g></g><g id="SvgjsG1216" transform="translate(595.4696942174351,25)"><path id="SvgjsPath1217" d="M 76.79999542236328 30L 76.79999542236328 356.875" stroke-dasharray="3,4" stroke="rgba(50,50,50,1)" stroke-width="2" fill="none"></path><path id="SvgjsPath1218" d="M 0 0L 153.59999084472656 0L 153.59999084472656 30L 0 30Z" stroke="rgba(50,50,50,1)" stroke-width="2" fill-opacity="1" fill="#ffffff"></path><g id="SvgjsG1219"><text id="SvgjsText1220" font-family="Arial" text-anchor="middle" font-size="16px" width="134px" fill="#323232" font-weight="400" align="middle" anchor="middle" family="Arial" size="16px" weight="400" font-style="" opacity="1" y="2.6" transform="rotate(0)"><tspan id="SvgjsTspan1221" dy="20" x="77"><tspan id="SvgjsTspan1222" style="text-decoration:;">ServerImplBuilder</tspan></tspan></text></g></g><g id="SvgjsG1223"><path id="SvgjsPath1224" d="M1008.709052202717 374.875L940.5505454726442 374.875L940.5505454726442 374.875L872.3920387425716 374.875" stroke-dasharray="8,5" stroke="#323232" stroke-width="2" fill="none" marker-end="url(#SvgjsMarker1225)"></path></g><g id="SvgjsG1227" transform="translate(263.5110731140435,97.875)"><path id="SvgjsPath1228" d="M 0 4Q 0 0 4 0L 26.244698205546495 0Q 30.244698205546495 0 30.244698205546495 4L 30.244698205546495 280Q 30.244698205546495 284 26.244698205546495 284L 4 284Q 0 284 0 280L 0 4Z" stroke="rgba(50,50,50,1)" stroke-width="2" fill-opacity="1" fill="#ffffff"></path></g><g id="SvgjsG1229" transform="translate(69.16694815979506,73.875)"><path id="SvgjsPath1230" d="M 0 4Q 0 0 4 0L 26.244698205546495 0Q 30.244698205546495 0 30.244698205546495 4L 30.244698205546495 304Q 30.244698205546495 308 26.244698205546495 308L 4 308Q 0 308 0 304L 0 4Z" stroke="rgba(50,50,50,1)" stroke-width="2" fill-opacity="1" fill="#ffffff"></path></g><g id="SvgjsG1231"><path id="SvgjsPath1232" d="M263.7920630484327 377.0447777844051L263.7920630484327 377.452469912715L98.58954090572476 377.452469912715" stroke-dasharray="8,5" stroke="#323232" stroke-width="2" fill="none" marker-end="url(#SvgjsMarker1233)"></path></g><g id="SvgjsG1235" transform="translate(472.39332004420595,120.875)"><path id="SvgjsPath1236" d="M 0 4Q 0 0 4 0L 26.244698205546495 0Q 30.244698205546495 0 30.244698205546495 4L 30.244698205546495 257Q 30.244698205546495 261 26.244698205546495 261L 4 261Q 0 261 0 257L 0 4Z" stroke="rgba(50,50,50,1)" stroke-width="2" fill-opacity="1" fill="#ffffff"></path></g><g id="SvgjsG1237" transform="translate(657.1473405370251,140.875)"><path id="SvgjsPath1238" d="M 0 4Q 0 0 4 0L 26.244698205546495 0Q 30.244698205546495 0 30.244698205546495 4L 30.244698205546495 237Q 30.244698205546495 241 26.244698205546495 241L 4 241Q 0 241 0 237L 0 4Z" stroke="rgba(50,50,50,1)" stroke-width="2" fill-opacity="1" fill="#ffffff"></path></g><g id="SvgjsG1239"><path id="SvgjsPath1240" d="M500.578125 145.875L579.0477405060244 145.875L579.0477405060244 144.56959271066773L657.5173560120488 144.56959271066773" stroke="#323232" stroke-width="2" fill="none" marker-end="url(#SvgjsMarker1241)"></path><rect id="SvgjsRect1243" width="91" height="20" x="533.5477405060244" y="135.22229635533387" fill="#ffffff"></rect><text id="SvgjsText1244" font-family="Arial" text-anchor="middle" font-size="16px" width="91px" fill="#323232" font-weight="400" align="top" anchor="middle" family="Arial" size="16px" weight="400" font-style="" opacity="1" y="132.82229635533386" transform="rotate(0)"><tspan id="SvgjsTspan1245" dy="20" x="579.0477405060244"><tspan id="SvgjsTspan1246" style="text-decoration:;">addService()</tspan></tspan></text></g><g id="SvgjsG1247" transform="translate(780.4696942174351,25)"><path id="SvgjsPath1248" d="M 76.79999542236328 30L 76.79999542236328 356.875" stroke-dasharray="3,4" stroke="rgba(50,50,50,1)" stroke-width="2" fill="none"></path><path id="SvgjsPath1249" d="M 0 0L 153.59999084472656 0L 153.59999084472656 30L 0 30Z" stroke="rgba(50,50,50,1)" stroke-width="2" fill-opacity="1" fill="#ff8000"></path><g id="SvgjsG1250"><text id="SvgjsText1251" font-family="Arial" text-anchor="middle" font-size="16px" width="134px" fill="#323232" font-weight="400" align="middle" anchor="middle" family="Arial" size="16px" weight="400" font-style="" opacity="1" y="2.6" transform="rotate(0)"><tspan id="SvgjsTspan1252" dy="20" x="77"><tspan id="SvgjsTspan1253" style="text-decoration:;">GreeterGrpc</tspan></tspan></text></g></g><g id="SvgjsG1254" transform="translate(842.1473405370251,159.875)"><path id="SvgjsPath1255" d="M 0 4Q 0 0 4 0L 26.244698205546495 0Q 30.244698205546495 0 30.244698205546495 4L 30.244698205546495 218Q 30.244698205546495 222 26.244698205546495 222L 4 222Q 0 222 0 218L 0 4Z" stroke="rgba(50,50,50,1)" stroke-width="2" fill-opacity="1" fill="#ffffff"></path></g><g id="SvgjsG1256"><path id="SvgjsPath1257" d="M686.578125 163.875L764.5401443825306 163.875L764.5401443825306 162.43222681610558L842.502163765061 162.43222681610558" stroke="#323232" stroke-width="2" fill="none" marker-end="url(#SvgjsMarker1258)"></path><rect id="SvgjsRect1260" width="94" height="20" x="717.5401443825306" y="153.15361340805285" fill="#ffffff"></rect><text id="SvgjsText1261" font-family="Arial" text-anchor="middle" font-size="16px" width="94px" fill="#323232" font-weight="400" align="top" anchor="middle" family="Arial" size="16px" weight="400" font-style="" opacity="1" y="150.75361340805284" transform="rotate(0)"><tspan id="SvgjsTspan1262" dy="20" x="764.5401443825306"><tspan id="SvgjsTspan1263" style="text-decoration:;">bindService()</tspan></tspan></text></g><g id="SvgjsG1264" transform="translate(955.4696942174351,25)"><path id="SvgjsPath1265" d="M 97.5542153912827 30L 97.5542153912827 356.875" stroke-dasharray="3,4" stroke="rgba(50,50,50,1)" stroke-width="2" fill="none"></path><path id="SvgjsPath1266" d="M 0 0L 195.1084307825654 0L 195.1084307825654 30L 0 30Z" stroke="rgba(50,50,50,1)" stroke-width="2" fill-opacity="1" fill="#ffffff"></path><g id="SvgjsG1267"><text id="SvgjsText1268" font-family="Arial" text-anchor="middle" font-size="16px" width="176px" fill="#323232" font-weight="400" align="middle" anchor="middle" family="Arial" size="16px" weight="400" font-style="" opacity="1" y="2.6" transform="rotate(0)"><tspan id="SvgjsTspan1269" dy="20" x="98"><tspan id="SvgjsTspan1270" style="text-decoration:;">InternalHandlerRegistry</tspan></tspan></text></g></g><g id="SvgjsG1271"><path id="SvgjsPath1272" d="M870.578125 180.6065175097276L1276.0239096087175 180.6065175097276L1276.0239096087175 218.875" stroke="#323232" stroke-width="2" fill="none" marker-end="url(#SvgjsMarker1273)"></path></g><g id="SvgjsG1275" transform="translate(1181.469694217435,25)"><path id="SvgjsPath1276" d="M 94.55421539128247 30L 94.55421539128247 356.875" stroke-dasharray="3,4" stroke="rgba(50,50,50,1)" stroke-width="2" fill="none"></path><path id="SvgjsPath1277" d="M 0 0L 189.10843078256494 0L 189.10843078256494 30L 0 30Z" stroke="rgba(50,50,50,1)" stroke-width="2" fill-opacity="1" fill="#ffffff"></path><g id="SvgjsG1278"><text id="SvgjsText1279" font-family="Arial" text-anchor="middle" font-size="16px" width="170px" fill="#323232" font-weight="400" align="middle" anchor="middle" family="Arial" size="16px" weight="400" font-style="" opacity="1" y="2.6" transform="rotate(0)"><tspan id="SvgjsTspan1280" dy="20" x="95"><tspan id="SvgjsTspan1281" style="text-decoration:;">ServerServiceDefinition </tspan></tspan></text></g></g><g id="SvgjsG1282" transform="translate(1182.427126158562,218.875)"><path id="SvgjsPath1283" d="M 0 0L 187.193566900311 0L 187.193566900311 30L 0 30Z" stroke="rgba(255,0,0,1)" stroke-width="2" fill-opacity="1" fill="#00ff00"></path><g id="SvgjsG1284"><text id="SvgjsText1285" font-family="Arial" text-anchor="middle" font-size="16px" width="168px" fill="#323232" font-weight="400" align="middle" anchor="middle" family="Arial" size="16px" weight="400" font-style="" opacity="1" y="2.6" transform="rotate(0)"><tspan id="SvgjsTspan1286" dy="20" x="94"><tspan id="SvgjsTspan1287" style="text-decoration:;">ServerServiceDefinition </tspan></tspan></text></g></g><g id="SvgjsG1288" transform="translate(952.9484101879985,219.875)"><path id="SvgjsPath1289" d="M 0 0L 200.15099884143797 0L 200.15099884143797 28L 0 28Z" stroke="rgba(255,0,0,1)" stroke-width="2" fill-opacity="1" fill="#00ff00"></path><g id="SvgjsG1290"><text id="SvgjsText1291" font-family="Arial" text-anchor="middle" font-size="16px" width="181px" fill="#323232" font-weight="400" align="middle" anchor="middle" family="Arial" size="16px" weight="400" font-style="" opacity="1" y="1.6" transform="rotate(0)"><tspan id="SvgjsTspan1292" dy="20" x="100.5"><tspan id="SvgjsTspan1293" style="text-decoration:;">InternalHandlerRegistry</tspan></tspan></text></g></g><g id="SvgjsG1294"><path id="SvgjsPath1295" d="M870.578125 180.6065175097276L1053.0239096087175 180.6065175097276L1053.0239096087175 219.875" stroke="#323232" stroke-width="2" fill="none" marker-end="url(#SvgjsMarker1296)"></path></g><g id="SvgjsG1298" transform="translate(1037.9015605059444,276.875)"><path id="SvgjsPath1299" d="M 0 4Q 0 0 4 0L 26.244698205546495 0Q 30.244698205546495 0 30.244698205546495 4L 30.244698205546495 56Q 30.244698205546495 60 26.244698205546495 60L 4 60Q 0 60 0 56L 0 4Z" stroke="rgba(50,50,50,1)" stroke-width="2" fill-opacity="1" fill="#ffffff"></path></g><g id="SvgjsG1300"><path id="SvgjsPath1301" d="M1067.578125 291.875L1276.0239096087175 291.875L1276.0239096087175 248.875" stroke="#323232" stroke-width="2" fill="none" marker-end="url(#SvgjsMarker1302)"></path><rect id="SvgjsRect1304" width="91" height="20" x="1147.8010173043588" y="281.875" fill="#ffffff"></rect><text id="SvgjsText1305" font-family="Arial" text-anchor="middle" font-size="16px" width="91px" fill="#323232" font-weight="400" align="top" anchor="middle" family="Arial" size="16px" weight="400" font-style="" opacity="1" y="279.475" transform="rotate(0)"><tspan id="SvgjsTspan1306" dy="20" x="1193.3010173043588"><tspan id="SvgjsTspan1307" style="text-decoration:;">addService()</tspan></tspan></text></g><g id="SvgjsG1308" transform="translate(1008.709052202717,359.875)"><path id="SvgjsPath1309" d="M 0 0L 88.62971481200157 0L 88.62971481200157 30L 0 30Z" stroke="rgba(255,0,0,1)" stroke-width="2" fill-opacity="1" fill="#00ff00"></path><g id="SvgjsG1310"><text id="SvgjsText1311" font-family="Arial" text-anchor="middle" font-size="16px" width="69px" fill="#323232" font-weight="400" align="middle" anchor="middle" family="Arial" size="16px" weight="400" font-style="" opacity="1" y="2.6" transform="rotate(0)"><tspan id="SvgjsTspan1312" dy="20" x="44.5"><tspan id="SvgjsTspan1313" style="text-decoration:;">services</tspan></tspan></text></g></g><g id="SvgjsG1314" transform="translate(1153.0994090294366,335.125)"><path id="SvgjsPath1315" d="M 0 0L 347.05421539128224 0L 363.05421539128224 16L 363.05421539128224 79.5L 0 79.5L 0 0Z" stroke="none" fill-opacity="1" fill="#ffffaa"></path><path id="SvgjsPath1316" d="M 347.05421539128224 0L 347.05421539128224 16L 363.05421539128224 16Z" stroke="none" fill-opacity="1" fill="#cdcdcd"></path><path id="SvgjsPath1317" d="M 0 0L 347.05421539128224 0L 363.05421539128224 16L 363.05421539128224 79.5L 0 79.5L 0 0Z" stroke="none" fill="none"></path><g id="SvgjsG1318"><text id="SvgjsText1319" font-family="Arial" text-anchor="start" font-size="16px" width="344px" fill="#323232" font-weight="400" align="middle" anchor="start" family="Arial" size="16px" weight="400" font-style="" opacity="1" y="-2.65" transform="rotate(0)"><tspan id="SvgjsTspan1320" dy="20" x="10"><tspan id="SvgjsTspan1321" style="text-decoration:;">server-side registry center</tspan></tspan><tspan id="SvgjsTspan1322" dy="20" x="10"><tspan id="SvgjsTspan1323" style="text-decoration:;">LinkedHashMap</tspan></tspan><tspan id="SvgjsTspan1324" dy="20" x="10"><tspan id="SvgjsTspan1325" style="text-decoration:;">Key: service.getServiceDescriptor().getName()</tspan></tspan><tspan id="SvgjsTspan1326" dy="20" x="10"><tspan id="SvgjsTspan1327" style="text-decoration:;">Value: ServerServiceDefinition </tspan></tspan></text></g></g><g id="SvgjsG1328"><path id="SvgjsPath1329" d="M1153.0994090294366 374.875L1125.2190880220776 374.875L1125.2190880220776 374.875L1097.3387670147185 374.875" stroke-dasharray="8,5" stroke="#b8b8b8" stroke-width="2" fill="none" marker-end="url(#SvgjsMarker1330)"></path></g><g id="SvgjsG1332"><path id="SvgjsPath1333" d="M842.6423027724759 376.01638394617817L764.6405983802135 376.01638394617817L764.6405983802135 374.95560879376524L686.6388939879512 374.95560879376524" stroke-dasharray="8,5" stroke="#323232" stroke-width="2" fill="none" marker-end="url(#SvgjsMarker1334)"></path></g><g id="SvgjsG1336"><path id="SvgjsPath1337" d="M657.8547331771559 374.5806942545958L580.2334661754335 374.5806942545958L580.2334661754335 374.61618095489746L502.6121991737109 374.61618095489746" stroke-dasharray="8,5" stroke="#323232" stroke-width="2" fill="none" marker-end="url(#SvgjsMarker1338)"></path></g><g id="SvgjsG1340"><path id="SvgjsPath1341" d="M472.64030282649105 376.375L382.7965983391722 376.375L382.7965983391722 377.11752019522345L292.9528938518534 377.11752019522345" stroke-dasharray="8,5" stroke="#323232" stroke-width="2" fill="none" marker-end="url(#SvgjsMarker1342)"></path></g></svg>