<svg id="SvgjsSvg1006" width="1653.578125" height="367.4375" xmlns="http://www.w3.org/2000/svg" version="1.1" xmlns:xlink="http://www.w3.org/1999/xlink" xmlns:svgjs="http://svgjs.com/svgjs"><defs id="SvgjsDefs1007"><marker id="SvgjsMarker1017" markerWidth="16" markerHeight="12" refX="16" refY="6" viewBox="0 0 16 12" orient="auto" markerUnits="userSpaceOnUse" stroke-dasharray="0,0"><path id="SvgjsPath1018" d="M0,2 L14,6 L0,11 L0,2" fill="#323232" stroke="#323232" stroke-width="2"></path></marker><marker id="SvgjsMarker1041" markerWidth="16" markerHeight="12" refX="16" refY="6" viewBox="0 0 16 12" orient="auto" markerUnits="userSpaceOnUse" stroke-dasharray="0,0"><path id="SvgjsPath1042" d="M0,2 L14,6 L0,11 L0,2" fill="#323232" stroke="#323232" stroke-width="2"></path></marker><marker id="SvgjsMarker1066" markerWidth="16" markerHeight="12" refX="16" refY="6" viewBox="0 0 16 12" orient="auto" markerUnits="userSpaceOnUse" stroke-dasharray="0,0"><path id="SvgjsPath1067" d="M0,2 L14,6 L0,11 L0,2" fill="#323232" stroke="#323232" stroke-width="2"></path></marker><marker id="SvgjsMarker1090" markerWidth="16" markerHeight="12" refX="16" refY="6" viewBox="0 0 16 12" orient="auto" markerUnits="userSpaceOnUse" stroke-dasharray="0,0"><path id="SvgjsPath1091" d="M0,2 L14,6 L0,11 L0,2" fill="#323232" stroke="#323232" stroke-width="2"></path></marker><marker id="SvgjsMarker1107" markerWidth="16" markerHeight="12" refX="16" refY="6" viewBox="0 0 16 12" orient="auto" markerUnits="userSpaceOnUse" stroke-dasharray="0,0"><path id="SvgjsPath1108" d="M0,2 L14,6 L0,11 L0,2" fill="#323232" stroke="#323232" stroke-width="2"></path></marker><marker id="SvgjsMarker1117" markerWidth="16" markerHeight="12" refX="16" refY="6" viewBox="0 0 16 12" orient="auto" markerUnits="userSpaceOnUse" stroke-dasharray="0,0"><path id="SvgjsPath1118" d="M0,2 L14,6 L0,11 L0,2" fill="#323232" stroke="#323232" stroke-width="2"></path></marker><marker id="SvgjsMarker1134" markerWidth="16" markerHeight="12" refX="16" refY="6" viewBox="0 0 16 12" orient="auto" markerUnits="userSpaceOnUse" stroke-dasharray="0,0"><path id="SvgjsPath1135" d="M0,2 L14,6 L0,11 L0,2" fill="#323232" stroke="#323232" stroke-width="2"></path></marker><marker id="SvgjsMarker1153" markerWidth="16" markerHeight="12" refX="16" refY="6" viewBox="0 0 16 12" orient="auto" markerUnits="userSpaceOnUse" stroke-dasharray="0,0"><path id="SvgjsPath1154" d="M0,2 L14,6 L0,11 L0,2" fill="#323232" stroke="#323232" stroke-width="2"></path></marker><marker id="SvgjsMarker1161" markerWidth="16" markerHeight="12" refX="16" refY="6" viewBox="0 0 16 12" orient="auto" markerUnits="userSpaceOnUse" stroke-dasharray="0,0"><path id="SvgjsPath1162" d="M0,2 L14,6 L0,11 L0,2" fill="#323232" stroke="#323232" stroke-width="2"></path></marker><marker id="SvgjsMarker1165" markerWidth="16" markerHeight="12" refX="16" refY="6" viewBox="0 0 16 12" orient="auto" markerUnits="userSpaceOnUse" stroke-dasharray="0,0"><path id="SvgjsPath1166" d="M0,2 L14,6 L0,11 L0,2" fill="#323232" stroke="#323232" stroke-width="2"></path></marker><marker id="SvgjsMarker1169" markerWidth="16" markerHeight="12" refX="16" refY="6" viewBox="0 0 16 12" orient="auto" markerUnits="userSpaceOnUse" stroke-dasharray="0,0"><path id="SvgjsPath1170" d="M0,2 L14,6 L0,11 L0,2" fill="#323232" stroke="#323232" stroke-width="2"></path></marker><marker id="SvgjsMarker1173" markerWidth="16" markerHeight="12" refX="16" refY="6" viewBox="0 0 16 12" orient="auto" markerUnits="userSpaceOnUse" stroke-dasharray="0,0"><path id="SvgjsPath1174" d="M0,2 L14,6 L0,11 L0,2" fill="#323232" stroke="#323232" stroke-width="2"></path></marker></defs><g id="SvgjsG1008" transform="translate(25.000469525136594,26.5625)"><path id="SvgjsPath1009" d="M 59.2888277374317 30L 59.2888277374317 304" stroke-dasharray="3,4" stroke="rgba(50,50,50,1)" stroke-width="2" fill="none"></path><path id="SvgjsPath1010" d="M 0 0L 118.5776554748634 0L 118.5776554748634 30L 0 30Z" stroke="rgba(50,50,50,1)" stroke-width="2" fill-opacity="1" fill="#ffffff"></path><g id="SvgjsG1011"><text id="SvgjsText1012" font-family="Arial" text-anchor="middle" font-size="16px" width="99px" fill="#323232" font-weight="400" align="middle" anchor="middle" family="Arial" size="16px" weight="400" font-style="" opacity="1" y="2.6" transform="rotate(0)"><tspan id="SvgjsTspan1013" dy="20" x="59.5"><tspan id="SvgjsTspan1014" style="text-decoration:;">ServerBuilder</tspan></tspan></text></g></g><g id="SvgjsG1015"><path id="SvgjsPath1016" d="M98.578125 102.5L165.79704836110994 102.5L165.79704836110994 102.0357095704442L233.0159717222199 102.0357095704442" stroke="#323232" stroke-width="2" fill="none" marker-end="url(#SvgjsMarker1017)"></path><rect id="SvgjsRect1019" width="42" height="20" x="127.99231752083244" y="92.5" fill="#ffffff"></rect><text id="SvgjsText1020" font-family="Arial" text-anchor="middle" font-size="16px" width="42px" fill="#323232" font-weight="400" align="top" anchor="middle" family="Arial" size="16px" weight="400" font-style="" opacity="1" y="90.1" transform="rotate(0)"><tspan id="SvgjsTspan1021" dy="20" x="148.99231752083244"><tspan id="SvgjsTspan1022" style="text-decoration:;">start()</tspan></tspan></text></g><g id="SvgjsG1023" transform="translate(168.45321329395836,25)"><path id="SvgjsPath1024" d="M 79.06245585302088 30L 79.06245585302088 302.125" stroke-dasharray="3,4" stroke="rgba(50,50,50,1)" stroke-width="2" fill="none"></path><path id="SvgjsPath1025" d="M 0 0L 158.12491170604176 0L 158.12491170604176 30L 0 30Z" stroke="rgba(50,50,50,1)" stroke-width="2" fill-opacity="1" fill="#ffffff"></path><g id="SvgjsG1026"><text id="SvgjsText1027" font-family="Arial" text-anchor="middle" font-size="16px" width="139px" fill="#323232" font-weight="400" align="middle" anchor="middle" family="Arial" size="16px" weight="400" font-style="" opacity="1" y="2.6" transform="rotate(0)"><tspan id="SvgjsTspan1028" dy="20" x="79.5"><tspan id="SvgjsTspan1029" style="text-decoration:;">ServerImpl</tspan></tspan></text></g></g><g id="SvgjsG1030" transform="translate(69.16694815979506,72.5)"><path id="SvgjsPath1031" d="M 0 4Q 0 0 4 0L 26.244698205546495 0Q 30.244698205546495 0 30.244698205546495 4L 30.244698205546495 258.375Q 30.244698205546495 262.375 26.244698205546495 262.375L 4 262.375Q 0 262.375 0 258.375L 0 4Z" stroke="rgba(50,50,50,1)" stroke-width="2" fill-opacity="1" fill="#ffffff"></path></g><g id="SvgjsG1032" transform="translate(345.46969421743506,26.5625)"><path id="SvgjsPath1033" d="M 52.55421539128247 30L 52.55421539128247 309.875" stroke-dasharray="3,4" stroke="rgba(50,50,50,1)" stroke-width="2" fill="none"></path><path id="SvgjsPath1034" d="M 0 0L 105.10843078256494 0L 105.10843078256494 30L 0 30Z" stroke="rgba(50,50,50,1)" stroke-width="2" fill-opacity="1" fill="#ffffff"></path><g id="SvgjsG1035"><text id="SvgjsText1036" font-family="Arial" text-anchor="middle" font-size="16px" width="86px" fill="#323232" font-weight="400" align="middle" anchor="middle" family="Arial" size="16px" weight="400" font-style="" opacity="1" y="2.6" transform="rotate(0)"><tspan id="SvgjsTspan1037" dy="20" x="53"><tspan id="SvgjsTspan1038" style="text-decoration:;">NettyServer</tspan></tspan></text></g></g><g id="SvgjsG1039"><path id="SvgjsPath1040" d="M262.578125 121.5L323.3438944675916 121.5L323.3438944675916 121.551186771489L384.1096639351832 121.551186771489" stroke="#323232" stroke-width="2" fill="none" marker-end="url(#SvgjsMarker1041)"></path><rect id="SvgjsRect1043" width="42" height="20" x="302.3438944675916" y="111.5255933857445" fill="#ffffff"></rect><text id="SvgjsText1044" font-family="Arial" text-anchor="middle" font-size="16px" width="42px" fill="#323232" font-weight="400" align="top" anchor="middle" family="Arial" size="16px" weight="400" font-style="" opacity="1" y="109.1255933857445" transform="rotate(0)"><tspan id="SvgjsTspan1045" dy="20" x="323.3438944675916"><tspan id="SvgjsTspan1046" style="text-decoration:;">start()</tspan></tspan></text></g><g id="SvgjsG1047" transform="translate(232.39332004420598,100.125)"><path id="SvgjsPath1048" d="M 0 4Q 0 0 4 0L 26.244698205546495 0Q 30.244698205546495 0 30.244698205546495 4L 30.244698205546495 230.75Q 30.244698205546495 234.75 26.244698205546495 234.75L 4 234.75Q 0 234.75 0 230.75L 0 4Z" stroke="rgba(50,50,50,1)" stroke-width="2" fill-opacity="1" fill="#ffffff"></path></g><g id="SvgjsG1049" transform="translate(382.9015605059443,119.5)"><path id="SvgjsPath1050" d="M 0 4Q 0 0 4 0L 26.244698205546495 0Q 30.244698205546495 0 30.244698205546495 4L 30.244698205546495 211.375Q 30.244698205546495 215.375 26.244698205546495 215.375L 4 215.375Q 0 215.375 0 211.375L 0 4Z" stroke="rgba(50,50,50,1)" stroke-width="2" fill-opacity="1" fill="#ffffff"></path></g><g id="SvgjsG1051" transform="translate(473.578125,28.5625)"><path id="SvgjsPath1052" d="M 64 30L 64 302.75" stroke-dasharray="3,4" stroke="rgba(50,50,50,1)" stroke-width="2" fill="none"></path><path id="SvgjsPath1053" d="M 0 0L 128 0L 128 30L 0 30Z" stroke="rgba(50,50,50,1)" stroke-width="2" fill-opacity="1" fill="#ffffff"></path><g id="SvgjsG1054"><text id="SvgjsText1055" font-family="Arial" text-anchor="middle" font-size="16px" width="108px" fill="#323232" font-weight="400" align="middle" anchor="middle" family="Arial" size="16px" weight="400" font-style="" opacity="1" y="2.6" transform="rotate(0)"><tspan id="SvgjsTspan1056" dy="20" x="64"><tspan id="SvgjsTspan1057" style="text-decoration:;">ServerListener</tspan></tspan></text></g></g><g id="SvgjsG1058" transform="translate(475.17601730435877,162.5)"><path id="SvgjsPath1059" d="M 0 0L 124.80421539128247 0L 124.80421539128247 30L 0 30Z" stroke="rgba(255,0,0,1)" stroke-width="2" fill-opacity="1" fill="#00ff00"></path><g id="SvgjsG1060"><text id="SvgjsText1061" font-family="Arial" text-anchor="middle" font-size="16px" width="105px" fill="#323232" font-weight="400" align="middle" anchor="middle" family="Arial" size="16px" weight="400" font-style="" opacity="1" y="2.6" transform="rotate(0)"><tspan id="SvgjsTspan1062" dy="20" x="62.5"><tspan id="SvgjsTspan1063" style="text-decoration:;">ServerListener</tspan></tspan></text></g></g><g id="SvgjsG1064"><path id="SvgjsPath1065" d="M411.578125 136.52965116279069L537.578125 136.52965116279069L537.578125 162.5" stroke="#323232" stroke-width="2" fill="none" marker-end="url(#SvgjsMarker1066)"></path></g><g id="SvgjsG1068" transform="translate(807.578125,25)"><path id="SvgjsPath1069" d="M 101 30L 101 309.875" stroke-dasharray="3,4" stroke="rgba(50,50,50,1)" stroke-width="2" fill="none"></path><path id="SvgjsPath1070" d="M 0 0L 202 0L 202 30L 0 30Z" stroke="rgba(50,50,50,1)" stroke-width="2" fill-opacity="1" fill="#ffffff"></path><g id="SvgjsG1071"><text id="SvgjsText1072" font-family="Arial" text-anchor="middle" font-size="16px" width="182px" fill="#323232" font-weight="400" align="middle" anchor="middle" family="Arial" size="16px" weight="400" font-style="" opacity="1" y="2.6" transform="rotate(0)"><tspan id="SvgjsTspan1073" dy="20" x="101"><tspan id="SvgjsTspan1074" style="text-decoration:;">NettyServerTransport</tspan></tspan></text></g></g><g id="SvgjsG1075" transform="translate(624.578125,25)"><path id="SvgjsPath1076" d="M 80.5 30L 80.5 305" stroke-dasharray="3,4" stroke="rgba(50,50,50,1)" stroke-width="2" fill="none"></path><path id="SvgjsPath1077" d="M 0 0L 161 0L 161 30L 0 30Z" stroke="rgba(50,50,50,1)" stroke-width="2" fill-opacity="1" fill="#ffffff"></path><g id="SvgjsG1078"><text id="SvgjsText1079" font-family="Arial" text-anchor="middle" font-size="16px" width="141px" fill="#323232" font-weight="400" align="middle" anchor="middle" family="Arial" size="16px" weight="400" font-style="" opacity="1" y="2.6" transform="rotate(0)"><tspan id="SvgjsTspan1080" dy="20" x="80.5"><tspan id="SvgjsTspan1081" style="text-decoration:;">ChannelInitializer</tspan></tspan></text></g></g><g id="SvgjsG1082" transform="translate(626.1760173043588,163.71875)"><path id="SvgjsPath1083" d="M 0 0L 157.80421539128247 0L 157.80421539128247 27.5625L 0 27.5625Z" stroke="rgba(255,0,0,1)" stroke-width="2" fill-opacity="1" fill="#00ff00"></path><g id="SvgjsG1084"><text id="SvgjsText1085" font-family="Arial" text-anchor="middle" font-size="16px" width="138px" fill="#323232" font-weight="400" align="middle" anchor="middle" family="Arial" size="16px" weight="400" font-style="" opacity="1" y="1.38125" transform="rotate(0)"><tspan id="SvgjsTspan1086" dy="20" x="79"><tspan id="SvgjsTspan1087" style="text-decoration:;">ChannelInitializer</tspan></tspan></text></g></g><g id="SvgjsG1088"><path id="SvgjsPath1089" d="M412.578125 136.52965116279069L705.078125 136.52965116279069L705.078125 163.71875" stroke="#323232" stroke-width="2" fill="none" marker-end="url(#SvgjsMarker1090)"></path></g><g id="SvgjsG1092" transform="translate(1029.578125,25)"><path id="SvgjsPath1093" d="M 101 30L 101 302.125" stroke-dasharray="3,4" stroke="rgba(50,50,50,1)" stroke-width="2" fill="none"></path><path id="SvgjsPath1094" d="M 0 0L 202 0L 202 30L 0 30Z" stroke="rgba(50,50,50,1)" stroke-width="2" fill-opacity="1" fill="#ffffff"></path><g id="SvgjsG1095"><text id="SvgjsText1096" font-family="Arial" text-anchor="middle" font-size="16px" width="182px" fill="#323232" font-weight="400" align="middle" anchor="middle" family="Arial" size="16px" weight="400" font-style="" opacity="1" y="2.6" transform="rotate(0)"><tspan id="SvgjsTspan1097" dy="20" x="101"><tspan id="SvgjsTspan1098" style="text-decoration:;">ServerTransportListener</tspan></tspan></text></g></g><g id="SvgjsG1099" transform="translate(811.6760173043588,213.71875)"><path id="SvgjsPath1100" d="M 0 0L 193.80421539128247 0L 193.80421539128247 27.5625L 0 27.5625Z" stroke="rgba(255,0,0,1)" stroke-width="2" fill-opacity="1" fill="#00ff00"></path><g id="SvgjsG1101"><text id="SvgjsText1102" font-family="Arial" text-anchor="middle" font-size="16px" width="174px" fill="#323232" font-weight="400" align="middle" anchor="middle" family="Arial" size="16px" weight="400" font-style="" opacity="1" y="1.38125" transform="rotate(0)"><tspan id="SvgjsTspan1103" dy="20" x="97"><tspan id="SvgjsTspan1104" style="text-decoration:;">NettyServerTransport</tspan></tspan></text></g></g><g id="SvgjsG1105"><path id="SvgjsPath1106" d="M783.9802326956412 177.5L908.578125 177.5L908.578125 213.71875" stroke="#323232" stroke-width="2" fill="none" marker-end="url(#SvgjsMarker1107)"></path></g><g id="SvgjsG1109" transform="translate(1033.6760173043588,216.71875)"><path id="SvgjsPath1110" d="M 0 0L 193.80421539128247 0L 193.80421539128247 27.5625L 0 27.5625Z" stroke="rgba(255,0,0,1)" stroke-width="2" fill-opacity="1" fill="#00ff00"></path><g id="SvgjsG1111"><text id="SvgjsText1112" font-family="Arial" text-anchor="middle" font-size="16px" width="174px" fill="#323232" font-weight="400" align="middle" anchor="middle" family="Arial" size="16px" weight="400" font-style="" opacity="1" y="1.38125" transform="rotate(0)"><tspan id="SvgjsTspan1113" dy="20" x="97"><tspan id="SvgjsTspan1114" style="text-decoration:;">ServerTransportListener</tspan></tspan></text></g></g><g id="SvgjsG1115"><path id="SvgjsPath1116" d="M783.9802326956412 177.5L1130.578125 177.5L1130.578125 216.71875" stroke="#323232" stroke-width="2" fill="none" marker-end="url(#SvgjsMarker1117)"></path></g><g id="SvgjsG1119" transform="translate(1247.578125,25)"><path id="SvgjsPath1120" d="M 101 30L 101 302.125" stroke-dasharray="3,4" stroke="rgba(50,50,50,1)" stroke-width="2" fill="none"></path><path id="SvgjsPath1121" d="M 0 0L 202 0L 202 30L 0 30Z" stroke="rgba(50,50,50,1)" stroke-width="2" fill-opacity="1" fill="#ffffff"></path><g id="SvgjsG1122"><text id="SvgjsText1123" font-family="Arial" text-anchor="middle" font-size="16px" width="182px" fill="#323232" font-weight="400" align="middle" anchor="middle" family="Arial" size="16px" weight="400" font-style="" opacity="1" y="2.6" transform="rotate(0)"><tspan id="SvgjsTspan1124" dy="20" x="101"><tspan id="SvgjsTspan1125" style="text-decoration:;">ChannelFutureListener</tspan></tspan></text></g></g><g id="SvgjsG1126" transform="translate(1285.1270711521793,216.71875)"><path id="SvgjsPath1127" d="M 0 0L 126.90210769564123 0L 126.90210769564123 27.5625L 0 27.5625Z" stroke="rgba(255,0,0,1)" stroke-width="2" fill-opacity="1" fill="#00ff00"></path><g id="SvgjsG1128"><text id="SvgjsText1129" font-family="Arial" text-anchor="middle" font-size="16px" width="107px" fill="#323232" font-weight="400" align="middle" anchor="middle" family="Arial" size="16px" weight="400" font-style="" opacity="1" y="1.38125" transform="rotate(0)"><tspan id="SvgjsTspan1130" dy="20" x="63.5"><tspan id="SvgjsTspan1131" style="text-decoration:;">LoopReleaser</tspan></tspan></text></g></g><g id="SvgjsG1132"><path id="SvgjsPath1133" d="M783.9802326956412 177.5L1348.578125 177.5L1348.578125 216.71875" stroke="#323232" stroke-width="2" fill="none" marker-end="url(#SvgjsMarker1134)"></path></g><g id="SvgjsG1136" transform="translate(893.4557758972268,262.4375)"><path id="SvgjsPath1137" d="M 0 4Q 0 0 4 0L 26.244698205546495 0Q 30.244698205546495 0 30.244698205546495 4L 30.244698205546495 68.4375Q 30.244698205546495 72.4375 26.244698205546495 72.4375L 4 72.4375Q 0 72.4375 0 68.4375L 0 4Z" stroke="rgba(50,50,50,1)" stroke-width="2" fill-opacity="1" fill="#ffffff"></path></g><g id="SvgjsG1138" transform="translate(1462.578125,25)"><path id="SvgjsPath1139" d="M 83 30L 83 317" stroke-dasharray="3,4" stroke="rgba(50,50,50,1)" stroke-width="2" fill="none"></path><path id="SvgjsPath1140" d="M 0 0L 166 0L 166 30L 0 30Z" stroke="rgba(50,50,50,1)" stroke-width="2" fill-opacity="1" fill="#ffffff"></path><g id="SvgjsG1141"><text id="SvgjsText1142" font-family="Arial" text-anchor="middle" font-size="16px" width="146px" fill="#323232" font-weight="400" align="middle" anchor="middle" family="Arial" size="16px" weight="400" font-style="" opacity="1" y="2.6" transform="rotate(0)"><tspan id="SvgjsTspan1143" dy="20" x="83"><tspan id="SvgjsTspan1144" style="text-decoration:;">NettyServerHandler</tspan></tspan></text></g></g><g id="SvgjsG1145" transform="translate(1482.1270711521793,314.4375)"><path id="SvgjsPath1146" d="M 0 0L 126.90210769564123 0L 126.90210769564123 27.5625L 0 27.5625Z" stroke="rgba(255,0,0,1)" stroke-width="2" fill-opacity="1" fill="#00ff00"></path><g id="SvgjsG1147"><text id="SvgjsText1148" font-family="Arial" text-anchor="middle" font-size="16px" width="107px" fill="#323232" font-weight="400" align="middle" anchor="middle" family="Arial" size="16px" weight="400" font-style="" opacity="1" y="1.38125" transform="rotate(0)"><tspan id="SvgjsTspan1149" dy="20" x="63.5"><tspan id="SvgjsTspan1150" style="text-decoration:;">grpcHandler</tspan></tspan></text></g></g><g id="SvgjsG1151"><path id="SvgjsPath1152" d="M921.578125 278.5L1545.578125 278.5L1545.578125 314.4375" stroke="#323232" stroke-width="2" fill="none" marker-end="url(#SvgjsMarker1153)"></path><rect id="SvgjsRect1155" width="42" height="20" x="1230.546875" y="268.5" fill="#ffffff"></rect><text id="SvgjsText1156" font-family="Arial" text-anchor="middle" font-size="16px" width="42px" fill="#323232" font-weight="400" align="top" anchor="middle" family="Arial" size="16px" weight="400" font-style="" opacity="1" y="266.1" transform="rotate(0)"><tspan id="SvgjsTspan1157" dy="20" x="1251.546875"><tspan id="SvgjsTspan1158" style="text-decoration:;">start()</tspan></tspan></text></g><g id="SvgjsG1159"><path id="SvgjsPath1160" d="M1482.1270711521793 328.21875L1202.4430591449109 328.21875L1202.4430591449109 328.473939570023L922.7590471376423 328.473939570023" stroke-dasharray="8,5" stroke="#323232" stroke-width="2" fill="none" marker-end="url(#SvgjsMarker1161)"></path></g><g id="SvgjsG1163"><path id="SvgjsPath1164" d="M892.1270711521793 329.21875L652.446290289053 329.21875L652.446290289053 329.6547634765186L412.7655094259267 329.6547634765186" stroke-dasharray="8,5" stroke="#323232" stroke-width="2" fill="none" marker-end="url(#SvgjsMarker1165)"></path></g><g id="SvgjsG1167"><path id="SvgjsPath1168" d="M382.9082520189222 328L322.7431885094611 328L322.7431885094611 328.5L262.578125 328.5" stroke-dasharray="8,5" stroke="#323232" stroke-width="2" fill="none" marker-end="url(#SvgjsMarker1169)"></path></g><g id="SvgjsG1171"><path id="SvgjsPath1172" d="M232.9082520189222 328L165.81133685688297 328L165.81133685688297 328.4647238195899L98.71442169484374 328.4647238195899" stroke-dasharray="8,5" stroke="#323232" stroke-width="2" fill="none" marker-end="url(#SvgjsMarker1173)"></path></g></svg>