<svg id="SvgjsSvg1006" width="1970.046875" height="615.59375" xmlns="http://www.w3.org/2000/svg" version="1.1" xmlns:xlink="http://www.w3.org/1999/xlink" xmlns:svgjs="http://svgjs.com/svgjs"><defs id="SvgjsDefs1007"><marker id="SvgjsMarker1024" markerWidth="16" markerHeight="12" refX="16" refY="6" viewBox="0 0 16 12" orient="auto" markerUnits="userSpaceOnUse" stroke-dasharray="0,0"><path id="SvgjsPath1025" d="M0,2 L14,6 L0,11 L0,2" fill="#323232" stroke="#323232" stroke-width="2"></path></marker><marker id="SvgjsMarker1032" markerWidth="16" markerHeight="12" refX="16" refY="6" viewBox="0 0 16 12" orient="auto" markerUnits="userSpaceOnUse" stroke-dasharray="0,0"><path id="SvgjsPath1033" d="M0,2 L14,6 L0,11 L0,2" fill="#323232" stroke="#323232" stroke-width="2"></path></marker><marker id="SvgjsMarker1078" markerWidth="16" markerHeight="12" refX="16" refY="6" viewBox="0 0 16 12" orient="auto" markerUnits="userSpaceOnUse" stroke-dasharray="0,0"><path id="SvgjsPath1079" d="M0,2 L14,6 L0,11 L0,2" fill="#323232" stroke="#323232" stroke-width="2"></path></marker><marker id="SvgjsMarker1094" markerWidth="16" markerHeight="12" refX="16" refY="6" viewBox="0 0 16 12" orient="auto" markerUnits="userSpaceOnUse" stroke-dasharray="0,0"><path id="SvgjsPath1095" d="M0,2 L14,6 L0,11 L0,2" fill="#323232" stroke="#323232" stroke-width="2"></path></marker><marker id="SvgjsMarker1104" markerWidth="16" markerHeight="12" refX="16" refY="6" viewBox="0 0 16 12" orient="auto" markerUnits="userSpaceOnUse" stroke-dasharray="0,0"><path id="SvgjsPath1105" d="M0,2 L14,6 L0,11 L0,2" fill="#323232" stroke="#323232" stroke-width="2"></path></marker><marker id="SvgjsMarker1108" markerWidth="16" markerHeight="12" refX="16" refY="6" viewBox="0 0 16 12" orient="auto" markerUnits="userSpaceOnUse" stroke-dasharray="0,0"><path id="SvgjsPath1109" d="M0,2 L14,6 L0,11 L0,2" fill="#323232" stroke="#323232" stroke-width="2"></path></marker><marker id="SvgjsMarker1138" markerWidth="16" markerHeight="12" refX="16" refY="6" viewBox="0 0 16 12" orient="auto" markerUnits="userSpaceOnUse" stroke-dasharray="0,0"><path id="SvgjsPath1139" d="M0,2 L14,6 L0,11 L0,2" fill="#323232" stroke="#323232" stroke-width="2"></path></marker><marker id="SvgjsMarker1142" markerWidth="16" markerHeight="12" refX="16" refY="6" viewBox="0 0 16 12" orient="auto" markerUnits="userSpaceOnUse" stroke-dasharray="0,0"><path id="SvgjsPath1143" d="M0,2 L14,6 L0,11 L0,2" fill="#323232" stroke="#323232" stroke-width="2"></path></marker><marker id="SvgjsMarker1154" markerWidth="16" markerHeight="12" refX="16" refY="6" viewBox="0 0 16 12" orient="auto" markerUnits="userSpaceOnUse" stroke-dasharray="0,0"><path id="SvgjsPath1155" d="M0,2 L14,6 L0,11 L0,2" fill="#cfcfcf" stroke="#cfcfcf" stroke-width="2"></path></marker><marker id="SvgjsMarker1164" markerWidth="16" markerHeight="12" refX="16" refY="6" viewBox="0 0 16 12" orient="auto" markerUnits="userSpaceOnUse" stroke-dasharray="0,0"><path id="SvgjsPath1165" d="M0,2 L14,6 L0,11 L0,2" fill="#323232" stroke="#323232" stroke-width="2"></path></marker><marker id="SvgjsMarker1168" markerWidth="16" markerHeight="12" refX="16" refY="6" viewBox="0 0 16 12" orient="auto" markerUnits="userSpaceOnUse" stroke-dasharray="0,0"><path id="SvgjsPath1169" d="M0,2 L14,6 L0,11 L0,2" fill="#323232" stroke="#323232" stroke-width="2"></path></marker><marker id="SvgjsMarker1172" markerWidth="16" markerHeight="12" refX="16" refY="6" viewBox="0 0 16 12" orient="auto" markerUnits="userSpaceOnUse" stroke-dasharray="0,0"><path id="SvgjsPath1173" d="M0,2 L14,6 L0,11 L0,2" fill="#323232" stroke="#323232" stroke-width="2"></path></marker><marker id="SvgjsMarker1176" markerWidth="16" markerHeight="12" refX="16" refY="6" viewBox="0 0 16 12" orient="auto" markerUnits="userSpaceOnUse" stroke-dasharray="0,0"><path id="SvgjsPath1177" d="M0,2 L14,6 L0,11 L0,2" fill="#323232" stroke="#323232" stroke-width="2"></path></marker><marker id="SvgjsMarker1204" markerWidth="16" markerHeight="12" refX="16" refY="6" viewBox="0 0 16 12" orient="auto" markerUnits="userSpaceOnUse" stroke-dasharray="0,0"><path id="SvgjsPath1205" d="M0,2 L14,6 L0,11 L0,2" fill="#cfcfcf" stroke="#cfcfcf" stroke-width="2"></path></marker><marker id="SvgjsMarker1208" markerWidth="16" markerHeight="12" refX="16" refY="6" viewBox="0 0 16 12" orient="auto" markerUnits="userSpaceOnUse" stroke-dasharray="0,0"><path id="SvgjsPath1209" d="M0,2 L14,6 L0,11 L0,2" fill="#cfcfcf" stroke="#cfcfcf" stroke-width="2"></path></marker><marker id="SvgjsMarker1212" markerWidth="16" markerHeight="12" refX="16" refY="6" viewBox="0 0 16 12" orient="auto" markerUnits="userSpaceOnUse" stroke-dasharray="0,0"><path id="SvgjsPath1213" d="M0,2 L14,6 L0,11 L0,2" fill="#cfcfcf" stroke="#cfcfcf" stroke-width="2"></path></marker><marker id="SvgjsMarker1216" markerWidth="16" markerHeight="12" refX="16" refY="6" viewBox="0 0 16 12" orient="auto" markerUnits="userSpaceOnUse" stroke-dasharray="0,0"><path id="SvgjsPath1217" d="M0,2 L14,6 L0,11 L0,2" fill="#cfcfcf" stroke="#cfcfcf" stroke-width="2"></path></marker><marker id="SvgjsMarker1220" markerWidth="16" markerHeight="12" refX="16" refY="6" viewBox="0 0 16 12" orient="auto" markerUnits="userSpaceOnUse" stroke-dasharray="0,0"><path id="SvgjsPath1221" d="M0,2 L14,6 L0,11 L0,2" fill="#cfcfcf" stroke="#cfcfcf" stroke-width="2"></path></marker><marker id="SvgjsMarker1224" markerWidth="16" markerHeight="12" refX="16" refY="6" viewBox="0 0 16 12" orient="auto" markerUnits="userSpaceOnUse" stroke-dasharray="0,0"><path id="SvgjsPath1225" d="M0,2 L14,6 L0,11 L0,2" fill="#323232" stroke="#323232" stroke-width="2"></path></marker></defs><g id="SvgjsG1008" transform="translate(263.72489627383845,25)"><path id="SvgjsPath1009" d="M 114.40852594297826 30L 114.40852594297826 541" stroke-dasharray="3,4" stroke="rgba(50,50,50,1)" stroke-width="2" fill="none"></path><path id="SvgjsPath1010" d="M 0 0L 228.81705188595652 0L 228.81705188595652 30L 0 30Z" stroke="rgba(50,50,50,1)" stroke-width="2" fill-opacity="1" fill="#ffffff"></path><g id="SvgjsG1011"><text id="SvgjsText1012" font-family="Arial" text-anchor="middle" font-size="16px" width="209px" fill="#323232" font-weight="400" align="middle" anchor="middle" family="Arial" size="16px" weight="400" font-style="" opacity="1" y="2.6" transform="rotate(0)"><tspan id="SvgjsTspan1013" dy="20" x="114.5"><tspan id="SvgjsTspan1014" style="text-decoration:;">ManagedChannelImplBuilder</tspan></tspan></text></g></g><g id="SvgjsG1015" transform="translate(25.00046952513661,25)"><path id="SvgjsPath1016" d="M 98.7888277374317 30L 98.7888277374317 541" stroke-dasharray="3,4" stroke="rgba(50,50,50,1)" stroke-width="2" fill="none"></path><path id="SvgjsPath1017" d="M 0 0L 197.5776554748634 0L 197.5776554748634 30L 0 30Z" stroke="rgba(50,50,50,1)" stroke-width="2" fill-opacity="1" fill="#ffffff"></path><g id="SvgjsG1018"><text id="SvgjsText1019" font-family="Arial" text-anchor="middle" font-size="16px" width="178px" fill="#323232" font-weight="400" align="middle" anchor="middle" family="Arial" size="16px" weight="400" font-style="" opacity="1" y="2.6" transform="rotate(0)"><tspan id="SvgjsTspan1020" dy="20" x="99"><tspan id="SvgjsTspan1021" style="text-decoration:;">ManagedChannelBuilder</tspan></tspan></text></g></g><g id="SvgjsG1022"><path id="SvgjsPath1023" d="M393.078125 112L664.7532087163215 112L664.7532087163215 138" stroke="#323232" stroke-width="2" fill="none" marker-end="url(#SvgjsMarker1024)"></path><rect id="SvgjsRect1026" width="44" height="20" x="519.9156668581608" y="102" fill="#ffffff"></rect><text id="SvgjsText1027" font-family="Arial" text-anchor="middle" font-size="16px" width="44px" fill="#323232" font-weight="400" align="top" anchor="middle" family="Arial" size="16px" weight="400" font-style="" opacity="1" y="99.6" transform="rotate(0)"><tspan id="SvgjsTspan1028" dy="20" x="541.9156668581608"><tspan id="SvgjsTspan1029" style="text-decoration:;">build()</tspan></tspan></text></g><g id="SvgjsG1030"><path id="SvgjsPath1031" d="M138.078125 96L250.99293956572268 96L250.99293956572268 96.29409522551259L363.90775413144536 96.29409522551259" stroke="#323232" stroke-width="2" fill="none" marker-end="url(#SvgjsMarker1032)"></path><rect id="SvgjsRect1034" width="44" height="20" x="200.76423592429205" y="86" fill="#ffffff"></rect><text id="SvgjsText1035" font-family="Arial" text-anchor="middle" font-size="16px" width="44px" fill="#323232" font-weight="400" align="top" anchor="middle" family="Arial" size="16px" weight="400" font-style="" opacity="1" y="83.6" transform="rotate(0)"><tspan id="SvgjsTspan1036" dy="20" x="222.76423592429205"><tspan id="SvgjsTspan1037" style="text-decoration:;">build()</tspan></tspan></text></g><g id="SvgjsG1038" transform="translate(533.3407505744824,25)"><path id="SvgjsPath1039" d="M 131.41245814183918 30L 131.41245814183918 541" stroke-dasharray="3,4" stroke="rgba(50,50,50,1)" stroke-width="2" fill="none"></path><path id="SvgjsPath1040" d="M 0 0L 262.82491628367836 0L 262.82491628367836 30L 0 30Z" stroke="rgba(50,50,50,1)" stroke-width="2" fill-opacity="1" fill="#ffffff"></path><g id="SvgjsG1041"><text id="SvgjsText1042" font-family="Arial" text-anchor="middle" font-size="16px" width="243px" fill="#323232" font-weight="400" align="middle" anchor="middle" family="Arial" size="16px" weight="400" font-style="" opacity="1" y="2.6" transform="rotate(0)"><tspan id="SvgjsTspan1043" dy="20" x="131.5"><tspan id="SvgjsTspan1044" style="text-decoration:;">ManagedChannelOrphanWrapper</tspan></tspan></text></g></g><g id="SvgjsG1045" transform="translate(854.078125,25)"><path id="SvgjsPath1046" d="M 89.24578003108081 30L 89.24578003108081 541" stroke-dasharray="3,4" stroke="rgba(50,50,50,1)" stroke-width="2" fill="none"></path><path id="SvgjsPath1047" d="M 0 0L 178.49156006216162 0L 178.49156006216162 30L 0 30Z" stroke="rgba(50,50,50,1)" stroke-width="2" fill-opacity="1" fill="#ffffff"></path><g id="SvgjsG1048"><text id="SvgjsText1049" font-family="Arial" text-anchor="middle" font-size="16px" width="159px" fill="#323232" font-weight="400" align="middle" anchor="middle" family="Arial" size="16px" weight="400" font-style="" opacity="1" y="2.6" transform="rotate(0)"><tspan id="SvgjsTspan1050" dy="20" x="89.5"><tspan id="SvgjsTspan1051" style="text-decoration:;">ManagedChannelImpl</tspan></tspan></text></g></g><g id="SvgjsG1052" transform="translate(1085.078125,25)"><path id="SvgjsPath1053" d="M 83.78460776851296 30L 83.78460776851296 541" stroke-dasharray="3,4" stroke="rgba(50,50,50,1)" stroke-width="2" fill="none"></path><path id="SvgjsPath1054" d="M 0 0L 167.5692155370259 0L 167.5692155370259 30L 0 30Z" stroke="rgba(50,50,50,1)" stroke-width="2" fill-opacity="1" fill="#ffffff"></path><g id="SvgjsG1055"><text id="SvgjsText1056" font-family="Arial" text-anchor="middle" font-size="16px" width="148px" fill="#323232" font-weight="400" align="middle" anchor="middle" family="Arial" size="16px" weight="400" font-style="" opacity="1" y="2.6" transform="rotate(0)"><tspan id="SvgjsTspan1057" dy="20" x="84"><tspan id="SvgjsTspan1058" style="text-decoration:;">NettyChannelBuilder</tspan></tspan></text></g></g><g id="SvgjsG1059" transform="translate(1312.0473496922987,25)"><path id="SvgjsPath1060" d="M 96.51538765385067 30L 96.51538765385067 541" stroke-dasharray="3,4" stroke="rgba(50,50,50,1)" stroke-width="2" fill="none"></path><path id="SvgjsPath1061" d="M 0 0L 193.03077530770133 0L 193.03077530770133 30L 0 30Z" stroke="rgba(50,50,50,1)" stroke-width="2" fill-opacity="1" fill="#ffffff"></path><g id="SvgjsG1062"><text id="SvgjsText1063" font-family="Arial" text-anchor="middle" font-size="16px" width="174px" fill="#323232" font-weight="400" align="middle" anchor="middle" family="Arial" size="16px" weight="400" font-style="" opacity="1" y="2.6" transform="rotate(0)"><tspan id="SvgjsTspan1064" dy="20" x="97"><tspan id="SvgjsTspan1065" style="text-decoration:;">NettyTransportFactory</tspan></tspan></text></g></g><g id="SvgjsG1066" transform="translate(363.0110731140435,93)"><path id="SvgjsPath1067" d="M 0 4Q 0 0 4 0L 26.244698205546495 0Q 30.244698205546495 0 30.244698205546495 4L 30.244698205546495 473.5Q 30.244698205546495 477.5 26.244698205546495 477.5L 4 477.5Q 0 477.5 0 473.5L 0 4Z" stroke="rgba(50,50,50,1)" stroke-width="2" fill-opacity="1" fill="#ffffff"></path></g><g id="SvgjsG1068" transform="translate(108.66694815979506,77)"><path id="SvgjsPath1069" d="M 0 4Q 0 0 4 0L 26.244698205546495 0Q 30.244698205546495 0 30.244698205546495 4L 30.244698205546495 491Q 30.244698205546495 495 26.244698205546495 495L 4 495Q 0 495 0 491L 0 4Z" stroke="rgba(50,50,50,1)" stroke-width="2" fill-opacity="1" fill="#ffffff"></path></g><g id="SvgjsG1070" transform="translate(1314.078125,269)"><path id="SvgjsPath1071" d="M 0 0L 188.96922469229867 0L 188.96922469229867 31L 0 31Z" stroke="rgba(255,0,0,1)" stroke-width="2" fill-opacity="1" fill="#00ff00"></path><g id="SvgjsG1072"><text id="SvgjsText1073" font-family="Arial" text-anchor="middle" font-size="16px" width="169px" fill="#323232" font-weight="400" align="middle" anchor="middle" family="Arial" size="16px" weight="400" font-style="" opacity="1" y="3.1" transform="rotate(0)"><tspan id="SvgjsTspan1074" dy="20" x="94.5"><tspan id="SvgjsTspan1075" style="text-decoration:;">NettyTransportFactory</tspan></tspan></text></g></g><g id="SvgjsG1076"><path id="SvgjsPath1077" d="M363.002163765061 566.9324337780945L253.5401443825305 566.9324337780945L253.5401443825305 566.9324337780945L144.078125 566.9324337780945" stroke-dasharray="8,5" stroke="#323232" stroke-width="2" fill="none" marker-end="url(#SvgjsMarker1078)"></path></g><g id="SvgjsG1080" transform="translate(533.3407505744824,138)"><path id="SvgjsPath1081" d="M 0 0L 262.82491628367825 0L 262.82491628367825 33L 0 33Z" stroke="rgba(255,0,0,1)" stroke-width="2" fill-opacity="1" fill="#00ff00"></path><g id="SvgjsG1082"><text id="SvgjsText1083" font-family="Arial" text-anchor="middle" font-size="16px" width="243px" fill="#323232" font-weight="400" align="middle" anchor="middle" family="Arial" size="16px" weight="400" font-style="" opacity="1" y="4.1" transform="rotate(0)"><tspan id="SvgjsTspan1084" dy="20" x="131.5"><tspan id="SvgjsTspan1085" style="text-decoration:;">ManagedChannelOrphanWrapper</tspan></tspan></text></g></g><g id="SvgjsG1086" transform="translate(854.078125,185)"><path id="SvgjsPath1087" d="M 0 0L 178.49156006216162 0L 178.49156006216162 32L 0 32Z" stroke="rgba(255,0,0,1)" stroke-width="2" fill-opacity="1" fill="#00ff00"></path><g id="SvgjsG1088"><text id="SvgjsText1089" font-family="Arial" text-anchor="middle" font-size="16px" width="159px" fill="#323232" font-weight="400" align="middle" anchor="middle" family="Arial" size="16px" weight="400" font-style="" opacity="1" y="3.6" transform="rotate(0)"><tspan id="SvgjsTspan1090" dy="20" x="89.5"><tspan id="SvgjsTspan1091" style="text-decoration:;">ManagedChannelImpl</tspan></tspan></text></g></g><g id="SvgjsG1092"><path id="SvgjsPath1093" d="M796.1656668581606 154.5L943.3239050310808 154.5L943.3239050310808 185" stroke="#323232" stroke-width="2" fill="none" marker-end="url(#SvgjsMarker1094)"></path></g><g id="SvgjsG1096" transform="translate(1085.0781250000002,225)"><path id="SvgjsPath1097" d="M 0 0L 167.56921553702568 0L 167.56921553702568 32L 0 32Z" stroke="rgba(255,0,0,1)" stroke-width="2" fill-opacity="1" fill="#00ff00"></path><g id="SvgjsG1098"><text id="SvgjsText1099" font-family="Arial" text-anchor="middle" font-size="16px" width="148px" fill="#323232" font-weight="400" align="middle" anchor="middle" family="Arial" size="16px" weight="400" font-style="" opacity="1" y="3.6" transform="rotate(0)"><tspan id="SvgjsTspan1100" dy="20" x="84"><tspan id="SvgjsTspan1101" style="text-decoration:;">NettyChannelBuilder</tspan></tspan></text></g></g><g id="SvgjsG1102"><path id="SvgjsPath1103" d="M1032.5696850621616 201L1168.862732768513 201L1168.862732768513 225" stroke="#323232" stroke-width="2" fill="none" marker-end="url(#SvgjsMarker1104)"></path></g><g id="SvgjsG1106"><path id="SvgjsPath1107" d="M1252.647340537026 241L1408.5627373461493 241L1408.5627373461493 269" stroke="#323232" stroke-width="2" fill="none" marker-end="url(#SvgjsMarker1108)"></path></g><g id="SvgjsG1110" transform="translate(1533.0473496922987,25)"><path id="SvgjsPath1111" d="M 96.51538765385067 30L 96.51538765385067 541" stroke-dasharray="3,4" stroke="rgba(50,50,50,1)" stroke-width="2" fill="none"></path><path id="SvgjsPath1112" d="M 0 0L 193.03077530770133 0L 193.03077530770133 30L 0 30Z" stroke="rgba(50,50,50,1)" stroke-width="2" fill-opacity="1" fill="#ffffff"></path><g id="SvgjsG1113"><text id="SvgjsText1114" font-family="Arial" text-anchor="middle" font-size="16px" width="174px" fill="#323232" font-weight="400" align="middle" anchor="middle" family="Arial" size="16px" weight="400" font-style="" opacity="1" y="2.6" transform="rotate(0)"><tspan id="SvgjsTspan1115" dy="20" x="97"><tspan id="SvgjsTspan1116" style="text-decoration:;">SharedResourcePool</tspan></tspan></text></g></g><g id="SvgjsG1117" transform="translate(1535.078125,269)"><path id="SvgjsPath1118" d="M 0 0L 188.96922469229867 0L 188.96922469229867 31L 0 31Z" stroke="rgba(255,0,0,1)" stroke-width="2" fill-opacity="1" fill="#ffff00"></path><g id="SvgjsG1119"><text id="SvgjsText1120" font-family="Arial" text-anchor="middle" font-size="16px" width="169px" fill="#323232" font-weight="400" align="middle" anchor="middle" family="Arial" size="16px" weight="400" font-style="" opacity="1" y="3.1" transform="rotate(0)"><tspan id="SvgjsTspan1121" dy="20" x="94.5"><tspan id="SvgjsTspan1122" style="text-decoration:;">grpc-default-executor</tspan></tspan></text></g></g><g id="SvgjsG1123" transform="translate(1752.0473496922987,25)"><path id="SvgjsPath1124" d="M 96.51538765385067 30L 96.51538765385067 541" stroke-dasharray="3,4" stroke="rgba(50,50,50,1)" stroke-width="2" fill="none"></path><path id="SvgjsPath1125" d="M 0 0L 193.03077530770133 0L 193.03077530770133 30L 0 30Z" stroke="rgba(50,50,50,1)" stroke-width="2" fill-opacity="1" fill="#ffffff"></path><g id="SvgjsG1126"><text id="SvgjsText1127" font-family="Arial" text-anchor="middle" font-size="16px" width="174px" fill="#323232" font-weight="400" align="middle" anchor="middle" family="Arial" size="16px" weight="400" font-style="" opacity="1" y="2.6" transform="rotate(0)"><tspan id="SvgjsTspan1128" dy="20" x="97"><tspan id="SvgjsTspan1129" style="text-decoration:;">ClientInterceptor</tspan></tspan></text></g></g><g id="SvgjsG1130" transform="translate(1754.078125,269)"><path id="SvgjsPath1131" d="M 0 0L 188.96922469229867 0L 188.96922469229867 31L 0 31Z" stroke="rgba(255,0,0,1)" stroke-width="2" fill-opacity="1" fill="#00ff00"></path><g id="SvgjsG1132"><text id="SvgjsText1133" font-family="Arial" text-anchor="middle" font-size="16px" width="169px" fill="#323232" font-weight="400" align="middle" anchor="middle" family="Arial" size="16px" weight="400" font-style="" opacity="1" y="3.1" transform="rotate(0)"><tspan id="SvgjsTspan1134" dy="20" x="94.5"><tspan id="SvgjsTspan1135" style="text-decoration:;">List&lt;ClientInterceptor&gt;</tspan></tspan></text></g></g><g id="SvgjsG1136"><path id="SvgjsPath1137" d="M1252.647340537026 241L1629.5627373461493 241L1629.5627373461493 269" stroke="#323232" stroke-width="2" fill="none" marker-end="url(#SvgjsMarker1138)"></path></g><g id="SvgjsG1140"><path id="SvgjsPath1141" d="M1252.647340537026 241L1848.5627373461493 241L1848.5627373461493 269" stroke="#323232" stroke-width="2" fill="none" marker-end="url(#SvgjsMarker1142)"></path></g><g id="SvgjsG1144" transform="translate(1426.078125,115)"><path id="SvgjsPath1145" d="M 0 0L 170 0L 186 16L 186 30L 0 30L 0 0Z" stroke="none" fill-opacity="1" fill="#ffffaa"></path><path id="SvgjsPath1146" d="M 170 0L 170 16L 186 16Z" stroke="none" fill-opacity="1" fill="#cdcdcd"></path><path id="SvgjsPath1147" d="M 0 0L 170 0L 186 16L 186 30L 0 30L 0 0Z" stroke="none" fill="none"></path><g id="SvgjsG1148"><text id="SvgjsText1149" font-family="Arial" text-anchor="middle" font-size="16px" width="166px" fill="#323232" font-weight="400" align="middle" anchor="middle" family="Arial" size="16px" weight="400" font-style="" opacity="1" y="2.6" transform="rotate(0)"><tspan id="SvgjsTspan1150" dy="20" x="93"><tspan id="SvgjsTspan1151" style="text-decoration:;">handle non-I/O event</tspan></tspan></text></g></g><g id="SvgjsG1152"><path id="SvgjsPath1153" d="M1519.078125 145L1629.5627373461493 269" stroke-dasharray="8,5" stroke="#cfcfcf" stroke-width="2" fill="none" marker-end="url(#SvgjsMarker1154)"></path></g><g id="SvgjsG1156" transform="translate(854.078125,358)"><path id="SvgjsPath1157" d="M 0 0L 178.49156006216162 0L 178.49156006216162 32L 0 32Z" stroke="rgba(255,0,0,1)" stroke-width="2" fill-opacity="1" fill="#ff8000"></path><g id="SvgjsG1158"><text id="SvgjsText1159" font-family="Arial" text-anchor="middle" font-size="16px" width="159px" fill="#ffffff" font-weight="400" align="middle" anchor="middle" family="Arial" size="16px" weight="400" font-style="" opacity="1" y="3.6" transform="rotate(0)"><tspan id="SvgjsTspan1160" dy="20" x="89.5"><tspan id="SvgjsTspan1161" style="text-decoration:;">executorPool</tspan></tspan></text></g></g><g id="SvgjsG1162"><path id="SvgjsPath1163" d="M1168.862732768513 257L1168.862732768513 287L943.3239050310808 287L943.3239050310808 217" stroke-dasharray="8,5" stroke="#323232" stroke-width="2" fill="none" marker-end="url(#SvgjsMarker1164)"></path></g><g id="SvgjsG1166"><path id="SvgjsPath1167" d="M1629.5627373461493 300L1629.5627373461493 340L1168.862732768513 340L1168.862732768513 257" stroke-dasharray="8,5" stroke="#323232" stroke-width="2" fill="none" marker-end="url(#SvgjsMarker1168)"></path></g><g id="SvgjsG1170"><path id="SvgjsPath1171" d="M1408.5627373461493 300L1408.5627373461493 330L1168.862732768513 330L1168.862732768513 257" stroke-dasharray="8,5" stroke="#323232" stroke-width="2" fill="none" marker-end="url(#SvgjsMarker1172)"></path></g><g id="SvgjsG1174"><path id="SvgjsPath1175" d="M1848.5627373461493 300L1848.5627373461493 349L1168.862732768513 349L1168.862732768513 257" stroke-dasharray="8,5" stroke="#323232" stroke-width="2" fill="none" marker-end="url(#SvgjsMarker1176)"></path></g><g id="SvgjsG1178" transform="translate(854.078125,445)"><path id="SvgjsPath1179" d="M 0 0L 178.49156006216162 0L 178.49156006216162 32L 0 32Z" stroke="rgba(255,0,0,1)" stroke-width="2" fill-opacity="1" fill="#ff8000"></path><g id="SvgjsG1180"><text id="SvgjsText1181" font-family="Arial" text-anchor="middle" font-size="16px" width="159px" fill="#ffffff" font-weight="400" align="middle" anchor="middle" family="Arial" size="16px" weight="400" font-style="" opacity="1" y="3.6" transform="rotate(0)"><tspan id="SvgjsTspan1182" dy="20" x="89.5"><tspan id="SvgjsTspan1183" style="text-decoration:;">transportFactory</tspan></tspan></text></g></g><g id="SvgjsG1184" transform="translate(854.078125,489)"><path id="SvgjsPath1185" d="M 0 0L 178.49156006216162 0L 178.49156006216162 32L 0 32Z" stroke="rgba(255,0,0,1)" stroke-width="2" fill-opacity="1" fill="#ff8000"></path><g id="SvgjsG1186"><text id="SvgjsText1187" font-family="Arial" text-anchor="middle" font-size="16px" width="159px" fill="#ffffff" font-weight="400" align="middle" anchor="middle" family="Arial" size="16px" weight="400" font-style="" opacity="1" y="3.6" transform="rotate(0)"><tspan id="SvgjsTspan1188" dy="20" x="89.5"><tspan id="SvgjsTspan1189" style="text-decoration:;">oobTransportFactory</tspan></tspan></text></g></g><g id="SvgjsG1190" transform="translate(854.078125,540)"><path id="SvgjsPath1191" d="M 0 0L 178.49156006216162 0L 178.49156006216162 32L 0 32Z" stroke="rgba(255,0,0,1)" stroke-width="2" fill-opacity="1" fill="#7f00ff"></path><g id="SvgjsG1192"><text id="SvgjsText1193" font-family="Arial" text-anchor="middle" font-size="16px" width="159px" fill="#ffffff" font-weight="400" align="middle" anchor="middle" family="Arial" size="16px" weight="400" font-style="" opacity="1" y="3.6" transform="rotate(0)"><tspan id="SvgjsTspan1194" dy="20" x="89.5"><tspan id="SvgjsTspan1195" style="text-decoration:;">scheduledExecutor</tspan></tspan></text></g></g><g id="SvgjsG1196" transform="translate(854.078125,400)"><path id="SvgjsPath1197" d="M 0 0L 178.49156006216162 0L 178.49156006216162 32L 0 32Z" stroke="rgba(255,0,0,1)" stroke-width="2" fill-opacity="1" fill="#ff8000"></path><g id="SvgjsG1198"><text id="SvgjsText1199" font-family="Arial" text-anchor="middle" font-size="16px" width="159px" fill="#ffffff" font-weight="400" align="middle" anchor="middle" family="Arial" size="16px" weight="400" font-style="" opacity="1" y="3.6" transform="rotate(0)"><tspan id="SvgjsTspan1200" dy="20" x="89.5"><tspan id="SvgjsTspan1201" style="text-decoration:;">executor</tspan></tspan></text></g></g><g id="SvgjsG1202"><path id="SvgjsPath1203" d="M778.078125 440.5L854.078125 374" stroke-dasharray="8,5" stroke="#cfcfcf" stroke-width="2" fill="none" marker-end="url(#SvgjsMarker1204)"></path></g><g id="SvgjsG1206"><path id="SvgjsPath1207" d="M778.078125 440.5L854.078125 416" stroke-dasharray="8,5" stroke="#cfcfcf" stroke-width="2" fill="none" marker-end="url(#SvgjsMarker1208)"></path></g><g id="SvgjsG1210"><path id="SvgjsPath1211" d="M778.078125 440.5L854.078125 461" stroke-dasharray="8,5" stroke="#cfcfcf" stroke-width="2" fill="none" marker-end="url(#SvgjsMarker1212)"></path></g><g id="SvgjsG1214"><path id="SvgjsPath1215" d="M778.078125 440.5L854.078125 505" stroke-dasharray="8,5" stroke="#cfcfcf" stroke-width="2" fill="none" marker-end="url(#SvgjsMarker1216)"></path></g><g id="SvgjsG1218"><path id="SvgjsPath1219" d="M778.078125 556L854.078125 556" stroke-dasharray="8,5" stroke="#cfcfcf" stroke-width="2" fill="none" marker-end="url(#SvgjsMarker1220)"></path></g><g id="SvgjsG1222"><path id="SvgjsPath1223" d="M943.3239050310808 572L943.3239050310808 591L664.7532087163215 591L664.7532087163215 171" stroke-dasharray="8,5" stroke="#323232" stroke-width="2" fill="none" marker-end="url(#SvgjsMarker1224)"></path></g><g id="SvgjsG1226" transform="translate(601.078125,426)"><path id="SvgjsPath1227" d="M 0 0L 161 0L 177 16L 177 29L 0 29L 0 0Z" stroke="none" fill-opacity="1" fill="#ffffaa"></path><path id="SvgjsPath1228" d="M 161 0L 161 16L 177 16Z" stroke="none" fill-opacity="1" fill="#cdcdcd"></path><path id="SvgjsPath1229" d="M 0 0L 161 0L 177 16L 177 29L 0 29L 0 0Z" stroke="none" fill="none"></path><g id="SvgjsG1230"><text id="SvgjsText1231" font-family="Arial" text-anchor="middle" font-size="16px" width="157px" fill="#323232" font-weight="400" align="middle" anchor="middle" family="Arial" size="16px" weight="400" font-style="" opacity="1" y="2.1" transform="rotate(0)"><tspan id="SvgjsTspan1232" dy="20" x="88.5"><tspan id="SvgjsTspan1233" style="text-decoration:;">grpc-default-executor</tspan></tspan></text></g></g><g id="SvgjsG1234" transform="translate(601.078125,541.5)"><path id="SvgjsPath1235" d="M 0 0L 161 0L 177 16L 177 29L 0 29L 0 0Z" stroke="none" fill-opacity="1" fill="#ffffaa"></path><path id="SvgjsPath1236" d="M 161 0L 161 16L 177 16Z" stroke="none" fill-opacity="1" fill="#cdcdcd"></path><path id="SvgjsPath1237" d="M 0 0L 161 0L 177 16L 177 29L 0 29L 0 0Z" stroke="none" fill="none"></path><g id="SvgjsG1238"><text id="SvgjsText1239" font-family="Arial" text-anchor="middle" font-size="16px" width="157px" fill="#323232" font-weight="400" align="middle" anchor="middle" family="Arial" size="16px" weight="400" font-style="" opacity="1" y="2.1" transform="rotate(0)"><tspan id="SvgjsTspan1240" dy="20" x="88.5"><tspan id="SvgjsTspan1241" style="text-decoration:;">grpc-nio-worker</tspan></tspan></text></g></g></svg>