<svg id="SvgjsSvg1006" width="2277.328125" height="553" xmlns="http://www.w3.org/2000/svg" version="1.1" xmlns:xlink="http://www.w3.org/1999/xlink" xmlns:svgjs="http://svgjs.com/svgjs"><defs id="SvgjsDefs1007"><marker id="SvgjsMarker1026" markerWidth="16" markerHeight="12" refX="16" refY="6" viewBox="0 0 16 12" orient="auto" markerUnits="userSpaceOnUse" stroke-dasharray="0,0"><path id="SvgjsPath1027" d="M0,2 L14,6 L0,11 L0,2" fill="#323232" stroke="#323232" stroke-width="2"></path></marker><marker id="SvgjsMarker1045" markerWidth="16" markerHeight="12" refX="16" refY="6" viewBox="0 0 16 12" orient="auto" markerUnits="userSpaceOnUse" stroke-dasharray="0,0"><path id="SvgjsPath1046" d="M0,2 L14,6 L0,11 L0,2" fill="#323232" stroke="#323232" stroke-width="2"></path></marker><marker id="SvgjsMarker1064" markerWidth="16" markerHeight="12" refX="16" refY="6" viewBox="0 0 16 12" orient="auto" markerUnits="userSpaceOnUse" stroke-dasharray="0,0"><path id="SvgjsPath1065" d="M0,2 L14,6 L0,11 L0,2" fill="#323232" stroke="#323232" stroke-width="2"></path></marker><marker id="SvgjsMarker1081" markerWidth="16" markerHeight="12" refX="16" refY="6" viewBox="0 0 16 12" orient="auto" markerUnits="userSpaceOnUse" stroke-dasharray="0,0"><path id="SvgjsPath1082" d="M0,2 L14,6 L0,11 L0,2" fill="#323232" stroke="#323232" stroke-width="2"></path></marker><marker id="SvgjsMarker1101" markerWidth="16" markerHeight="12" refX="16" refY="6" viewBox="0 0 16 12" orient="auto" markerUnits="userSpaceOnUse" stroke-dasharray="0,0"><path id="SvgjsPath1102" d="M0,2 L14,6 L0,11 L0,2" fill="#cfcfcf" stroke="#cfcfcf" stroke-width="2"></path></marker><marker id="SvgjsMarker1116" markerWidth="16" markerHeight="12" refX="16" refY="6" viewBox="0 0 16 12" orient="auto" markerUnits="userSpaceOnUse" stroke-dasharray="0,0"><path id="SvgjsPath1117" d="M0,2 L14,6 L0,11 L0,2" fill="#323232" stroke="#323232" stroke-width="2"></path></marker><marker id="SvgjsMarker1124" markerWidth="16" markerHeight="12" refX="16" refY="6" viewBox="0 0 16 12" orient="auto" markerUnits="userSpaceOnUse" stroke-dasharray="0,0"><path id="SvgjsPath1125" d="M0,2 L14,6 L0,11 L0,2" fill="#323232" stroke="#323232" stroke-width="2"></path></marker><marker id="SvgjsMarker1128" markerWidth="16" markerHeight="12" refX="16" refY="6" viewBox="0 0 16 12" orient="auto" markerUnits="userSpaceOnUse" stroke-dasharray="0,0"><path id="SvgjsPath1129" d="M0,2 L14,6 L0,11 L0,2" fill="#323232" stroke="#323232" stroke-width="2"></path></marker><marker id="SvgjsMarker1159" markerWidth="16" markerHeight="12" refX="16" refY="6" viewBox="0 0 16 12" orient="auto" markerUnits="userSpaceOnUse" stroke-dasharray="0,0"><path id="SvgjsPath1160" d="M0,2 L14,6 L0,11 L0,2" fill="#323232" stroke="#323232" stroke-width="2"></path></marker><marker id="SvgjsMarker1176" markerWidth="16" markerHeight="12" refX="16" refY="6" viewBox="0 0 16 12" orient="auto" markerUnits="userSpaceOnUse" stroke-dasharray="0,0"><path id="SvgjsPath1177" d="M0,2 L14,6 L0,11 L0,2" fill="#323232" stroke="#323232" stroke-width="2"></path></marker><marker id="SvgjsMarker1184" markerWidth="16" markerHeight="12" refX="16" refY="6" viewBox="0 0 16 12" orient="auto" markerUnits="userSpaceOnUse" stroke-dasharray="0,0"><path id="SvgjsPath1185" d="M0,2 L14,6 L0,11 L0,2" fill="#323232" stroke="#323232" stroke-width="2"></path></marker><marker id="SvgjsMarker1188" markerWidth="16" markerHeight="12" refX="16" refY="6" viewBox="0 0 16 12" orient="auto" markerUnits="userSpaceOnUse" stroke-dasharray="0,0"><path id="SvgjsPath1189" d="M0,2 L14,6 L0,11 L0,2" fill="#cfcfcf" stroke="#cfcfcf" stroke-width="2"></path></marker><marker id="SvgjsMarker1202" markerWidth="16" markerHeight="12" refX="16" refY="6" viewBox="0 0 16 12" orient="auto" markerUnits="userSpaceOnUse" stroke-dasharray="0,0"><path id="SvgjsPath1203" d="M0,2 L14,6 L0,11 L0,2" fill="#cfcfcf" stroke="#cfcfcf" stroke-width="2"></path></marker><marker id="SvgjsMarker1215" markerWidth="16" markerHeight="12" refX="16" refY="6" viewBox="0 0 16 12" orient="auto" markerUnits="userSpaceOnUse" stroke-dasharray="0,0"><path id="SvgjsPath1216" d="M0,2 L14,6 L0,11 L0,2" fill="#323232" stroke="#323232" stroke-width="2"></path></marker><marker id="SvgjsMarker1223" markerWidth="16" markerHeight="12" refX="16" refY="6" viewBox="0 0 16 12" orient="auto" markerUnits="userSpaceOnUse" stroke-dasharray="0,0"><path id="SvgjsPath1224" d="M0,2 L14,6 L0,11 L0,2" fill="#323232" stroke="#323232" stroke-width="2"></path></marker><marker id="SvgjsMarker1237" markerWidth="16" markerHeight="12" refX="16" refY="6" viewBox="0 0 16 12" orient="auto" markerUnits="userSpaceOnUse" stroke-dasharray="0,0"><path id="SvgjsPath1238" d="M0,2 L14,6 L0,11 L0,2" fill="#323232" stroke="#323232" stroke-width="2"></path></marker><marker id="SvgjsMarker1245" markerWidth="16" markerHeight="12" refX="16" refY="6" viewBox="0 0 16 12" orient="auto" markerUnits="userSpaceOnUse" stroke-dasharray="0,0"><path id="SvgjsPath1246" d="M0,2 L14,6 L0,11 L0,2" fill="#323232" stroke="#323232" stroke-width="2"></path></marker><marker id="SvgjsMarker1261" markerWidth="16" markerHeight="12" refX="16" refY="6" viewBox="0 0 16 12" orient="auto" markerUnits="userSpaceOnUse" stroke-dasharray="0,0"><path id="SvgjsPath1262" d="M0,2 L14,6 L0,11 L0,2" fill="#cfcfcf" stroke="#cfcfcf" stroke-width="2"></path></marker><marker id="SvgjsMarker1265" markerWidth="16" markerHeight="12" refX="16" refY="6" viewBox="0 0 16 12" orient="auto" markerUnits="userSpaceOnUse" stroke-dasharray="0,0"><path id="SvgjsPath1266" d="M0,2 L14,6 L0,11 L0,2" fill="#323232" stroke="#323232" stroke-width="2"></path></marker><marker id="SvgjsMarker1269" markerWidth="16" markerHeight="12" refX="16" refY="6" viewBox="0 0 16 12" orient="auto" markerUnits="userSpaceOnUse" stroke-dasharray="0,0"><path id="SvgjsPath1270" d="M0,2 L14,6 L0,11 L0,2" fill="#323232" stroke="#323232" stroke-width="2"></path></marker><marker id="SvgjsMarker1273" markerWidth="16" markerHeight="12" refX="16" refY="6" viewBox="0 0 16 12" orient="auto" markerUnits="userSpaceOnUse" stroke-dasharray="0,0"><path id="SvgjsPath1274" d="M0,2 L14,6 L0,11 L0,2" fill="#323232" stroke="#323232" stroke-width="2"></path></marker><marker id="SvgjsMarker1285" markerWidth="16" markerHeight="12" refX="16" refY="6" viewBox="0 0 16 12" orient="auto" markerUnits="userSpaceOnUse" stroke-dasharray="0,0"><path id="SvgjsPath1286" d="M0,2 L14,6 L0,11 L0,2" fill="#cfcfcf" stroke="#cfcfcf" stroke-width="2"></path></marker><marker id="SvgjsMarker1289" markerWidth="16" markerHeight="12" refX="16" refY="6" viewBox="0 0 16 12" orient="auto" markerUnits="userSpaceOnUse" stroke-dasharray="0,0"><path id="SvgjsPath1290" d="M0,2 L14,6 L0,11 L0,2" fill="#323232" stroke="#323232" stroke-width="2"></path></marker><marker id="SvgjsMarker1301" markerWidth="16" markerHeight="12" refX="16" refY="6" viewBox="0 0 16 12" orient="auto" markerUnits="userSpaceOnUse" stroke-dasharray="0,0"><path id="SvgjsPath1302" d="M0,2 L14,6 L0,11 L0,2" fill="#323232" stroke="#323232" stroke-width="2"></path></marker><marker id="SvgjsMarker1309" markerWidth="16" markerHeight="12" refX="16" refY="6" viewBox="0 0 16 12" orient="auto" markerUnits="userSpaceOnUse" stroke-dasharray="0,0"><path id="SvgjsPath1310" d="M0,2 L14,6 L0,11 L0,2" fill="#323232" stroke="#323232" stroke-width="2"></path></marker><marker id="SvgjsMarker1313" markerWidth="16" markerHeight="12" refX="16" refY="6" viewBox="0 0 16 12" orient="auto" markerUnits="userSpaceOnUse" stroke-dasharray="0,0"><path id="SvgjsPath1314" d="M0,2 L14,6 L0,11 L0,2" fill="#323232" stroke="#323232" stroke-width="2"></path></marker><marker id="SvgjsMarker1329" markerWidth="16" markerHeight="12" refX="16" refY="6" viewBox="0 0 16 12" orient="auto" markerUnits="userSpaceOnUse" stroke-dasharray="0,0"><path id="SvgjsPath1330" d="M0,2 L14,6 L0,11 L0,2" fill="#cfcfcf" stroke="#cfcfcf" stroke-width="2"></path></marker></defs><g id="SvgjsG1008" transform="translate(25.00889118706931,25.005208333333314)"><path id="SvgjsPath1009" d="M 53.67661436308083 30L 53.67661436308083 502.3333333333334" stroke-dasharray="3,4" stroke="rgba(50,50,50,1)" stroke-width="2" fill="none"></path><path id="SvgjsPath1010" d="M 0 0L 107.35322872616166 0L 107.35322872616166 30L 0 30Z" stroke="rgba(50,50,50,1)" stroke-width="2" fill-opacity="1" fill="#ffffff"></path><g id="SvgjsG1011"><text id="SvgjsText1012" font-family="Arial" text-anchor="middle" font-size="16px" width="88px" fill="#323232" font-weight="400" align="middle" anchor="middle" family="Arial" size="16px" weight="400" font-style="" opacity="1" y="2.6" transform="rotate(0)"><tspan id="SvgjsTspan1013" dy="20" x="54"><tspan id="SvgjsTspan1014" style="text-decoration:;">ClientCalls</tspan></tspan></text></g></g><g id="SvgjsG1015" transform="translate(63.5631564473769,72.50520833333337)"><path id="SvgjsPath1016" d="M 0 4Q 0 0 4 0L 26.244698205546495 0Q 30.244698205546495 0 30.244698205546495 4L 30.244698205546495 450.83333333333337Q 30.244698205546495 454.83333333333337 26.244698205546495 454.83333333333337L 4 454.83333333333337Q 0 454.83333333333337 0 450.83333333333337L 0 4Z" stroke="rgba(50,50,50,1)" stroke-width="2" fill-opacity="1" fill="#ffffff"></path></g><g id="SvgjsG1017" transform="translate(166.34327603887783,25.005208333333314)"><path id="SvgjsPath1018" d="M 136.61157314311254 30L 136.61157314311254 502.33333333333337" stroke-dasharray="3,4" stroke="rgba(50,50,50,1)" stroke-width="2" fill="none"></path><path id="SvgjsPath1019" d="M 0 0L 273.2231462862251 0L 273.2231462862251 30L 0 30Z" stroke="rgba(50,50,50,1)" stroke-width="2" fill-opacity="1" fill="#ffffff"></path><g id="SvgjsG1020"><text id="SvgjsText1021" font-family="Arial" text-anchor="middle" font-size="16px" width="254px" fill="#323232" font-weight="400" align="middle" anchor="middle" family="Arial" size="16px" weight="400" font-style="" opacity="1" y="2.6" transform="rotate(0)"><tspan id="SvgjsTspan1022" dy="20" x="137"><tspan id="SvgjsTspan1023" style="text-decoration:;">ManagedChannelImpl.realChannel</tspan></tspan></text></g></g><g id="SvgjsG1024"><path id="SvgjsPath1025" d="M93.296875 85.671875L191.32796391324553 85.671875L191.32796391324553 84.69117324561404L289.35905282649105 84.69117324561404" stroke="#323232" stroke-width="2" fill="none" marker-end="url(#SvgjsMarker1026)"></path><rect id="SvgjsRect1028" width="128" height="20" x="127.32796391324553" y="75.18152412280702" fill="#ffffff"></rect><text id="SvgjsText1029" font-family="Arial" text-anchor="middle" font-size="16px" width="128px" fill="#323232" font-weight="400" align="top" anchor="middle" family="Arial" size="16px" weight="400" font-style="" opacity="1" y="72.78152412280701" transform="rotate(0)"><tspan id="SvgjsTspan1030" dy="20" x="191.32796391324553"><tspan id="SvgjsTspan1031" style="text-decoration:;">channel.newCall()</tspan></tspan></text></g><g id="SvgjsG1032" transform="translate(287.83250007921714,84.0052083333334)"><path id="SvgjsPath1033" d="M 0 4Q 0 0 4 0L 26.244698205546495 0Q 30.244698205546495 0 30.244698205546495 4L 30.244698205546495 256.66666666666663Q 30.244698205546495 260.66666666666663 26.244698205546495 260.66666666666663L 4 260.66666666666663Q 0 260.66666666666663 0 256.66666666666663L 0 4Z" stroke="rgba(50,50,50,1)" stroke-width="2" fill-opacity="1" fill="#ffffff"></path></g><g id="SvgjsG1034" transform="translate(475.3432760388778,25.005208333333258)"><path id="SvgjsPath1035" d="M 89.47679948056108 30L 89.47679948056108 502.3333333333335" stroke-dasharray="3,4" stroke="rgba(50,50,50,1)" stroke-width="2" fill="none"></path><path id="SvgjsPath1036" d="M 0 0L 178.95359896112217 0L 178.95359896112217 30L 0 30Z" stroke="rgba(50,50,50,1)" stroke-width="2" fill-opacity="1" fill="#ffffff"></path><g id="SvgjsG1037"><text id="SvgjsText1038" font-family="Arial" text-anchor="middle" font-size="16px" width="159px" fill="#323232" font-weight="400" align="middle" anchor="middle" family="Arial" size="16px" weight="400" font-style="" opacity="1" y="2.6" transform="rotate(0)"><tspan id="SvgjsTspan1039" dy="20" x="89.5"><tspan id="SvgjsTspan1040" style="text-decoration:;">ManagedChannelImpl</tspan></tspan></text></g></g><g id="SvgjsG1041" transform="translate(549.6977264166657,99.0052083333334)"><path id="SvgjsPath1042" d="M 0 4Q 0 0 4 0L 26.244698205546495 0Q 30.244698205546495 0 30.244698205546495 4L 30.244698205546495 241.6666666666666Q 30.244698205546495 245.6666666666666 26.244698205546495 245.6666666666666L 4 245.6666666666666Q 0 245.6666666666666 0 241.6666666666666L 0 4Z" stroke-dasharray="10,6" stroke="rgba(50,50,50,1)" stroke-width="2" fill-opacity="1" fill="#ff9933"></path></g><g id="SvgjsG1043"><path id="SvgjsPath1044" d="M319.296875 99.671875L434.9780305509164 99.671875L434.9780305509164 99.67406017123702L550.6591861018328 99.67406017123702" stroke="#323232" stroke-width="2" fill="none" marker-end="url(#SvgjsMarker1045)"></path><rect id="SvgjsRect1047" width="101" height="20" x="384.4780305509164" y="89.67296758561851" fill="#ffffff"></rect><text id="SvgjsText1048" font-family="Arial" text-anchor="middle" font-size="16px" width="101px" fill="#323232" font-weight="400" align="top" anchor="middle" family="Arial" size="16px" weight="400" font-style="" opacity="1" y="87.2729675856185" transform="rotate(0)"><tspan id="SvgjsTspan1049" dy="20" x="434.9780305509164"><tspan id="SvgjsTspan1050" style="text-decoration:;">exitIdleMode()</tspan></tspan></text></g><g id="SvgjsG1051" transform="translate(549.6977264166657,114.0052083333334)"><path id="SvgjsPath1052" d="M 0 4Q 0 0 4 0L 26.244698205546495 0Q 30.244698205546495 0 30.244698205546495 4L 30.244698205546495 48.411764705882376Q 30.244698205546495 52.411764705882376 26.244698205546495 52.411764705882376L 4 52.411764705882376Q 0 52.411764705882376 0 48.411764705882376L 0 4Z" stroke="rgba(50,50,50,1)" stroke-width="2" fill-opacity="1" fill="#ffffff"></path></g><g id="SvgjsG1053" transform="translate(694.8432760388778,25.005208333333258)"><path id="SvgjsPath1054" d="M 67.97679948056111 30L 67.97679948056111 502.3333333333335" stroke-dasharray="3,4" stroke="rgba(50,50,50,1)" stroke-width="2" fill="none"></path><path id="SvgjsPath1055" d="M 0 0L 135.95359896112222 0L 135.95359896112222 30L 0 30Z" stroke="rgba(50,50,50,1)" stroke-width="2" fill-opacity="1" fill="#ffffff"></path><g id="SvgjsG1056"><text id="SvgjsText1057" font-family="Arial" text-anchor="middle" font-size="16px" width="116px" fill="#323232" font-weight="400" align="middle" anchor="middle" family="Arial" size="16px" weight="400" font-style="" opacity="1" y="2.6" transform="rotate(0)"><tspan id="SvgjsTspan1058" dy="20" x="68"><tspan id="SvgjsTspan1059" style="text-decoration:;">Rescheduler</tspan></tspan></text></g></g><g id="SvgjsG1060" transform="translate(747.6977264166657,127.0052083333334)"><path id="SvgjsPath1061" d="M 0 4Q 0 0 4 0L 26.244698205546495 0Q 30.244698205546495 0 30.244698205546495 4L 30.244698205546495 35.411764705882376Q 30.244698205546495 39.411764705882376 26.244698205546495 39.411764705882376L 4 39.411764705882376Q 0 39.411764705882376 0 35.411764705882376L 0 4Z" stroke="rgba(50,50,50,1)" stroke-width="2" fill-opacity="1" fill="#ffffff"></path></g><g id="SvgjsG1062"><path id="SvgjsPath1063" d="M579.296875 127.671875L663.9780305509164 127.671875L663.9780305509164 128.17138826780578L748.6591861018328 128.17138826780578" stroke="#323232" stroke-width="2" fill="none" marker-end="url(#SvgjsMarker1064)"></path><rect id="SvgjsRect1066" width="89" height="20" x="619.4780305509164" y="117.92163163390289" fill="#ffffff"></rect><text id="SvgjsText1067" font-family="Arial" text-anchor="middle" font-size="16px" width="89px" fill="#323232" font-weight="400" align="top" anchor="middle" family="Arial" size="16px" weight="400" font-style="" opacity="1" y="115.52163163390289" transform="rotate(0)"><tspan id="SvgjsTspan1068" dy="20" x="663.9780305509164"><tspan id="SvgjsTspan1069" style="text-decoration:;">reschedule()</tspan></tspan></text></g><g id="SvgjsG1070" transform="translate(868.3432760388778,25.005208333333258)"><path id="SvgjsPath1071" d="M 110.97679948056111 30L 110.97679948056111 502.3333333333335" stroke-dasharray="3,4" stroke="rgba(50,50,50,1)" stroke-width="2" fill="none"></path><path id="SvgjsPath1072" d="M 0 0L 221.95359896112222 0L 221.95359896112222 30L 0 30Z" stroke="rgba(50,50,50,1)" stroke-width="2" fill-opacity="1" fill="#ffffff"></path><g id="SvgjsG1073"><text id="SvgjsText1074" font-family="Arial" text-anchor="middle" font-size="16px" width="202px" fill="#323232" font-weight="400" align="middle" anchor="middle" family="Arial" size="16px" weight="400" font-style="" opacity="1" y="2.6" transform="rotate(0)"><tspan id="SvgjsTspan1075" dy="20" x="111"><tspan id="SvgjsTspan1076" style="text-decoration:;">SingleThreadEventExecutor</tspan></tspan></text></g></g><g id="SvgjsG1077" transform="translate(964.1977264166657,143.671875)"><path id="SvgjsPath1078" d="M 0 4Q 0 0 4 0L 26.244698205546495 0Q 30.244698205546495 0 30.244698205546495 4L 30.244698205546495 18.745098039215776Q 30.244698205546495 22.745098039215776 26.244698205546495 22.745098039215776L 4 22.745098039215776Q 0 22.745098039215776 0 18.745098039215776L 0 4Z" stroke="rgba(50,50,50,1)" stroke-width="2" fill-opacity="1" fill="#ffffff"></path></g><g id="SvgjsG1079"><path id="SvgjsPath1080" d="M779.296875 143.671875L869.796875 143.671875L869.796875 143.671875L960.296875 143.671875" stroke="#323232" stroke-width="2" fill="none" marker-end="url(#SvgjsMarker1081)"></path><rect id="SvgjsRect1083" width="67" height="20" x="836.296875" y="133.671875" fill="#ffffff"></rect><text id="SvgjsText1084" font-family="Arial" text-anchor="middle" font-size="16px" width="67px" fill="#323232" font-weight="400" align="top" anchor="middle" family="Arial" size="16px" weight="400" font-style="" opacity="1" y="131.271875" transform="rotate(0)"><tspan id="SvgjsTspan1085" dy="20" x="869.796875"><tspan id="SvgjsTspan1086" style="text-decoration:;">execute()</tspan></tspan></text></g><g id="SvgjsG1087" transform="translate(724.1977264166657,227.00520833333343)"><path id="SvgjsPath1088" d="M 0 0L 224 0L 240 16L 240 76.6666666666666L 0 76.6666666666666L 0 0Z" stroke="none" fill-opacity="1" fill="#ffffaa"></path><path id="SvgjsPath1089" d="M 224 0L 224 16L 240 16Z" stroke="none" fill-opacity="1" fill="#cdcdcd"></path><path id="SvgjsPath1090" d="M 0 0L 224 0L 240 16L 240 76.6666666666666L 0 76.6666666666666L 0 0Z" stroke="none" fill="none"></path><g id="SvgjsG1091"><text id="SvgjsText1092" font-family="Arial" text-anchor="start" font-size="16px" width="220px" fill="#323232" font-weight="400" align="top" anchor="start" family="Arial" size="16px" weight="400" font-style="" opacity="1" y="7.6" transform="rotate(0)"><tspan id="SvgjsTspan1093" dy="20" x="10"><tspan id="SvgjsTspan1094" style="text-decoration:;">start a grpc-nio-worker thread </tspan></tspan><tspan id="SvgjsTspan1095" dy="20" x="10"><tspan id="SvgjsTspan1096" style="text-decoration:;">and then run enterIdleMode() </tspan></tspan><tspan id="SvgjsTspan1097" dy="20" x="10"><tspan id="SvgjsTspan1098" style="text-decoration:;">after the delayed time.</tspan></tspan></text></g></g><g id="SvgjsG1099"><path id="SvgjsPath1100" d="M844.1977264166657 227.00520833333343L964.1977264166657 155.0444240196079" stroke-dasharray="8,5" stroke="#cfcfcf" stroke-width="2" fill="none" marker-end="url(#SvgjsMarker1101)"></path></g><g id="SvgjsG1103" transform="translate(1125.3432760388778,25.005208333333258)"><path id="SvgjsPath1104" d="M 110.97679948056111 30L 110.97679948056111 502.3333333333335" stroke-dasharray="3,4" stroke="rgba(50,50,50,1)" stroke-width="2" fill="none"></path><path id="SvgjsPath1105" d="M 0 0L 221.95359896112222 0L 221.95359896112222 30L 0 30Z" stroke="rgba(50,50,50,1)" stroke-width="2" fill-opacity="1" fill="#ffffff"></path><g id="SvgjsG1106"><text id="SvgjsText1107" font-family="Arial" text-anchor="middle" font-size="16px" width="202px" fill="#323232" font-weight="400" align="middle" anchor="middle" family="Arial" size="16px" weight="400" font-style="" opacity="1" y="2.6" transform="rotate(0)"><tspan id="SvgjsTspan1108" dy="20" x="111"><tspan id="SvgjsTspan1109" style="text-decoration:;">DnsNameResolver</tspan></tspan></text></g></g><g id="SvgjsG1110" transform="translate(549.6977264166657,190.0052083333334)"><path id="SvgjsPath1111" d="M 0 4Q 0 0 4 0L 26.244698205546495 0Q 30.244698205546495 0 30.244698205546495 4L 30.244698205546495 133.6666666666666Q 30.244698205546495 137.6666666666666 26.244698205546495 137.6666666666666L 4 137.6666666666666Q 0 137.6666666666666 0 133.6666666666666L 0 4Z" stroke="rgba(50,50,50,1)" stroke-width="2" fill-opacity="1" fill="#ffffff"></path></g><g id="SvgjsG1112" transform="translate(1221.1977264166658,203.00520833333343)"><path id="SvgjsPath1113" d="M 0 4Q 0 0 4 0L 26.244698205546495 0Q 30.244698205546495 0 30.244698205546495 4L 30.244698205546495 120.66666666666657Q 30.244698205546495 124.66666666666657 26.244698205546495 124.66666666666657L 4 124.66666666666657Q 0 124.66666666666657 0 120.66666666666657L 0 4Z" stroke="rgba(50,50,50,1)" stroke-width="2" fill-opacity="1" fill="#ffffff"></path></g><g id="SvgjsG1114"><path id="SvgjsPath1115" d="M578.296875 205.671875L900.0626444675917 205.671875L900.0626444675917 204.78496630870347L1221.8284139351833 204.78496630870347" stroke="#323232" stroke-width="2" fill="none" marker-end="url(#SvgjsMarker1116)"></path><rect id="SvgjsRect1118" width="62" height="20" x="869.0626444675917" y="195.22842065435174" fill="#ffffff"></rect><text id="SvgjsText1119" font-family="Arial" text-anchor="middle" font-size="16px" width="62px" fill="#323232" font-weight="400" align="top" anchor="middle" family="Arial" size="16px" weight="400" font-style="" opacity="1" y="192.82842065435173" transform="rotate(0)"><tspan id="SvgjsTspan1120" dy="20" x="900.0626444675917"><tspan id="SvgjsTspan1121" style="text-decoration:;">resolve()</tspan></tspan></text></g><g id="SvgjsG1122"><path id="SvgjsPath1123" d="M966.5556940451025 165.70594917371093L781.296875 165.70594917371093" stroke-dasharray="8,5" stroke="#323232" stroke-width="2" fill="none" marker-end="url(#SvgjsMarker1124)"></path></g><g id="SvgjsG1126"><path id="SvgjsPath1127" d="M750.5556940451025 165.70594917371093L578.8826614376269 165.2576614376269" stroke-dasharray="8,5" stroke="#323232" stroke-width="2" fill="none" marker-end="url(#SvgjsMarker1128)"></path></g><g id="SvgjsG1130" transform="translate(1081.4424246222122,59.0052083333334)"><path id="SvgjsPath1131" d="M 0 0L 321.85445037778777 0L 337.85445037778777 16L 337.85445037778777 131L 0 131L 0 0Z" stroke="none" fill-opacity="1" fill="#ffffaa"></path><path id="SvgjsPath1132" d="M 321.85445037778777 0L 321.85445037778777 16L 337.85445037778777 16Z" stroke="none" fill-opacity="1" fill="#cdcdcd"></path><path id="SvgjsPath1133" d="M 0 0L 321.85445037778777 0L 337.85445037778777 16L 337.85445037778777 131L 0 131L 0 0Z" stroke="none" fill="none"></path><g id="SvgjsG1134"><text id="SvgjsText1135" font-family="Arial" text-anchor="start" font-size="16px" width="318px" fill="#323232" font-weight="400" align="top" anchor="start" family="Arial" size="16px" weight="400" font-style="" opacity="1" y="7.6" transform="rotate(0)"><tspan id="SvgjsTspan1136" dy="20" x="10"><tspan id="SvgjsTspan1137" style="text-decoration:;">start a grpc-default-executor to resolve DNS </tspan></tspan><tspan id="SvgjsTspan1138" dy="20" x="10"><tspan id="SvgjsTspan1139" style="text-decoration:;">name, there are four steps:</tspan></tspan><tspan id="SvgjsTspan1140" dy="20" x="10"><tspan id="SvgjsTspan1141" style="text-decoration:;">1. detectProxy</tspan></tspan><tspan id="SvgjsTspan1142" dy="20" x="10"><tspan id="SvgjsTspan1143" style="text-decoration:;">2. doResolve</tspan></tspan><tspan id="SvgjsTspan1144" dy="20" x="10"><tspan id="SvgjsTspan1145" style="text-decoration:;">3. call NameResolverListener.onResult()</tspan></tspan><tspan id="SvgjsTspan1146" dy="20" x="10"><tspan id="SvgjsTspan1147" style="text-decoration:;">4. set resolved is true and restart stopwatch</tspan></tspan></text></g></g><g id="SvgjsG1148" transform="translate(1382.3432760388778,25.005208333333258)"><path id="SvgjsPath1149" d="M 43.47679948056111 30L 43.47679948056111 502.3333333333335" stroke-dasharray="3,4" stroke="rgba(50,50,50,1)" stroke-width="2" fill="none"></path><path id="SvgjsPath1150" d="M 0 0L 86.95359896112222 0L 86.95359896112222 30L 0 30Z" stroke="rgba(50,50,50,1)" stroke-width="2" fill-opacity="1" fill="#ffffff"></path><g id="SvgjsG1151"><text id="SvgjsText1152" font-family="Arial" text-anchor="middle" font-size="16px" width="67px" fill="#323232" font-weight="400" align="middle" anchor="middle" family="Arial" size="16px" weight="400" font-style="" opacity="1" y="2.6" transform="rotate(0)"><tspan id="SvgjsTspan1153" dy="20" x="43.5"><tspan id="SvgjsTspan1154" style="text-decoration:;">Resolve</tspan></tspan></text></g></g><g id="SvgjsG1155" transform="translate(1410.6977264166658,218.671875)"><path id="SvgjsPath1156" d="M 0 4Q 0 0 4 0L 26.244698205546495 0Q 30.244698205546495 0 30.244698205546495 4L 30.244698205546495 105Q 30.244698205546495 109 26.244698205546495 109L 4 109Q 0 109 0 105L 0 4Z" stroke="rgba(50,50,50,1)" stroke-width="2" fill-opacity="1" fill="#ffffff"></path></g><g id="SvgjsG1157"><path id="SvgjsPath1158" d="M1250.296875 218.671875L1412.6591861018328 219.17138826780575" stroke="#323232" stroke-width="2" fill="none" marker-end="url(#SvgjsMarker1159)"></path><rect id="SvgjsRect1161" width="34" height="20" x="1314.4780305509164" y="208.92163163390288" fill="#ffffff"></rect><text id="SvgjsText1162" font-family="Arial" text-anchor="middle" font-size="16px" width="34px" fill="#323232" font-weight="400" align="top" anchor="middle" family="Arial" size="16px" weight="400" font-style="" opacity="1" y="206.52163163390287" transform="rotate(0)"><tspan id="SvgjsTspan1163" dy="20" x="1331.4780305509164"><tspan id="SvgjsTspan1164" style="text-decoration:;">run()</tspan></tspan></text></g><g id="SvgjsG1165" transform="translate(1514.3432760388778,25.005208333333258)"><path id="SvgjsPath1166" d="M 75.97679948056111 30L 75.97679948056111 502.3333333333335" stroke-dasharray="3,4" stroke="rgba(50,50,50,1)" stroke-width="2" fill="none"></path><path id="SvgjsPath1167" d="M 0 0L 151.95359896112222 0L 151.95359896112222 30L 0 30Z" stroke="rgba(50,50,50,1)" stroke-width="2" fill-opacity="1" fill="#ffffff"></path><g id="SvgjsG1168"><text id="SvgjsText1169" font-family="Arial" text-anchor="middle" font-size="16px" width="132px" fill="#323232" font-weight="400" align="middle" anchor="middle" family="Arial" size="16px" weight="400" font-style="" opacity="1" y="2.6" transform="rotate(0)"><tspan id="SvgjsTspan1170" dy="20" x="76"><tspan id="SvgjsTspan1171" style="text-decoration:;">DelayedClientCall</tspan></tspan></text></g></g><g id="SvgjsG1172" transform="translate(1575.1977264166658,409.671875)"><path id="SvgjsPath1173" d="M 0 4Q 0 0 4 0L 26.244698205546495 0Q 30.244698205546495 0 30.244698205546495 4L 30.244698205546495 25Q 30.244698205546495 29 26.244698205546495 29L 4 29Q 0 29 0 25L 0 4Z" stroke="rgba(50,50,50,1)" stroke-width="2" fill-opacity="1" fill="#ffffff"></path></g><g id="SvgjsG1174"><path id="SvgjsPath1175" d="M579.296875 408.671875L1575.8747233455013 411.0660160032797" stroke="#323232" stroke-width="2" fill="none" marker-end="url(#SvgjsMarker1176)"></path><rect id="SvgjsRect1178" width="131" height="20" x="1012.0857991727507" y="399.8689455016398" fill="#ffffff"></rect><text id="SvgjsText1179" font-family="Arial" text-anchor="middle" font-size="16px" width="131px" fill="#323232" font-weight="400" align="top" anchor="middle" family="Arial" size="16px" weight="400" font-style="" opacity="1" y="397.46894550163984" transform="rotate(0)"><tspan id="SvgjsTspan1180" dy="20" x="1077.5857991727507"><tspan id="SvgjsTspan1181" style="text-decoration:;">new PendingCall()</tspan></tspan></text></g><g id="SvgjsG1182"><path id="SvgjsPath1183" d="M1577.6388951433257 436.7321823792141L579.530830556881 436.02908739031346" stroke-dasharray="8,5" stroke="#323232" stroke-width="2" fill="none" marker-end="url(#SvgjsMarker1184)"></path></g><g id="SvgjsG1186"><path id="SvgjsPath1187" d="M1250.3696498111065 190.00520833333337L1410.6977264166658 273.171875" stroke-dasharray="8,5" stroke="#cfcfcf" stroke-width="2" fill="none" marker-end="url(#SvgjsMarker1188)"></path></g><g id="SvgjsG1190" transform="translate(1514.3432760388778,116.671875)"><path id="SvgjsPath1191" d="M 0 0L 240.85445037778777 0L 256.85445037778777 16L 256.85445037778777 54L 0 54L 0 0Z" stroke="none" fill-opacity="1" fill="#ffffaa"></path><path id="SvgjsPath1192" d="M 240.85445037778777 0L 240.85445037778777 16L 256.85445037778777 16Z" stroke="none" fill-opacity="1" fill="#cdcdcd"></path><path id="SvgjsPath1193" d="M 0 0L 240.85445037778777 0L 256.85445037778777 16L 256.85445037778777 54L 0 54L 0 0Z" stroke="none" fill="none"></path><g id="SvgjsG1194"><text id="SvgjsText1195" font-family="Arial" text-anchor="start" font-size="16px" width="237px" fill="#323232" font-weight="400" align="top" anchor="start" family="Arial" size="16px" weight="400" font-style="" opacity="1" y="7.6" transform="rotate(0)"><tspan id="SvgjsTspan1196" dy="20" x="10"><tspan id="SvgjsTspan1197" style="text-decoration:;">use ThreadlessExecutor to run </tspan></tspan><tspan id="SvgjsTspan1198" dy="20" x="10"><tspan id="SvgjsTspan1199" style="text-decoration:;">DeadlineExceededRunnable</tspan></tspan></text></g></g><g id="SvgjsG1200"><path id="SvgjsPath1201" d="M1642.7705012277718 170.671875L1605.4424246222122 424.171875" stroke-dasharray="8,5" stroke="#cfcfcf" stroke-width="2" fill="none" marker-end="url(#SvgjsMarker1202)"></path></g><g id="SvgjsG1204" transform="translate(1688.3432760388778,25.005208333333258)"><path id="SvgjsPath1205" d="M 102.47679948056111 30L 102.47679948056111 502.3333333333335" stroke-dasharray="3,4" stroke="rgba(50,50,50,1)" stroke-width="2" fill="none"></path><path id="SvgjsPath1206" d="M 0 0L 204.95359896112222 0L 204.95359896112222 30L 0 30Z" stroke="rgba(50,50,50,1)" stroke-width="2" fill-opacity="1" fill="#ffffff"></path><g id="SvgjsG1207"><text id="SvgjsText1208" font-family="Arial" text-anchor="middle" font-size="16px" width="185px" fill="#323232" font-weight="400" align="middle" anchor="middle" family="Arial" size="16px" weight="400" font-style="" opacity="1" y="2.6" transform="rotate(0)"><tspan id="SvgjsTspan1209" dy="20" x="102.5"><tspan id="SvgjsTspan1210" style="text-decoration:;">IdleModeStateAggregator</tspan></tspan></text></g></g><g id="SvgjsG1211" transform="translate(1778.6977264166658,480.671875)"><path id="SvgjsPath1212" d="M 0 4Q 0 0 4 0L 26.244698205546495 0Q 30.244698205546495 0 30.244698205546495 4L 30.244698205546495 25Q 30.244698205546495 29 26.244698205546495 29L 4 29Q 0 29 0 25L 0 4Z" stroke="rgba(50,50,50,1)" stroke-width="2" fill-opacity="1" fill="#ffffff"></path></g><g id="SvgjsG1213"><path id="SvgjsPath1214" d="M579.296875 478.671875L1780.1253021247462 481.5003021247462" stroke="#323232" stroke-width="2" fill="none" marker-end="url(#SvgjsMarker1215)"></path><rect id="SvgjsRect1217" width="509" height="20" x="925.2110885623731" y="470.0860885623731" fill="#ffffff"></rect><text id="SvgjsText1218" font-family="Arial" text-anchor="middle" font-size="16px" width="509px" fill="#323232" font-weight="400" align="top" anchor="middle" family="Arial" size="16px" weight="400" font-style="" opacity="1" y="467.68608856237313" transform="rotate(0)"><tspan id="SvgjsTspan1219" dy="20" x="1179.711088562373"><tspan id="SvgjsTspan1220" style="text-decoration:;">inUseStateAggregator.updateObjectInUse() and then run exitIdleMode()  </tspan></tspan></text></g><g id="SvgjsG1221"><path id="SvgjsPath1222" d="M1779.7194932617408 507.76556721296333L578.8826614376269 507.2576614376269" stroke-dasharray="8,5" stroke="#323232" stroke-width="2" fill="none" marker-end="url(#SvgjsMarker1223)"></path></g><g id="SvgjsG1225" transform="translate(1906.3432760388778,25.005208333333258)"><path id="SvgjsPath1226" d="M 172.9767994805611 30L 172.9767994805611 502.3333333333335" stroke-dasharray="3,4" stroke="rgba(50,50,50,1)" stroke-width="2" fill="none"></path><path id="SvgjsPath1227" d="M 0 0L 345.9535989611222 0L 345.9535989611222 30L 0 30Z" stroke="rgba(50,50,50,1)" stroke-width="2" fill-opacity="1" fill="#00ffff"></path><g id="SvgjsG1228"><text id="SvgjsText1229" font-family="Arial" text-anchor="middle" font-size="16px" width="326px" fill="#323232" font-weight="400" align="middle" anchor="middle" family="Arial" size="16px" weight="400" font-style="" opacity="1" y="2.6" transform="rotate(0)"><tspan id="SvgjsTspan1230" dy="20" x="173"><tspan id="SvgjsTspan1231" style="text-decoration:;">ManagedChannelImpl.</tspan><tspan id="SvgjsTspan1232" style="text-decoration:;font-size: inherit;">NameResolverListener</tspan></tspan></text></g></g><g id="SvgjsG1233" transform="translate(2064.1977264166653,233.671875)"><path id="SvgjsPath1234" d="M 0 4Q 0 0 4 0L 26.244698205546495 0Q 30.244698205546495 0 30.244698205546495 4L 30.244698205546495 90Q 30.244698205546495 94 26.244698205546495 94L 4 94Q 0 94 0 90L 0 4Z" stroke="rgba(50,50,50,1)" stroke-width="2" fill-opacity="1" fill="#ffffff"></path></g><g id="SvgjsG1235"><path id="SvgjsPath1236" d="M1440.296875 233.671875L2067.796875 234.0020020189222" stroke="#323232" stroke-width="2" fill="none" marker-end="url(#SvgjsMarker1237)"></path><rect id="SvgjsRect1239" width="74" height="20" x="1717.046875" y="223.8369385094611" fill="#ffffff"></rect><text id="SvgjsText1240" font-family="Arial" text-anchor="middle" font-size="16px" width="74px" fill="#323232" font-weight="400" align="top" anchor="middle" family="Arial" size="16px" weight="400" font-style="" opacity="1" y="221.4369385094611" transform="rotate(0)"><tspan id="SvgjsTspan1241" dy="20" x="1754.046875"><tspan id="SvgjsTspan1242" style="text-decoration:;">onResult()</tspan></tspan></text></g><g id="SvgjsG1243"><path id="SvgjsPath1244" d="M2094.296875 254.671875L2165.296875 254.671875L2165.296875 311.671875L2094.296875 311.671875" stroke="#323232" stroke-width="2" fill="none" marker-end="url(#SvgjsMarker1245)"></path><rect id="SvgjsRect1247" width="128" height="20" x="2101.296875" y="273.171875" fill="#ffffff"></rect><text id="SvgjsText1248" font-family="Arial" text-anchor="middle" font-size="16px" width="128px" fill="#323232" font-weight="400" align="top" anchor="middle" family="Arial" size="16px" weight="400" font-style="" opacity="1" y="270.771875" transform="rotate(0)"><tspan id="SvgjsTspan1249" dy="20" x="2165.296875"><tspan id="SvgjsTspan1250" style="text-decoration:;">NamesResolved()</tspan></tspan></text></g><g id="SvgjsG1251" transform="translate(1811.4424246222122,116.671875)"><path id="SvgjsPath1252" d="M 0 0L 218.85445037778777 0L 234.85445037778777 16L 234.85445037778777 36L 0 36L 0 0Z" stroke="none" fill-opacity="1" fill="#ffffaa"></path><path id="SvgjsPath1253" d="M 218.85445037778777 0L 218.85445037778777 16L 234.85445037778777 16Z" stroke="none" fill-opacity="1" fill="#cdcdcd"></path><path id="SvgjsPath1254" d="M 0 0L 218.85445037778777 0L 234.85445037778777 16L 234.85445037778777 36L 0 36L 0 0Z" stroke="none" fill="none"></path><g id="SvgjsG1255"><text id="SvgjsText1256" font-family="Arial" text-anchor="start" font-size="16px" width="215px" fill="#323232" font-weight="400" align="top" anchor="start" family="Arial" size="16px" weight="400" font-style="" opacity="1" y="7.6" transform="rotate(0)"><tspan id="SvgjsTspan1257" dy="20" x="10"><tspan id="SvgjsTspan1258" style="text-decoration:;">use syncContext to execute it</tspan></tspan></text></g></g><g id="SvgjsG1259"><path id="SvgjsPath1260" d="M1928.8696498111062 152.671875L2064.1977264166653 280.671875" stroke-dasharray="8,5" stroke="#cfcfcf" stroke-width="2" fill="none" marker-end="url(#SvgjsMarker1261)"></path></g><g id="SvgjsG1263"><path id="SvgjsPath1264" d="M2065.6388951433255 326.7321823792141L1439.0025692545958 326.39526682284406" stroke-dasharray="8,5" stroke="#323232" stroke-width="2" fill="none" marker-end="url(#SvgjsMarker1265)"></path></g><g id="SvgjsG1267"><path id="SvgjsPath1268" d="M1411.1421115234814 325.85925942592667L1250.5897682188136 325.96476821881345" stroke-dasharray="8,5" stroke="#323232" stroke-width="2" fill="none" marker-end="url(#SvgjsMarker1269)"></path></g><g id="SvgjsG1271"><path id="SvgjsPath1272" d="M1222.796875 324.8058495962156L579.0202668228441 324.3775692545958" stroke-dasharray="8,5" stroke="#323232" stroke-width="2" fill="none" marker-end="url(#SvgjsMarker1273)"></path></g><g id="SvgjsG1275" transform="translate(1824.4424246222122,394.00520833333337)"><path id="SvgjsPath1276" d="M 0 0L 218.85445037778777 0L 234.85445037778777 16L 234.85445037778777 36L 0 36L 0 0Z" stroke="none" fill-opacity="1" fill="#ffffaa"></path><path id="SvgjsPath1277" d="M 218.85445037778777 0L 218.85445037778777 16L 234.85445037778777 16Z" stroke="none" fill-opacity="1" fill="#cdcdcd"></path><path id="SvgjsPath1278" d="M 0 0L 218.85445037778777 0L 234.85445037778777 16L 234.85445037778777 36L 0 36L 0 0Z" stroke="none" fill="none"></path><g id="SvgjsG1279"><text id="SvgjsText1280" font-family="Arial" text-anchor="start" font-size="16px" width="215px" fill="#323232" font-weight="400" align="top" anchor="start" family="Arial" size="16px" weight="400" font-style="" opacity="1" y="7.6" transform="rotate(0)"><tspan id="SvgjsTspan1281" dy="20" x="10"><tspan id="SvgjsTspan1282" style="text-decoration:;">make Rescheduler disabled</tspan></tspan></text></g></g><g id="SvgjsG1283"><path id="SvgjsPath1284" d="M1941.8696498111062 430.00520833333337L1808.9424246222122 495.171875" stroke-dasharray="8,5" stroke="#cfcfcf" stroke-width="2" fill="none" marker-end="url(#SvgjsMarker1285)"></path></g><g id="SvgjsG1287"><path id="SvgjsPath1288" d="M550.0176043090531 341.214418867133L317.65857091142203 340.52472212729793" stroke-dasharray="8,5" stroke="#323232" stroke-width="2" fill="none" marker-end="url(#SvgjsMarker1289)"></path></g><g id="SvgjsG1291" transform="translate(287.83250007921714,369.671875)"><path id="SvgjsPath1292" d="M 0 4Q 0 0 4 0L 26.244698205546495 0Q 30.244698205546495 0 30.244698205546495 4L 30.244698205546495 153.66666666666674Q 30.244698205546495 157.66666666666674 26.244698205546495 157.66666666666674L 4 157.66666666666674Q 0 157.66666666666674 0 153.66666666666674L 0 4Z" stroke="rgba(50,50,50,1)" stroke-width="2" fill-opacity="1" fill="#ffffff"></path></g><g id="SvgjsG1293" transform="translate(549.6977264166657,383.671875)"><path id="SvgjsPath1294" d="M 0 4Q 0 0 4 0L 26.244698205546495 0Q 30.244698205546495 0 30.244698205546495 4L 30.244698205546495 139.66666666666674Q 30.244698205546495 143.66666666666674 26.244698205546495 143.66666666666674L 4 143.66666666666674Q 0 143.66666666666674 0 139.66666666666674L 0 4Z" stroke-dasharray="10,6" stroke="rgba(50,50,50,1)" stroke-width="2" fill-opacity="1" fill="#ff9933"></path></g><g id="SvgjsG1295" transform="translate(549.6977264166657,394.00520833333337)"><path id="SvgjsPath1296" d="M 0 4Q 0 0 4 0L 26.244698205546495 0Q 30.244698205546495 0 30.244698205546495 4L 30.244698205546495 40.66666666666663Q 30.244698205546495 44.66666666666663 26.244698205546495 44.66666666666663L 4 44.66666666666663Q 0 44.66666666666663 0 40.66666666666663L 0 4Z" stroke="rgba(50,50,50,1)" stroke-width="2" fill-opacity="1" fill="#ffffff"></path></g><g id="SvgjsG1297" transform="translate(549.6977264166657,465.00520833333337)"><path id="SvgjsPath1298" d="M 0 4Q 0 0 4 0L 26.244698205546495 0Q 30.244698205546495 0 30.244698205546495 4L 30.244698205546495 40.66666666666663Q 30.244698205546495 44.66666666666663 26.244698205546495 44.66666666666663L 4 44.66666666666663Q 0 44.66666666666663 0 40.66666666666663L 0 4Z" stroke="rgba(50,50,50,1)" stroke-width="2" fill-opacity="1" fill="#ffffff"></path></g><g id="SvgjsG1299"><path id="SvgjsPath1300" d="M317.296875 383.671875L551.6591861018328 384.17138826780575" stroke="#323232" stroke-width="2" fill="none" marker-end="url(#SvgjsMarker1301)"></path><rect id="SvgjsRect1303" width="149" height="20" x="359.9780305509164" y="373.92163163390285" fill="#ffffff"></rect><text id="SvgjsText1304" font-family="Arial" text-anchor="middle" font-size="16px" width="149px" fill="#323232" font-weight="400" align="top" anchor="middle" family="Arial" size="16px" weight="400" font-style="" opacity="1" y="371.52163163390287" transform="rotate(0)"><tspan id="SvgjsTspan1305" dy="20" x="434.4780305509164"><tspan id="SvgjsTspan1306" style="text-decoration:;">create a PendingCall</tspan></tspan></text></g><g id="SvgjsG1307"><path id="SvgjsPath1308" d="M550.296875 524.9398241924312L323.296875 524.9398241924312" stroke-dasharray="8,5" stroke="#323232" stroke-width="2" fill="none" marker-end="url(#SvgjsMarker1309)"></path></g><g id="SvgjsG1311"><path id="SvgjsPath1312" d="M290.63889514332567 525.7321823792141L97.296875 525.7321823792141" stroke-dasharray="8,5" stroke="#323232" stroke-width="2" fill="none" marker-end="url(#SvgjsMarker1313)"></path></g><g id="SvgjsG1315" transform="translate(328.1977264166658,238.671875)"><path id="SvgjsPath1316" d="M 0 0L 197.09914858333434 0L 213.09914858333434 16L 213.09914858333434 75L 0 75L 0 0Z" stroke="none" fill-opacity="1" fill="#ffffaa"></path><path id="SvgjsPath1317" d="M 197.09914858333434 0L 197.09914858333434 16L 213.09914858333434 16Z" stroke="none" fill-opacity="1" fill="#cdcdcd"></path><path id="SvgjsPath1318" d="M 0 0L 197.09914858333434 0L 213.09914858333434 16L 213.09914858333434 75L 0 75L 0 0Z" stroke="none" fill="none"></path><g id="SvgjsG1319"><text id="SvgjsText1320" font-family="Arial" text-anchor="start" font-size="16px" width="194px" fill="#323232" font-weight="400" align="top" anchor="start" family="Arial" size="16px" weight="400" font-style="" opacity="1" y="7.6" transform="rotate(0)"><tspan id="SvgjsTspan1321" dy="20" x="10"><tspan id="SvgjsTspan1322" style="text-decoration:;">there is a PendingCall task </tspan></tspan><tspan id="SvgjsTspan1323" dy="20" x="10"><tspan id="SvgjsTspan1324" style="text-decoration:;">in the list of pendingCalls </tspan></tspan><tspan id="SvgjsTspan1325" dy="20" x="10"><tspan id="SvgjsTspan1326" style="text-decoration:;">object.</tspan></tspan></text></g></g><g id="SvgjsG1327"><path id="SvgjsPath1328" d="M434.7473007083329 313.671875L318.07719828476365 448.50520833333337" stroke-dasharray="8,5" stroke="#cfcfcf" stroke-width="2" fill="none" marker-end="url(#SvgjsMarker1329)"></path></g></svg>