<svg id="SvgjsSvg1006" width="2021.078125" height="566" xmlns="http://www.w3.org/2000/svg" version="1.1" xmlns:xlink="http://www.w3.org/1999/xlink" xmlns:svgjs="http://svgjs.com/svgjs"><defs id="SvgjsDefs1007"><marker id="SvgjsMarker1038" markerWidth="16" markerHeight="12" refX="16" refY="6" viewBox="0 0 16 12" orient="auto" markerUnits="userSpaceOnUse" stroke-dasharray="0,0"><path id="SvgjsPath1039" d="M0,2 L14,6 L0,11 L0,2" fill="#323232" stroke="#323232" stroke-width="2"></path></marker><marker id="SvgjsMarker1070" markerWidth="16" markerHeight="12" refX="16" refY="6" viewBox="0 0 16 12" orient="auto" markerUnits="userSpaceOnUse" stroke-dasharray="0,0"><path id="SvgjsPath1071" d="M0,2 L14,6 L0,11 L0,2" fill="#323232" stroke="#323232" stroke-width="2"></path></marker><marker id="SvgjsMarker1078" markerWidth="16" markerHeight="12" refX="16" refY="6" viewBox="0 0 16 12" orient="auto" markerUnits="userSpaceOnUse" stroke-dasharray="0,0"><path id="SvgjsPath1079" d="M0,2 L14,6 L0,11 L0,2" fill="#323232" stroke="#323232" stroke-width="2"></path></marker><marker id="SvgjsMarker1086" markerWidth="16" markerHeight="12" refX="16" refY="6" viewBox="0 0 16 12" orient="auto" markerUnits="userSpaceOnUse" stroke-dasharray="0,0"><path id="SvgjsPath1087" d="M0,2 L14,6 L0,11 L0,2" fill="#323232" stroke="#323232" stroke-width="2"></path></marker><marker id="SvgjsMarker1092" markerWidth="16" markerHeight="12" refX="16" refY="6" viewBox="0 0 16 12" orient="auto" markerUnits="userSpaceOnUse" stroke-dasharray="0,0"><path id="SvgjsPath1093" d="M0,2 L14,6 L0,11 L0,2" fill="#323232" stroke="#323232" stroke-width="2"></path></marker><marker id="SvgjsMarker1109" markerWidth="16" markerHeight="12" refX="16" refY="6" viewBox="0 0 16 12" orient="auto" markerUnits="userSpaceOnUse" stroke-dasharray="0,0"><path id="SvgjsPath1110" d="M0,2 L14,6 L0,11 L0,2" fill="#323232" stroke="#323232" stroke-width="2"></path></marker><marker id="SvgjsMarker1132" markerWidth="16" markerHeight="12" refX="16" refY="6" viewBox="0 0 16 12" orient="auto" markerUnits="userSpaceOnUse" stroke-dasharray="0,0"><path id="SvgjsPath1133" d="M0,2 L14,6 L0,11 L0,2" fill="#323232" stroke="#323232" stroke-width="2"></path></marker><marker id="SvgjsMarker1144" markerWidth="16" markerHeight="12" refX="16" refY="6" viewBox="0 0 16 12" orient="auto" markerUnits="userSpaceOnUse" stroke-dasharray="0,0"><path id="SvgjsPath1145" d="M0,2 L14,6 L0,11 L0,2" fill="#cfcfcf" stroke="#cfcfcf" stroke-width="2"></path></marker><marker id="SvgjsMarker1148" markerWidth="16" markerHeight="12" refX="16" refY="6" viewBox="0 0 16 12" orient="auto" markerUnits="userSpaceOnUse" stroke-dasharray="0,0"><path id="SvgjsPath1149" d="M0,2 L14,6 L0,11 L0,2" fill="#323232" stroke="#323232" stroke-width="2"></path></marker><marker id="SvgjsMarker1152" markerWidth="16" markerHeight="12" refX="16" refY="6" viewBox="0 0 16 12" orient="auto" markerUnits="userSpaceOnUse" stroke-dasharray="0,0"><path id="SvgjsPath1153" d="M0,2 L14,6 L0,11 L0,2" fill="#323232" stroke="#323232" stroke-width="2"></path></marker><marker id="SvgjsMarker1158" markerWidth="16" markerHeight="12" refX="16" refY="6" viewBox="0 0 16 12" orient="auto" markerUnits="userSpaceOnUse" stroke-dasharray="0,0"><path id="SvgjsPath1159" d="M0,2 L14,6 L0,11 L0,2" fill="#323232" stroke="#323232" stroke-width="2"></path></marker><marker id="SvgjsMarker1166" markerWidth="16" markerHeight="12" refX="16" refY="6" viewBox="0 0 16 12" orient="auto" markerUnits="userSpaceOnUse" stroke-dasharray="0,0"><path id="SvgjsPath1167" d="M0,2 L14,6 L0,11 L0,2" fill="#323232" stroke="#323232" stroke-width="2"></path></marker><marker id="SvgjsMarker1178" markerWidth="16" markerHeight="12" refX="16" refY="6" viewBox="0 0 16 12" orient="auto" markerUnits="userSpaceOnUse" stroke-dasharray="0,0"><path id="SvgjsPath1179" d="M0,2 L14,6 L0,11 L0,2" fill="#cfcfcf" stroke="#cfcfcf" stroke-width="2"></path></marker><marker id="SvgjsMarker1184" markerWidth="16" markerHeight="12" refX="16" refY="6" viewBox="0 0 16 12" orient="auto" markerUnits="userSpaceOnUse" stroke-dasharray="0,0"><path id="SvgjsPath1185" d="M0,2 L14,6 L0,11 L0,2" fill="#323232" stroke="#323232" stroke-width="2"></path></marker><marker id="SvgjsMarker1192" markerWidth="16" markerHeight="12" refX="16" refY="6" viewBox="0 0 16 12" orient="auto" markerUnits="userSpaceOnUse" stroke-dasharray="0,0"><path id="SvgjsPath1193" d="M0,2 L14,6 L0,11 L0,2" fill="#323232" stroke="#323232" stroke-width="2"></path></marker><marker id="SvgjsMarker1204" markerWidth="16" markerHeight="12" refX="16" refY="6" viewBox="0 0 16 12" orient="auto" markerUnits="userSpaceOnUse" stroke-dasharray="0,0"><path id="SvgjsPath1205" d="M0,2 L14,6 L0,11 L0,2" fill="#cfcfcf" stroke="#cfcfcf" stroke-width="2"></path></marker><marker id="SvgjsMarker1210" markerWidth="16" markerHeight="12" refX="16" refY="6" viewBox="0 0 16 12" orient="auto" markerUnits="userSpaceOnUse" stroke-dasharray="0,0"><path id="SvgjsPath1211" d="M0,2 L14,6 L0,11 L0,2" fill="#323232" stroke="#323232" stroke-width="2"></path></marker><marker id="SvgjsMarker1218" markerWidth="16" markerHeight="12" refX="16" refY="6" viewBox="0 0 16 12" orient="auto" markerUnits="userSpaceOnUse" stroke-dasharray="0,0"><path id="SvgjsPath1219" d="M0,2 L14,6 L0,11 L0,2" fill="#323232" stroke="#323232" stroke-width="2"></path></marker><marker id="SvgjsMarker1230" markerWidth="16" markerHeight="12" refX="16" refY="6" viewBox="0 0 16 12" orient="auto" markerUnits="userSpaceOnUse" stroke-dasharray="0,0"><path id="SvgjsPath1231" d="M0,2 L14,6 L0,11 L0,2" fill="#cfcfcf" stroke="#cfcfcf" stroke-width="2"></path></marker><marker id="SvgjsMarker1234" markerWidth="16" markerHeight="12" refX="16" refY="6" viewBox="0 0 16 12" orient="auto" markerUnits="userSpaceOnUse" stroke-dasharray="0,0"><path id="SvgjsPath1235" d="M0,2 L14,6 L0,11 L0,2" fill="#323232" stroke="#323232" stroke-width="2"></path></marker><marker id="SvgjsMarker1238" markerWidth="16" markerHeight="12" refX="16" refY="6" viewBox="0 0 16 12" orient="auto" markerUnits="userSpaceOnUse" stroke-dasharray="0,0"><path id="SvgjsPath1239" d="M0,2 L14,6 L0,11 L0,2" fill="#323232" stroke="#323232" stroke-width="2"></path></marker><marker id="SvgjsMarker1252" markerWidth="16" markerHeight="12" refX="16" refY="6" viewBox="0 0 16 12" orient="auto" markerUnits="userSpaceOnUse" stroke-dasharray="0,0"><path id="SvgjsPath1253" d="M0,2 L14,6 L0,11 L0,2" fill="#cfcfcf" stroke="#cfcfcf" stroke-width="2"></path></marker></defs><g id="SvgjsG1008" transform="translate(884.078125,25)"><path id="SvgjsPath1009" d="M 0 4Q 0 0 4 0L 518 0Q 522 0 522 4L 522 511.5625Q 522 515.5625 518 515.5625L 4 515.5625Q 0 515.5625 0 511.5625Z" stroke-dasharray="10,6" stroke="rgba(184,184,184,1)" stroke-width="2" fill-opacity="1" fill="#ffffff"></path><g id="SvgjsG1010"><text id="SvgjsText1011" font-family="Arial" text-anchor="middle" font-size="16px" width="502px" fill="#323232" font-weight="400" align="top" anchor="middle" family="Arial" size="16px" weight="400" font-style="" opacity="1" y="-2.4" transform="rotate(0)"><tspan id="SvgjsTspan1012" dy="20" x="261"><tspan id="SvgjsTspan1013" style="text-decoration:;">Pendding Runnables</tspan></tspan></text></g></g><g id="SvgjsG1014" transform="translate(184.078125,25)"><path id="SvgjsPath1015" d="M 0 4Q 0 0 4 0L 668 0Q 672 0 672 4L 672 511.5625Q 672 515.5625 668 515.5625L 4 515.5625Q 0 515.5625 0 511.5625Z" stroke-dasharray="10,6" stroke="rgba(184,184,184,1)" stroke-width="2" fill-opacity="1" fill="#ffffff"></path><g id="SvgjsG1016"><text id="SvgjsText1017" font-family="Arial" text-anchor="middle" font-size="16px" width="652px" fill="#323232" font-weight="400" align="top" anchor="middle" family="Arial" size="16px" weight="400" font-style="" opacity="1" y="-2.4" transform="rotate(0)"><tspan id="SvgjsTspan1018" dy="20" x="336"><tspan id="SvgjsTspan1019" style="text-decoration:;">Pendding Call</tspan></tspan></text></g></g><g id="SvgjsG1020" transform="translate(25.006129046767228,61.916666666666686)"><path id="SvgjsPath1021" d="M 53.676614363080844 30L 53.676614363080844 450.1666666666667" stroke-dasharray="3,4" stroke="rgba(50,50,50,1)" stroke-width="2" fill="none"></path><path id="SvgjsPath1022" d="M 0 0L 107.35322872616169 0L 107.35322872616169 30L 0 30Z" stroke="rgba(50,50,50,1)" stroke-width="2" fill-opacity="1" fill="#ffffff"></path><g id="SvgjsG1023"><text id="SvgjsText1024" font-family="Arial" text-anchor="middle" font-size="16px" width="88px" fill="#323232" font-weight="400" align="middle" anchor="middle" family="Arial" size="16px" weight="400" font-style="" opacity="1" y="2.6" transform="rotate(0)"><tspan id="SvgjsTspan1025" dy="20" x="54"><tspan id="SvgjsTspan1026" style="text-decoration:;">ClientCalls</tspan></tspan></text></g></g><g id="SvgjsG1027" transform="translate(63.560394307074816,109.41666666666674)"><path id="SvgjsPath1028" d="M 0 4Q 0 0 4 0L 26.244698205546495 0Q 30.244698205546495 0 30.244698205546495 4L 30.244698205546495 414.9779411764706Q 30.244698205546495 418.9779411764706 26.244698205546495 418.9779411764706L 4 418.9779411764706Q 0 418.9779411764706 0 414.9779411764706L 0 4Z" stroke="rgba(50,50,50,1)" stroke-width="2" fill-opacity="1" fill="#ffffff"></path></g><g id="SvgjsG1029" transform="translate(194.84051389857586,61.91666666666663)"><path id="SvgjsPath1030" d="M 196.61880555071207 30L 196.61880555071207 466.4779411764707" stroke-dasharray="3,4" stroke="rgba(50,50,50,1)" stroke-width="2" fill="none"></path><path id="SvgjsPath1031" d="M 0 0L 393.23761110142414 0L 393.23761110142414 30L 0 30Z" stroke="rgba(50,50,50,1)" stroke-width="2" fill-opacity="1" fill="#ffffff"></path><g id="SvgjsG1032"><text id="SvgjsText1033" font-family="Arial" text-anchor="middle" font-size="16px" width="374px" fill="#323232" font-weight="400" align="middle" anchor="middle" family="Arial" size="16px" weight="400" font-style="" opacity="1" y="2.6" transform="rotate(0)"><tspan id="SvgjsTspan1034" dy="20" x="197"><tspan id="SvgjsTspan1035" style="text-decoration:;">ManagedChannelImpl$RealChannel$PendingCall$1</tspan></tspan></text></g></g><g id="SvgjsG1036"><path id="SvgjsPath1037" d="M93.29411285969798 121.54537951127693L230.686118929849 121.54537951127693L230.686118929849 121.16365884939546L368.078125 121.16365884939546" stroke="#323232" stroke-width="2" fill="none" marker-end="url(#SvgjsMarker1038)"></path><rect id="SvgjsRect1040" width="171" height="20" x="145.186118929849" y="111.35451918033621" fill="#ffffff"></rect><text id="SvgjsText1041" font-family="Arial" text-anchor="middle" font-size="16px" width="171px" fill="#323232" font-weight="400" align="top" anchor="middle" family="Arial" size="16px" weight="400" font-style="" opacity="1" y="108.9545191803362" transform="rotate(0)"><tspan id="SvgjsTspan1042" dy="20" x="230.686118929849"><tspan id="SvgjsTspan1043" style="text-decoration:;">executor.waitAndDrain()</tspan></tspan></text></g><g id="SvgjsG1044" transform="translate(376.3369703465147,122.08333333333337)"><path id="SvgjsPath1045" d="M 0 4Q 0 0 4 0L 26.244698205546495 0Q 30.244698205546495 0 30.244698205546495 4L 30.244698205546495 342.14460784313724Q 30.244698205546495 346.14460784313724 26.244698205546495 346.14460784313724L 4 346.14460784313724Q 0 346.14460784313724 0 342.14460784313724L 0 4Z" stroke="rgba(50,50,50,1)" stroke-width="2" fill-opacity="1" fill="#ffffff"></path></g><g id="SvgjsG1046" transform="translate(665.3405138985759,61.91666666666663)"><path id="SvgjsPath1047" d="M 59.86880555071207 30L 59.86880555071207 466.4779411764707" stroke-dasharray="3,4" stroke="rgba(50,50,50,1)" stroke-width="2" fill="none"></path><path id="SvgjsPath1048" d="M 0 0L 119.73761110142414 0L 119.73761110142414 30L 0 30Z" stroke="rgba(50,50,50,1)" stroke-width="2" fill-opacity="1" fill="#ffffff"></path><g id="SvgjsG1049"><text id="SvgjsText1050" font-family="Arial" text-anchor="middle" font-size="16px" width="100px" fill="#323232" font-weight="400" align="middle" anchor="middle" family="Arial" size="16px" weight="400" font-style="" opacity="1" y="2.6" transform="rotate(0)"><tspan id="SvgjsTspan1051" dy="20" x="60"><tspan id="SvgjsTspan1052" style="text-decoration:;">ClientCallImpl</tspan></tspan></text></g></g><g id="SvgjsG1053" transform="translate(710.0869703465147,252.41421568627453)"><path id="SvgjsPath1054" d="M 0 4Q 0 0 4 0L 26.244698205546495 0Q 30.244698205546495 0 30.244698205546495 4L 30.244698205546495 211.81372549019608Q 30.244698205546495 215.81372549019608 26.244698205546495 215.81372549019608L 4 215.81372549019608Q 0 215.81372549019608 0 211.81372549019608L 0 4Z" stroke="rgba(50,50,50,1)" stroke-width="2" fill-opacity="1" fill="#ffffff"></path></g><g id="SvgjsG1055" transform="translate(968.8405138985759,61.91666666666663)"><path id="SvgjsPath1056" d="M 81.11880555071207 30L 81.11880555071207 466.4779411764707" stroke-dasharray="3,4" stroke="rgba(50,50,50,1)" stroke-width="2" fill="none"></path><path id="SvgjsPath1057" d="M 0 0L 162.23761110142414 0L 162.23761110142414 30L 0 30Z" stroke="rgba(50,50,50,1)" stroke-width="2" fill-opacity="1" fill="#ffffff"></path><g id="SvgjsG1058"><text id="SvgjsText1059" font-family="Arial" text-anchor="middle" font-size="16px" width="143px" fill="#323232" font-weight="400" align="middle" anchor="middle" family="Arial" size="16px" weight="400" font-style="" opacity="1" y="2.6" transform="rotate(0)"><tspan id="SvgjsTspan1060" dy="20" x="81.5"><tspan id="SvgjsTspan1061" style="text-decoration:;">DelayedClientCall</tspan></tspan></text></g></g><g id="SvgjsG1062" transform="translate(665.3405138985758,163.5625)"><path id="SvgjsPath1063" d="M 0 0L 119.73761110142436 0L 119.73761110142436 29.854166666666742L 0 29.854166666666742Z" stroke="rgba(255,0,0,1)" stroke-width="2" fill-opacity="1" fill="#00ff00"></path><g id="SvgjsG1064"><text id="SvgjsText1065" font-family="Arial" text-anchor="middle" font-size="16px" width="100px" fill="#323232" font-weight="400" align="middle" anchor="middle" family="Arial" size="16px" weight="400" font-style="" opacity="1" y="2.5270833333333713" transform="rotate(0)"><tspan id="SvgjsTspan1066" dy="20" x="60"><tspan id="SvgjsTspan1067" style="text-decoration:;">ClientCallImpl</tspan></tspan></text></g></g><g id="SvgjsG1068"><path id="SvgjsPath1069" d="M406.078125 137.5625L725.2093194492879 137.5625L725.2093194492879 163.5625" stroke="#323232" stroke-width="2" fill="none" marker-end="url(#SvgjsMarker1070)"></path><rect id="SvgjsRect1072" width="108" height="20" x="524.643722224644" y="127.5625" fill="#ffffff"></rect><text id="SvgjsText1073" font-family="Arial" text-anchor="middle" font-size="16px" width="108px" fill="#323232" font-weight="400" align="top" anchor="middle" family="Arial" size="16px" weight="400" font-style="" opacity="1" y="125.1625" transform="rotate(0)"><tspan id="SvgjsTspan1074" dy="20" x="578.643722224644"><tspan id="SvgjsTspan1075" style="text-decoration:;">newClientCall()</tspan></tspan></text></g><g id="SvgjsG1076"><path id="SvgjsPath1077" d="M406.078125 254.5625L558.4273565519647 254.5625L558.4273565519647 255.27260071662835L710.7765881039295 255.27260071662835" stroke="#323232" stroke-width="2" fill="none" marker-end="url(#SvgjsMarker1078)"></path><rect id="SvgjsRect1080" width="60" height="20" x="528.4273565519647" y="244.91755035831417" fill="#ffffff"></rect><text id="SvgjsText1081" font-family="Arial" text-anchor="middle" font-size="16px" width="60px" fill="#323232" font-weight="400" align="top" anchor="middle" family="Arial" size="16px" weight="400" font-style="" opacity="1" y="242.51755035831417" transform="rotate(0)"><tspan id="SvgjsTspan1082" dy="20" x="558.4273565519647"><tspan id="SvgjsTspan1083" style="text-decoration:;">setCall()</tspan></tspan></text></g><g id="SvgjsG1084"><path id="SvgjsPath1085" d="M665.3405138985758 178.48958333333337L535.7093194492879 178.48958333333337L535.7093194492879 178.5625L406.078125 178.5625" stroke-dasharray="8,5" stroke="#323232" stroke-width="2" fill="none" marker-end="url(#SvgjsMarker1086)"></path></g><g id="SvgjsG1088" transform="translate(1034.8369703465146,267.6691176470588)"><path id="SvgjsPath1089" d="M 0 4Q 0 0 4 0L 26.244698205546495 0Q 30.244698205546495 0 30.244698205546495 4L 30.244698205546495 196.55882352941182Q 30.244698205546495 200.55882352941182 26.244698205546495 200.55882352941182L 4 200.55882352941182Q 0 200.55882352941182 0 196.55882352941182L 0 4Z" stroke="rgba(50,50,50,1)" stroke-width="2" fill-opacity="1" fill="#ffffff"></path></g><g id="SvgjsG1090"><path id="SvgjsPath1091" d="M740.078125 270.5625L888.1260051107225 270.5625L888.1260051107225 270.66483059775703L1036.173885221445 270.66483059775703" stroke="#323232" stroke-width="2" fill="none" marker-end="url(#SvgjsMarker1092)"></path><rect id="SvgjsRect1094" width="141" height="20" x="817.6260051107225" y="260.6136652988785" fill="#ffffff"></rect><text id="SvgjsText1095" font-family="Arial" text-anchor="middle" font-size="16px" width="141px" fill="#323232" font-weight="400" align="top" anchor="middle" family="Arial" size="16px" weight="400" font-style="" opacity="1" y="258.21366529887854" transform="rotate(0)"><tspan id="SvgjsTspan1096" dy="20" x="888.1260051107225"><tspan id="SvgjsTspan1097" style="text-decoration:;">drainPendingCalls()</tspan></tspan></text></g><g id="SvgjsG1098" transform="translate(1187.8405138985759,61.91666666666663)"><path id="SvgjsPath1099" d="M 96.11880555071207 30L 96.11880555071207 462.561887254902" stroke-dasharray="3,4" stroke="rgba(50,50,50,1)" stroke-width="2" fill="none"></path><path id="SvgjsPath1100" d="M 0 0L 192.23761110142414 0L 192.23761110142414 30L 0 30Z" stroke="rgba(50,50,50,1)" stroke-width="2" fill-opacity="1" fill="#ffffff"></path><g id="SvgjsG1101"><text id="SvgjsText1102" font-family="Arial" text-anchor="middle" font-size="16px" width="173px" fill="#323232" font-weight="400" align="middle" anchor="middle" family="Arial" size="16px" weight="400" font-style="" opacity="1" y="2.6" transform="rotate(0)"><tspan id="SvgjsTspan1103" dy="20" x="96.5"><tspan id="SvgjsTspan1104" style="text-decoration:;">DelayedClientTransport</tspan></tspan></text></g></g><g id="SvgjsG1105" transform="translate(1268.8369703465146,280.6691176470588)"><path id="SvgjsPath1106" d="M 0 4Q 0 0 4 0L 26.244698205546495 0Q 30.244698205546495 0 30.244698205546495 4L 30.244698205546495 32.89338235294122Q 30.244698205546495 36.89338235294122 26.244698205546495 36.89338235294122L 4 36.89338235294122Q 0 36.89338235294122 0 32.89338235294122L 0 4Z" stroke="rgba(50,50,50,1)" stroke-width="2" fill-opacity="1" fill="#ffffff"></path></g><g id="SvgjsG1107"><path id="SvgjsPath1108" d="M1064.078125 281.37765349529894L1167.110213886238 281.37765349529894L1167.110213886238 282.47659354972546L1270.142302772476 282.47659354972546" stroke="#323232" stroke-width="2" fill="none" marker-end="url(#SvgjsMarker1109)"></path><rect id="SvgjsRect1111" width="100" height="20" x="1117.110213886238" y="271.9271235225122" fill="#ffffff"></rect><text id="SvgjsText1112" font-family="Arial" text-anchor="middle" font-size="16px" width="100px" fill="#323232" font-weight="400" align="top" anchor="middle" family="Arial" size="16px" weight="400" font-style="" opacity="1" y="269.5271235225122" transform="rotate(0)"><tspan id="SvgjsTspan1113" dy="20" x="1167.110213886238"><tspan id="SvgjsTspan1114" style="text-decoration:;">start(headers)</tspan></tspan></text></g><g id="SvgjsG1115" transform="translate(1421.078125,25)"><path id="SvgjsPath1116" d="M 0 4Q 0 0 4 0L 571 0Q 575 0 575 4L 575 511.5625Q 575 515.5625 571 515.5625L 4 515.5625Q 0 515.5625 0 511.5625Z" stroke-dasharray="10,6" stroke="rgba(184,184,184,1)" stroke-width="2" fill-opacity="1" fill="#ffffff"></path><g id="SvgjsG1117"><text id="SvgjsText1118" font-family="Arial" text-anchor="middle" font-size="16px" width="555px" fill="#323232" font-weight="400" align="top" anchor="middle" family="Arial" size="16px" weight="400" font-style="" opacity="1" y="-2.4" transform="rotate(0)"><tspan id="SvgjsTspan1119" dy="20" x="287.5"><tspan id="SvgjsTspan1120" style="text-decoration:;">Pendding Stream</tspan></tspan></text></g></g><g id="SvgjsG1121" transform="translate(1445.8405138985759,61.91666666666663)"><path id="SvgjsPath1122" d="M 68.11880555071207 30L 68.11880555071207 462.561887254902" stroke-dasharray="3,4" stroke="rgba(50,50,50,1)" stroke-width="2" fill="none"></path><path id="SvgjsPath1123" d="M 0 0L 136.23761110142414 0L 136.23761110142414 30L 0 30Z" stroke="rgba(50,50,50,1)" stroke-width="2" fill-opacity="1" fill="#ffffff"></path><g id="SvgjsG1124"><text id="SvgjsText1125" font-family="Arial" text-anchor="middle" font-size="16px" width="117px" fill="#323232" font-weight="400" align="middle" anchor="middle" family="Arial" size="16px" weight="400" font-style="" opacity="1" y="2.6" transform="rotate(0)"><tspan id="SvgjsTspan1126" dy="20" x="68.5"><tspan id="SvgjsTspan1127" style="text-decoration:;">DelayedStream</tspan></tspan></text></g></g><g id="SvgjsG1128" transform="translate(1498.8369703465146,289.5625)"><path id="SvgjsPath1129" d="M 0 4Q 0 0 4 0L 26.244698205546495 0Q 30.244698205546495 0 30.244698205546495 4L 30.244698205546495 24Q 30.244698205546495 28 26.244698205546495 28L 4 28Q 0 28 0 24L 0 4Z" stroke="rgba(50,50,50,1)" stroke-width="2" fill-opacity="1" fill="#00ff00"></path></g><g id="SvgjsG1130"><path id="SvgjsPath1131" d="M1298.078125 291.5625L1398.5648064433212 291.5625L1398.5648064433212 291.90740800115157L1499.0514878866422 291.90740800115157" stroke="#323232" stroke-width="2" fill="none" marker-end="url(#SvgjsMarker1132)"></path></g><g id="SvgjsG1134" transform="translate(1591.2228957643388,286.8970588235294)"><path id="SvgjsPath1135" d="M 0 0L 363.8552292356612 0L 379.8552292356612 16L 379.8552292356612 33.33088235294122L 0 33.33088235294122L 0 0Z" stroke="none" fill-opacity="1" fill="#ffffaa"></path><path id="SvgjsPath1136" d="M 363.8552292356612 0L 363.8552292356612 16L 379.8552292356612 16Z" stroke="none" fill-opacity="1" fill="#cdcdcd"></path><path id="SvgjsPath1137" d="M 0 0L 363.8552292356612 0L 379.8552292356612 16L 379.8552292356612 33.33088235294122L 0 33.33088235294122L 0 0Z" stroke="none" fill="none"></path><g id="SvgjsG1138"><text id="SvgjsText1139" font-family="Arial" text-anchor="start" font-size="16px" width="360px" fill="#323232" font-weight="400" align="top" anchor="start" family="Arial" size="16px" weight="400" font-style="" opacity="1" y="7.6" transform="rotate(0)"><tspan id="SvgjsTspan1140" dy="20" x="10"><tspan id="SvgjsTspan1141" style="text-decoration:;">compressor, decompressor and pending stream</tspan></tspan></text></g></g><g id="SvgjsG1142"><path id="SvgjsPath1143" d="M1591.2228957643388 303.5625L1560.1522821581998 303.5625L1560.1522821581998 303.5625L1529.081668552061 303.5625" stroke-dasharray="8,5" stroke="#cfcfcf" stroke-width="2" fill="none" marker-end="url(#SvgjsMarker1144)"></path></g><g id="SvgjsG1146"><path id="SvgjsPath1147" d="M1499.2920630484327 312.7322777844051L1499.2920630484327 314.0625L1298.4800487886466 314.0625" stroke-dasharray="8,5" stroke="#323232" stroke-width="2" fill="none" marker-end="url(#SvgjsMarker1148)"></path></g><g id="SvgjsG1150"><path id="SvgjsPath1151" d="M1269.1994453435595 311.44117965644034L1166.6387851717798 311.44117965644034L1166.6387851717798 311.5625L1064.078125 311.5625" stroke-dasharray="8,5" stroke="#323232" stroke-width="2" fill="none" marker-end="url(#SvgjsMarker1152)"></path></g><g id="SvgjsG1154" transform="translate(1498.8369703465146,339.5625)"><path id="SvgjsPath1155" d="M 0 4Q 0 0 4 0L 26.244698205546495 0Q 30.244698205546495 0 30.244698205546495 4L 30.244698205546495 24Q 30.244698205546495 28 26.244698205546495 28L 4 28Q 0 28 0 24L 0 4Z" stroke="rgba(50,50,50,1)" stroke-width="2" fill-opacity="1" fill="#00ff00"></path></g><g id="SvgjsG1156"><path id="SvgjsPath1157" d="M1064.078125 337.5625L1281.5401443825306 337.5625L1281.5401443825306 342.43074088833464L1499.0021637650611 342.43074088833464" stroke="#323232" stroke-width="2" fill="none" marker-end="url(#SvgjsMarker1158)"></path><rect id="SvgjsRect1160" width="168" height="20" x="1197.5401443825306" y="329.9966204441673" fill="#ffffff"></rect><text id="SvgjsText1161" font-family="Arial" text-anchor="middle" font-size="16px" width="168px" fill="#323232" font-weight="400" align="top" anchor="middle" family="Arial" size="16px" weight="400" font-style="" opacity="1" y="327.59662044416734" transform="rotate(0)"><tspan id="SvgjsTspan1162" dy="20" x="1281.5401443825306"><tspan id="SvgjsTspan1163" style="text-decoration:;">request(numMessages)</tspan></tspan></text></g><g id="SvgjsG1164"><path id="SvgjsPath1165" d="M1499.3637002193732 363.03041111376206L1499.3637002193732 367.9485294117647L1065.081668552061 367.9485294117647" stroke-dasharray="8,5" stroke="#323232" stroke-width="2" fill="none" marker-end="url(#SvgjsMarker1166)"></path></g><g id="SvgjsG1168" transform="translate(1591.2228957643388,336.8970588235294)"><path id="SvgjsPath1169" d="M 0 0L 363.8552292356612 0L 379.8552292356612 16L 379.8552292356612 33.33088235294122L 0 33.33088235294122L 0 0Z" stroke="none" fill-opacity="1" fill="#ffffaa"></path><path id="SvgjsPath1170" d="M 363.8552292356612 0L 363.8552292356612 16L 379.8552292356612 16Z" stroke="none" fill-opacity="1" fill="#cdcdcd"></path><path id="SvgjsPath1171" d="M 0 0L 363.8552292356612 0L 379.8552292356612 16L 379.8552292356612 33.33088235294122L 0 33.33088235294122L 0 0Z" stroke="none" fill="none"></path><g id="SvgjsG1172"><text id="SvgjsText1173" font-family="Arial" text-anchor="start" font-size="16px" width="360px" fill="#323232" font-weight="400" align="top" anchor="start" family="Arial" size="16px" weight="400" font-style="" opacity="1" y="7.6" transform="rotate(0)"><tspan id="SvgjsTspan1174" dy="20" x="10"><tspan id="SvgjsTspan1175" style="text-decoration:;">request stream</tspan></tspan></text></g></g><g id="SvgjsG1176"><path id="SvgjsPath1177" d="M1591.2228957643388 353.5625L1560.1522821581998 353.5625L1560.1522821581998 353.5625L1529.081668552061 353.5625" stroke-dasharray="8,5" stroke="#cfcfcf" stroke-width="2" fill="none" marker-end="url(#SvgjsMarker1178)"></path></g><g id="SvgjsG1180" transform="translate(1498.8369703465146,390.5625)"><path id="SvgjsPath1181" d="M 0 4Q 0 0 4 0L 26.244698205546495 0Q 30.244698205546495 0 30.244698205546495 4L 30.244698205546495 24Q 30.244698205546495 28 26.244698205546495 28L 4 28Q 0 28 0 24L 0 4Z" stroke="rgba(50,50,50,1)" stroke-width="2" fill-opacity="1" fill="#00ff00"></path></g><g id="SvgjsG1182"><path id="SvgjsPath1183" d="M1063.078125 391.5625L1281.4932361077974 391.5625L1281.4932361077974 391.7764380484327L1499.9083472155949 391.7764380484327" stroke="#323232" stroke-width="2" fill="none" marker-end="url(#SvgjsMarker1184)"></path><rect id="SvgjsRect1186" width="175" height="20" x="1193.9932361077974" y="381.66946902421637" fill="#ffffff"></rect><text id="SvgjsText1187" font-family="Arial" text-anchor="middle" font-size="16px" width="175px" fill="#323232" font-weight="400" align="top" anchor="middle" family="Arial" size="16px" weight="400" font-style="" opacity="1" y="379.2694690242164" transform="rotate(0)"><tspan id="SvgjsTspan1188" dy="20" x="1281.4932361077974"><tspan id="SvgjsTspan1189" style="text-decoration:;">sendMessage(message)</tspan></tspan></text></g><g id="SvgjsG1190"><path id="SvgjsPath1191" d="M1499.078125 415.8304491924311L1499.078125 416.5625L1063.078125 416.5625" stroke-dasharray="8,5" stroke="#323232" stroke-width="2" fill="none" marker-end="url(#SvgjsMarker1192)"></path></g><g id="SvgjsG1194" transform="translate(1591.2228957643388,387.8970588235294)"><path id="SvgjsPath1195" d="M 0 0L 363.8552292356612 0L 379.8552292356612 16L 379.8552292356612 33.33088235294122L 0 33.33088235294122L 0 0Z" stroke="none" fill-opacity="1" fill="#ffffaa"></path><path id="SvgjsPath1196" d="M 363.8552292356612 0L 363.8552292356612 16L 379.8552292356612 16Z" stroke="none" fill-opacity="1" fill="#cdcdcd"></path><path id="SvgjsPath1197" d="M 0 0L 363.8552292356612 0L 379.8552292356612 16L 379.8552292356612 33.33088235294122L 0 33.33088235294122L 0 0Z" stroke="none" fill="none"></path><g id="SvgjsG1198"><text id="SvgjsText1199" font-family="Arial" text-anchor="start" font-size="16px" width="360px" fill="#323232" font-weight="400" align="top" anchor="start" family="Arial" size="16px" weight="400" font-style="" opacity="1" y="7.6" transform="rotate(0)"><tspan id="SvgjsTspan1200" dy="20" x="10"><tspan id="SvgjsTspan1201" style="text-decoration:;">writeMessage stream</tspan></tspan></text></g></g><g id="SvgjsG1202"><path id="SvgjsPath1203" d="M1591.2228957643388 404.5625L1560.1522821581998 404.5625L1560.1522821581998 404.5625L1529.081668552061 404.5625" stroke-dasharray="8,5" stroke="#cfcfcf" stroke-width="2" fill="none" marker-end="url(#SvgjsMarker1204)"></path></g><g id="SvgjsG1206" transform="translate(1498.8369703465146,437.5625)"><path id="SvgjsPath1207" d="M 0 4Q 0 0 4 0L 26.244698205546495 0Q 30.244698205546495 0 30.244698205546495 4L 30.244698205546495 24Q 30.244698205546495 28 26.244698205546495 28L 4 28Q 0 28 0 24L 0 4Z" stroke="rgba(50,50,50,1)" stroke-width="2" fill-opacity="1" fill="#00ff00"></path></g><g id="SvgjsG1208"><path id="SvgjsPath1209" d="M1062.078125 438.5625L1280.9932361077974 438.5625L1280.9932361077974 438.7764380484327L1499.9083472155949 438.7764380484327" stroke="#323232" stroke-width="2" fill="none" marker-end="url(#SvgjsMarker1210)"></path><rect id="SvgjsRect1212" width="77" height="20" x="1242.4932361077974" y="428.66946902421637" fill="#ffffff"></rect><text id="SvgjsText1213" font-family="Arial" text-anchor="middle" font-size="16px" width="77px" fill="#323232" font-weight="400" align="top" anchor="middle" family="Arial" size="16px" weight="400" font-style="" opacity="1" y="426.2694690242164" transform="rotate(0)"><tspan id="SvgjsTspan1214" dy="20" x="1280.9932361077974"><tspan id="SvgjsTspan1215" style="text-decoration:;">halfClose()</tspan></tspan></text></g><g id="SvgjsG1216"><path id="SvgjsPath1217" d="M1499.078125 462.8304491924311L1499.078125 462.988923563649L1063.258972955711 462.988923563649" stroke-dasharray="8,5" stroke="#323232" stroke-width="2" fill="none" marker-end="url(#SvgjsMarker1218)"></path></g><g id="SvgjsG1220" transform="translate(1595.2228957643388,434.8970588235294)"><path id="SvgjsPath1221" d="M 0 0L 363.8552292356612 0L 379.8552292356612 16L 379.8552292356612 33.33088235294122L 0 33.33088235294122L 0 0Z" stroke="none" fill-opacity="1" fill="#ffffaa"></path><path id="SvgjsPath1222" d="M 363.8552292356612 0L 363.8552292356612 16L 379.8552292356612 16Z" stroke="none" fill-opacity="1" fill="#cdcdcd"></path><path id="SvgjsPath1223" d="M 0 0L 363.8552292356612 0L 379.8552292356612 16L 379.8552292356612 33.33088235294122L 0 33.33088235294122L 0 0Z" stroke="none" fill="none"></path><g id="SvgjsG1224"><text id="SvgjsText1225" font-family="Arial" text-anchor="start" font-size="16px" width="360px" fill="#323232" font-weight="400" align="top" anchor="start" family="Arial" size="16px" weight="400" font-style="" opacity="1" y="7.6" transform="rotate(0)"><tspan id="SvgjsTspan1226" dy="20" x="10"><tspan id="SvgjsTspan1227" style="text-decoration:;">halfClose stream</tspan></tspan></text></g></g><g id="SvgjsG1228"><path id="SvgjsPath1229" d="M1595.2228957643388 451.5625L1562.1522821581998 451.5625L1562.1522821581998 451.5625L1529.081668552061 451.5625" stroke-dasharray="8,5" stroke="#cfcfcf" stroke-width="2" fill="none" marker-end="url(#SvgjsMarker1230)"></path></g><g id="SvgjsG1232"><path id="SvgjsPath1233" d="M1035.3724307454042 463.28589182284406L1035.3724307454042 463.536439570023L740.2590471376423 463.536439570023" stroke-dasharray="8,5" stroke="#323232" stroke-width="2" fill="none" marker-end="url(#SvgjsMarker1234)"></path></g><g id="SvgjsG1236"><path id="SvgjsPath1237" d="M710.3724307454041 463.28589182284406L710.3724307454041 463.98892356364894L405.258972955711 463.98892356364894" stroke-dasharray="8,5" stroke="#323232" stroke-width="2" fill="none" marker-end="url(#SvgjsMarker1238)"></path></g><g id="SvgjsG1240" transform="translate(376.3369703465147,487.4142156862745)"><path id="SvgjsPath1241" d="M 0 4Q 0 0 4 0L 26.244698205546495 0Q 30.244698205546495 0 30.244698205546495 4L 30.244698205546495 36.98039215686288Q 30.244698205546495 40.98039215686288 26.244698205546495 40.98039215686288L 4 40.98039215686288Q 0 40.98039215686288 0 36.98039215686288L 0 4Z" stroke="rgba(50,50,50,1)" stroke-width="2" fill-opacity="1" fill="#ffffff"></path></g><g id="SvgjsG1242" transform="translate(486.22289576433866,491.3302696078431)"><path id="SvgjsPath1243" d="M 0 0L 307.8552292356612 0L 323.8552292356612 16L 323.8552292356612 33.148284313725526L 0 33.148284313725526L 0 0Z" stroke="none" fill-opacity="1" fill="#ffffaa"></path><path id="SvgjsPath1244" d="M 307.8552292356612 0L 307.8552292356612 16L 323.8552292356612 16Z" stroke="none" fill-opacity="1" fill="#cdcdcd"></path><path id="SvgjsPath1245" d="M 0 0L 307.8552292356612 0L 323.8552292356612 16L 323.8552292356612 33.148284313725526L 0 33.148284313725526L 0 0Z" stroke="none" fill="none"></path><g id="SvgjsG1246"><text id="SvgjsText1247" font-family="Arial" text-anchor="start" font-size="16px" width="304px" fill="#323232" font-weight="400" align="top" anchor="start" family="Arial" size="16px" weight="400" font-style="" opacity="1" y="7.6" transform="rotate(0)"><tspan id="SvgjsTspan1248" dy="20" x="10"><tspan id="SvgjsTspan1249" style="text-decoration:;">run PenddingCallRemoval in syncContext</tspan></tspan></text></g></g><g id="SvgjsG1250"><path id="SvgjsPath1251" d="M486.22289576433866 507.90441176470586L446.4022821581999 507.90441176470586L446.4022821581999 507.90441176470586L406.5816685520612 507.90441176470586" stroke-dasharray="8,5" stroke="#cfcfcf" stroke-width="2" fill="none" marker-end="url(#SvgjsMarker1252)"></path></g></svg>