<svg id="SvgjsSvg1006" width="1211.125" height="503.546875" xmlns="http://www.w3.org/2000/svg" version="1.1" xmlns:xlink="http://www.w3.org/1999/xlink" xmlns:svgjs="http://svgjs.com/svgjs"><defs id="SvgjsDefs1007"><marker id="SvgjsMarker1026" markerWidth="16" markerHeight="12" refX="16" refY="6" viewBox="0 0 16 12" orient="auto" markerUnits="userSpaceOnUse" stroke-dasharray="0,0"><path id="SvgjsPath1027" d="M0,2 L14,6 L0,11 L0,2" fill="#323232" stroke="#323232" stroke-width="2"></path></marker><marker id="SvgjsMarker1047" markerWidth="16" markerHeight="12" refX="16" refY="6" viewBox="0 0 16 12" orient="auto" markerUnits="userSpaceOnUse" stroke-dasharray="0,0"><path id="SvgjsPath1048" d="M0,2 L14,6 L0,11 L0,2" fill="#323232" stroke="#323232" stroke-width="2"></path></marker><marker id="SvgjsMarker1063" markerWidth="16" markerHeight="12" refX="16" refY="6" viewBox="0 0 16 12" orient="auto" markerUnits="userSpaceOnUse" stroke-dasharray="0,0"><path id="SvgjsPath1064" d="M0,2 L14,6 L0,11 L0,2" fill="#cfcfcf" stroke="#cfcfcf" stroke-width="2"></path></marker><marker id="SvgjsMarker1080" markerWidth="16" markerHeight="12" refX="16" refY="6" viewBox="0 0 16 12" orient="auto" markerUnits="userSpaceOnUse" stroke-dasharray="0,0"><path id="SvgjsPath1081" d="M0,2 L14,6 L0,11 L0,2" fill="#323232" stroke="#323232" stroke-width="2"></path></marker><marker id="SvgjsMarker1090" markerWidth="16" markerHeight="12" refX="16" refY="6" viewBox="0 0 16 12" orient="auto" markerUnits="userSpaceOnUse" stroke-dasharray="0,0"><path id="SvgjsPath1091" d="M0,2 L14,6 L0,11 L0,2" fill="#323232" stroke="#323232" stroke-width="2"></path></marker><marker id="SvgjsMarker1094" markerWidth="16" markerHeight="12" refX="16" refY="6" viewBox="0 0 16 12" orient="auto" markerUnits="userSpaceOnUse" stroke-dasharray="0,0"><path id="SvgjsPath1095" d="M0,2 L14,6 L0,11 L0,2" fill="#000000" stroke="#000000" stroke-width="2"></path></marker><marker id="SvgjsMarker1098" markerWidth="16" markerHeight="12" refX="16" refY="6" viewBox="0 0 16 12" orient="auto" markerUnits="userSpaceOnUse" stroke-dasharray="0,0"><path id="SvgjsPath1099" d="M0,2 L14,6 L0,11 L0,2" fill="#323232" stroke="#323232" stroke-width="2"></path></marker><marker id="SvgjsMarker1106" markerWidth="16" markerHeight="12" refX="16" refY="6" viewBox="0 0 16 12" orient="auto" markerUnits="userSpaceOnUse" stroke-dasharray="0,0"><path id="SvgjsPath1107" d="M0,2 L14,6 L0,11 L0,2" fill="#323232" stroke="#323232" stroke-width="2"></path></marker><marker id="SvgjsMarker1114" markerWidth="16" markerHeight="12" refX="16" refY="6" viewBox="0 0 16 12" orient="auto" markerUnits="userSpaceOnUse" stroke-dasharray="0,0"><path id="SvgjsPath1115" d="M0,2 L14,6 L0,11 L0,2" fill="#323232" stroke="#323232" stroke-width="2"></path></marker><marker id="SvgjsMarker1132" markerWidth="16" markerHeight="12" refX="16" refY="6" viewBox="0 0 16 12" orient="auto" markerUnits="userSpaceOnUse" stroke-dasharray="0,0"><path id="SvgjsPath1133" d="M0,2 L14,6 L0,11 L0,2" fill="#cfcfcf" stroke="#cfcfcf" stroke-width="2"></path></marker><marker id="SvgjsMarker1136" markerWidth="16" markerHeight="12" refX="16" refY="6" viewBox="0 0 16 12" orient="auto" markerUnits="userSpaceOnUse" stroke-dasharray="0,0"><path id="SvgjsPath1137" d="M0,2 L14,6 L0,11 L0,2" fill="#323232" stroke="#323232" stroke-width="2"></path></marker><marker id="SvgjsMarker1154" markerWidth="16" markerHeight="12" refX="16" refY="6" viewBox="0 0 16 12" orient="auto" markerUnits="userSpaceOnUse" stroke-dasharray="0,0"><path id="SvgjsPath1155" d="M0,2 L14,6 L0,11 L0,2" fill="#cfcfcf" stroke="#cfcfcf" stroke-width="2"></path></marker><marker id="SvgjsMarker1160" markerWidth="16" markerHeight="12" refX="16" refY="6" viewBox="0 0 16 12" orient="auto" markerUnits="userSpaceOnUse" stroke-dasharray="0,0"><path id="SvgjsPath1161" d="M0,2 L14,6 L0,11 L0,2" fill="#323232" stroke="#323232" stroke-width="2"></path></marker><marker id="SvgjsMarker1178" markerWidth="16" markerHeight="12" refX="16" refY="6" viewBox="0 0 16 12" orient="auto" markerUnits="userSpaceOnUse" stroke-dasharray="0,0"><path id="SvgjsPath1179" d="M0,2 L14,6 L0,11 L0,2" fill="#cfcfcf" stroke="#cfcfcf" stroke-width="2"></path></marker><marker id="SvgjsMarker1182" markerWidth="16" markerHeight="12" refX="16" refY="6" viewBox="0 0 16 12" orient="auto" markerUnits="userSpaceOnUse" stroke-dasharray="0,0"><path id="SvgjsPath1183" d="M0,2 L14,6 L0,11 L0,2" fill="#323232" stroke="#323232" stroke-width="2"></path></marker><marker id="SvgjsMarker1186" markerWidth="16" markerHeight="12" refX="16" refY="6" viewBox="0 0 16 12" orient="auto" markerUnits="userSpaceOnUse" stroke-dasharray="0,0"><path id="SvgjsPath1187" d="M0,2 L14,6 L0,11 L0,2" fill="#323232" stroke="#323232" stroke-width="2"></path></marker><marker id="SvgjsMarker1190" markerWidth="16" markerHeight="12" refX="16" refY="6" viewBox="0 0 16 12" orient="auto" markerUnits="userSpaceOnUse" stroke-dasharray="0,0"><path id="SvgjsPath1191" d="M0,2 L14,6 L0,11 L0,2" fill="#323232" stroke="#323232" stroke-width="2"></path></marker></defs><g id="SvgjsG1008" transform="translate(25.012258093534626,25.005208333333314)"><path id="SvgjsPath1009" d="M 53.676614363080844 30L 53.676614363080844 450.1666666666667" stroke-dasharray="3,4" stroke="rgba(50,50,50,1)" stroke-width="2" fill="none"></path><path id="SvgjsPath1010" d="M 0 0L 107.35322872616169 0L 107.35322872616169 30L 0 30Z" stroke="rgba(50,50,50,1)" stroke-width="2" fill-opacity="1" fill="#ffffff"></path><g id="SvgjsG1011"><text id="SvgjsText1012" font-family="Arial" text-anchor="middle" font-size="16px" width="88px" fill="#323232" font-weight="400" align="middle" anchor="middle" family="Arial" size="16px" weight="400" font-style="" opacity="1" y="2.6" transform="rotate(0)"><tspan id="SvgjsTspan1013" dy="20" x="54"><tspan id="SvgjsTspan1014" style="text-decoration:;">ClientCalls</tspan></tspan></text></g></g><g id="SvgjsG1015" transform="translate(63.56652335384223,72.50520833333337)"><path id="SvgjsPath1016" d="M 0 4Q 0 0 4 0L 26.244698205546495 0Q 30.244698205546495 0 30.244698205546495 4L 30.244698205546495 401.79166666666663Q 30.244698205546495 405.79166666666663 26.244698205546495 405.79166666666663L 4 405.79166666666663Q 0 405.79166666666663 0 401.79166666666663L 0 4Z" stroke="rgba(50,50,50,1)" stroke-width="2" fill-opacity="1" fill="#ffffff"></path></g><g id="SvgjsG1017" transform="translate(243.84664294534315,25.005208333333258)"><path id="SvgjsPath1018" d="M 57.6548035273284 30L 57.6548035273284 450.16666666666674" stroke-dasharray="3,4" stroke="rgba(50,50,50,1)" stroke-width="2" fill="none"></path><path id="SvgjsPath1019" d="M 0 0L 115.3096070546568 0L 115.3096070546568 30L 0 30Z" stroke="rgba(50,50,50,1)" stroke-width="2" fill-opacity="1" fill="#ffffff"></path><g id="SvgjsG1020"><text id="SvgjsText1021" font-family="Arial" text-anchor="middle" font-size="16px" width="96px" fill="#323232" font-weight="400" align="middle" anchor="middle" family="Arial" size="16px" weight="400" font-style="" opacity="1" y="2.6" transform="rotate(0)"><tspan id="SvgjsTspan1022" dy="20" x="58"><tspan id="SvgjsTspan1023" style="text-decoration:;">PendingCall</tspan></tspan></text></g></g><g id="SvgjsG1024"><path id="SvgjsPath1025" d="M93.30024190646532 84.25220051606206L190.60294601181877 84.25220051606206L190.60294601181877 85.82515157378737L287.90565011717223 85.82515157378737" stroke="#323232" stroke-width="2" fill="none" marker-end="url(#SvgjsMarker1026)"></path><rect id="SvgjsRect1028" width="69" height="20" x="156.10294601181877" y="75.03867604492471" fill="#ffffff"></rect><text id="SvgjsText1029" font-family="Arial" text-anchor="middle" font-size="16px" width="69px" fill="#323232" font-weight="400" align="top" anchor="middle" family="Arial" size="16px" weight="400" font-style="" opacity="1" y="72.63867604492471" transform="rotate(0)"><tspan id="SvgjsTspan1030" dy="20" x="190.60294601181877"><tspan id="SvgjsTspan1031" style="text-decoration:;">startCall()</tspan></tspan></text></g><g id="SvgjsG1032" transform="translate(286.3790973698983,85.171875)"><path id="SvgjsPath1033" d="M 0 4Q 0 0 4 0L 26.244698205546495 0Q 30.244698205546495 0 30.244698205546495 4L 30.244698205546495 244.24509803921575Q 30.244698205546495 248.24509803921575 26.244698205546495 248.24509803921575L 4 248.24509803921575Q 0 248.24509803921575 0 244.24509803921575L 0 4Z" stroke="rgba(50,50,50,1)" stroke-width="2" fill-opacity="1" fill="#ffffff"></path></g><g id="SvgjsG1034" transform="translate(475.3466429453431,25.005208333333258)"><path id="SvgjsPath1035" d="M 89.47679948056111 30L 89.47679948056111 450.16666666666674" stroke-dasharray="3,4" stroke="rgba(50,50,50,1)" stroke-width="2" fill="none"></path><path id="SvgjsPath1036" d="M 0 0L 178.95359896112222 0L 178.95359896112222 30L 0 30Z" stroke="rgba(50,50,50,1)" stroke-width="2" fill-opacity="1" fill="#ffffff"></path><g id="SvgjsG1037"><text id="SvgjsText1038" font-family="Arial" text-anchor="middle" font-size="16px" width="159px" fill="#323232" font-weight="400" align="middle" anchor="middle" family="Arial" size="16px" weight="400" font-style="" opacity="1" y="2.6" transform="rotate(0)"><tspan id="SvgjsTspan1039" dy="20" x="89.5"><tspan id="SvgjsTspan1040" style="text-decoration:;">UnaryStreamToFuture</tspan></tspan></text></g></g><g id="SvgjsG1041" transform="translate(549.701093323131,278.00520833333337)"><path id="SvgjsPath1042" d="M 0 4Q 0 0 4 0L 26.244698205546495 0Q 30.244698205546495 0 30.244698205546495 4L 30.244698205546495 51.08088235294122Q 30.244698205546495 55.08088235294122 26.244698205546495 55.08088235294122L 4 55.08088235294122Q 0 55.08088235294122 0 51.08088235294122L 0 4Z" stroke="rgba(50,50,50,1)" stroke-width="2" fill-opacity="1" fill="#00ffff"></path></g><g id="SvgjsG1043" transform="translate(549.701093323131,215.171875)"><path id="SvgjsPath1044" d="M 0 4Q 0 0 4 0L 26.244698205546495 0Q 30.244698205546495 0 30.244698205546495 4L 30.244698205546495 33Q 30.244698205546495 37 26.244698205546495 37L 4 37Q 0 37 0 33L 0 4Z" stroke="rgba(50,50,50,1)" stroke-width="2" fill-opacity="1" fill="#00ffff"></path></g><g id="SvgjsG1045"><path id="SvgjsPath1046" d="M550.15625 250.20028995178768L316.15625 251.171875" stroke-dasharray="8,5" stroke="#323232" stroke-width="2" fill="none" marker-end="url(#SvgjsMarker1047)"></path></g><g id="SvgjsG1049" transform="translate(286.3790973698983,353.671875)"><path id="SvgjsPath1050" d="M 0 4Q 0 0 4 0L 26.244698205546495 0Q 30.244698205546495 0 30.244698205546495 4L 30.244698205546495 41.5Q 30.244698205546495 45.5 26.244698205546495 45.5L 4 45.5Q 0 45.5 0 41.5L 0 4Z" stroke="rgba(50,50,50,1)" stroke-width="2" fill-opacity="1" fill="#00ffff"></path></g><g id="SvgjsG1051" transform="translate(875.1361844740206,207.796875)"><path id="SvgjsPath1052" d="M 0 0L 288.71045847132245 0L 304.71045847132245 16L 304.71045847132245 51.75L 0 51.75L 0 0Z" stroke="none" fill-opacity="1" fill="#ffffaa"></path><path id="SvgjsPath1053" d="M 288.71045847132245 0L 288.71045847132245 16L 304.71045847132245 16Z" stroke="none" fill-opacity="1" fill="#cdcdcd"></path><path id="SvgjsPath1054" d="M 0 0L 288.71045847132245 0L 304.71045847132245 16L 304.71045847132245 51.75L 0 51.75L 0 0Z" stroke="none" fill="none"></path><g id="SvgjsG1055"><text id="SvgjsText1056" font-family="Arial" text-anchor="start" font-size="16px" width="285px" fill="#323232" font-weight="400" align="top" anchor="start" family="Arial" size="16px" weight="400" font-style="" opacity="1" y="7.6" transform="rotate(0)"><tspan id="SvgjsTspan1057" dy="20" x="10"><tspan id="SvgjsTspan1058" style="text-decoration:;">put realCall.start(finalListener, headers) </tspan></tspan><tspan id="SvgjsTspan1059" dy="20" x="10"><tspan id="SvgjsTspan1060" style="text-decoration:;">into pendingRunnables</tspan></tspan></text></g></g><g id="SvgjsG1061"><path id="SvgjsPath1062" d="M875.1361844740206 233.671875L579.9457915286775 233.671875" stroke-dasharray="8,5" stroke="#cfcfcf" stroke-width="2" fill="none" marker-end="url(#SvgjsMarker1063)"></path></g><g id="SvgjsG1065" transform="translate(778.8466429453431,25.005208333333258)"><path id="SvgjsPath1066" d="M 72.15480352732845 30L 72.15480352732845 450.16666666666674" stroke-dasharray="3,4" stroke="rgba(50,50,50,1)" stroke-width="2" fill="none"></path><path id="SvgjsPath1067" d="M 0 0L 144.3096070546569 0L 144.3096070546569 30L 0 30Z" stroke="rgba(50,50,50,1)" stroke-width="2" fill-opacity="1" fill="#ffffff"></path><g id="SvgjsG1068"><text id="SvgjsText1069" font-family="Arial" text-anchor="middle" font-size="16px" width="125px" fill="#323232" font-weight="400" align="middle" anchor="middle" family="Arial" size="16px" weight="400" font-style="" opacity="1" y="2.6" transform="rotate(0)"><tspan id="SvgjsTspan1070" dy="20" x="72.5"><tspan id="SvgjsTspan1071" style="text-decoration:;">DelayedListener</tspan></tspan></text></g></g><g id="SvgjsG1072" transform="translate(475.3466429453431,127.00520833333337)"><path id="SvgjsPath1073" d="M 0 0L 178.95359896112222 0L 178.95359896112222 29.5L 0 29.5Z" stroke="rgba(255,0,0,1)" stroke-width="2" fill-opacity="1" fill="#00ff00"></path><g id="SvgjsG1074"><text id="SvgjsText1075" font-family="Arial" text-anchor="middle" font-size="16px" width="159px" fill="#323232" font-weight="400" align="middle" anchor="middle" family="Arial" size="16px" weight="400" font-style="" opacity="1" y="2.35" transform="rotate(0)"><tspan id="SvgjsTspan1076" dy="20" x="89.5"><tspan id="SvgjsTspan1077" style="text-decoration:;">UnaryStreamToFuture</tspan></tspan></text></g></g><g id="SvgjsG1078"><path id="SvgjsPath1079" d="M316.15625 100.56815026202293L564.8234424259042 100.56815026202293L564.8234424259042 127.00520833333337" stroke="#323232" stroke-width="2" fill="none" marker-end="url(#SvgjsMarker1080)"></path></g><g id="SvgjsG1082" transform="translate(778.8466429453431,166.41697303921578)"><path id="SvgjsPath1083" d="M 0 0L 144.3096070546569 0L 144.3096070546569 28.754901960784224L 0 28.754901960784224Z" stroke="rgba(255,0,0,1)" stroke-width="2" fill-opacity="1" fill="#00ff00"></path><g id="SvgjsG1084"><text id="SvgjsText1085" font-family="Arial" text-anchor="middle" font-size="16px" width="125px" fill="#323232" font-weight="400" align="middle" anchor="middle" family="Arial" size="16px" weight="400" font-style="" opacity="1" y="1.977450980392112" transform="rotate(0)"><tspan id="SvgjsTspan1086" dy="20" x="72.5"><tspan id="SvgjsTspan1087" style="text-decoration:;">DelayedListener</tspan></tspan></text></g></g><g id="SvgjsG1088"><path id="SvgjsPath1089" d="M654.3002419064653 141.75520833333337L851.0014464726715 141.75520833333337L851.0014464726715 166.41697303921578" stroke="#323232" stroke-width="2" fill="none" marker-end="url(#SvgjsMarker1090)"></path></g><g id="SvgjsG1092"><path id="SvgjsPath1093" d="M778.8466429453431 180.7944240196079L547.5014464726715 180.7944240196079L547.5014464726715 181.171875L316.15625 181.171875" stroke-dasharray="8,5" stroke="#000000" stroke-width="2" fill="none" marker-end="url(#SvgjsMarker1094)"></path></g><g id="SvgjsG1096"><path id="SvgjsPath1097" d="M315.15625 217.171875L433.0043262113533 217.171875L433.0043262113533 217.171875L550.8524024227066 217.171875" stroke="#323232" stroke-width="2" fill="none" marker-end="url(#SvgjsMarker1098)"></path><rect id="SvgjsRect1100" width="125" height="20" x="370.5043262113533" y="207.171875" fill="#ffffff"></rect><text id="SvgjsText1101" font-family="Arial" text-anchor="middle" font-size="16px" width="125px" fill="#323232" font-weight="400" align="top" anchor="middle" family="Arial" size="16px" weight="400" font-style="" opacity="1" y="204.771875" transform="rotate(0)"><tspan id="SvgjsTspan1102" dy="20" x="433.0043262113533"><tspan id="SvgjsTspan1103" style="text-decoration:;">delayOrExecute()</tspan></tspan></text></g><g id="SvgjsG1104"><path id="SvgjsPath1105" d="M316.15625 280.171875L433.4373389132455 280.171875L433.4373389132455 279.671875L550.718427826491 279.671875" stroke="#323232" stroke-width="2" fill="none" marker-end="url(#SvgjsMarker1106)"></path><rect id="SvgjsRect1108" width="62" height="20" x="402.4373389132455" y="269.921875" fill="#ffffff"></rect><text id="SvgjsText1109" font-family="Arial" text-anchor="middle" font-size="16px" width="62px" fill="#323232" font-weight="400" align="top" anchor="middle" family="Arial" size="16px" weight="400" font-style="" opacity="1" y="267.521875" transform="rotate(0)"><tspan id="SvgjsTspan1110" dy="20" x="433.4373389132455"><tspan id="SvgjsTspan1111" style="text-decoration:;">onStart()</tspan></tspan></text></g><g id="SvgjsG1112"><path id="SvgjsPath1113" d="M550.0977086181063 328.25696273426604L550.0977086181063 330.8862997806269L315.62416111376206 330.8862997806269" stroke="#323232" stroke-width="2" fill="none" marker-end="url(#SvgjsMarker1114)"></path><rect id="SvgjsRect1116" width="64" height="20" x="402.1756033891146" y="320.8862997806269" fill="#ffffff"></rect><text id="SvgjsText1117" font-family="Arial" text-anchor="middle" font-size="16px" width="64px" fill="#323232" font-weight="400" align="top" anchor="middle" family="Arial" size="16px" weight="400" font-style="" opacity="1" y="318.48629978062695" transform="rotate(0)"><tspan id="SvgjsTspan1118" dy="20" x="434.1756033891146"><tspan id="SvgjsTspan1119" style="text-decoration:;">request()</tspan></tspan></text></g><g id="SvgjsG1120" transform="translate(875.1361844740206,279.670649509804)"><path id="SvgjsPath1121" d="M 0 0L 288.71045847132245 0L 304.71045847132245 16L 304.71045847132245 51.75L 0 51.75L 0 0Z" stroke="none" fill-opacity="1" fill="#ffffaa"></path><path id="SvgjsPath1122" d="M 288.71045847132245 0L 288.71045847132245 16L 304.71045847132245 16Z" stroke="none" fill-opacity="1" fill="#cdcdcd"></path><path id="SvgjsPath1123" d="M 0 0L 288.71045847132245 0L 304.71045847132245 16L 304.71045847132245 51.75L 0 51.75L 0 0Z" stroke="none" fill="none"></path><g id="SvgjsG1124"><text id="SvgjsText1125" font-family="Arial" text-anchor="start" font-size="16px" width="285px" fill="#323232" font-weight="400" align="top" anchor="start" family="Arial" size="16px" weight="400" font-style="" opacity="1" y="7.6" transform="rotate(0)"><tspan id="SvgjsTspan1126" dy="20" x="10"><tspan id="SvgjsTspan1127" style="text-decoration:;">put realCall.request(numMessages) </tspan></tspan><tspan id="SvgjsTspan1128" dy="20" x="10"><tspan id="SvgjsTspan1129" style="text-decoration:;">into pendingRunnables</tspan></tspan></text></g></g><g id="SvgjsG1130"><path id="SvgjsPath1131" d="M875.1361844740206 305.545649509804L727.5409880013491 305.545649509804L727.5409880013491 305.54564950980404L579.9457915286775 305.54564950980404" stroke-dasharray="8,5" stroke="#cfcfcf" stroke-width="2" fill="none" marker-end="url(#SvgjsMarker1132)"></path></g><g id="SvgjsG1134"><path id="SvgjsPath1135" d="M93.65625 356.171875L190.22532786235772 356.171875L190.22532786235772 356.223995859954L286.79440572471543 356.223995859954" stroke="#323232" stroke-width="2" fill="none" marker-end="url(#SvgjsMarker1136)"></path><rect id="SvgjsRect1138" width="110" height="20" x="135.22532786235772" y="346.197935429977" fill="#ffffff"></rect><text id="SvgjsText1139" font-family="Arial" text-anchor="middle" font-size="16px" width="110px" fill="#323232" font-weight="400" align="top" anchor="middle" family="Arial" size="16px" weight="400" font-style="" opacity="1" y="343.79793542997703" transform="rotate(0)"><tspan id="SvgjsTspan1140" dy="20" x="190.22532786235772"><tspan id="SvgjsTspan1141" style="text-decoration:;">sendMessage()</tspan></tspan></text></g><g id="SvgjsG1142" transform="translate(881.1361844740206,350.546875)"><path id="SvgjsPath1143" d="M 0 0L 288.71045847132245 0L 304.71045847132245 16L 304.71045847132245 51.75L 0 51.75L 0 0Z" stroke="none" fill-opacity="1" fill="#ffffaa"></path><path id="SvgjsPath1144" d="M 288.71045847132245 0L 288.71045847132245 16L 304.71045847132245 16Z" stroke="none" fill-opacity="1" fill="#cdcdcd"></path><path id="SvgjsPath1145" d="M 0 0L 288.71045847132245 0L 304.71045847132245 16L 304.71045847132245 51.75L 0 51.75L 0 0Z" stroke="none" fill="none"></path><g id="SvgjsG1146"><text id="SvgjsText1147" font-family="Arial" text-anchor="start" font-size="16px" width="285px" fill="#323232" font-weight="400" align="top" anchor="start" family="Arial" size="16px" weight="400" font-style="" opacity="1" y="7.6" transform="rotate(0)"><tspan id="SvgjsTspan1148" dy="20" x="10"><tspan id="SvgjsTspan1149" style="text-decoration:;">put realCall.sendMessage(message) </tspan></tspan><tspan id="SvgjsTspan1150" dy="20" x="10"><tspan id="SvgjsTspan1151" style="text-decoration:;">into pendingRunnables</tspan></tspan></text></g></g><g id="SvgjsG1152"><path id="SvgjsPath1153" d="M881.1361844740206 376.421875L598.8799900247327 376.421875L598.8799900247327 376.421875L316.62379557544483 376.421875" stroke-dasharray="8,5" stroke="#cfcfcf" stroke-width="2" fill="none" marker-end="url(#SvgjsMarker1154)"></path></g><g id="SvgjsG1156" transform="translate(286.3790973698983,429.671875)"><path id="SvgjsPath1157" d="M 0 4Q 0 0 4 0L 26.244698205546495 0Q 30.244698205546495 0 30.244698205546495 4L 30.244698205546495 41.5Q 30.244698205546495 45.5 26.244698205546495 45.5L 4 45.5Q 0 45.5 0 41.5L 0 4Z" stroke="rgba(50,50,50,1)" stroke-width="2" fill-opacity="1" fill="#00ffff"></path></g><g id="SvgjsG1158"><path id="SvgjsPath1159" d="M93.65625 430.171875L190.58740555091643 430.171875L190.58740555091643 430.67138826780575L287.51856110183286 430.67138826780575" stroke="#323232" stroke-width="2" fill="none" marker-end="url(#SvgjsMarker1160)"></path><rect id="SvgjsRect1162" width="77" height="20" x="152.08740555091643" y="420.42163163390285" fill="#ffffff"></rect><text id="SvgjsText1163" font-family="Arial" text-anchor="middle" font-size="16px" width="77px" fill="#323232" font-weight="400" align="top" anchor="middle" family="Arial" size="16px" weight="400" font-style="" opacity="1" y="418.02163163390287" transform="rotate(0)"><tspan id="SvgjsTspan1164" dy="20" x="190.58740555091643"><tspan id="SvgjsTspan1165" style="text-decoration:;">halfClose()</tspan></tspan></text></g><g id="SvgjsG1166" transform="translate(881.1361844740206,426.546875)"><path id="SvgjsPath1167" d="M 0 0L 288.71045847132245 0L 304.71045847132245 16L 304.71045847132245 51.75L 0 51.75L 0 0Z" stroke="none" fill-opacity="1" fill="#ffffaa"></path><path id="SvgjsPath1168" d="M 288.71045847132245 0L 288.71045847132245 16L 304.71045847132245 16Z" stroke="none" fill-opacity="1" fill="#cdcdcd"></path><path id="SvgjsPath1169" d="M 0 0L 288.71045847132245 0L 304.71045847132245 16L 304.71045847132245 51.75L 0 51.75L 0 0Z" stroke="none" fill="none"></path><g id="SvgjsG1170"><text id="SvgjsText1171" font-family="Arial" text-anchor="start" font-size="16px" width="285px" fill="#323232" font-weight="400" align="top" anchor="start" family="Arial" size="16px" weight="400" font-style="" opacity="1" y="7.6" transform="rotate(0)"><tspan id="SvgjsTspan1172" dy="20" x="10"><tspan id="SvgjsTspan1173" style="text-decoration:;">put realCall.halfClose() </tspan></tspan><tspan id="SvgjsTspan1174" dy="20" x="10"><tspan id="SvgjsTspan1175" style="text-decoration:;">into pendingRunnables</tspan></tspan></text></g></g><g id="SvgjsG1176"><path id="SvgjsPath1177" d="M881.1361844740206 452.421875L598.8799900247327 452.421875L598.8799900247327 452.421875L316.62379557544483 452.421875" stroke-dasharray="8,5" stroke="#cfcfcf" stroke-width="2" fill="none" marker-end="url(#SvgjsMarker1178)"></path></g><g id="SvgjsG1180"><path id="SvgjsPath1181" d="M286.65576326780575 469.8095638981672L286.65576326780575 475.024722127298L93.01794591142203 475.024722127298" stroke-dasharray="8,5" stroke="#323232" stroke-width="2" fill="none" marker-end="url(#SvgjsMarker1182)"></path></g><g id="SvgjsG1184"><path id="SvgjsPath1185" d="M286.59770861810625 395.25696273426604L286.59770861810625 397.171875L92.65625 397.171875" stroke-dasharray="8,5" stroke="#323232" stroke-width="2" fill="none" marker-end="url(#SvgjsMarker1186)"></path></g><g id="SvgjsG1188"><path id="SvgjsPath1189" d="M286.72982643635106 330.352722955711L286.72982643635106 332.171875L93.65625 332.171875" stroke-dasharray="8,5" stroke="#323232" stroke-width="2" fill="none" marker-end="url(#SvgjsMarker1190)"></path></g></svg>