<svg id="SvgjsSvg1006" width="1575.21875" height="469.875" xmlns="http://www.w3.org/2000/svg" version="1.1" xmlns:xlink="http://www.w3.org/1999/xlink" xmlns:svgjs="http://svgjs.com/svgjs"><defs id="SvgjsDefs1007"><marker id="SvgjsMarker1024" markerWidth="16" markerHeight="12" refX="16" refY="6" viewBox="0 0 16 12" orient="auto" markerUnits="userSpaceOnUse" stroke-dasharray="0,0"><path id="SvgjsPath1025" d="M0,2 L14,6 L0,11 L0,2" fill="#323232" stroke="#323232" stroke-width="2"></path></marker><marker id="SvgjsMarker1032" markerWidth="16" markerHeight="12" refX="16" refY="6" viewBox="0 0 16 12" orient="auto" markerUnits="userSpaceOnUse" stroke-dasharray="0,0"><path id="SvgjsPath1033" d="M0,2 L14,6 L0,11 L0,2" fill="#323232" stroke="#323232" stroke-width="2"></path></marker><marker id="SvgjsMarker1086" markerWidth="16" markerHeight="12" refX="16" refY="6" viewBox="0 0 16 12" orient="auto" markerUnits="userSpaceOnUse" stroke-dasharray="0,0"><path id="SvgjsPath1087" d="M0,2 L14,6 L0,11 L0,2" fill="#323232" stroke="#323232" stroke-width="2"></path></marker><marker id="SvgjsMarker1096" markerWidth="16" markerHeight="12" refX="16" refY="6" viewBox="0 0 16 12" orient="auto" markerUnits="userSpaceOnUse" stroke-dasharray="0,0"><path id="SvgjsPath1097" d="M0,2 L14,6 L0,11 L0,2" fill="#323232" stroke="#323232" stroke-width="2"></path></marker><marker id="SvgjsMarker1106" markerWidth="16" markerHeight="12" refX="16" refY="6" viewBox="0 0 16 12" orient="auto" markerUnits="userSpaceOnUse" stroke-dasharray="0,0"><path id="SvgjsPath1107" d="M0,2 L14,6 L0,11 L0,2" fill="#323232" stroke="#323232" stroke-width="2"></path></marker><marker id="SvgjsMarker1119" markerWidth="16" markerHeight="12" refX="16" refY="6" viewBox="0 0 16 12" orient="auto" markerUnits="userSpaceOnUse" stroke-dasharray="0,0"><path id="SvgjsPath1120" d="M0,2 L14,6 L0,11 L0,2" fill="#323232" stroke="#323232" stroke-width="2"></path></marker><marker id="SvgjsMarker1140" markerWidth="16" markerHeight="12" refX="16" refY="6" viewBox="0 0 16 12" orient="auto" markerUnits="userSpaceOnUse" stroke-dasharray="0,0"><path id="SvgjsPath1141" d="M0,2 L14,6 L0,11 L0,2" fill="#323232" stroke="#323232" stroke-width="2"></path></marker><marker id="SvgjsMarker1148" markerWidth="16" markerHeight="12" refX="16" refY="6" viewBox="0 0 16 12" orient="auto" markerUnits="userSpaceOnUse" stroke-dasharray="0,0"><path id="SvgjsPath1149" d="M0,2 L14,6 L0,11 L0,2" fill="#323232" stroke="#323232" stroke-width="2"></path></marker><marker id="SvgjsMarker1152" markerWidth="16" markerHeight="12" refX="16" refY="6" viewBox="0 0 16 12" orient="auto" markerUnits="userSpaceOnUse" stroke-dasharray="0,0"><path id="SvgjsPath1153" d="M0,2 L14,6 L0,11 L0,2" fill="#323232" stroke="#323232" stroke-width="2"></path></marker><marker id="SvgjsMarker1156" markerWidth="16" markerHeight="12" refX="16" refY="6" viewBox="0 0 16 12" orient="auto" markerUnits="userSpaceOnUse" stroke-dasharray="0,0"><path id="SvgjsPath1157" d="M0,2 L14,6 L0,11 L0,2" fill="#323232" stroke="#323232" stroke-width="2"></path></marker><marker id="SvgjsMarker1160" markerWidth="16" markerHeight="12" refX="16" refY="6" viewBox="0 0 16 12" orient="auto" markerUnits="userSpaceOnUse" stroke-dasharray="0,0"><path id="SvgjsPath1161" d="M0,2 L14,6 L0,11 L0,2" fill="#323232" stroke="#323232" stroke-width="2"></path></marker><marker id="SvgjsMarker1164" markerWidth="16" markerHeight="12" refX="16" refY="6" viewBox="0 0 16 12" orient="auto" markerUnits="userSpaceOnUse" stroke-dasharray="0,0"><path id="SvgjsPath1165" d="M0,2 L14,6 L0,11 L0,2" fill="#323232" stroke="#323232" stroke-width="2"></path></marker><marker id="SvgjsMarker1196" markerWidth="16" markerHeight="12" refX="16" refY="6" viewBox="0 0 16 12" orient="auto" markerUnits="userSpaceOnUse" stroke-dasharray="0,0"><path id="SvgjsPath1197" d="M0,2 L14,6 L0,11 L0,2" fill="#b8b8b8" stroke="#b8b8b8" stroke-width="2"></path></marker></defs><g id="SvgjsG1008" transform="translate(175.32352896706425,26.375)"><path id="SvgjsPath1009" d="M 103.30989324975246 30L 103.30989324975246 307.125" stroke-dasharray="3,4" stroke="rgba(50,50,50,1)" stroke-width="2" fill="none"></path><path id="SvgjsPath1010" d="M 0 0L 206.61978649950493 0L 206.61978649950493 30L 0 30Z" stroke="rgba(50,50,50,1)" stroke-width="2" fill-opacity="1" fill="#ffffff"></path><g id="SvgjsG1011"><text id="SvgjsText1012" font-family="Arial" text-anchor="middle" font-size="16px" width="187px" fill="#323232" font-weight="400" align="middle" anchor="middle" family="Arial" size="16px" weight="400" font-style="" opacity="1" y="2.6" transform="rotate(0)"><tspan id="SvgjsTspan1013" dy="20" x="103.5"><tspan id="SvgjsTspan1014" style="text-decoration:;">ServerImplBuilder</tspan></tspan></text></g></g><g id="SvgjsG1015" transform="translate(25.000469525136594,27.9375)"><path id="SvgjsPath1016" d="M 59.2888277374317 30L 59.2888277374317 304" stroke-dasharray="3,4" stroke="rgba(50,50,50,1)" stroke-width="2" fill="none"></path><path id="SvgjsPath1017" d="M 0 0L 118.5776554748634 0L 118.5776554748634 30L 0 30Z" stroke="rgba(50,50,50,1)" stroke-width="2" fill-opacity="1" fill="#ffffff"></path><g id="SvgjsG1018"><text id="SvgjsText1019" font-family="Arial" text-anchor="middle" font-size="16px" width="99px" fill="#323232" font-weight="400" align="middle" anchor="middle" family="Arial" size="16px" weight="400" font-style="" opacity="1" y="2.6" transform="rotate(0)"><tspan id="SvgjsTspan1020" dy="20" x="59.5"><tspan id="SvgjsTspan1021" style="text-decoration:;">ServerBuilder</tspan></tspan></text></g></g><g id="SvgjsG1022"><path id="SvgjsPath1023" d="M293.578125 117.875L487.5156691469792 117.875L487.5156691469792 150.875" stroke="#323232" stroke-width="2" fill="none" marker-end="url(#SvgjsMarker1024)"></path><rect id="SvgjsRect1026" width="44" height="20" x="385.0468970734896" y="107.875" fill="#ffffff"></rect><text id="SvgjsText1027" font-family="Arial" text-anchor="middle" font-size="16px" width="44px" fill="#323232" font-weight="400" align="top" anchor="middle" family="Arial" size="16px" weight="400" font-style="" opacity="1" y="105.475" transform="rotate(0)"><tspan id="SvgjsTspan1028" dy="20" x="407.0468970734896"><tspan id="SvgjsTspan1029" style="text-decoration:;">build()</tspan></tspan></text></g><g id="SvgjsG1030"><path id="SvgjsPath1031" d="M98.578125 97.875L181.49293956572268 97.875L181.49293956572268 98.74558230959977L264.40775413144536 98.74558230959977" stroke="#323232" stroke-width="2" fill="none" marker-end="url(#SvgjsMarker1032)"></path><rect id="SvgjsRect1034" width="44" height="20" x="138.764235924292" y="87.875" fill="#ffffff"></rect><text id="SvgjsText1035" font-family="Arial" text-anchor="middle" font-size="16px" width="44px" fill="#323232" font-weight="400" align="top" anchor="middle" family="Arial" size="16px" weight="400" font-style="" opacity="1" y="85.475" transform="rotate(0)"><tspan id="SvgjsTspan1036" dy="20" x="160.764235924292"><tspan id="SvgjsTspan1037" style="text-decoration:;">build()</tspan></tspan></text></g><g id="SvgjsG1038" transform="translate(408.45321329395836,26.375)"><path id="SvgjsPath1039" d="M 79.06245585302088 30L 79.06245585302088 302.125" stroke-dasharray="3,4" stroke="rgba(50,50,50,1)" stroke-width="2" fill="none"></path><path id="SvgjsPath1040" d="M 0 0L 158.12491170604176 0L 158.12491170604176 30L 0 30Z" stroke="rgba(50,50,50,1)" stroke-width="2" fill-opacity="1" fill="#ffffff"></path><g id="SvgjsG1041"><text id="SvgjsText1042" font-family="Arial" text-anchor="middle" font-size="16px" width="139px" fill="#323232" font-weight="400" align="middle" anchor="middle" family="Arial" size="16px" weight="400" font-style="" opacity="1" y="2.6" transform="rotate(0)"><tspan id="SvgjsTspan1043" dy="20" x="79.5"><tspan id="SvgjsTspan1044" style="text-decoration:;">ServerImpl</tspan></tspan></text></g></g><g id="SvgjsG1045" transform="translate(595.4696942174351,25)"><path id="SvgjsPath1046" d="M 136.55421539128247 30L 136.55421539128247 309.875" stroke-dasharray="3,4" stroke="rgba(50,50,50,1)" stroke-width="2" fill="none"></path><path id="SvgjsPath1047" d="M 0 0L 273.10843078256494 0L 273.10843078256494 30L 0 30Z" stroke="rgba(50,50,50,1)" stroke-width="2" fill-opacity="1" fill="#ffffff"></path><g id="SvgjsG1048"><text id="SvgjsText1049" font-family="Arial" text-anchor="middle" font-size="16px" width="254px" fill="#323232" font-weight="400" align="middle" anchor="middle" family="Arial" size="16px" weight="400" font-style="" opacity="1" y="2.6" transform="rotate(0)"><tspan id="SvgjsTspan1050" dy="20" x="137"><tspan id="SvgjsTspan1051" style="text-decoration:;">NettyClientTransportServersBuilder</tspan></tspan></text></g></g><g id="SvgjsG1052" transform="translate(263.5110731140435,97.875)"><path id="SvgjsPath1053" d="M 0 4Q 0 0 4 0L 26.244698205546495 0Q 30.244698205546495 0 30.244698205546495 4L 30.244698205546495 70Q 30.244698205546495 74 26.244698205546495 74L 4 74Q 0 74 0 70L 0 4Z" stroke="rgba(50,50,50,1)" stroke-width="2" fill-opacity="1" fill="#ffffff"></path></g><g id="SvgjsG1054" transform="translate(69.16694815979506,73.875)"><path id="SvgjsPath1055" d="M 0 4Q 0 0 4 0L 26.244698205546495 0Q 30.244698205546495 0 30.244698205546495 4L 30.244698205546495 94Q 30.244698205546495 98 26.244698205546495 98L 4 98Q 0 98 0 94L 0 4Z" stroke="rgba(50,50,50,1)" stroke-width="2" fill-opacity="1" fill="#ffffff"></path></g><g id="SvgjsG1056" transform="translate(900.2303362321531,25)"><path id="SvgjsPath1057" d="M 42.673894383923425 30L 42.673894383923425 309.875" stroke-dasharray="3,4" stroke="rgba(50,50,50,1)" stroke-width="2" fill="none"></path><path id="SvgjsPath1058" d="M 0 0L 85.34778876784685 0L 85.34778876784685 30L 0 30Z" stroke="rgba(50,50,50,1)" stroke-width="2" fill-opacity="1" fill="#ffffff"></path><g id="SvgjsG1059"><text id="SvgjsText1060" font-family="Arial" text-anchor="middle" font-size="16px" width="66px" fill="#323232" font-weight="400" align="middle" anchor="middle" family="Arial" size="16px" weight="400" font-style="" opacity="1" y="2.6" transform="rotate(0)"><tspan id="SvgjsTspan1061" dy="20" x="43"><tspan id="SvgjsTspan1062" style="text-decoration:;">Context</tspan></tspan></text></g></g><g id="SvgjsG1063" transform="translate(1016.4696942174351,25)"><path id="SvgjsPath1064" d="M 73.05421539128247 30L 73.05421539128247 304.875" stroke-dasharray="3,4" stroke="rgba(50,50,50,1)" stroke-width="2" fill="none"></path><path id="SvgjsPath1065" d="M 0 0L 146.10843078256494 0L 146.10843078256494 30L 0 30Z" stroke="rgba(50,50,50,1)" stroke-width="2" fill-opacity="1" fill="#ffffff"></path><g id="SvgjsG1066"><text id="SvgjsText1067" font-family="Arial" text-anchor="middle" font-size="16px" width="127px" fill="#323232" font-weight="400" align="middle" anchor="middle" family="Arial" size="16px" weight="400" font-style="" opacity="1" y="2.6" transform="rotate(0)"><tspan id="SvgjsTspan1068" dy="20" x="73.5"><tspan id="SvgjsTspan1069" style="text-decoration:;">ServerInterceptor</tspan></tspan></text></g></g><g id="SvgjsG1070" transform="translate(716.9015605059443,254.875)"><path id="SvgjsPath1071" d="M 0 4Q 0 0 4 0L 26.244698205546495 0Q 30.244698205546495 0 30.244698205546495 4L 30.244698205546495 79Q 30.244698205546495 83 26.244698205546495 83L 4 83Q 0 83 0 79L 0 4Z" stroke="rgba(50,50,50,1)" stroke-width="2" fill-opacity="1" fill="#ffffff"></path></g><g id="SvgjsG1072" transform="translate(437.3270125174684,150.875)"><path id="SvgjsPath1073" d="M 0 0L 100.3773132590216 0L 100.3773132590216 30L 0 30Z" stroke="rgba(255,0,0,1)" stroke-width="2" fill-opacity="1" fill="#00ff00"></path><g id="SvgjsG1074"><text id="SvgjsText1075" font-family="Arial" text-anchor="middle" font-size="16px" width="81px" fill="#323232" font-weight="400" align="middle" anchor="middle" family="Arial" size="16px" weight="400" font-style="" opacity="1" y="2.6" transform="rotate(0)"><tspan id="SvgjsTspan1076" dy="20" x="50.5"><tspan id="SvgjsTspan1077" style="text-decoration:;">ServerImpl</tspan></tspan></text></g></g><g id="SvgjsG1078" transform="translate(595.2066889896034,195.875)"><path id="SvgjsPath1079" d="M 0 0L 273.6344412382283 0L 273.6344412382283 30L 0 30Z" stroke="rgba(255,0,0,1)" stroke-width="2" fill-opacity="1" fill="#00ff00"></path><g id="SvgjsG1080"><text id="SvgjsText1081" font-family="Arial" text-anchor="middle" font-size="16px" width="254px" fill="#323232" font-weight="400" align="middle" anchor="middle" family="Arial" size="16px" weight="400" font-style="" opacity="1" y="2.6" transform="rotate(0)"><tspan id="SvgjsTspan1082" dy="20" x="137"><tspan id="SvgjsTspan1083" style="text-decoration:;">NettyClientTransportServersBuilder</tspan></tspan></text></g></g><g id="SvgjsG1084"><path id="SvgjsPath1085" d="M537.70432577649 165.875L732.0239096087175 165.875L732.0239096087175 195.875" stroke="#323232" stroke-width="2" fill="none" marker-end="url(#SvgjsMarker1086)"></path></g><g id="SvgjsG1088" transform="translate(902.8079764644629,195.875)"><path id="SvgjsPath1089" d="M 0 0L 80.19250830322744 0L 80.19250830322744 30L 0 30Z" stroke="rgba(255,0,0,1)" stroke-width="2" fill-opacity="1" fill="#00ff00"></path><g id="SvgjsG1090"><text id="SvgjsText1091" font-family="Arial" text-anchor="middle" font-size="16px" width="61px" fill="#323232" font-weight="400" align="middle" anchor="middle" family="Arial" size="16px" weight="400" font-style="" opacity="1" y="2.6" transform="rotate(0)"><tspan id="SvgjsTspan1092" dy="20" x="40.5"><tspan id="SvgjsTspan1093" style="text-decoration:;">Context</tspan></tspan></text></g></g><g id="SvgjsG1094"><path id="SvgjsPath1095" d="M537.70432577649 165.875L942.9042306160766 165.875L942.9042306160766 195.875" stroke="#323232" stroke-width="2" fill="none" marker-end="url(#SvgjsMarker1096)"></path></g><g id="SvgjsG1098" transform="translate(1016.4696942174351,195.875)"><path id="SvgjsPath1099" d="M 0 0L 146.10843078256494 0L 146.10843078256494 30L 0 30Z" stroke="rgba(255,0,0,1)" stroke-width="2" fill-opacity="1" fill="#00ff00"></path><g id="SvgjsG1100"><text id="SvgjsText1101" font-family="Arial" text-anchor="middle" font-size="16px" width="127px" fill="#323232" font-weight="400" align="middle" anchor="middle" family="Arial" size="16px" weight="400" font-style="" opacity="1" y="2.6" transform="rotate(0)"><tspan id="SvgjsTspan1102" dy="20" x="73.5"><tspan id="SvgjsTspan1103" style="text-decoration:;">ServerInterceptor</tspan></tspan></text></g></g><g id="SvgjsG1104"><path id="SvgjsPath1105" d="M537.70432577649 165.875L1089.5239096087175 165.875L1089.5239096087175 195.875" stroke="#323232" stroke-width="2" fill="none" marker-end="url(#SvgjsMarker1106)"></path></g><g id="SvgjsG1108" transform="translate(1259.4015605059444,268.875)"><path id="SvgjsPath1109" d="M 0 4Q 0 0 4 0L 26.244698205546495 0Q 30.244698205546495 0 30.244698205546495 4L 30.244698205546495 62Q 30.244698205546495 66 26.244698205546495 66L 4 66Q 0 66 0 62L 0 4Z" stroke="rgba(50,50,50,1)" stroke-width="2" fill-opacity="1" fill="#ffffff"></path></g><g id="SvgjsG1110" transform="translate(1193.469694217435,25)"><path id="SvgjsPath1111" d="M 81.0542153912827 30L 81.0542153912827 304.875" stroke-dasharray="3,4" stroke="rgba(50,50,50,1)" stroke-width="2" fill="none"></path><path id="SvgjsPath1112" d="M 0 0L 162.1084307825654 0L 162.1084307825654 30L 0 30Z" stroke="rgba(50,50,50,1)" stroke-width="2" fill-opacity="1" fill="#ffffff"></path><g id="SvgjsG1113"><text id="SvgjsText1114" font-family="Arial" text-anchor="middle" font-size="16px" width="143px" fill="#323232" font-weight="400" align="middle" anchor="middle" family="Arial" size="16px" weight="400" font-style="" opacity="1" y="2.6" transform="rotate(0)"><tspan id="SvgjsTspan1115" dy="20" x="81.5"><tspan id="SvgjsTspan1116" style="text-decoration:;">NettyServerBuilder</tspan></tspan></text></g></g><g id="SvgjsG1117"><path id="SvgjsPath1118" d="M746.578125 271.875L1003.4273565519647 271.875L1003.4273565519647 271.8561107882912L1260.2765881039295 271.8561107882912" stroke="#323232" stroke-width="2" fill="none" marker-end="url(#SvgjsMarker1119)"></path><rect id="SvgjsRect1121" width="208" height="20" x="899.4273565519647" y="261.8655553941456" fill="#ffffff"></rect><text id="SvgjsText1122" font-family="Arial" text-anchor="middle" font-size="16px" width="208px" fill="#323232" font-weight="400" align="top" anchor="middle" family="Arial" size="16px" weight="400" font-style="" opacity="1" y="259.4655553941456" transform="rotate(0)"><tspan id="SvgjsTspan1123" dy="20" x="1003.4273565519647"><tspan id="SvgjsTspan1124" style="text-decoration:;">buildClientTransportServers()</tspan></tspan></text></g><g id="SvgjsG1125" transform="translate(1444.469694217435,25)"><path id="SvgjsPath1126" d="M 52.55421539128247 30L 52.55421539128247 309.875" stroke-dasharray="3,4" stroke="rgba(50,50,50,1)" stroke-width="2" fill="none"></path><path id="SvgjsPath1127" d="M 0 0L 105.10843078256494 0L 105.10843078256494 30L 0 30Z" stroke="rgba(50,50,50,1)" stroke-width="2" fill-opacity="1" fill="#ffffff"></path><g id="SvgjsG1128"><text id="SvgjsText1129" font-family="Arial" text-anchor="middle" font-size="16px" width="86px" fill="#323232" font-weight="400" align="middle" anchor="middle" family="Arial" size="16px" weight="400" font-style="" opacity="1" y="2.6" transform="rotate(0)"><tspan id="SvgjsTspan1130" dy="20" x="53"><tspan id="SvgjsTspan1131" style="text-decoration:;">NettyServer</tspan></tspan></text></g></g><g id="SvgjsG1132" transform="translate(1443.219694217435,312.875)"><path id="SvgjsPath1133" d="M 0 0L 107.60843078256494 0L 107.60843078256494 30L 0 30Z" stroke="rgba(255,0,0,1)" stroke-width="2" fill-opacity="1" fill="#00ff00"></path><g id="SvgjsG1134"><text id="SvgjsText1135" font-family="Arial" text-anchor="middle" font-size="16px" width="88px" fill="#323232" font-weight="400" align="middle" anchor="middle" family="Arial" size="16px" weight="400" font-style="" opacity="1" y="2.6" transform="rotate(0)"><tspan id="SvgjsTspan1136" dy="20" x="54"><tspan id="SvgjsTspan1137" style="text-decoration:;">NettyServer</tspan></tspan></text></g></g><g id="SvgjsG1138"><path id="SvgjsPath1139" d="M1289.578125 287.575L1497.0239096087175 287.575L1497.0239096087175 312.875" stroke="#323232" stroke-width="2" fill="none" marker-end="url(#SvgjsMarker1140)"></path><rect id="SvgjsRect1142" width="167" height="20" x="1322.4510173043586" y="277.575" fill="#ffffff"></rect><text id="SvgjsText1143" font-family="Arial" text-anchor="middle" font-size="16px" width="167px" fill="#323232" font-weight="400" align="top" anchor="middle" family="Arial" size="16px" weight="400" font-style="" opacity="1" y="275.175" transform="rotate(0)"><tspan id="SvgjsTspan1144" dy="20" x="1405.9510173043586"><tspan id="SvgjsTspan1145" style="text-decoration:;">buildTransportServers()</tspan></tspan></text></g><g id="SvgjsG1146"><path id="SvgjsPath1147" d="M1443.219694217435 327.875L1366.421697979199 327.875L1366.421697979199 328.3540554669992L1289.6237017409633 328.3540554669992" stroke-dasharray="8,5" stroke="#323232" stroke-width="2" fill="none" marker-end="url(#SvgjsMarker1148)"></path></g><g id="SvgjsG1150"><path id="SvgjsPath1151" d="M1259.219694217435 329.875L1002.9065202125339 329.875L1002.9065202125339 330.5263770290094L746.593346207633 330.5263770290094" stroke-dasharray="8,5" stroke="#323232" stroke-width="2" fill="none" marker-end="url(#SvgjsMarker1152)"></path></g><g id="SvgjsG1154"><path id="SvgjsPath1155" d="M717.493037265734 330.43354138189375L487.51566914697923 330.43354138189375L487.51566914697923 180.875" stroke-dasharray="8,5" stroke="#323232" stroke-width="2" fill="none" marker-end="url(#SvgjsMarker1156)"></path></g><g id="SvgjsG1158"><path id="SvgjsPath1159" d="M437.3270125174684 165.875L365.5036800193006 165.875L365.5036800193006 166.09854286469243L293.6803475211328 166.09854286469243" stroke-dasharray="8,5" stroke="#323232" stroke-width="2" fill="none" marker-end="url(#SvgjsMarker1160)"></path></g><g id="SvgjsG1162"><path id="SvgjsPath1163" d="M264.3368954831436 162.50691942669732L181.4727024885596 162.50691942669732L181.4727024885596 162.52770364466613L98.60850949397559 162.52770364466613" stroke-dasharray="8,5" stroke="#323232" stroke-width="2" fill="none" marker-end="url(#SvgjsMarker1164)"></path></g><g id="SvgjsG1166" transform="translate(158.1334222168167,210.875)"><path id="SvgjsPath1167" d="M 0 0L 225 0L 241 16L 241 234L 0 234L 0 0Z" stroke="none" fill-opacity="1" fill="#ffffaa"></path><path id="SvgjsPath1168" d="M 225 0L 225 16L 241 16Z" stroke="none" fill-opacity="1" fill="#cdcdcd"></path><path id="SvgjsPath1169" d="M 0 0L 225 0L 241 16L 241 234L 0 234L 0 0Z" stroke="none" fill="none"></path><g id="SvgjsG1170"><text id="SvgjsText1171" font-family="Arial" text-anchor="start" font-size="16px" width="221px" fill="#323232" font-weight="400" align="top" anchor="start" family="Arial" size="16px" weight="400" font-style="" opacity="1" y="7.6" transform="rotate(0)"><tspan id="SvgjsTspan1172" dy="20" x="10"><tspan id="SvgjsTspan1173" style="text-decoration:;">ServerImplBuilder includes:</tspan></tspan><tspan id="SvgjsTspan1174" dy="20" x="10"><tspan id="SvgjsTspan1175" style="text-decoration:;"> </tspan></tspan><tspan id="SvgjsTspan1176" dy="20" x="10"><tspan id="SvgjsTspan1177" style="text-decoration:;">1. CompressorRegistry</tspan></tspan><tspan id="SvgjsTspan1178" dy="20" x="10"><tspan id="SvgjsTspan1179" style="text-decoration:;">2. DecompressorRegistry</tspan></tspan><tspan id="SvgjsTspan1180" dy="20" x="10"><tspan id="SvgjsTspan1181" style="text-decoration:;">3. ServerStreamTracer.Factory</tspan></tspan><tspan id="SvgjsTspan1182" dy="20" x="10"><tspan id="SvgjsTspan1183" style="text-decoration:;">4. ServerTransportFilter</tspan></tspan><tspan id="SvgjsTspan1184" dy="20" x="10"><tspan id="SvgjsTspan1185" style="text-decoration:;">5. Executor</tspan></tspan><tspan id="SvgjsTspan1186" dy="20" x="10"><tspan id="SvgjsTspan1187" style="text-decoration:;">6. HandlerRegistry</tspan></tspan><tspan id="SvgjsTspan1188" dy="20" x="10"><tspan id="SvgjsTspan1189" style="text-decoration:;">7. ServerInterceptor</tspan></tspan><tspan id="SvgjsTspan1190" dy="20" x="10"><tspan id="SvgjsTspan1191" style="text-decoration:;">8. BinaryLog</tspan></tspan><tspan id="SvgjsTspan1192" dy="20" x="10"><tspan id="SvgjsTspan1193" style="text-decoration:;">9. Deadline.Ticker</tspan></tspan></text></g></g><g id="SvgjsG1194"><path id="SvgjsPath1195" d="M278.6334222168167 210.875L278.6334222168167 191.375L278.578125 191.375L278.578125 171.875" stroke-dasharray="8,5" stroke="#b8b8b8" stroke-width="2" fill="none" marker-end="url(#SvgjsMarker1196)"></path></g></svg>