<svg id="SvgjsSvg1006" width="1413.5" height="580" xmlns="http://www.w3.org/2000/svg" version="1.1" xmlns:xlink="http://www.w3.org/1999/xlink" xmlns:svgjs="http://svgjs.com/svgjs"><defs id="SvgjsDefs1007"><marker id="SvgjsMarker1029" markerWidth="16" markerHeight="12" refX="16" refY="6" viewBox="0 0 16 12" orient="auto" markerUnits="userSpaceOnUse" stroke-dasharray="0,0"><path id="SvgjsPath1030" d="M0,2 L14,6 L0,11 L0,2" fill="#323232" stroke="#323232" stroke-width="2"></path></marker><marker id="SvgjsMarker1053" markerWidth="16" markerHeight="12" refX="16" refY="6" viewBox="0 0 16 12" orient="auto" markerUnits="userSpaceOnUse" stroke-dasharray="0,0"><path id="SvgjsPath1054" d="M0,2 L14,6 L0,11 L0,2" fill="#323232" stroke="#323232" stroke-width="2"></path></marker><marker id="SvgjsMarker1072" markerWidth="16" markerHeight="12" refX="16" refY="6" viewBox="0 0 16 12" orient="auto" markerUnits="userSpaceOnUse" stroke-dasharray="0,0"><path id="SvgjsPath1073" d="M0,2 L14,6 L0,11 L0,2" fill="#323232" stroke="#323232" stroke-width="2"></path></marker><marker id="SvgjsMarker1076" markerWidth="16" markerHeight="12" refX="16" refY="6" viewBox="0 0 16 12" orient="auto" markerUnits="userSpaceOnUse" stroke-dasharray="0,0"><path id="SvgjsPath1077" d="M0,2 L14,6 L0,11 L0,2" fill="#323232" stroke="#323232" stroke-width="2"></path></marker><marker id="SvgjsMarker1086" markerWidth="16" markerHeight="12" refX="16" refY="6" viewBox="0 0 16 12" orient="auto" markerUnits="userSpaceOnUse" stroke-dasharray="0,0"><path id="SvgjsPath1087" d="M0,2 L14,6 L0,11 L0,2" fill="#323232" stroke="#323232" stroke-width="2"></path></marker><marker id="SvgjsMarker1096" markerWidth="16" markerHeight="12" refX="16" refY="6" viewBox="0 0 16 12" orient="auto" markerUnits="userSpaceOnUse" stroke-dasharray="0,0"><path id="SvgjsPath1097" d="M0,2 L14,6 L0,11 L0,2" fill="#323232" stroke="#323232" stroke-width="2"></path></marker><marker id="SvgjsMarker1106" markerWidth="16" markerHeight="12" refX="16" refY="6" viewBox="0 0 16 12" orient="auto" markerUnits="userSpaceOnUse" stroke-dasharray="0,0"><path id="SvgjsPath1107" d="M0,2 L14,6 L0,11 L0,2" fill="#323232" stroke="#323232" stroke-width="2"></path></marker><pattern id="SvgjsPattern1114" x="0" y="0" width="507.5000000000001" height="530" patternUnits="userSpaceOnUse"><image id="SvgjsImage1115" xlink:href="https://cdn.processon.com/601f32ce5653bb64f2010e15?e=1612660958&amp;token=trhI0BY8QfVrIGn9nENop6JAc6l5nZuxhjQ62UfM:iRPbWtDX2_l9qmPRL6IwHbhrwFQ=" width="507.5000000000001" height="530" preserveAspectRatio="none" crossOrigin="anonymous" x="0" y="0"></image></pattern><marker id="SvgjsMarker1120" markerWidth="16" markerHeight="12" refX="16" refY="6" viewBox="0 0 16 12" orient="auto" markerUnits="userSpaceOnUse" stroke-dasharray="0,0"><path id="SvgjsPath1121" d="M0,2 L14,6 L0,11 L0,2" fill="#323232" stroke="#323232" stroke-width="2"></path></marker><marker id="SvgjsMarker1130" markerWidth="16" markerHeight="12" refX="16" refY="6" viewBox="0 0 16 12" orient="auto" markerUnits="userSpaceOnUse" stroke-dasharray="0,0"><path id="SvgjsPath1131" d="M0,2 L14,6 L0,11 L0,2" fill="#323232" stroke="#323232" stroke-width="2"></path></marker><marker id="SvgjsMarker1138" markerWidth="16" markerHeight="12" refX="16" refY="6" viewBox="0 0 16 12" orient="auto" markerUnits="userSpaceOnUse" stroke-dasharray="0,0"><path id="SvgjsPath1139" d="M0,2 L14,6 L0,11 L0,2" fill="#323232" stroke="#323232" stroke-width="2"></path></marker></defs><g id="SvgjsG1008" transform="translate(25,25)"><path id="SvgjsPath1009" d="M 0 4Q 0 0 4 0L 565 0Q 569 0 569 4L 569 526Q 569 530 565 530L 4 530Q 0 530 0 526Z" stroke-dasharray="10,6" stroke="rgba(184,184,184,1)" stroke-width="2" fill-opacity="1" fill="#ffffff"></path><g id="SvgjsG1010"><text id="SvgjsText1011" font-family="微软雅黑" text-anchor="middle" font-size="16px" width="549px" fill="#b8b8b8" font-weight="400" align="top" anchor="middle" family="微软雅黑" size="16px" weight="400" font-style="" opacity="1" y="-2.4" transform="rotate(0)"><tspan id="SvgjsTspan1012" dy="20" x="284.5"><tspan id="SvgjsTspan1013" style="text-decoration:;">Thread: main</tspan></tspan></text></g></g><g id="SvgjsG1014" transform="translate(602.2888277374317,25)"><path id="SvgjsPath1015" d="M 0 4Q 0 0 4 0L 261.7111722625683 0Q 265.7111722625683 0 265.7111722625683 4L 265.7111722625683 526Q 265.7111722625683 530 261.7111722625683 530L 4 530Q 0 530 0 526Z" stroke-dasharray="10,6" stroke="rgba(184,184,184,1)" stroke-width="2" fill-opacity="1" fill="#ffffff"></path><g id="SvgjsG1016"><text id="SvgjsText1017" font-family="微软雅黑" text-anchor="middle" font-size="16px" width="246px" fill="#b8b8b8" font-weight="400" align="top" anchor="middle" family="微软雅黑" size="16px" weight="400" font-style="" opacity="1" y="-2.4" transform="rotate(0)"><tspan id="SvgjsTspan1018" dy="20" x="133"><tspan id="SvgjsTspan1019" style="text-decoration:;">Thread: grpc-nio-boss-ELG</tspan></tspan></text></g></g><g id="SvgjsG1020" transform="translate(36.21117226256828,56.84375)"><path id="SvgjsPath1021" d="M 59.2888277374317 30L 59.2888277374317 476.03125" stroke-dasharray="3,4" stroke="rgba(50,50,50,1)" stroke-width="2" fill="none"></path><path id="SvgjsPath1022" d="M 0 0L 118.5776554748634 0L 118.5776554748634 30L 0 30Z" stroke="rgba(50,50,50,1)" stroke-width="2" fill-opacity="1" fill="#ffffff"></path><g id="SvgjsG1023"><text id="SvgjsText1024" font-family="Arial" text-anchor="middle" font-size="16px" width="99px" fill="#323232" font-weight="400" align="middle" anchor="middle" family="Arial" size="16px" weight="400" font-style="" opacity="1" y="2.6" transform="rotate(0)"><tspan id="SvgjsTspan1025" dy="20" x="59.5"><tspan id="SvgjsTspan1026" style="text-decoration:;">ServerBuilder</tspan></tspan></text></g></g><g id="SvgjsG1027"><path id="SvgjsPath1028" d="M109 127L181.6133372298258 127L181.6133372298258 127.36968588781215L254.22667445965158 127.36968588781215" stroke="#323232" stroke-width="2" fill="none" marker-end="url(#SvgjsMarker1029)"></path><rect id="SvgjsRect1031" width="42" height="20" x="160.6133372298258" y="117.18484294390608" fill="#ffffff"></rect><text id="SvgjsText1032" font-family="Arial" text-anchor="middle" font-size="16px" width="42px" fill="#323232" font-weight="400" align="top" anchor="middle" family="Arial" size="16px" weight="400" font-style="" opacity="1" y="114.78484294390607" transform="rotate(0)"><tspan id="SvgjsTspan1033" dy="20" x="181.6133372298258"><tspan id="SvgjsTspan1034" style="text-decoration:;">start()</tspan></tspan></text></g><g id="SvgjsG1035" transform="translate(189.66391603139004,56.71875)"><path id="SvgjsPath1036" d="M 79.06245585302088 30L 79.06245585302088 476.28125" stroke-dasharray="3,4" stroke="rgba(50,50,50,1)" stroke-width="2" fill="none"></path><path id="SvgjsPath1037" d="M 0 0L 158.12491170604176 0L 158.12491170604176 30L 0 30Z" stroke="rgba(50,50,50,1)" stroke-width="2" fill-opacity="1" fill="#ffffff"></path><g id="SvgjsG1038"><text id="SvgjsText1039" font-family="Arial" text-anchor="middle" font-size="16px" width="139px" fill="#323232" font-weight="400" align="middle" anchor="middle" family="Arial" size="16px" weight="400" font-style="" opacity="1" y="2.6" transform="rotate(0)"><tspan id="SvgjsTspan1040" dy="20" x="79.5"><tspan id="SvgjsTspan1041" style="text-decoration:;">AbstractBootstrap</tspan></tspan></text></g></g><g id="SvgjsG1042" transform="translate(80.37765089722674,106)"><path id="SvgjsPath1043" d="M 0 4Q 0 0 4 0L 26.244698205546495 0Q 30.244698205546495 0 30.244698205546495 4L 30.244698205546495 428Q 30.244698205546495 432 26.244698205546495 432L 4 432Q 0 432 0 428L 0 4Z" stroke="rgba(50,50,50,1)" stroke-width="2" fill-opacity="1" fill="#ffffff"></path></g><g id="SvgjsG1044" transform="translate(382.57481082358254,56.40625)"><path id="SvgjsPath1045" d="M 96.65980152256668 30L 96.65980152256668 481.59375" stroke-dasharray="3,4" stroke="rgba(50,50,50,1)" stroke-width="2" fill="none"></path><path id="SvgjsPath1046" d="M 0 0L 193.31960304513336 0L 193.31960304513336 30L 0 30Z" stroke="rgba(50,50,50,1)" stroke-width="2" fill-opacity="1" fill="#ffffff"></path><g id="SvgjsG1047"><text id="SvgjsText1048" font-family="Arial" text-anchor="middle" font-size="16px" width="174px" fill="#323232" font-weight="400" align="middle" anchor="middle" family="Arial" size="16px" weight="400" font-style="" opacity="1" y="2.6" transform="rotate(0)"><tspan id="SvgjsTspan1049" dy="20" x="97"><tspan id="SvgjsTspan1050" style="text-decoration:;">SingleThreadEventLoop</tspan></tspan></text></g></g><g id="SvgjsG1051"><path id="SvgjsPath1052" d="M283 150L374.16018333630745 150L374.16018333630745 150.32618949196114L465.3203666726149 150.32618949196114" stroke="#323232" stroke-width="2" fill="none" marker-end="url(#SvgjsMarker1053)"></path><rect id="SvgjsRect1055" width="119" height="20" x="314.66018333630745" y="140.16309474598057" fill="#ffffff"></rect><text id="SvgjsText1056" font-family="Arial" text-anchor="middle" font-size="16px" width="119px" fill="#323232" font-weight="400" align="top" anchor="middle" family="Arial" size="16px" weight="400" font-style="" opacity="1" y="137.76309474598057" transform="rotate(0)"><tspan id="SvgjsTspan1057" dy="20" x="374.16018333630745"><tspan id="SvgjsTspan1058" style="text-decoration:;">initAndRegister()</tspan></tspan></text></g><g id="SvgjsG1059" transform="translate(253.6040227816377,124)"><path id="SvgjsPath1060" d="M 0 4Q 0 0 4 0L 26.244698205546495 0Q 30.244698205546495 0 30.244698205546495 4L 30.244698205546495 410Q 30.244698205546495 414 26.244698205546495 414L 4 414Q 0 414 0 410L 0 4Z" stroke="rgba(50,50,50,1)" stroke-width="2" fill-opacity="1" fill="#ffffff"></path></g><g id="SvgjsG1061" transform="translate(464.112263243376,149.78125)"><path id="SvgjsPath1062" d="M 0 4Q 0 0 4 0L 26.244698205546495 0Q 30.244698205546495 0 30.244698205546495 4L 30.244698205546495 53.21875Q 30.244698205546495 57.21875 26.244698205546495 57.21875L 4 57.21875Q 0 57.21875 0 53.21875L 0 4Z" stroke="rgba(50,50,50,1)" stroke-width="2" fill-opacity="1" fill="#ffffff"></path></g><g id="SvgjsG1063" transform="translate(664.7888277374317,56.40625)"><path id="SvgjsPath1064" d="M 64 30L 64 481.59375" stroke-dasharray="3,4" stroke="rgba(50,50,50,1)" stroke-width="2" fill="none"></path><path id="SvgjsPath1065" d="M 0 0L 128 0L 128 30L 0 30Z" stroke="rgba(50,50,50,1)" stroke-width="2" fill-opacity="1" fill="#ffffff"></path><g id="SvgjsG1066"><text id="SvgjsText1067" font-family="Arial" text-anchor="middle" font-size="16px" width="108px" fill="#323232" font-weight="400" align="middle" anchor="middle" family="Arial" size="16px" weight="400" font-style="" opacity="1" y="2.6" transform="rotate(0)"><tspan id="SvgjsTspan1068" dy="20" x="64"><tspan id="SvgjsTspan1069" style="text-decoration:;">NioEventLoop</tspan></tspan></text></g></g><g id="SvgjsG1070"><path id="SvgjsPath1071" d="M253.8284271247462 533.1715728752538L181.98236190979497 533.1715728752538L181.98236190979497 532.9647238195898L110.13629669484374 532.9647238195898" stroke-dasharray="8,5" stroke="#323232" stroke-width="2" fill="none" marker-end="url(#SvgjsMarker1072)"></path></g><g id="SvgjsG1074"><path id="SvgjsPath1075" d="M494 166.8862190812721L524 166.8862190812721L524.1339745962156 201.17703180212015L494.1339745962156 201.17703180212015" stroke="#323232" stroke-width="2" fill="none" marker-end="url(#SvgjsMarker1076)"></path><rect id="SvgjsRect1078" width="67" height="20" x="490.56698729810773" y="174.03162544169612" fill="#ffffff"></rect><text id="SvgjsText1079" font-family="Arial" text-anchor="middle" font-size="16px" width="67px" fill="#323232" font-weight="400" align="top" anchor="middle" family="Arial" size="16px" weight="400" font-style="" opacity="1" y="171.63162544169612" transform="rotate(0)"><tspan id="SvgjsTspan1080" dy="20" x="524.0669872981077"><tspan id="SvgjsTspan1081" style="text-decoration:;">execute()</tspan></tspan></text></g><g id="SvgjsG1082" transform="translate(464.112263243376,233)"><path id="SvgjsPath1083" d="M 0 4Q 0 0 4 0L 26.244698205546495 0Q 30.244698205546495 0 30.244698205546495 4L 30.244698205546495 50Q 30.244698205546495 54 26.244698205546495 54L 4 54Q 0 54 0 50L 0 4Z" stroke="rgba(50,50,50,1)" stroke-width="2" fill-opacity="1" fill="#ffffff"></path></g><g id="SvgjsG1084"><path id="SvgjsPath1085" d="M494 247.92155477031804L524 247.92155477031804L524.1873844259267 281.08299030913366L494.1873844259267 281.08299030913366" stroke="#323232" stroke-width="2" fill="none" marker-end="url(#SvgjsMarker1086)"></path><rect id="SvgjsRect1088" width="70" height="20" x="489.09369221296333" y="254.50227253972582" fill="#ffffff"></rect><text id="SvgjsText1089" font-family="Arial" text-anchor="middle" font-size="16px" width="70px" fill="#323232" font-weight="400" align="top" anchor="middle" family="Arial" size="16px" weight="400" font-style="" opacity="1" y="252.10227253972582" transform="rotate(0)"><tspan id="SvgjsTspan1090" dy="20" x="524.0936922129633"><tspan id="SvgjsTspan1091" style="text-decoration:;">addTask()</tspan></tspan></text></g><g id="SvgjsG1092" transform="translate(464.112263243376,321.5625)"><path id="SvgjsPath1093" d="M 0 4Q 0 0 4 0L 26.244698205546495 0Q 30.244698205546495 0 30.244698205546495 4L 30.244698205546495 53.4375Q 30.244698205546495 57.4375 26.244698205546495 57.4375L 4 57.4375Q 0 57.4375 0 53.4375L 0 4Z" stroke="rgba(50,50,50,1)" stroke-width="2" fill-opacity="1" fill="#ffffff"></path></g><g id="SvgjsG1094"><path id="SvgjsPath1095" d="M494 335L524 335L524.0607689879512 372.30540728933227L494.0607689879512 372.30540728933227" stroke="#323232" stroke-width="2" fill="none" marker-end="url(#SvgjsMarker1096)"></path><rect id="SvgjsRect1098" width="92" height="20" x="478.0303844939756" y="343.65270364466613" fill="#ffffff"></rect><text id="SvgjsText1099" font-family="Arial" text-anchor="middle" font-size="16px" width="92px" fill="#323232" font-weight="400" align="top" anchor="middle" family="Arial" size="16px" weight="400" font-style="" opacity="1" y="341.25270364466616" transform="rotate(0)"><tspan id="SvgjsTspan1100" dy="20" x="524.0303844939756"><tspan id="SvgjsTspan1101" style="text-decoration:;">startThread()</tspan></tspan></text></g><g id="SvgjsG1102" transform="translate(713.6664786346585,493)"><path id="SvgjsPath1103" d="M 0 4Q 0 0 4 0L 26.244698205546495 0Q 30.244698205546495 0 30.244698205546495 4L 30.244698205546495 41Q 30.244698205546495 45 26.244698205546495 45L 4 45Q 0 45 0 41L 0 4Z" stroke="rgba(50,50,50,1)" stroke-width="2" fill-opacity="1" fill="#ffffff"></path></g><g id="SvgjsG1104"><path id="SvgjsPath1105" d="M743 503.7369464639788L773 503.7369464639788L772.233955556881 533.581219988137L742.233955556881 533.581219988137" stroke="#323232" stroke-width="2" fill="none" marker-end="url(#SvgjsMarker1106)"></path><rect id="SvgjsRect1108" width="34" height="20" x="755.6169777784405" y="508.6590832260579" fill="#ffffff"></rect><text id="SvgjsText1109" font-family="Arial" text-anchor="middle" font-size="16px" width="34px" fill="#323232" font-weight="400" align="top" anchor="middle" family="Arial" size="16px" weight="400" font-style="" opacity="1" y="506.2590832260579" transform="rotate(0)"><tspan id="SvgjsTspan1110" dy="20" x="772.6169777784405"><tspan id="SvgjsTspan1111" style="text-decoration:;">run()</tspan></tspan></text></g><g id="SvgjsG1112" transform="translate(881.4999999999999,25)"><path id="SvgjsPath1113" d="M 0 0L 507.5000000000001 0L 507.5000000000001 530L 0 530Z" stroke="none" fill="url(#SvgjsPattern1114)"></path></g><g id="SvgjsG1116" transform="translate(464.112263243376,397.5625)"><path id="SvgjsPath1117" d="M 0 4Q 0 0 4 0L 26.244698205546495 0Q 30.244698205546495 0 30.244698205546495 4L 30.244698205546495 53.4375Q 30.244698205546495 57.4375 26.244698205546495 57.4375L 4 57.4375Q 0 57.4375 0 53.4375L 0 4Z" stroke="rgba(50,50,50,1)" stroke-width="2" fill-opacity="1" fill="#ffffff"></path></g><g id="SvgjsG1118"><path id="SvgjsPath1119" d="M493 413L523 413L522.180847955711 449.42642356364894L492.180847955711 449.42642356364894" stroke="#323232" stroke-width="2" fill="none" marker-end="url(#SvgjsMarker1120)"></path><rect id="SvgjsRect1122" width="113" height="20" x="466.0904239778555" y="421.2132117818245" fill="#ffffff"></rect><text id="SvgjsText1123" font-family="Arial" text-anchor="middle" font-size="16px" width="113px" fill="#323232" font-weight="400" align="top" anchor="middle" family="Arial" size="16px" weight="400" font-style="" opacity="1" y="418.8132117818245" transform="rotate(0)"><tspan id="SvgjsTspan1124" dy="20" x="522.5904239778555"><tspan id="SvgjsTspan1125" style="text-decoration:;">doStartThread()</tspan></tspan></text></g><g id="SvgjsG1126" transform="translate(464.112263243376,480.5625)"><path id="SvgjsPath1127" d="M 0 4Q 0 0 4 0L 26.244698205546495 0Q 30.244698205546495 0 30.244698205546495 4L 30.244698205546495 53.4375Q 30.244698205546495 57.4375 26.244698205546495 57.4375L 4 57.4375Q 0 57.4375 0 53.4375L 0 4Z" stroke="rgba(50,50,50,1)" stroke-width="2" fill-opacity="1" fill="#ffffff"></path></g><g id="SvgjsG1128"><path id="SvgjsPath1129" d="M494 496L603.9620193825306 496L603.9620193825306 495.86824088833464L713.924038765061 495.86824088833464" stroke="#323232" stroke-width="2" fill="none" marker-end="url(#SvgjsMarker1130)"></path><rect id="SvgjsRect1132" width="132" height="20" x="537.9620193825306" y="485.9341204441674" fill="#ffffff"></rect><text id="SvgjsText1133" font-family="Arial" text-anchor="middle" font-size="16px" width="132px" fill="#323232" font-weight="400" align="top" anchor="middle" family="Arial" size="16px" weight="400" font-style="" opacity="1" y="483.5341204441674" transform="rotate(0)"><tspan id="SvgjsTspan1134" dy="20" x="603.9620193825306"><tspan id="SvgjsTspan1135" style="text-decoration:;">executor.execute()</tspan></tspan></text></g><g id="SvgjsG1136"><path id="SvgjsPath1137" d="M461.8284271247462 533.1715728752538L375.4142135623731 533.1715728752538L375.4142135623731 533.1715728752538L289 533.1715728752538" stroke-dasharray="8,5" stroke="#323232" stroke-width="2" fill="none" marker-end="url(#SvgjsMarker1138)"></path></g></svg>