<svg id="SvgjsSvg1006" width="1841" height="557" xmlns="http://www.w3.org/2000/svg" version="1.1" xmlns:xlink="http://www.w3.org/1999/xlink" xmlns:svgjs="http://svgjs.com/svgjs"><defs id="SvgjsDefs1007"><marker id="SvgjsMarker1025" markerWidth="16" markerHeight="12" refX="16" refY="6" viewBox="0 0 16 12" orient="auto" markerUnits="userSpaceOnUse" stroke-dasharray="0,0"><path id="SvgjsPath1026" d="M0,2 L14,6 L0,11 L0,2" fill="#323232" stroke="#323232" stroke-width="2"></path></marker><marker id="SvgjsMarker1044" markerWidth="16" markerHeight="12" refX="16" refY="6" viewBox="0 0 16 12" orient="auto" markerUnits="userSpaceOnUse" stroke-dasharray="0,0"><path id="SvgjsPath1045" d="M0,2 L14,6 L0,11 L0,2" fill="#323232" stroke="#323232" stroke-width="2"></path></marker><marker id="SvgjsMarker1061" markerWidth="16" markerHeight="12" refX="16" refY="6" viewBox="0 0 16 12" orient="auto" markerUnits="userSpaceOnUse" stroke-dasharray="0,0"><path id="SvgjsPath1062" d="M0,2 L14,6 L0,11 L0,2" fill="#323232" stroke="#323232" stroke-width="2"></path></marker><marker id="SvgjsMarker1069" markerWidth="16" markerHeight="12" refX="16" refY="6" viewBox="0 0 16 12" orient="auto" markerUnits="userSpaceOnUse" stroke-dasharray="0,0"><path id="SvgjsPath1070" d="M0,2 L14,6 L0,11 L0,2" fill="#323232" stroke="#323232" stroke-width="2"></path></marker><marker id="SvgjsMarker1077" markerWidth="16" markerHeight="12" refX="16" refY="6" viewBox="0 0 16 12" orient="auto" markerUnits="userSpaceOnUse" stroke-dasharray="0,0"><path id="SvgjsPath1078" d="M0,2 L14,6 L0,11 L0,2" fill="#323232" stroke="#323232" stroke-width="2"></path></marker><marker id="SvgjsMarker1090" markerWidth="16" markerHeight="12" refX="16" refY="6" viewBox="0 0 16 12" orient="auto" markerUnits="userSpaceOnUse" stroke-dasharray="0,0"><path id="SvgjsPath1091" d="M0,2 L14,6 L0,11 L0,2" fill="#323232" stroke="#323232" stroke-width="2"></path></marker><marker id="SvgjsMarker1114" markerWidth="16" markerHeight="12" refX="16" refY="6" viewBox="0 0 16 12" orient="auto" markerUnits="userSpaceOnUse" stroke-dasharray="0,0"><path id="SvgjsPath1115" d="M0,2 L14,6 L0,11 L0,2" fill="#323232" stroke="#323232" stroke-width="2"></path></marker><marker id="SvgjsMarker1120" markerWidth="16" markerHeight="12" refX="16" refY="6" viewBox="0 0 16 12" orient="auto" markerUnits="userSpaceOnUse" stroke-dasharray="0,0"><path id="SvgjsPath1121" d="M0,2 L14,6 L0,11 L0,2" fill="#323232" stroke="#323232" stroke-width="2"></path></marker><marker id="SvgjsMarker1137" markerWidth="16" markerHeight="12" refX="16" refY="6" viewBox="0 0 16 12" orient="auto" markerUnits="userSpaceOnUse" stroke-dasharray="0,0"><path id="SvgjsPath1138" d="M0,2 L14,6 L0,11 L0,2" fill="#323232" stroke="#323232" stroke-width="2"></path></marker><marker id="SvgjsMarker1145" markerWidth="16" markerHeight="12" refX="16" refY="6" viewBox="0 0 16 12" orient="auto" markerUnits="userSpaceOnUse" stroke-dasharray="0,0"><path id="SvgjsPath1146" d="M0,2 L14,6 L0,11 L0,2" fill="#323232" stroke="#323232" stroke-width="2"></path></marker><marker id="SvgjsMarker1151" markerWidth="16" markerHeight="12" refX="16" refY="6" viewBox="0 0 16 12" orient="auto" markerUnits="userSpaceOnUse" stroke-dasharray="0,0"><path id="SvgjsPath1152" d="M0,2 L14,6 L0,11 L0,2" fill="#323232" stroke="#323232" stroke-width="2"></path></marker><marker id="SvgjsMarker1155" markerWidth="16" markerHeight="12" refX="16" refY="6" viewBox="0 0 16 12" orient="auto" markerUnits="userSpaceOnUse" stroke-dasharray="0,0"><path id="SvgjsPath1156" d="M0,2 L14,6 L0,11 L0,2" fill="#323232" stroke="#323232" stroke-width="2"></path></marker><marker id="SvgjsMarker1174" markerWidth="16" markerHeight="12" refX="16" refY="6" viewBox="0 0 16 12" orient="auto" markerUnits="userSpaceOnUse" stroke-dasharray="0,0"><path id="SvgjsPath1175" d="M0,2 L14,6 L0,11 L0,2" fill="#323232" stroke="#323232" stroke-width="2"></path></marker><marker id="SvgjsMarker1184" markerWidth="16" markerHeight="12" refX="16" refY="6" viewBox="0 0 16 12" orient="auto" markerUnits="userSpaceOnUse" stroke-dasharray="0,0"><path id="SvgjsPath1185" d="M0,2 L14,6 L0,11 L0,2" fill="#323232" stroke="#323232" stroke-width="2"></path></marker><marker id="SvgjsMarker1201" markerWidth="16" markerHeight="12" refX="16" refY="6" viewBox="0 0 16 12" orient="auto" markerUnits="userSpaceOnUse" stroke-dasharray="0,0"><path id="SvgjsPath1202" d="M0,2 L14,6 L0,11 L0,2" fill="#323232" stroke="#323232" stroke-width="2"></path></marker><marker id="SvgjsMarker1217" markerWidth="16" markerHeight="12" refX="16" refY="6" viewBox="0 0 16 12" orient="auto" markerUnits="userSpaceOnUse" stroke-dasharray="0,0"><path id="SvgjsPath1218" d="M0,2 L14,6 L0,11 L0,2" fill="#cfcfcf" stroke="#cfcfcf" stroke-width="2"></path></marker><marker id="SvgjsMarker1221" markerWidth="16" markerHeight="12" refX="16" refY="6" viewBox="0 0 16 12" orient="auto" markerUnits="userSpaceOnUse" stroke-dasharray="0,0"><path id="SvgjsPath1222" d="M0,2 L14,6 L0,11 L0,2" fill="#323232" stroke="#323232" stroke-width="2"></path></marker><marker id="SvgjsMarker1225" markerWidth="16" markerHeight="12" refX="16" refY="6" viewBox="0 0 16 12" orient="auto" markerUnits="userSpaceOnUse" stroke-dasharray="0,0"><path id="SvgjsPath1226" d="M0,2 L14,6 L0,11 L0,2" fill="#323232" stroke="#323232" stroke-width="2"></path></marker><marker id="SvgjsMarker1229" markerWidth="16" markerHeight="12" refX="16" refY="6" viewBox="0 0 16 12" orient="auto" markerUnits="userSpaceOnUse" stroke-dasharray="0,0"><path id="SvgjsPath1230" d="M0,2 L14,6 L0,11 L0,2" fill="#323232" stroke="#323232" stroke-width="2"></path></marker><marker id="SvgjsMarker1233" markerWidth="16" markerHeight="12" refX="16" refY="6" viewBox="0 0 16 12" orient="auto" markerUnits="userSpaceOnUse" stroke-dasharray="0,0"><path id="SvgjsPath1234" d="M0,2 L14,6 L0,11 L0,2" fill="#323232" stroke="#323232" stroke-width="2"></path></marker></defs><g id="SvgjsG1008" transform="translate(25,25)"><path id="SvgjsPath1009" d="M 0 4Q 0 0 4 0L 1787 0Q 1791 0 1791 4L 1791 502.953125Q 1791 506.953125 1787 506.953125L 4 506.953125Q 0 506.953125 0 502.953125Z" stroke-dasharray="10,6" stroke="rgba(184,184,184,1)" stroke-width="2" fill-opacity="1" fill="#ffffff"></path><g id="SvgjsG1010"><text id="SvgjsText1011" font-family="微软雅黑" text-anchor="middle" font-size="16px" width="1771px" fill="#b8b8b8" font-weight="400" align="top" anchor="middle" family="微软雅黑" size="16px" weight="400" font-style="" opacity="1" y="-2.4" transform="rotate(0)"><tspan id="SvgjsTspan1012" dy="20" x="895.5"><tspan id="SvgjsTspan1013" style="text-decoration:;">Thread: grpc-nio-worker-ELG</tspan></tspan></text></g></g><g id="SvgjsG1014" transform="translate(37,52)"><path id="SvgjsPath1015" d="M 68.00000000000014 30L 68.00000000000014 409" stroke-dasharray="3,4" stroke="rgba(50,50,50,1)" stroke-width="2" fill="none"></path><path id="SvgjsPath1016" d="M 0 0L 136.00000000000028 0L 136.00000000000028 30L 0 30Z" stroke="rgba(50,50,50,1)" stroke-width="2" fill-opacity="1" fill="#ffffff"></path><g id="SvgjsG1017"><text id="SvgjsText1018" font-family="Arial" text-anchor="middle" font-size="16px" width="117px" fill="#323232" font-weight="400" align="middle" anchor="middle" family="Arial" size="16px" weight="400" font-style="" opacity="1" y="2.6" transform="rotate(0)"><tspan id="SvgjsTspan1019" dy="20" x="68.5"><tspan id="SvgjsTspan1020" style="text-decoration:;">NioEventLoop</tspan></tspan></text></g></g><g id="SvgjsG1021" transform="translate(89.87765089722689,112.78125)"><path id="SvgjsPath1022" d="M 0 4Q 0 0 4 0L 26.244698205546495 0Q 30.244698205546495 0 30.244698205546495 4L 30.244698205546495 400.21875Q 30.244698205546495 404.21875 26.244698205546495 404.21875L 4 404.21875Q 0 404.21875 0 400.21875L 0 4Z" stroke-dasharray="10,6" stroke="rgba(50,50,50,1)" stroke-width="2" fill-opacity="1" fill="#ffffff"></path></g><g id="SvgjsG1023"><path id="SvgjsPath1024" d="M120 128.3860483551328L194 128.3860483551328L194 504L120 504" stroke-dasharray="8,5" stroke="#323232" stroke-width="2" fill="none" marker-end="url(#SvgjsMarker1025)"></path><rect id="SvgjsRect1027" width="34" height="20" x="177" y="306.19302417756643" fill="#ffffff"></rect><text id="SvgjsText1028" font-family="Arial" text-anchor="middle" font-size="16px" width="34px" fill="#323232" font-weight="400" align="top" anchor="middle" family="Arial" size="16px" weight="400" font-style="" opacity="1" y="303.79302417756645" transform="rotate(0)"><tspan id="SvgjsTspan1029" dy="20" x="194"><tspan id="SvgjsTspan1030" style="text-decoration:;">run()</tspan></tspan></text></g><g id="SvgjsG1031" transform="translate(215.50000000000017,52)"><path id="SvgjsPath1032" d="M 109.99999999999994 30L 109.99999999999994 439" stroke-dasharray="3,4" stroke="rgba(50,50,50,1)" stroke-width="2" fill="none"></path><path id="SvgjsPath1033" d="M 0 0L 219.9999999999999 0L 219.9999999999999 30L 0 30Z" stroke="rgba(50,50,50,1)" stroke-width="2" fill-opacity="1" fill="#ffffff"></path><g id="SvgjsG1034"><text id="SvgjsText1035" font-family="Arial" text-anchor="middle" font-size="16px" width="200px" fill="#323232" font-weight="400" align="middle" anchor="middle" family="Arial" size="16px" weight="400" font-style="" opacity="1" y="2.6" transform="rotate(0)"><tspan id="SvgjsTspan1036" dy="20" x="110"><tspan id="SvgjsTspan1037" style="text-decoration:;">SingleThreadEventExecutor</tspan></tspan></text></g></g><g id="SvgjsG1038" transform="translate(89.87765089722689,143)"><path id="SvgjsPath1039" d="M 0 4Q 0 0 4 0L 26.244698205546495 0Q 30.244698205546495 0 30.244698205546495 4L 30.244698205546495 344Q 30.244698205546495 348 26.244698205546495 348L 4 348Q 0 348 0 344L 0 4Z" stroke="rgba(0,0,0,1)" stroke-width="2" fill-opacity="1" fill="#ffffff"></path></g><g id="SvgjsG1040" transform="translate(310.3776508972269,157.9453125)"><path id="SvgjsPath1041" d="M 0 4Q 0 0 4 0L 26.244698205546495 0Q 30.244698205546495 0 30.244698205546495 4L 30.244698205546495 329.0546875Q 30.244698205546495 333.0546875 26.244698205546495 333.0546875L 4 333.0546875Q 0 333.0546875 0 329.0546875L 0 4Z" stroke="rgba(0,0,0,1)" stroke-width="2" fill-opacity="1" fill="#ffffff"></path></g><g id="SvgjsG1042"><path id="SvgjsPath1043" d="M120 159L215.44682713554272 159L215.44682713554272 161.21553724366856L310.89365427108544 161.21553724366856" stroke="#323232" stroke-width="2" fill="none" marker-end="url(#SvgjsMarker1044)"></path><rect id="SvgjsRect1046" width="157" height="20" x="136.94682713554272" y="150.10776862183428" fill="#ffffff"></rect><text id="SvgjsText1047" font-family="Arial" text-anchor="middle" font-size="16px" width="157px" fill="#323232" font-weight="400" align="top" anchor="middle" family="Arial" size="16px" weight="400" font-style="" opacity="1" y="147.70776862183428" transform="rotate(0)"><tspan id="SvgjsTspan1048" dy="20" x="215.44682713554272"><tspan id="SvgjsTspan1049" style="text-decoration:;">processSelectedKey()</tspan></tspan></text></g><g id="SvgjsG1050" transform="translate(451.5000000000001,57)"><path id="SvgjsPath1051" d="M 93.74999999999989 30L 93.74999999999989 434" stroke-dasharray="3,4" stroke="rgba(50,50,50,1)" stroke-width="2" fill="none"></path><path id="SvgjsPath1052" d="M 0 0L 187.49999999999977 0L 187.49999999999977 30L 0 30Z" stroke="rgba(50,50,50,1)" stroke-width="2" fill-opacity="1" fill="#ffffff"></path><g id="SvgjsG1053"><text id="SvgjsText1054" font-family="Arial" text-anchor="middle" font-size="16px" width="168px" fill="#323232" font-weight="400" align="middle" anchor="middle" family="Arial" size="16px" weight="400" font-style="" opacity="1" y="2.6" transform="rotate(0)"><tspan id="SvgjsTspan1055" dy="20" x="94"><tspan id="SvgjsTspan1056" style="text-decoration:;">AbstractEventExecutor</tspan></tspan></text></g></g><g id="SvgjsG1057" transform="translate(530.1276508972268,170)"><path id="SvgjsPath1058" d="M 0 4Q 0 0 4 0L 26.244698205546495 0Q 30.244698205546495 0 30.244698205546495 4L 30.244698205546495 317Q 30.244698205546495 321 26.244698205546495 321L 4 321Q 0 321 0 317L 0 4Z" stroke="rgba(0,0,0,1)" stroke-width="2" fill-opacity="1" fill="#ffffff"></path></g><g id="SvgjsG1059"><path id="SvgjsPath1060" d="M340 172L435.4544232590366 172L435.4544232590366 173.04188906600154L530.9088465180732 173.04188906600154" stroke="#323232" stroke-width="2" fill="none" marker-end="url(#SvgjsMarker1061)"></path><rect id="SvgjsRect1063" width="99" height="20" x="385.9544232590366" y="162.52094453300077" fill="#ffffff"></rect><text id="SvgjsText1064" font-family="Arial" text-anchor="middle" font-size="16px" width="99px" fill="#323232" font-weight="400" align="top" anchor="middle" family="Arial" size="16px" weight="400" font-style="" opacity="1" y="160.12094453300077" transform="rotate(0)"><tspan id="SvgjsTspan1065" dy="20" x="435.4544232590366"><tspan id="SvgjsTspan1066" style="text-decoration:;">safeExecute()</tspan></tspan></text></g><g id="SvgjsG1067"><path id="SvgjsPath1068" d="M560 186L635.9885840942752 186L635.9885840942752 186.52293445648593L711.9771681885504 186.52293445648593" stroke="#323232" stroke-width="2" fill="none" marker-end="url(#SvgjsMarker1069)"></path><rect id="SvgjsRect1071" width="73" height="20" x="599.4885840942752" y="176.26146722824296" fill="#ffffff"></rect><text id="SvgjsText1072" font-family="Arial" text-anchor="middle" font-size="16px" width="73px" fill="#323232" font-weight="400" align="top" anchor="middle" family="Arial" size="16px" weight="400" font-style="" opacity="1" y="173.86146722824296" transform="rotate(0)"><tspan id="SvgjsTspan1073" dy="20" x="635.9885840942752"><tspan id="SvgjsTspan1074" style="text-decoration:;">register0()</tspan></tspan></text></g><g id="SvgjsG1075"><path id="SvgjsPath1076" d="M311.0641777724759 484.42884956125386L215.54160214100858 484.42884956125386L215.54160214100858 483.5642212862617L120.01902650954128 483.5642212862617" stroke-dasharray="8,5" stroke="#323232" stroke-width="2" fill="none" marker-end="url(#SvgjsMarker1077)"></path></g><g id="SvgjsG1079" transform="translate(661.75,57)"><path id="SvgjsPath1080" d="M 64.75000000000011 30L 64.75000000000011 434" stroke-dasharray="3,4" stroke="rgba(50,50,50,1)" stroke-width="2" fill="none"></path><path id="SvgjsPath1081" d="M 0 0L 129.50000000000023 0L 129.50000000000023 30L 0 30Z" stroke="rgba(50,50,50,1)" stroke-width="2" fill-opacity="1" fill="#ffffff"></path><g id="SvgjsG1082"><text id="SvgjsText1083" font-family="Arial" text-anchor="middle" font-size="16px" width="110px" fill="#323232" font-weight="400" align="middle" anchor="middle" family="Arial" size="16px" weight="400" font-style="" opacity="1" y="2.6" transform="rotate(0)"><tspan id="SvgjsTspan1084" dy="20" x="65"><tspan id="SvgjsTspan1085" style="text-decoration:;">AbstractUnsafe</tspan></tspan></text></g></g><g id="SvgjsG1086" transform="translate(711.3776508972269,182)"><path id="SvgjsPath1087" d="M 0 4Q 0 0 4 0L 26.244698205546495 0Q 30.244698205546495 0 30.244698205546495 4L 30.244698205546495 305Q 30.244698205546495 309 26.244698205546495 309L 4 309Q 0 309 0 305L 0 4Z" stroke="rgba(0,0,0,1)" stroke-width="2" fill-opacity="1" fill="#ffffff"></path></g><g id="SvgjsG1088"><path id="SvgjsPath1089" d="M741 197L832.9468271355427 197L832.9468271355427 197.21553724366856L924.8936542710854 197.21553724366856" stroke="#323232" stroke-width="2" fill="none" marker-end="url(#SvgjsMarker1090)"></path><rect id="SvgjsRect1092" width="136" height="20" x="764.9468271355427" y="187.10776862183434" fill="#ffffff"></rect><text id="SvgjsText1093" font-family="Arial" text-anchor="middle" font-size="16px" width="136px" fill="#323232" font-weight="400" align="top" anchor="middle" family="Arial" size="16px" weight="400" font-style="" opacity="1" y="184.70776862183433" transform="rotate(0)"><tspan id="SvgjsTspan1094" dy="20" x="832.9468271355427"><tspan id="SvgjsTspan1095" style="text-decoration:;">fireChannelActive()</tspan></tspan></text></g><g id="SvgjsG1096" transform="translate(845.3222069343574,57)"><path id="SvgjsPath1097" d="M 93.8222069343575 30L 93.8222069343575 434" stroke-dasharray="3,4" stroke="rgba(50,50,50,1)" stroke-width="2" fill="none"></path><path id="SvgjsPath1098" d="M 0 0L 187.644413868715 0L 187.644413868715 30L 0 30Z" stroke="rgba(50,50,50,1)" stroke-width="2" fill-opacity="1" fill="#ffffff"></path><g id="SvgjsG1099"><text id="SvgjsText1100" font-family="Arial" text-anchor="middle" font-size="16px" width="168px" fill="#323232" font-weight="400" align="middle" anchor="middle" family="Arial" size="16px" weight="400" font-style="" opacity="1" y="2.6" transform="rotate(0)"><tspan id="SvgjsTspan1101" dy="20" x="94"><tspan id="SvgjsTspan1102" style="text-decoration:;">DefaultChannelPipeline</tspan></tspan></text></g></g><g id="SvgjsG1103" transform="translate(1068.3222069343574,57)"><path id="SvgjsPath1104" d="M 86.33889653282154 30L 86.33889653282154 434" stroke-dasharray="3,4" stroke="rgba(50,50,50,1)" stroke-width="2" fill="none"></path><path id="SvgjsPath1105" d="M 0 0L 172.67779306564307 0L 172.67779306564307 30L 0 30Z" stroke="rgba(50,50,50,1)" stroke-width="2" fill-opacity="1" fill="#ffffff"></path><g id="SvgjsG1106"><text id="SvgjsText1107" font-family="Arial" text-anchor="middle" font-size="16px" width="153px" fill="#323232" font-weight="400" align="middle" anchor="middle" family="Arial" size="16px" weight="400" font-style="" opacity="1" y="2.6" transform="rotate(0)"><tspan id="SvgjsTspan1108" dy="20" x="86.5"><tspan id="SvgjsTspan1109" style="text-decoration:;">AbstractNettyHandler</tspan></tspan></text></g></g><g id="SvgjsG1110" transform="translate(1139.5387543644056,208)"><path id="SvgjsPath1111" d="M 0 4Q 0 0 4 0L 26.244698205546495 0Q 30.244698205546495 0 30.244698205546495 4L 30.244698205546495 49Q 30.244698205546495 53 26.244698205546495 53L 4 53Q 0 53 0 49L 0 4Z" stroke="rgba(0,0,0,1)" stroke-width="2" fill-opacity="1" fill="#ffffff"></path></g><g id="SvgjsG1112"><path id="SvgjsPath1113" d="M530.1961524227066 484L435.10758946612395 484L435.10758946612395 483.5642212862617L340.0190265095413 483.5642212862617" stroke-dasharray="8,5" stroke="#323232" stroke-width="2" fill="none" marker-end="url(#SvgjsMarker1114)"></path></g><g id="SvgjsG1116" transform="translate(924.0220647659416,194)"><path id="SvgjsPath1117" d="M 0 4Q 0 0 4 0L 26.244698205546495 0Q 30.244698205546495 0 30.244698205546495 4L 30.244698205546495 129.5222514411289Q 30.244698205546495 133.5222514411289 26.244698205546495 133.5222514411289L 4 133.5222514411289Q 0 133.5222514411289 0 129.5222514411289L 0 4Z" stroke="rgba(0,0,0,1)" stroke-width="2" fill-opacity="1" fill="#ffffff"></path></g><g id="SvgjsG1118"><path id="SvgjsPath1119" d="M954 209L1047.004385241572 209L1047.004385241572 209.0882711427506L1140.0087704831437 209.0882711427506" stroke="#323232" stroke-width="2" fill="none" marker-end="url(#SvgjsMarker1120)"></path><rect id="SvgjsRect1122" width="110" height="20" x="992.004385241572" y="199.0441355713752" fill="#ffffff"></rect><text id="SvgjsText1123" font-family="Arial" text-anchor="middle" font-size="16px" width="110px" fill="#323232" font-weight="400" align="top" anchor="middle" family="Arial" size="16px" weight="400" font-style="" opacity="1" y="196.6441355713752" transform="rotate(0)"><tspan id="SvgjsTspan1124" dy="20" x="1047.004385241572"><tspan id="SvgjsTspan1125" style="text-decoration:;">channelActive()</tspan></tspan></text></g><g id="SvgjsG1126" transform="translate(1261.3222069343574,57)"><path id="SvgjsPath1127" d="M 98.83889653282154 30L 98.83889653282154 434" stroke-dasharray="3,4" stroke="rgba(50,50,50,1)" stroke-width="2" fill="none"></path><path id="SvgjsPath1128" d="M 0 0L 197.67779306564307 0L 197.67779306564307 30L 0 30Z" stroke="rgba(50,50,50,1)" stroke-width="2" fill-opacity="1" fill="#ffffff"></path><g id="SvgjsG1129"><text id="SvgjsText1130" font-family="Arial" text-anchor="middle" font-size="16px" width="178px" fill="#323232" font-weight="400" align="middle" anchor="middle" family="Arial" size="16px" weight="400" font-style="" opacity="1" y="2.6" transform="rotate(0)"><tspan id="SvgjsTspan1131" dy="20" x="99"><tspan id="SvgjsTspan1132" style="text-decoration:;">Http2ConnectionHandler</tspan></tspan></text></g></g><g id="SvgjsG1133" transform="translate(1345.0387543644056,221)"><path id="SvgjsPath1134" d="M 0 4Q 0 0 4 0L 26.244698205546495 0Q 30.244698205546495 0 30.244698205546495 4L 30.244698205546495 36Q 30.244698205546495 40 26.244698205546495 40L 4 40Q 0 40 0 36L 0 4Z" stroke="rgba(0,0,0,1)" stroke-width="2" fill-opacity="1" fill="#ffffff"></path></g><g id="SvgjsG1135"><path id="SvgjsPath1136" d="M1168 220.0877192982456L1257.4151111077974 220.0877192982456L1257.4151111077974 221.42103798997266L1346.8302222155949 221.42103798997266" stroke="#323232" stroke-width="2" fill="none" marker-end="url(#SvgjsMarker1137)"></path><rect id="SvgjsRect1139" width="110" height="20" x="1202.4151111077974" y="210.75437864410912" fill="#ffffff"></rect><text id="SvgjsText1140" font-family="Arial" text-anchor="middle" font-size="16px" width="110px" fill="#323232" font-weight="400" align="top" anchor="middle" family="Arial" size="16px" weight="400" font-style="" opacity="1" y="208.35437864410912" transform="rotate(0)"><tspan id="SvgjsTspan1141" dy="20" x="1257.4151111077974"><tspan id="SvgjsTspan1142" style="text-decoration:;">channelActive()</tspan></tspan></text></g><g id="SvgjsG1143"><path id="SvgjsPath1144" d="M1345.4641016151377 253L1260.2320508075688 253L1260.2320508075688 253L1175 253" stroke-dasharray="8,5" stroke="#323232" stroke-width="2" fill="none" marker-end="url(#SvgjsMarker1145)"></path></g><g id="SvgjsG1147" transform="translate(1139.5387543644056,274.5222514411289)"><path id="SvgjsPath1148" d="M 0 4Q 0 0 4 0L 26.244698205546495 0Q 30.244698205546495 0 30.244698205546495 4L 30.244698205546495 49Q 30.244698205546495 53 26.244698205546495 53L 4 53Q 0 53 0 49L 0 4Z" stroke="rgba(0,0,0,1)" stroke-width="2" fill-opacity="1" fill="#ffffff"></path></g><g id="SvgjsG1149"><path id="SvgjsPath1150" d="M1139.8284271247462 322.1715728752538L1046.9237268171437 322.1715728752538L1046.9237268171437 321.5642212862617L954.0190265095413 321.5642212862617" stroke-dasharray="8,5" stroke="#323232" stroke-width="2" fill="none" marker-end="url(#SvgjsMarker1151)"></path></g><g id="SvgjsG1153"><path id="SvgjsPath1154" d="M1169 285L1199 285L1199 315L1169 315" stroke="#323232" stroke-width="2" fill="none" marker-end="url(#SvgjsMarker1155)"></path><rect id="SvgjsRect1157" width="221" height="20" x="1088.5" y="290" fill="#ffffff"></rect><text id="SvgjsText1158" font-family="Arial" text-anchor="middle" font-size="16px" width="221px" fill="#323232" font-weight="400" align="top" anchor="middle" family="Arial" size="16px" weight="400" font-style="" opacity="1" y="287.6" transform="rotate(0)"><tspan id="SvgjsTspan1159" dy="20" x="1199"><tspan id="SvgjsTspan1160" style="text-decoration:;">sendInitialConnectionWindow()</tspan></tspan></text></g><g id="SvgjsG1161" transform="translate(924.0220647659416,345)"><path id="SvgjsPath1162" d="M 0 4Q 0 0 4 0L 26.244698205546495 0Q 30.244698205546495 0 30.244698205546495 4L 30.244698205546495 142Q 30.244698205546495 146 26.244698205546495 146L 4 146Q 0 146 0 142L 0 4Z" stroke="rgba(0,0,0,1)" stroke-width="2" fill-opacity="1" fill="#ffffff"></path></g><g id="SvgjsG1163" transform="translate(1475.3222069343574,57)"><path id="SvgjsPath1164" d="M 72.33889653282154 30L 72.33889653282154 434" stroke-dasharray="3,4" stroke="rgba(50,50,50,1)" stroke-width="2" fill="none"></path><path id="SvgjsPath1165" d="M 0 0L 144.67779306564307 0L 144.67779306564307 30L 0 30Z" stroke="rgba(50,50,50,1)" stroke-width="2" fill-opacity="1" fill="#ffffff"></path><g id="SvgjsG1166"><text id="SvgjsText1167" font-family="Arial" text-anchor="middle" font-size="16px" width="125px" fill="#323232" font-weight="400" align="middle" anchor="middle" family="Arial" size="16px" weight="400" font-style="" opacity="1" y="2.6" transform="rotate(0)"><tspan id="SvgjsTspan1168" dy="20" x="72.5"><tspan id="SvgjsTspan1169" style="text-decoration:;">AbstractChannel</tspan></tspan></text></g></g><g id="SvgjsG1170" transform="translate(1532.5387543644056,356.7163778822579)"><path id="SvgjsPath1171" d="M 0 4Q 0 0 4 0L 26.244698205546495 0Q 30.244698205546495 0 30.244698205546495 4L 30.244698205546495 52.283622117742084Q 30.244698205546495 56.283622117742084 26.244698205546495 56.283622117742084L 4 56.283622117742084Q 0 56.283622117742084 0 52.283622117742084L 0 4Z" stroke="rgba(0,0,0,1)" stroke-width="2" fill-opacity="1" fill="#ffffff"></path></g><g id="SvgjsG1172"><path id="SvgjsPath1173" d="M954 360L1243.7404867452294 360L1243.7404867452294 359.624846363585L1533.4809734904588 359.624846363585" stroke="#323232" stroke-width="2" fill="none" marker-end="url(#SvgjsMarker1174)"></path><rect id="SvgjsRect1176" width="135" height="20" x="1176.2404867452294" y="349.8124231817925" fill="#ffffff"></rect><text id="SvgjsText1177" font-family="Arial" text-anchor="middle" font-size="16px" width="135px" fill="#323232" font-weight="400" align="top" anchor="middle" family="Arial" size="16px" weight="400" font-style="" opacity="1" y="347.4124231817925" transform="rotate(0)"><tspan id="SvgjsTspan1178" dy="20" x="1243.7404867452294"><tspan id="SvgjsTspan1179" style="text-decoration:;">readIfIsAutoRead()</tspan></tspan></text></g><g id="SvgjsG1180" transform="translate(1532.5387543644056,436.328125)"><path id="SvgjsPath1181" d="M 0 4Q 0 0 4 0L 26.244698205546495 0Q 30.244698205546495 0 30.244698205546495 4L 30.244698205546495 50.671875Q 30.244698205546495 54.671875 26.244698205546495 54.671875L 4 54.671875Q 0 54.671875 0 50.671875L 0 4Z" stroke="rgba(0,0,0,1)" stroke-width="2" fill-opacity="1" fill="#ffffff"></path></g><g id="SvgjsG1182"><path id="SvgjsPath1183" d="M1562 373.8788550669408L1592 373.8788550669408L1592.0455767409633 404.47905546699917L1562.0455767409633 404.47905546699917" stroke="#323232" stroke-width="2" fill="none" marker-end="url(#SvgjsMarker1184)"></path><rect id="SvgjsRect1186" width="43" height="20" x="1570.5227883704815" y="379.17895526697" fill="#ffffff"></rect><text id="SvgjsText1187" font-family="Arial" text-anchor="middle" font-size="16px" width="43px" fill="#323232" font-weight="400" align="top" anchor="middle" family="Arial" size="16px" weight="400" font-style="" opacity="1" y="376.77895526697" transform="rotate(0)"><tspan id="SvgjsTspan1188" dy="20" x="1592.0227883704815"><tspan id="SvgjsTspan1189" style="text-decoration:;">read()</tspan></tspan></text></g><g id="SvgjsG1190" transform="translate(1642.3222069343578,57)"><path id="SvgjsPath1191" d="M 81.33889653282108 30L 81.33889653282108 434" stroke-dasharray="3,4" stroke="rgba(50,50,50,1)" stroke-width="2" fill="none"></path><path id="SvgjsPath1192" d="M 0 0L 162.67779306564216 0L 162.67779306564216 30L 0 30Z" stroke="rgba(50,50,50,1)" stroke-width="2" fill-opacity="1" fill="#ffffff"></path><g id="SvgjsG1193"><text id="SvgjsText1194" font-family="Arial" text-anchor="middle" font-size="16px" width="143px" fill="#323232" font-weight="400" align="middle" anchor="middle" family="Arial" size="16px" weight="400" font-style="" opacity="1" y="2.6" transform="rotate(0)"><tspan id="SvgjsTspan1195" dy="20" x="81.5"><tspan id="SvgjsTspan1196" style="text-decoration:;">AbstractNioChannel</tspan></tspan></text></g></g><g id="SvgjsG1197" transform="translate(1708.5387543644056,451.328125)"><path id="SvgjsPath1198" d="M 0 4Q 0 0 4 0L 26.244698205546495 0Q 30.244698205546495 0 30.244698205546495 4L 30.244698205546495 35.671875Q 30.244698205546495 39.671875 26.244698205546495 39.671875L 4 39.671875Q 0 39.671875 0 35.671875L 0 4Z" stroke="rgba(0,0,0,1)" stroke-width="2" fill-opacity="1" fill="#ffffff"></path></g><g id="SvgjsG1199"><path id="SvgjsPath1200" d="M1562 454L1635.4866814433212 454L1635.4866814433212 451.91723630054435L1708.9733628866422 451.91723630054435" stroke="#323232" stroke-width="2" fill="none" marker-end="url(#SvgjsMarker1201)"></path><rect id="SvgjsRect1203" width="108" height="20" x="1581.4866814433212" y="442.9586181502723" fill="#ffffff"></rect><text id="SvgjsText1204" font-family="Arial" text-anchor="middle" font-size="16px" width="108px" fill="#323232" font-weight="400" align="top" anchor="middle" family="Arial" size="16px" weight="400" font-style="" opacity="1" y="440.5586181502723" transform="rotate(0)"><tspan id="SvgjsTspan1205" dy="20" x="1635.4866814433212"><tspan id="SvgjsTspan1206" style="text-decoration:;">doBeginRead()</tspan></tspan></text></g><g id="SvgjsG1207" transform="translate(1578.783452569952,274.5222514411289)"><path id="SvgjsPath1208" d="M 0 0L 192.21654743004797 0L 208.21654743004797 16L 208.21654743004797 30.4777485588711L 0 30.4777485588711L 0 0Z" stroke="none" fill-opacity="1" fill="#ffffaa"></path><path id="SvgjsPath1209" d="M 192.21654743004797 0L 192.21654743004797 16L 208.21654743004797 16Z" stroke="none" fill-opacity="1" fill="#cdcdcd"></path><path id="SvgjsPath1210" d="M 0 0L 192.21654743004797 0L 208.21654743004797 16L 208.21654743004797 30.4777485588711L 0 30.4777485588711L 0 0Z" stroke="none" fill="none"></path><g id="SvgjsG1211"><text id="SvgjsText1212" font-family="Arial" text-anchor="middle" font-size="16px" width="189px" fill="#323232" font-weight="400" align="middle" anchor="middle" family="Arial" size="16px" weight="400" font-style="" opacity="1" y="2.8388742794355495" transform="rotate(0)"><tspan id="SvgjsTspan1213" dy="20" x="104.5"><tspan id="SvgjsTspan1214" style="text-decoration:;">set selectionKey as read</tspan></tspan></text></g></g><g id="SvgjsG1215"><path id="SvgjsPath1216" d="M1682.891726284976 305L1716 452" stroke-dasharray="8,5" stroke="#cfcfcf" stroke-width="2" fill="none" marker-end="url(#SvgjsMarker1217)"></path></g><g id="SvgjsG1219"><path id="SvgjsPath1220" d="M1708.5355339059327 486.46446609406723L1562.5358983848623 487" stroke-dasharray="8,5" stroke="#323232" stroke-width="2" fill="none" marker-end="url(#SvgjsMarker1221)"></path></g><g id="SvgjsG1223"><path id="SvgjsPath1224" d="M1532.5980762113534 483.5L952.0603073792141 482.6579798566743" stroke-dasharray="8,5" stroke="#323232" stroke-width="2" fill="none" marker-end="url(#SvgjsMarker1225)"></path></g><g id="SvgjsG1227"><path id="SvgjsPath1228" d="M924.5962666587138 485.1432743418808L832.8361139468263 485.1432743418808L832.8361139468263 485.13175911166536L741.075961234939 485.13175911166536" stroke-dasharray="8,5" stroke="#323232" stroke-width="2" fill="none" marker-end="url(#SvgjsMarker1229)"></path></g><g id="SvgjsG1231"><path id="SvgjsPath1232" d="M711.4995132678058 485.6376888981672L711.4995132678058 486.1547634765186L560.1873844259267 486.1547634765186" stroke-dasharray="8,5" stroke="#323232" stroke-width="2" fill="none" marker-end="url(#SvgjsMarker1233)"></path></g></svg>