<svg id="SvgjsSvg1006" width="1686.65625" height="1122" xmlns="http://www.w3.org/2000/svg" version="1.1" xmlns:xlink="http://www.w3.org/1999/xlink" xmlns:svgjs="http://svgjs.com/svgjs"><defs id="SvgjsDefs1007"><marker id="SvgjsMarker1025" markerWidth="16" markerHeight="12" refX="16" refY="6" viewBox="0 0 16 12" orient="auto" markerUnits="userSpaceOnUse" stroke-dasharray="0,0"><path id="SvgjsPath1026" d="M0,2 L14,6 L0,11 L0,2" fill="#323232" stroke="#323232" stroke-width="2"></path></marker><marker id="SvgjsMarker1040" markerWidth="16" markerHeight="12" refX="16" refY="6" viewBox="0 0 16 12" orient="auto" markerUnits="userSpaceOnUse" stroke-dasharray="0,0"><path id="SvgjsPath1041" d="M0,2 L14,6 L0,11 L0,2" fill="#323232" stroke="#323232" stroke-width="2"></path></marker><marker id="SvgjsMarker1059" markerWidth="16" markerHeight="12" refX="16" refY="6" viewBox="0 0 16 12" orient="auto" markerUnits="userSpaceOnUse" stroke-dasharray="0,0"><path id="SvgjsPath1060" d="M0,2 L14,6 L0,11 L0,2" fill="#323232" stroke="#323232" stroke-width="2"></path></marker><marker id="SvgjsMarker1076" markerWidth="16" markerHeight="12" refX="16" refY="6" viewBox="0 0 16 12" orient="auto" markerUnits="userSpaceOnUse" stroke-dasharray="0,0"><path id="SvgjsPath1077" d="M0,2 L14,6 L0,11 L0,2" fill="#323232" stroke="#323232" stroke-width="2"></path></marker><marker id="SvgjsMarker1093" markerWidth="16" markerHeight="12" refX="16" refY="6" viewBox="0 0 16 12" orient="auto" markerUnits="userSpaceOnUse" stroke-dasharray="0,0"><path id="SvgjsPath1094" d="M0,2 L14,6 L0,11 L0,2" fill="#323232" stroke="#323232" stroke-width="2"></path></marker><marker id="SvgjsMarker1112" markerWidth="16" markerHeight="12" refX="16" refY="6" viewBox="0 0 16 12" orient="auto" markerUnits="userSpaceOnUse" stroke-dasharray="0,0"><path id="SvgjsPath1113" d="M0,2 L14,6 L0,11 L0,2" fill="#323232" stroke="#323232" stroke-width="2"></path></marker><marker id="SvgjsMarker1122" markerWidth="16" markerHeight="12" refX="16" refY="6" viewBox="0 0 16 12" orient="auto" markerUnits="userSpaceOnUse" stroke-dasharray="0,0"><path id="SvgjsPath1123" d="M0,2 L14,6 L0,11 L0,2" fill="#323232" stroke="#323232" stroke-width="2"></path></marker><marker id="SvgjsMarker1130" markerWidth="16" markerHeight="12" refX="16" refY="6" viewBox="0 0 16 12" orient="auto" markerUnits="userSpaceOnUse" stroke-dasharray="0,0"><path id="SvgjsPath1131" d="M0,2 L14,6 L0,11 L0,2" fill="#323232" stroke="#323232" stroke-width="2"></path></marker><marker id="SvgjsMarker1146" markerWidth="16" markerHeight="12" refX="16" refY="6" viewBox="0 0 16 12" orient="auto" markerUnits="userSpaceOnUse" stroke-dasharray="0,0"><path id="SvgjsPath1147" d="M0,2 L14,6 L0,11 L0,2" fill="#323232" stroke="#323232" stroke-width="2"></path></marker><marker id="SvgjsMarker1156" markerWidth="16" markerHeight="12" refX="16" refY="6" viewBox="0 0 16 12" orient="auto" markerUnits="userSpaceOnUse" stroke-dasharray="0,0"><path id="SvgjsPath1157" d="M0,2 L14,6 L0,11 L0,2" fill="#323232" stroke="#323232" stroke-width="2"></path></marker><marker id="SvgjsMarker1173" markerWidth="16" markerHeight="12" refX="16" refY="6" viewBox="0 0 16 12" orient="auto" markerUnits="userSpaceOnUse" stroke-dasharray="0,0"><path id="SvgjsPath1174" d="M0,2 L14,6 L0,11 L0,2" fill="#323232" stroke="#323232" stroke-width="2"></path></marker><marker id="SvgjsMarker1183" markerWidth="16" markerHeight="12" refX="16" refY="6" viewBox="0 0 16 12" orient="auto" markerUnits="userSpaceOnUse" stroke-dasharray="0,0"><path id="SvgjsPath1184" d="M0,2 L14,6 L0,11 L0,2" fill="#323232" stroke="#323232" stroke-width="2"></path></marker><marker id="SvgjsMarker1191" markerWidth="16" markerHeight="12" refX="16" refY="6" viewBox="0 0 16 12" orient="auto" markerUnits="userSpaceOnUse" stroke-dasharray="0,0"><path id="SvgjsPath1192" d="M0,2 L14,6 L0,11 L0,2" fill="#323232" stroke="#323232" stroke-width="2"></path></marker><marker id="SvgjsMarker1201" markerWidth="16" markerHeight="12" refX="16" refY="6" viewBox="0 0 16 12" orient="auto" markerUnits="userSpaceOnUse" stroke-dasharray="0,0"><path id="SvgjsPath1202" d="M0,2 L14,6 L0,11 L0,2" fill="#323232" stroke="#323232" stroke-width="2"></path></marker><marker id="SvgjsMarker1213" markerWidth="16" markerHeight="12" refX="16" refY="6" viewBox="0 0 16 12" orient="auto" markerUnits="userSpaceOnUse" stroke-dasharray="0,0"><path id="SvgjsPath1214" d="M0,2 L14,6 L0,11 L0,2" fill="#323232" stroke="#323232" stroke-width="2"></path></marker><marker id="SvgjsMarker1223" markerWidth="16" markerHeight="12" refX="16" refY="6" viewBox="0 0 16 12" orient="auto" markerUnits="userSpaceOnUse" stroke-dasharray="0,0"><path id="SvgjsPath1224" d="M0,2 L14,6 L0,11 L0,2" fill="#323232" stroke="#323232" stroke-width="2"></path></marker><marker id="SvgjsMarker1242" markerWidth="16" markerHeight="12" refX="16" refY="6" viewBox="0 0 16 12" orient="auto" markerUnits="userSpaceOnUse" stroke-dasharray="0,0"><path id="SvgjsPath1243" d="M0,2 L14,6 L0,11 L0,2" fill="#323232" stroke="#323232" stroke-width="2"></path></marker><marker id="SvgjsMarker1252" markerWidth="16" markerHeight="12" refX="16" refY="6" viewBox="0 0 16 12" orient="auto" markerUnits="userSpaceOnUse" stroke-dasharray="0,0"><path id="SvgjsPath1253" d="M0,2 L14,6 L0,11 L0,2" fill="#323232" stroke="#323232" stroke-width="2"></path></marker><marker id="SvgjsMarker1269" markerWidth="16" markerHeight="12" refX="16" refY="6" viewBox="0 0 16 12" orient="auto" markerUnits="userSpaceOnUse" stroke-dasharray="0,0"><path id="SvgjsPath1270" d="M0,2 L14,6 L0,11 L0,2" fill="#323232" stroke="#323232" stroke-width="2"></path></marker><marker id="SvgjsMarker1277" markerWidth="16" markerHeight="12" refX="16" refY="6" viewBox="0 0 16 12" orient="auto" markerUnits="userSpaceOnUse" stroke-dasharray="0,0"><path id="SvgjsPath1278" d="M0,2 L14,6 L0,11 L0,2" fill="#323232" stroke="#323232" stroke-width="2"></path></marker><marker id="SvgjsMarker1281" markerWidth="16" markerHeight="12" refX="16" refY="6" viewBox="0 0 16 12" orient="auto" markerUnits="userSpaceOnUse" stroke-dasharray="0,0"><path id="SvgjsPath1282" d="M0,2 L14,6 L0,11 L0,2" fill="#323232" stroke="#323232" stroke-width="2"></path></marker><marker id="SvgjsMarker1285" markerWidth="16" markerHeight="12" refX="16" refY="6" viewBox="0 0 16 12" orient="auto" markerUnits="userSpaceOnUse" stroke-dasharray="0,0"><path id="SvgjsPath1286" d="M0,2 L14,6 L0,11 L0,2" fill="#323232" stroke="#323232" stroke-width="2"></path></marker><marker id="SvgjsMarker1289" markerWidth="16" markerHeight="12" refX="16" refY="6" viewBox="0 0 16 12" orient="auto" markerUnits="userSpaceOnUse" stroke-dasharray="0,0"><path id="SvgjsPath1290" d="M0,2 L14,6 L0,11 L0,2" fill="#323232" stroke="#323232" stroke-width="2"></path></marker><marker id="SvgjsMarker1293" markerWidth="16" markerHeight="12" refX="16" refY="6" viewBox="0 0 16 12" orient="auto" markerUnits="userSpaceOnUse" stroke-dasharray="0,0"><path id="SvgjsPath1294" d="M0,2 L14,6 L0,11 L0,2" fill="#323232" stroke="#323232" stroke-width="2"></path></marker><marker id="SvgjsMarker1299" markerWidth="16" markerHeight="12" refX="16" refY="6" viewBox="0 0 16 12" orient="auto" markerUnits="userSpaceOnUse" stroke-dasharray="0,0"><path id="SvgjsPath1300" d="M0,2 L14,6 L0,11 L0,2" fill="#323232" stroke="#323232" stroke-width="2"></path></marker><marker id="SvgjsMarker1303" markerWidth="16" markerHeight="12" refX="16" refY="6" viewBox="0 0 16 12" orient="auto" markerUnits="userSpaceOnUse" stroke-dasharray="0,0"><path id="SvgjsPath1304" d="M0,2 L14,6 L0,11 L0,2" fill="#323232" stroke="#323232" stroke-width="2"></path></marker><marker id="SvgjsMarker1307" markerWidth="16" markerHeight="12" refX="16" refY="6" viewBox="0 0 16 12" orient="auto" markerUnits="userSpaceOnUse" stroke-dasharray="0,0"><path id="SvgjsPath1308" d="M0,2 L14,6 L0,11 L0,2" fill="#323232" stroke="#323232" stroke-width="2"></path></marker><marker id="SvgjsMarker1311" markerWidth="16" markerHeight="12" refX="16" refY="6" viewBox="0 0 16 12" orient="auto" markerUnits="userSpaceOnUse" stroke-dasharray="0,0"><path id="SvgjsPath1312" d="M0,2 L14,6 L0,11 L0,2" fill="#323232" stroke="#323232" stroke-width="2"></path></marker></defs><g id="SvgjsG1008" transform="translate(25,25)"><path id="SvgjsPath1009" d="M 0 4Q 0 0 4 0L 1343 0Q 1347 0 1347 4L 1347 1068Q 1347 1072 1343 1072L 4 1072Q 0 1072 0 1068Z" stroke-dasharray="10,6" stroke="rgba(184,184,184,1)" stroke-width="2" fill-opacity="1" fill="#ffffff"></path><g id="SvgjsG1010"><text id="SvgjsText1011" font-family="微软雅黑" text-anchor="middle" font-size="16px" width="1327px" fill="#b8b8b8" font-weight="400" align="top" anchor="middle" family="微软雅黑" size="16px" weight="400" font-style="" opacity="1" y="-2.4" transform="rotate(0)"><tspan id="SvgjsTspan1012" dy="20" x="673.5"><tspan id="SvgjsTspan1013" style="text-decoration:;">Thread: grpc-default-executor</tspan></tspan></text></g></g><g id="SvgjsG1014" transform="translate(53.32220693435738,55.5)"><path id="SvgjsPath1015" d="M 58.33889653282131 30L 58.33889653282131 982.5" stroke-dasharray="3,4" stroke="rgba(50,50,50,1)" stroke-width="2" fill="none"></path><path id="SvgjsPath1016" d="M 0 0L 116.67779306564262 0L 116.67779306564262 30L 0 30Z" stroke="rgba(50,50,50,1)" stroke-width="2" fill-opacity="1" fill="#ff8000"></path><g id="SvgjsG1017"><text id="SvgjsText1018" font-family="Arial" text-anchor="middle" font-size="16px" width="97px" fill="#323232" font-weight="400" align="middle" anchor="middle" family="Arial" size="16px" weight="400" font-style="" opacity="1" y="2.6" transform="rotate(0)"><tspan id="SvgjsTspan1019" dy="20" x="58.5"><tspan id="SvgjsTspan1020" style="text-decoration:;">GreeterImpl</tspan></tspan></text></g></g><g id="SvgjsG1021" transform="translate(96.53875436440545,119.4453125)"><path id="SvgjsPath1022" d="M 0 4Q 0 0 4 0L 26.244698205546495 0Q 30.244698205546495 0 30.244698205546495 4L 30.244698205546495 944.5546875Q 30.244698205546495 948.5546875 26.244698205546495 948.5546875L 4 948.5546875Q 0 948.5546875 0 944.5546875L 0 4Z" stroke-dasharray="10,6" stroke="rgba(0,0,0,1)" stroke-width="2" fill-opacity="1" fill="#ffffff"></path></g><g id="SvgjsG1023"><path id="SvgjsPath1024" d="M126 138.5229195423713L164 138.5229195423713L164 1050L126 1050" stroke-dasharray="8,5" stroke="#323232" stroke-width="2" fill="none" marker-end="url(#SvgjsMarker1025)"></path><rect id="SvgjsRect1027" width="72" height="20" x="128" y="584.2614597711856" fill="#ffffff"></rect><text id="SvgjsText1028" font-family="Arial" text-anchor="middle" font-size="16px" width="72px" fill="#323232" font-weight="400" align="top" anchor="middle" family="Arial" size="16px" weight="400" font-style="" opacity="1" y="581.8614597711857" transform="rotate(0)"><tspan id="SvgjsTspan1029" dy="20" x="164"><tspan id="SvgjsTspan1030" style="text-decoration:;">sayHello()</tspan></tspan></text></g><g id="SvgjsG1031" transform="translate(212.32220693435738,55.5)"><path id="SvgjsPath1032" d="M 68.83889653282131 30L 68.83889653282131 982.5" stroke-dasharray="3,4" stroke="rgba(50,50,50,1)" stroke-width="2" fill="none"></path><path id="SvgjsPath1033" d="M 0 0L 137.67779306564262 0L 137.67779306564262 30L 0 30Z" stroke="rgba(50,50,50,1)" stroke-width="2" fill-opacity="1" fill="#ffffff"></path><g id="SvgjsG1034"><text id="SvgjsText1035" font-family="Arial" text-anchor="middle" font-size="16px" width="118px" fill="#323232" font-weight="400" align="middle" anchor="middle" family="Arial" size="16px" weight="400" font-style="" opacity="1" y="2.6" transform="rotate(0)"><tspan id="SvgjsTspan1036" dy="20" x="69"><tspan id="SvgjsTspan1037" style="text-decoration:;">StreamObserver</tspan></tspan></text></g></g><g id="SvgjsG1038"><path id="SvgjsPath1039" d="M126 168L196.71892336110994 168L196.71892336110994 167.5357095704442L267.4378467222199 167.5357095704442" stroke="#323232" stroke-width="2" fill="none" marker-end="url(#SvgjsMarker1040)"></path><rect id="SvgjsRect1042" width="61" height="20" x="166.21892336110994" y="157.76785478522208" fill="#ffffff"></rect><text id="SvgjsText1043" font-family="Arial" text-anchor="middle" font-size="16px" width="61px" fill="#323232" font-weight="400" align="top" anchor="middle" family="Arial" size="16px" weight="400" font-style="" opacity="1" y="155.36785478522208" transform="rotate(0)"><tspan id="SvgjsTspan1044" dy="20" x="196.71892336110994"><tspan id="SvgjsTspan1045" style="text-decoration:;">onNext()</tspan></tspan></text></g><g id="SvgjsG1046" transform="translate(266.1611034671787,165.4453125)"><path id="SvgjsPath1047" d="M 0 4Q 0 0 4 0L 26 0Q 30 0 30 4L 30 874.609375Q 30 878.609375 26 878.609375L 4 878.609375Q 0 878.609375 0 874.609375L 0 4Z" stroke="rgba(50,50,50,1)" stroke-width="2" fill-opacity="1" fill="#ffffff"></path></g><g id="SvgjsG1048" transform="translate(393.3222069343574,55.5)"><path id="SvgjsPath1049" d="M 68.83889653282131 30L 68.83889653282131 982.5" stroke-dasharray="3,4" stroke="rgba(50,50,50,1)" stroke-width="2" fill="none"></path><path id="SvgjsPath1050" d="M 0 0L 137.67779306564262 0L 137.67779306564262 30L 0 30Z" stroke="rgba(50,50,50,1)" stroke-width="2" fill-opacity="1" fill="#ffffff"></path><g id="SvgjsG1051"><text id="SvgjsText1052" font-family="Arial" text-anchor="middle" font-size="16px" width="118px" fill="#323232" font-weight="400" align="middle" anchor="middle" family="Arial" size="16px" weight="400" font-style="" opacity="1" y="2.6" transform="rotate(0)"><tspan id="SvgjsTspan1053" dy="20" x="69"><tspan id="SvgjsTspan1054" style="text-decoration:;">ServerCallImpl</tspan></tspan></text></g></g><g id="SvgjsG1055" transform="translate(447.1611034671787,178.4453125)"><path id="SvgjsPath1056" d="M 0 4Q 0 0 4 0L 26 0Q 30 0 30 4L 30 224.5546875Q 30 228.5546875 26 228.5546875L 4 228.5546875Q 0 228.5546875 0 224.5546875L 0 4Z" stroke="rgba(50,50,50,1)" stroke-width="2" fill-opacity="1" fill="#ffffff"></path></g><g id="SvgjsG1057"><path id="SvgjsPath1058" d="M296 183L372.2889241727507 183L372.2889241727507 182.89945139558182L448.57784834550137 182.89945139558182" stroke="#323232" stroke-width="2" fill="none" marker-end="url(#SvgjsMarker1059)"></path><rect id="SvgjsRect1061" width="106" height="20" x="319.2889241727507" y="172.9497256977909" fill="#ffffff"></rect><text id="SvgjsText1062" font-family="Arial" text-anchor="middle" font-size="16px" width="106px" fill="#323232" font-weight="400" align="top" anchor="middle" family="Arial" size="16px" weight="400" font-style="" opacity="1" y="170.5497256977909" transform="rotate(0)"><tspan id="SvgjsTspan1063" dy="20" x="372.2889241727507"><tspan id="SvgjsTspan1064" style="text-decoration:;">sendHeaders()</tspan></tspan></text></g><g id="SvgjsG1065" transform="translate(543.3222069343574,55.5)"><path id="SvgjsPath1066" d="M 82.33889653282131 30L 82.33889653282131 982.5" stroke-dasharray="3,4" stroke="rgba(50,50,50,1)" stroke-width="2" fill="none"></path><path id="SvgjsPath1067" d="M 0 0L 164.67779306564262 0L 164.67779306564262 30L 0 30Z" stroke="rgba(50,50,50,1)" stroke-width="2" fill-opacity="1" fill="#ffffff"></path><g id="SvgjsG1068"><text id="SvgjsText1069" font-family="Arial" text-anchor="middle" font-size="16px" width="145px" fill="#323232" font-weight="400" align="middle" anchor="middle" family="Arial" size="16px" weight="400" font-style="" opacity="1" y="2.6" transform="rotate(0)"><tspan id="SvgjsTspan1070" dy="20" x="82.5"><tspan id="SvgjsTspan1071" style="text-decoration:;">NettyServerStream</tspan></tspan></text></g></g><g id="SvgjsG1072" transform="translate(610.6611034671787,194.4453125)"><path id="SvgjsPath1073" d="M 0 4Q 0 0 4 0L 26 0Q 30 0 30 4L 30 208.5546875Q 30 212.5546875 26 212.5546875L 4 212.5546875Q 0 212.5546875 0 208.5546875L 0 4Z" stroke="rgba(50,50,50,1)" stroke-width="2" fill-opacity="1" fill="#ffffff"></path></g><g id="SvgjsG1074"><path id="SvgjsPath1075" d="M477 198L544.3190778623577 198L544.3190778623577 198.1757020425607L611.6381557247155 198.1757020425607" stroke="#323232" stroke-width="2" fill="none" marker-end="url(#SvgjsMarker1076)"></path><rect id="SvgjsRect1078" width="105" height="20" x="491.81907786235774" y="188.08785102128036" fill="#ffffff"></rect><text id="SvgjsText1079" font-family="Arial" text-anchor="middle" font-size="16px" width="105px" fill="#323232" font-weight="400" align="top" anchor="middle" family="Arial" size="16px" weight="400" font-style="" opacity="1" y="185.68785102128035" transform="rotate(0)"><tspan id="SvgjsTspan1080" dy="20" x="544.3190778623577"><tspan id="SvgjsTspan1081" style="text-decoration:;">writeHeaders()</tspan></tspan></text></g><g id="SvgjsG1082" transform="translate(719.3222069343574,55.5)"><path id="SvgjsPath1083" d="M 53.83889653282131 30L 53.83889653282131 982.5" stroke-dasharray="3,4" stroke="rgba(50,50,50,1)" stroke-width="2" fill="none"></path><path id="SvgjsPath1084" d="M 0 0L 107.67779306564262 0L 107.67779306564262 30L 0 30Z" stroke="rgba(50,50,50,1)" stroke-width="2" fill-opacity="1" fill="#ffffff"></path><g id="SvgjsG1085"><text id="SvgjsText1086" font-family="Arial" text-anchor="middle" font-size="16px" width="88px" fill="#323232" font-weight="400" align="middle" anchor="middle" family="Arial" size="16px" weight="400" font-style="" opacity="1" y="2.6" transform="rotate(0)"><tspan id="SvgjsTspan1087" dy="20" x="54"><tspan id="SvgjsTspan1088" style="text-decoration:;">WriteQueue</tspan></tspan></text></g></g><g id="SvgjsG1089" transform="translate(758.1611034671787,207.4453125)"><path id="SvgjsPath1090" d="M 0 4Q 0 0 4 0L 26 0Q 30 0 30 4L 30 51.5546875Q 30 55.5546875 26 55.5546875L 4 55.5546875Q 0 55.5546875 0 51.5546875L 0 4Z" stroke="rgba(50,50,50,1)" stroke-width="2" fill-opacity="1" fill="#ffffff"></path></g><g id="SvgjsG1091"><path id="SvgjsPath1092" d="M640 210L699.5478801107224 210L699.5478801107224 208.308516954899L759.095760221445 208.308516954899" stroke="#323232" stroke-width="2" fill="none" marker-end="url(#SvgjsMarker1093)"></path><rect id="SvgjsRect1095" width="73" height="20" x="663.0478801107224" y="199.15425847744945" fill="#ffffff"></rect><text id="SvgjsText1096" font-family="Arial" text-anchor="middle" font-size="16px" width="73px" fill="#323232" font-weight="400" align="top" anchor="middle" family="Arial" size="16px" weight="400" font-style="" opacity="1" y="196.75425847744944" transform="rotate(0)"><tspan id="SvgjsTspan1097" dy="20" x="699.5478801107224"><tspan id="SvgjsTspan1098" style="text-decoration:;">enqueue()</tspan></tspan></text></g><g id="SvgjsG1099" transform="translate(758.1611034671787,278.4453125)"><path id="SvgjsPath1100" d="M 0 4Q 0 0 4 0L 26 0Q 30 0 30 4L 30 124.5546875Q 30 128.5546875 26 128.5546875L 4 128.5546875Q 0 128.5546875 0 124.5546875L 0 4Z" stroke="rgba(50,50,50,1)" stroke-width="2" fill-opacity="1" fill="#ffffff"></path></g><g id="SvgjsG1101" transform="translate(845.4999999999999,55.5)"><path id="SvgjsPath1102" d="M 68.00000000000011 30L 68.00000000000011 982.5" stroke-dasharray="3,4" stroke="rgba(50,50,50,1)" stroke-width="2" fill="none"></path><path id="SvgjsPath1103" d="M 0 0L 136.00000000000023 0L 136.00000000000023 30L 0 30Z" stroke="rgba(50,50,50,1)" stroke-width="2" fill-opacity="1" fill="#ffffff"></path><g id="SvgjsG1104"><text id="SvgjsText1105" font-family="Arial" text-anchor="middle" font-size="16px" width="117px" fill="#323232" font-weight="400" align="middle" anchor="middle" family="Arial" size="16px" weight="400" font-style="" opacity="1" y="2.6" transform="rotate(0)"><tspan id="SvgjsTspan1106" dy="20" x="68.5"><tspan id="SvgjsTspan1107" style="text-decoration:;">NioEventLoop</tspan></tspan></text></g></g><g id="SvgjsG1108" transform="translate(898.5,290.4453125)"><path id="SvgjsPath1109" d="M 0 4Q 0 0 4 0L 26 0Q 30 0 30 4L 30 40.5546875Q 30 44.5546875 26 44.5546875L 4 44.5546875Q 0 44.5546875 0 40.5546875L 0 4Z" stroke="rgba(50,50,50,1)" stroke-width="2" fill-opacity="1" fill="#ffffff"></path></g><g id="SvgjsG1110"><path id="SvgjsPath1111" d="M788 293L843.8977774788673 293L843.8977774788673 292.55291427061513L899.7955549577345 292.55291427061513" stroke="#323232" stroke-width="2" fill="none" marker-end="url(#SvgjsMarker1112)"></path><rect id="SvgjsRect1114" width="67" height="20" x="810.3977774788673" y="282.7764571353076" fill="#ffffff"></rect><text id="SvgjsText1115" font-family="Arial" text-anchor="middle" font-size="16px" width="67px" fill="#323232" font-weight="400" align="top" anchor="middle" family="Arial" size="16px" weight="400" font-style="" opacity="1" y="280.37645713530765" transform="rotate(0)"><tspan id="SvgjsTspan1116" dy="20" x="843.8977774788673"><tspan id="SvgjsTspan1117" style="text-decoration:;">execute()</tspan></tspan></text></g><g id="SvgjsG1118" transform="translate(898.5,352.4453125)"><path id="SvgjsPath1119" d="M 0 4Q 0 0 4 0L 26 0Q 30 0 30 4L 30 50.5546875Q 30 54.5546875 26 54.5546875L 4 54.5546875Q 0 54.5546875 0 50.5546875L 0 4Z" stroke="rgba(255,0,0,1)" stroke-width="2" fill-opacity="1" fill="#ffffff"></path></g><g id="SvgjsG1120"><path id="SvgjsPath1121" d="M928 364.1444853585832L958 364.1444853585832L957.0151922469878 395.76738817733684L927.0151922469878 395.76738817733684" stroke="#323232" stroke-width="2" fill="none" marker-end="url(#SvgjsMarker1122)"></path><rect id="SvgjsRect1124" width="70" height="20" x="922.5075961234938" y="369.95593676796" fill="#ffffff"></rect><text id="SvgjsText1125" font-family="Arial" text-anchor="middle" font-size="16px" width="70px" fill="#323232" font-weight="400" align="top" anchor="middle" family="Arial" size="16px" weight="400" font-style="" opacity="1" y="367.55593676796" transform="rotate(0)"><tspan id="SvgjsTspan1126" dy="20" x="957.5075961234938"><tspan id="SvgjsTspan1127" style="text-decoration:;">addTask()</tspan></tspan></text></g><g id="SvgjsG1128"><path id="SvgjsPath1129" d="M788 220L818 220L816 250L786 250" stroke="#323232" stroke-width="2" fill="none" marker-end="url(#SvgjsMarker1130)"></path><rect id="SvgjsRect1132" width="157" height="20" x="738.5" y="225" fill="#ffffff"></rect><text id="SvgjsText1133" font-family="Arial" text-anchor="middle" font-size="16px" width="157px" fill="#323232" font-weight="400" align="top" anchor="middle" family="Arial" size="16px" weight="400" font-style="" opacity="1" y="222.6" transform="rotate(0)"><tspan id="SvgjsTspan1134" dy="20" x="817"><tspan id="SvgjsTspan1135" style="text-decoration:;">queue.add(command)</tspan></tspan></text></g><g id="SvgjsG1136" transform="translate(1410.6611034671787,25)"><path id="SvgjsPath1137" d="M 0 4Q 0 0 4 0L 247 0Q 251 0 251 4L 251 1068Q 251 1072 247 1072L 4 1072Q 0 1072 0 1068Z" stroke-dasharray="10,6" stroke="rgba(184,184,184,1)" stroke-width="2" fill-opacity="1" fill="#ffffff"></path><g id="SvgjsG1138"><text id="SvgjsText1139" font-family="微软雅黑" text-anchor="middle" font-size="16px" width="231px" fill="#b8b8b8" font-weight="400" align="top" anchor="middle" family="微软雅黑" size="16px" weight="400" font-style="" opacity="1" y="-2.4" transform="rotate(0)"><tspan id="SvgjsTspan1140" dy="20" x="125.5"><tspan id="SvgjsTspan1141" style="text-decoration:;">Thread: grpc-nio-worker-ELG</tspan></tspan></text></g></g><g id="SvgjsG1142" transform="translate(447.1611034671787,428.890625)"><path id="SvgjsPath1143" d="M 0 4Q 0 0 4 0L 26 0Q 30 0 30 4L 30 611.1640625Q 30 615.1640625 26 615.1640625L 4 615.1640625Q 0 615.1640625 0 611.1640625L 0 4Z" stroke="rgba(50,50,50,1)" stroke-width="2" fill-opacity="1" fill="#ffffff"></path></g><g id="SvgjsG1144"><path id="SvgjsPath1145" d="M295 434L371.4696155060244 434L371.4696155060244 433.56581003900243L447.9392310120488 433.56581003900243" stroke="#323232" stroke-width="2" fill="none" marker-end="url(#SvgjsMarker1146)"></path><rect id="SvgjsRect1148" width="110" height="20" x="316.4696155060244" y="423.7829050195012" fill="#ffffff"></rect><text id="SvgjsText1149" font-family="Arial" text-anchor="middle" font-size="16px" width="110px" fill="#323232" font-weight="400" align="top" anchor="middle" family="Arial" size="16px" weight="400" font-style="" opacity="1" y="421.3829050195012" transform="rotate(0)"><tspan id="SvgjsTspan1150" dy="20" x="371.4696155060244"><tspan id="SvgjsTspan1151" style="text-decoration:;">sendMessage()</tspan></tspan></text></g><g id="SvgjsG1152" transform="translate(610.6611034671787,445.16796875)"><path id="SvgjsPath1153" d="M 0 4Q 0 0 4 0L 26 0Q 30 0 30 4L 30 152.83203125Q 30 156.83203125 26 156.83203125L 4 156.83203125Q 0 156.83203125 0 152.83203125L 0 4Z" stroke="rgba(50,50,50,1)" stroke-width="2" fill-opacity="1" fill="#ffffff"></path></g><g id="SvgjsG1154"><path id="SvgjsPath1155" d="M477 446L544.21892336111 446L544.21892336111 446.1771470166228L611.4378467222199 446.1771470166228" stroke="#323232" stroke-width="2" fill="none" marker-end="url(#SvgjsMarker1156)"></path><rect id="SvgjsRect1158" width="109" height="20" x="489.71892336111" y="436.08857350831136" fill="#ffffff"></rect><text id="SvgjsText1159" font-family="Arial" text-anchor="middle" font-size="16px" width="109px" fill="#323232" font-weight="400" align="top" anchor="middle" family="Arial" size="16px" weight="400" font-style="" opacity="1" y="433.6885735083114" transform="rotate(0)"><tspan id="SvgjsTspan1160" dy="20" x="544.21892336111"><tspan id="SvgjsTspan1161" style="text-decoration:;">writeMessage()</tspan></tspan></text></g><g id="SvgjsG1162" transform="translate(1013,55.5)"><path id="SvgjsPath1163" d="M 69 30L 69 982.5" stroke-dasharray="3,4" stroke="rgba(50,50,50,1)" stroke-width="2" fill="none"></path><path id="SvgjsPath1164" d="M 0 0L 138 0L 138 30L 0 30Z" stroke="rgba(50,50,50,1)" stroke-width="2" fill-opacity="1" fill="#ffffff"></path><g id="SvgjsG1165"><text id="SvgjsText1166" font-family="Arial" text-anchor="middle" font-size="16px" width="118px" fill="#323232" font-weight="400" align="middle" anchor="middle" family="Arial" size="16px" weight="400" font-style="" opacity="1" y="2.6" transform="rotate(0)"><tspan id="SvgjsTspan1167" dy="20" x="69"><tspan id="SvgjsTspan1168" style="text-decoration:;">MessageFramer</tspan></tspan></text></g></g><g id="SvgjsG1169" transform="translate(1067,461.4453125)"><path id="SvgjsPath1170" d="M 0 4Q 0 0 4 0L 26 0Q 30 0 30 4L 30 55.5546875Q 30 59.5546875 26 59.5546875L 4 59.5546875Q 0 59.5546875 0 55.5546875L 0 4Z" stroke="rgba(50,50,50,1)" stroke-width="2" fill-opacity="1" fill="#ffffff"></path></g><g id="SvgjsG1171"><path id="SvgjsPath1172" d="M640 462.0144277983377L853.8190778623577 462.0144277983377L853.8190778623577 462.1896880775102L1067.6381557247155 462.1896880775102" stroke="#323232" stroke-width="2" fill="none" marker-end="url(#SvgjsMarker1173)"></path><rect id="SvgjsRect1175" width="102" height="20" x="802.8190778623577" y="452.102057937924" fill="#ffffff"></rect><text id="SvgjsText1176" font-family="Arial" text-anchor="middle" font-size="16px" width="102px" fill="#323232" font-weight="400" align="top" anchor="middle" family="Arial" size="16px" weight="400" font-style="" opacity="1" y="449.702057937924" transform="rotate(0)"><tspan id="SvgjsTspan1177" dy="20" x="853.8190778623577"><tspan id="SvgjsTspan1178" style="text-decoration:;">writePayload()</tspan></tspan></text></g><g id="SvgjsG1179" transform="translate(1067,541.16796875)"><path id="SvgjsPath1180" d="M 0 4Q 0 0 4 0L 26 0Q 30 0 30 4L 30 56.83203125Q 30 60.83203125 26 60.83203125L 4 60.83203125Q 0 60.83203125 0 56.83203125L 0 4Z" stroke="rgba(50,50,50,1)" stroke-width="2" fill-opacity="1" fill="#ffffff"></path></g><g id="SvgjsG1181"><path id="SvgjsPath1182" d="M1097 549.3313987473905L1127 549.3313987473905L1127 590.946096033403L1097 590.946096033403" stroke="#323232" stroke-width="2" fill="none" marker-end="url(#SvgjsMarker1183)"></path><rect id="SvgjsRect1185" width="250" height="20" x="1002" y="560.1387473903967" fill="#ffffff"></rect><text id="SvgjsText1186" font-family="Arial" text-anchor="middle" font-size="16px" width="250px" fill="#323232" font-weight="400" align="top" anchor="middle" family="Arial" size="16px" weight="400" font-style="" opacity="1" y="557.7387473903967" transform="rotate(0)"><tspan id="SvgjsTspan1187" dy="20" x="1127"><tspan id="SvgjsTspan1188" style="text-decoration:;">writeKnownLengthUncompressed()</tspan></tspan></text></g><g id="SvgjsG1189"><path id="SvgjsPath1190" d="M1097 475.4710194108864L1127 475.4710194108864L1127 508.58300529387805L1097 508.58300529387805" stroke="#323232" stroke-width="2" fill="none" marker-end="url(#SvgjsMarker1191)"></path><rect id="SvgjsRect1193" width="152" height="20" x="1051" y="482.02701235238226" fill="#ffffff"></rect><text id="SvgjsText1194" font-family="Arial" text-anchor="middle" font-size="16px" width="152px" fill="#323232" font-weight="400" align="top" anchor="middle" family="Arial" size="16px" weight="400" font-style="" opacity="1" y="479.6270123523823" transform="rotate(0)"><tspan id="SvgjsTspan1195" dy="20" x="1127"><tspan id="SvgjsTspan1196" style="text-decoration:;">writeUncompressed()</tspan></tspan></text></g><g id="SvgjsG1197" transform="translate(610.6611034671787,636.4453125)"><path id="SvgjsPath1198" d="M 0 4Q 0 0 4 0L 26 0Q 30 0 30 4L 30 46.5546875Q 30 50.5546875 26 50.5546875L 4 50.5546875Q 0 50.5546875 0 46.5546875L 0 4Z" stroke="rgba(50,50,50,1)" stroke-width="2" fill-opacity="1" fill="#ffffff"></path></g><g id="SvgjsG1199"><path id="SvgjsPath1200" d="M640 647L853.9866814433211 647L853.9866814433211 647.4898872303223L1067.9733628866422 647.4898872303223" stroke="#323232" stroke-width="2" fill="none" marker-end="url(#SvgjsMarker1201)"></path><rect id="SvgjsRect1203" width="44" height="20" x="831.9866814433211" y="637.2449436151612" fill="#ffffff"></rect><text id="SvgjsText1204" font-family="Arial" text-anchor="middle" font-size="16px" width="44px" fill="#323232" font-weight="400" align="top" anchor="middle" family="Arial" size="16px" weight="400" font-style="" opacity="1" y="634.8449436151612" transform="rotate(0)"><tspan id="SvgjsTspan1205" dy="20" x="853.9866814433211"><tspan id="SvgjsTspan1206" style="text-decoration:;">flush()</tspan></tspan></text></g><g id="SvgjsG1207" transform="translate(1067,643.4453125)"><path id="SvgjsPath1208" d="M 0 4Q 0 0 4 0L 26 0Q 30 0 30 4L 30 69.5546875Q 30 73.5546875 26 73.5546875L 4 73.5546875Q 0 73.5546875 0 69.5546875L 0 4Z" stroke="rgba(50,50,50,1)" stroke-width="2" fill-opacity="1" fill="#ffffff"></path></g><g id="SvgjsG1209" transform="translate(610.6611034671787,704.4453125)"><path id="SvgjsPath1210" d="M 0 4Q 0 0 4 0L 26 0Q 30 0 30 4L 30 53.5546875Q 30 57.5546875 26 57.5546875L 4 57.5546875Q 0 57.5546875 0 53.5546875L 0 4Z" stroke="rgba(50,50,50,1)" stroke-width="2" fill-opacity="1" fill="#ffffff"></path></g><g id="SvgjsG1211"><path id="SvgjsPath1212" d="M1067.276608177156 707.6779030008172L853.638304088578 707.6779030008172L853.638304088578 708L640 708" stroke="#323232" stroke-width="2" fill="none" marker-end="url(#SvgjsMarker1213)"></path><rect id="SvgjsRect1215" width="144" height="20" x="781.638304088578" y="697.8389515004086" fill="#ffffff"></rect><text id="SvgjsText1216" font-family="Arial" text-anchor="middle" font-size="16px" width="144px" fill="#323232" font-weight="400" align="top" anchor="middle" family="Arial" size="16px" weight="400" font-style="" opacity="1" y="695.4389515004086" transform="rotate(0)"><tspan id="SvgjsTspan1217" dy="20" x="853.638304088578"><tspan id="SvgjsTspan1218" style="text-decoration:;">writeFrameInternal()</tspan></tspan></text></g><g id="SvgjsG1219" transform="translate(755.6611034671787,752)"><path id="SvgjsPath1220" d="M 0 4Q 0 0 4 0L 26 0Q 30 0 30 4L 30 53.5546875Q 30 57.5546875 26 57.5546875L 4 57.5546875Q 0 57.5546875 0 53.5546875L 0 4Z" stroke="rgba(50,50,50,1)" stroke-width="2" fill-opacity="1" fill="#ffffff"></path></g><g id="SvgjsG1221"><path id="SvgjsPath1222" d="M640.0190265095413 754.5642212862617L697.9190521859496 754.5642212862617L697.9190521859496 755.026060429977L755.8190778623577 755.026060429977" stroke="#323232" stroke-width="2" fill="none" marker-end="url(#SvgjsMarker1223)"></path><rect id="SvgjsRect1225" width="73" height="20" x="661.4190521859496" y="744.7951408581192" fill="#ffffff"></rect><text id="SvgjsText1226" font-family="Arial" text-anchor="middle" font-size="16px" width="73px" fill="#323232" font-weight="400" align="top" anchor="middle" family="Arial" size="16px" weight="400" font-style="" opacity="1" y="742.3951408581192" transform="rotate(0)"><tspan id="SvgjsTspan1227" dy="20" x="697.9190521859496"><tspan id="SvgjsTspan1228" style="text-decoration:;">enqueue()</tspan></tspan></text></g><g id="SvgjsG1229" transform="translate(758.1611034671787,833.5)"><path id="SvgjsPath1230" d="M 0 4Q 0 0 4 0L 26 0Q 30 0 30 4L 30 153.5Q 30 157.5 26 157.5L 4 157.5Q 0 157.5 0 153.5L 0 4Z" stroke="rgba(50,50,50,1)" stroke-width="2" fill-opacity="1" fill="#ffffff"></path></g><g id="SvgjsG1231" transform="translate(1173,55.5)"><path id="SvgjsPath1232" d="M 84 30L 84 982.5" stroke-dasharray="3,4" stroke="rgba(50,50,50,1)" stroke-width="2" fill="none"></path><path id="SvgjsPath1233" d="M 0 0L 168 0L 168 30L 0 30Z" stroke="rgba(50,50,50,1)" stroke-width="2" fill-opacity="1" fill="#ffffff"></path><g id="SvgjsG1234"><text id="SvgjsText1235" font-family="Arial" text-anchor="middle" font-size="16px" width="148px" fill="#323232" font-weight="400" align="middle" anchor="middle" family="Arial" size="16px" weight="400" font-style="" opacity="1" y="2.6" transform="rotate(0)"><tspan id="SvgjsTspan1236" dy="20" x="84"><tspan id="SvgjsTspan1237" style="text-decoration:;">NioEventLoop</tspan></tspan></text></g></g><g id="SvgjsG1238" transform="translate(1242,847.5)"><path id="SvgjsPath1239" d="M 0 4Q 0 0 4 0L 26 0Q 30 0 30 4L 30 53.5546875Q 30 57.5546875 26 57.5546875L 4 57.5546875Q 0 57.5546875 0 53.5546875L 0 4Z" stroke="rgba(50,50,50,1)" stroke-width="2" fill-opacity="1" fill="#ffffff"></path></g><g id="SvgjsG1240"><path id="SvgjsPath1241" d="M788 851.5147058823529L1015.4866814433212 851.5147058823529L1015.4866814433212 851.6100901992336L1242.9733628866422 851.6100901992336" stroke="#323232" stroke-width="2" fill="none" marker-end="url(#SvgjsMarker1242)"></path><rect id="SvgjsRect1244" width="67" height="20" x="981.9866814433212" y="841.5623980407931" fill="#ffffff"></rect><text id="SvgjsText1245" font-family="Arial" text-anchor="middle" font-size="16px" width="67px" fill="#323232" font-weight="400" align="top" anchor="middle" family="Arial" size="16px" weight="400" font-style="" opacity="1" y="839.1623980407932" transform="rotate(0)"><tspan id="SvgjsTspan1246" dy="20" x="1015.4866814433212"><tspan id="SvgjsTspan1247" style="text-decoration:;">execute()</tspan></tspan></text></g><g id="SvgjsG1248" transform="translate(1242,924.5)"><path id="SvgjsPath1249" d="M 0 4Q 0 0 4 0L 26 0Q 30 0 30 4L 30 62.5Q 30 66.5 26 66.5L 4 66.5Q 0 66.5 0 62.5L 0 4Z" stroke="rgba(255,0,0,1)" stroke-width="2" fill-opacity="1" fill="#ffffff"></path></g><g id="SvgjsG1250"><path id="SvgjsPath1251" d="M1272 940L1302 940L1300 975.9163160038008L1270 975.9163160038008" stroke="#323232" stroke-width="2" fill="none" marker-end="url(#SvgjsMarker1252)"></path><rect id="SvgjsRect1254" width="70" height="20" x="1266" y="947.9581580019004" fill="#ffffff"></rect><text id="SvgjsText1255" font-family="Arial" text-anchor="middle" font-size="16px" width="70px" fill="#323232" font-weight="400" align="top" anchor="middle" family="Arial" size="16px" weight="400" font-style="" opacity="1" y="945.5581580019004" transform="rotate(0)"><tspan id="SvgjsTspan1256" dy="20" x="1301"><tspan id="SvgjsTspan1257" style="text-decoration:;">addTask()</tspan></tspan></text></g><g id="SvgjsG1258" transform="translate(1482.3222069343574,55.5)"><path id="SvgjsPath1259" d="M 53.83889653282131 30L 53.83889653282131 988.5546875" stroke-dasharray="3,4" stroke="rgba(50,50,50,1)" stroke-width="2" fill="none"></path><path id="SvgjsPath1260" d="M 0 0L 107.67779306564262 0L 107.67779306564262 30L 0 30Z" stroke="rgba(50,50,50,1)" stroke-width="2" fill-opacity="1" fill="#ffffff"></path><g id="SvgjsG1261"><text id="SvgjsText1262" font-family="Arial" text-anchor="middle" font-size="16px" width="88px" fill="#323232" font-weight="400" align="middle" anchor="middle" family="Arial" size="16px" weight="400" font-style="" opacity="1" y="2.6" transform="rotate(0)"><tspan id="SvgjsTspan1263" dy="20" x="54"><tspan id="SvgjsTspan1264" style="text-decoration:;">WriteQueue</tspan></tspan></text></g></g><g id="SvgjsG1265" transform="translate(1521.1611034671787,986.5)"><path id="SvgjsPath1266" d="M 0 4Q 0 0 4 0L 26 0Q 30 0 30 4L 30 53.5546875Q 30 57.5546875 26 57.5546875L 4 57.5546875Q 0 57.5546875 0 53.5546875L 0 4Z" stroke="rgba(50,50,50,1)" stroke-width="2" fill-opacity="1" fill="#ffffff"></path></g><g id="SvgjsG1267"><path id="SvgjsPath1268" d="M1551 1003L1581 1003L1581.0038053019082 1034.9128442572523L1551.0038053019082 1034.9128442572523" stroke="#323232" stroke-width="2" fill="none" marker-end="url(#SvgjsMarker1269)"></path><rect id="SvgjsRect1271" width="44" height="20" x="1559.001902650954" y="1008.9564221286262" fill="#ffffff"></rect><text id="SvgjsText1272" font-family="Arial" text-anchor="middle" font-size="16px" width="44px" fill="#323232" font-weight="400" align="top" anchor="middle" family="Arial" size="16px" weight="400" font-style="" opacity="1" y="1006.5564221286262" transform="rotate(0)"><tspan id="SvgjsTspan1273" dy="20" x="1581.001902650954"><tspan id="SvgjsTspan1274" style="text-decoration:;">flush()</tspan></tspan></text></g><g id="SvgjsG1275"><path id="SvgjsPath1276" d="M898.8284271247462 402.1715728752538L843.4823619097949 402.1715728752538L843.4823619097949 401.96472381958995L788.1362966948437 401.96472381958995" stroke-dasharray="8,5" stroke="#323232" stroke-width="2" fill="none" marker-end="url(#SvgjsMarker1277)"></path></g><g id="SvgjsG1279"><path id="SvgjsPath1280" d="M758.2139380484327 402.16977778440514L758.2139380484327 402.28989928337165L640.3015368960705 402.28989928337165" stroke-dasharray="8,5" stroke="#323232" stroke-width="2" fill="none" marker-end="url(#SvgjsMarker1281)"></path></g><g id="SvgjsG1283"><path id="SvgjsPath1284" d="M610.8302222155949 401.78606195156726L546.0658795558327 401.78606195156726L546.0658795558327 402.28989928337165L481.3015368960705 402.28989928337165" stroke-dasharray="8,5" stroke="#323232" stroke-width="2" fill="none" marker-end="url(#SvgjsMarker1285)"></path></g><g id="SvgjsG1287"><path id="SvgjsPath1288" d="M1067.5355339059327 596.4644660940672L853.8359153003883 596.4644660940672L853.8359153003883 595.96472381959L640.1362966948437 595.96472381959" stroke-dasharray="8,5" stroke="#323232" stroke-width="2" fill="none" marker-end="url(#SvgjsMarker1289)"></path></g><g id="SvgjsG1291"><path id="SvgjsPath1292" d="M1271.467911113762 988.7144247806269L1396.613340798453 988.7144247806269L1396.613340798453 989.3680805733027L1521.7587704831437 989.3680805733027" stroke="#323232" stroke-width="2" fill="none" marker-end="url(#SvgjsMarker1293)"></path></g><g id="SvgjsG1295" transform="translate(96.66110346717869,148.4453125)"><path id="SvgjsPath1296" d="M 0 4Q 0 0 4 0L 26 0Q 30 0 30 4L 30 891.609375Q 30 895.609375 26 895.609375L 4 895.609375Q 0 895.609375 0 891.609375L 0 4Z" stroke="rgba(50,50,50,1)" stroke-width="2" fill-opacity="1" fill="#ffffff"></path></g><g id="SvgjsG1297"><path id="SvgjsPath1298" d="M266.46410161513774 1036L196.25483917805056 1036L196.25483917805056 1036.4790554669992L126.04557674096338 1036.4790554669992" stroke-dasharray="8,5" stroke="#323232" stroke-width="2" fill="none" marker-end="url(#SvgjsMarker1299)"></path></g><g id="SvgjsG1301"><path id="SvgjsPath1302" d="M447.57784834550137 1036.6058589967204L373.3117125432324 1036.6058589967204L373.3117125432324 1037.4790554669992L299.0455767409634 1037.4790554669992" stroke-dasharray="8,5" stroke="#323232" stroke-width="2" fill="none" marker-end="url(#SvgjsMarker1303)"></path></g><g id="SvgjsG1305"><path id="SvgjsPath1306" d="M1521.5962666587138 1038.1432743418807L999.3361139468265 1038.1432743418807L999.3361139468265 1038.1317591116654L477.075961234939 1038.1317591116654" stroke-dasharray="8,5" stroke="#323232" stroke-width="2" fill="none" marker-end="url(#SvgjsMarker1307)"></path></g><g id="SvgjsG1309"><path id="SvgjsPath1310" d="M1242.298133329357 984.0716371709403L1015.179451158654 984.0716371709403L1015.179451158654 984.3054072893323L788.0607689879512 984.3054072893323" stroke-dasharray="8,5" stroke="#323232" stroke-width="2" fill="none" marker-end="url(#SvgjsMarker1311)"></path></g></svg>